<svg width="25" height="24" viewBox="0 0 25 24" fill="none" xmlns="http://www.w3.org/2000/svg">
<g id="elements">
<g id="Icon">
<path fill-rule="evenodd" clip-rule="evenodd" d="M4.11296 0.671434C4.8083 0.718877 5.40085 0.817697 5.95404 1.04683C7.29442 1.60204 8.3629 2.66041 8.93119 3.99366C9.26785 3.68789 9.65748 3.43913 10.0857 3.26176C10.4959 3.09183 10.9264 3.02261 11.4048 2.98997C11.8686 2.95832 12.4372 2.95833 13.136 2.95833H13.1667C13.6499 2.95833 14.0417 3.35008 14.0417 3.83333V3.86399C14.0417 4.56274 14.0417 5.13138 14.01 5.59516C13.9774 6.07357 13.9082 6.50405 13.7382 6.91431C13.3337 7.89102 12.5577 8.66701 11.581 9.07158C11.1707 9.24151 10.7402 9.31073 10.2618 9.34337C10.0009 9.36117 9.70679 9.36896 9.375 9.37236V13.4583H13.1667C13.6499 13.4583 14.0417 13.8501 14.0417 14.3333C14.0417 14.8166 13.6499 15.2083 13.1667 15.2083H1.5C1.01675 15.2083 0.625 14.8166 0.625 14.3333C0.625 13.8501 1.01675 13.4583 1.5 13.4583H7.625V9.37397C6.94825 9.37134 6.37642 9.36196 5.88704 9.32857C5.1917 9.28112 4.59915 9.1823 4.04596 8.95317C2.6881 8.39072 1.60928 7.3119 1.04683 5.95404C0.817697 5.40085 0.718877 4.8083 0.671434 4.11296C0.624992 3.43229 0.624996 2.59208 0.625 1.53194V1.5C0.625 1.01675 1.01675 0.625 1.5 0.625H1.53194C2.59208 0.624996 3.43229 0.624992 4.11296 0.671434ZM2.3761 2.3761C2.37873 3.03605 2.38757 3.55704 2.41737 3.99383C2.45874 4.60008 2.53753 4.97993 2.66362 5.28434C3.04845 6.21341 3.78659 6.95154 4.71566 7.33638C5.02007 7.46247 5.39992 7.54126 6.00617 7.58263C6.44296 7.61243 6.96395 7.62127 7.6239 7.62389C7.62127 6.96395 7.61243 6.44296 7.58263 6.00617C7.54126 5.39992 7.46247 5.02007 7.33638 4.71566C6.95154 3.78659 6.21341 3.04845 5.28434 2.66362C4.97993 2.53753 4.60008 2.45874 3.99383 2.41737C3.55704 2.38757 3.03605 2.37873 2.3761 2.3761ZM12.2889 4.71112C12.2857 5.01148 12.2788 5.26023 12.2641 5.47603C12.2375 5.86535 12.1883 6.08313 12.1215 6.24461C11.8945 6.79252 11.4592 7.22783 10.9113 7.45479C10.7498 7.52167 10.532 7.57086 10.1427 7.59743C9.9269 7.61215 9.67815 7.61901 9.37779 7.62221C9.38098 7.32185 9.38785 7.0731 9.40257 6.8573C9.42913 6.46799 9.47833 6.2502 9.54521 6.08872C9.77216 5.54081 10.2075 5.1055 10.7554 4.87855C10.9169 4.81166 11.1347 4.76247 11.524 4.73591C11.7398 4.72118 11.9885 4.71432 12.2889 4.71112Z" fill="#067647"/>
<path d="M13.1667 18.7083C13.6499 18.7083 14.0417 18.3166 14.0417 17.8333C14.0417 17.3501 13.6499 16.9583 13.1667 16.9583H1.5C1.01675 16.9583 0.625 17.3501 0.625 17.8333C0.625 18.3166 1.01675 18.7083 1.5 18.7083H13.1667Z" fill="#067647"/>
<path d="M14.0417 21.3333C14.0417 21.8166 13.6499 22.2083 13.1667 22.2083H1.5C1.01675 22.2083 0.625 21.8166 0.625 21.3333C0.625 20.8501 1.01675 20.4583 1.5 20.4583H13.1667C13.6499 20.4583 14.0417 20.8501 14.0417 21.3333Z" fill="#067647"/>
<path fill-rule="evenodd" clip-rule="evenodd" d="M20.1662 7.74121C18.7809 7.74121 17.6579 8.86423 17.6579 10.2495V14.6219C17.6579 14.8725 17.6576 15.0296 17.6511 15.148C17.6469 15.2232 17.641 15.2607 17.6378 15.2766C17.6366 15.2783 17.6341 15.2821 17.6302 15.2885C17.6131 15.3156 17.5677 15.3881 17.4651 15.5279C17.3187 15.7275 17.1068 15.9986 16.8096 16.3789C16.2449 17.1014 15.9079 18.0122 15.9079 18.9995C15.9079 21.3514 17.8144 23.2579 20.1662 23.2579C22.518 23.2579 24.4245 21.3514 24.4245 18.9995C24.4245 18.0122 24.0876 17.1014 23.5228 16.3789C23.2256 15.9986 23.0138 15.7275 22.8673 15.5279C22.7647 15.3881 22.7193 15.3156 22.7022 15.2885C22.6983 15.2821 22.6959 15.2783 22.6946 15.2766C22.6914 15.2607 22.6855 15.2232 22.6813 15.148C22.6748 15.0296 22.6745 14.8725 22.6745 14.6219V10.2495C22.6745 8.86423 21.5515 7.74121 20.1662 7.74121ZM19.1745 10.2495C19.1745 9.70186 19.6185 9.25788 20.1662 9.25788C20.7139 9.25788 21.1579 9.70186 21.1579 10.2495V14.641C21.1579 14.8668 21.1579 15.0663 21.167 15.2316C21.1765 15.4046 21.1979 15.5914 21.2628 15.7799C21.3386 15.9999 21.5028 16.2321 21.6446 16.4253C21.8064 16.6457 22.0326 16.9351 22.3191 17.3017L22.3279 17.3129C22.6916 17.7782 22.9079 18.3625 22.9079 18.9995C22.9079 20.5137 21.6804 21.7412 20.1662 21.7412C18.652 21.7412 17.4245 20.5137 17.4245 18.9995C17.4245 18.3625 17.6409 17.7782 18.0045 17.3129L18.0133 17.3017C18.2999 16.9351 18.5261 16.6457 18.6878 16.4253C18.8296 16.2321 18.9938 15.9999 19.0696 15.7799C19.1345 15.5914 19.1559 15.4046 19.1654 15.2316C19.1746 15.0663 19.1746 14.8668 19.1745 14.6411L19.1745 10.2495Z" fill="#067647"/>
</g>
</g>
</svg>
