<svg width="26" height="24" viewBox="0 0 26 24" fill="none" xmlns="http://www.w3.org/2000/svg">
<g id="elements">
<g id="Icon">
<path d="M10.3333 5.875H16.1667C16.6497 5.875 17.0417 5.483 17.0417 5C17.0417 4.517 16.6497 4.125 16.1667 4.125H10.3333C9.85033 4.125 9.45833 4.517 9.45833 5C9.45833 5.483 9.85033 5.875 10.3333 5.875Z" fill="#067647"/>
<path d="M10.3333 2.375H19.6667C20.1497 2.375 20.5417 1.983 20.5417 1.5C20.5417 1.017 20.1497 0.625 19.6667 0.625H10.3333C9.85033 0.625 9.45833 1.017 9.45833 1.5C9.45833 1.983 9.85033 2.375 10.3333 2.375Z" fill="#067647"/>
<path fill-rule="evenodd" clip-rule="evenodd" d="M19.6667 15.7917C17.898 15.7917 16.4583 14.352 16.4583 12.5833C16.4583 10.8147 17.898 9.375 19.6667 9.375C21.4353 9.375 22.875 10.8147 22.875 12.5833C22.875 14.352 21.4353 15.7917 19.6667 15.7917ZM19.6667 11.125C18.8628 11.125 18.2083 11.7795 18.2083 12.5833C18.2083 13.3872 18.8628 14.0417 19.6667 14.0417C20.4705 14.0417 21.125 13.3872 21.125 12.5833C21.125 11.7795 20.4705 11.125 19.6667 11.125Z" fill="#067647"/>
<path fill-rule="evenodd" clip-rule="evenodd" d="M21.9533 23.3752H17.3799C16.4303 23.3752 15.5635 22.94 14.7293 22.044C14.1495 21.4233 14.0888 20.8179 14.139 20.4189C14.2811 19.3016 15.3947 18.5915 16.132 18.1214L16.1351 18.1194C16.1651 18.1001 16.1943 18.0815 16.2226 18.0636C16.2746 18.0306 16.3235 17.9995 16.3673 17.97C18.3716 16.6272 20.9616 16.6272 22.9648 17.97C23.0214 18.0081 23.0854 18.0487 23.1554 18.093L23.1969 18.1194L23.1986 18.1204C23.9371 18.5906 25.0509 19.2997 25.1931 20.4189C25.2433 20.8167 25.1826 21.4222 24.6028 22.044C23.7686 22.9388 22.9018 23.3752 21.9533 23.3752ZM19.6666 18.705C18.8628 18.705 18.0589 18.9453 17.3414 19.426C17.2766 19.4695 17.2038 19.5163 17.1249 19.5669L17.0755 19.5987L17.0683 19.6033C16.7742 19.7909 15.9143 20.3397 15.875 20.6417C15.8726 20.6638 15.9064 20.742 16.0091 20.8517C16.5084 21.3872 16.9308 21.6263 17.3799 21.6263H21.9533C22.4025 21.6263 22.8248 21.3883 23.3229 20.8528C23.4268 20.742 23.4607 20.665 23.4572 20.6417C23.4186 20.3372 22.5436 19.7807 22.2566 19.5987L22.177 19.5476C22.1099 19.5046 22.0469 19.4642 21.9906 19.4272C21.2743 18.9465 20.4705 18.705 19.6666 18.705Z" fill="#067647"/>
<path fill-rule="evenodd" clip-rule="evenodd" d="M4.50008 17.5417H3.33333C2.07922 17.5417 1.32081 17.5417 0.723486 16.9432C0.125 16.3447 0.125 15.5875 0.125 14.3334V11.4167C0.125 10.1626 0.125 9.40414 0.723486 8.80682C1.32197 8.20833 2.07913 8.20833 3.33325 8.20833H12.6667C13.1497 8.20833 13.5417 8.60033 13.5417 9.08333C13.5417 9.56633 13.1497 9.95833 12.6667 9.95833H7.70833V14.3333C7.70833 15.5874 7.70833 16.3459 7.10985 16.9432C6.51136 17.5417 5.7542 17.5417 4.50008 17.5417ZM3.33333 9.95833C2.74884 9.95833 2.08616 9.95833 1.96016 10.0435C1.875 10.1695 1.875 10.831 1.875 11.4166V14.3333C1.875 14.9178 1.87503 15.5805 1.96136 15.7065C2.08736 15.7917 2.7488 15.7917 3.33329 15.7917H4.5C5.08449 15.7917 5.74717 15.7917 5.87317 15.7065C5.95833 15.5817 5.95833 14.919 5.95833 14.3334V9.95833H3.33333Z" fill="#067647"/>
<path fill-rule="evenodd" clip-rule="evenodd" d="M0.708333 3.83333C0.708333 5.602 2.148 7.04167 3.91667 7.04167C5.68533 7.04167 7.125 5.602 7.125 3.83333C7.125 2.06467 5.68533 0.625 3.91667 0.625C2.148 0.625 0.708333 2.06467 0.708333 3.83333ZM2.45833 3.83333C2.45833 3.0295 3.11283 2.375 3.91667 2.375C4.7205 2.375 5.375 3.0295 5.375 3.83333C5.375 4.63717 4.7205 5.29167 3.91667 5.29167C3.11283 5.29167 2.45833 4.63717 2.45833 3.83333Z" fill="#067647"/>
</g>
</g>
</svg>
