<svg width="24" height="26" viewBox="0 0 24 26" fill="none" xmlns="http://www.w3.org/2000/svg">
<g id="elements">
<g id="Icon">
<path d="M8.44635 3.0016C9.61152 1.94348 11.3882 1.94348 12.5533 3.0016C14.2655 4.55643 16.292 6.81835 17.6007 9.32172C17.8246 9.74998 18.3533 9.91566 18.7815 9.69177C19.2098 9.46789 19.3755 8.93922 19.1516 8.51096C17.7158 5.76453 15.5336 3.34413 13.7298 1.70608C11.8974 0.0419829 9.10231 0.0419826 7.26985 1.70608C5.8626 2.98405 4.13553 4.74799 2.75443 6.77382C1.38104 8.78833 0.291504 11.1467 0.291504 13.595C0.291504 17.6556 3.13407 22.0723 7.9702 23.1857C8.44113 23.2941 8.91078 23.0002 9.0192 22.5293C9.12762 22.0584 8.83374 21.5887 8.36281 21.4803C4.39982 20.568 2.0415 16.9239 2.0415 13.595C2.0415 11.6498 2.9179 9.64074 4.20037 7.75959C5.47513 5.88975 7.09386 4.22983 8.44635 3.0016Z" fill="#067647"/>
<path fill-rule="evenodd" clip-rule="evenodd" d="M17.3916 22.7036C16.1604 22.9614 14.7611 22.8268 13.1872 22.2505C12.526 23.0825 11.8721 24.0287 11.2597 25.1005C11.0199 25.52 10.4854 25.6658 10.0659 25.426C9.64629 25.1863 9.50051 24.6518 9.74027 24.2322C10.4117 23.0573 11.1299 22.0216 11.8563 21.1124C11.1737 19.4572 10.9924 17.984 11.2561 16.6885C11.5436 15.2763 12.3386 14.1803 13.373 13.3569C15.3966 11.7461 18.4132 11.1094 20.8654 10.9777L20.909 10.9753C21.158 10.9618 21.4351 10.9468 21.6742 10.971C21.9699 11.0009 22.3027 11.0972 22.5903 11.3746C22.8816 11.6556 22.9881 11.9893 23.0238 12.2888C23.0522 12.5277 23.0405 12.8045 23.0301 13.0493L23.0282 13.0935C22.9264 15.5233 22.3304 18.5345 20.7294 20.5666C19.9105 21.606 18.8136 22.4059 17.3916 22.7036ZM20.9593 12.7252C21.0949 12.7179 21.2004 12.7123 21.2908 12.7096C21.2891 12.7947 21.285 12.8939 21.2797 13.0202C21.1835 15.3185 20.6161 17.8827 19.3548 19.4836C18.7425 20.2608 17.9835 20.7918 17.0331 20.9907C16.3332 21.1372 15.4765 21.1147 14.4313 20.817C15.7722 19.4015 17.0539 18.432 17.9853 17.811C18.3874 17.543 18.4961 16.9997 18.228 16.5976C17.96 16.1955 17.4167 16.0869 17.0146 16.355C16.0008 17.0308 14.6165 18.0789 13.1715 19.6021C12.8607 18.5739 12.8301 17.7292 12.9709 17.0376C13.1613 16.1024 13.6855 15.3449 14.4629 14.7261C16.0629 13.4525 18.6396 12.8498 20.9593 12.7252Z" fill="#067647"/>
</g>
</g>
</svg>
