<svg width="26" height="26" viewBox="0 0 26 26" fill="none" xmlns="http://www.w3.org/2000/svg">
<g id="elements">
<g id="Icon">
<path d="M18.2855 8.95173C18.6273 8.61002 18.6273 8.056 18.2855 7.71429C17.9438 7.37258 17.3898 7.37258 17.0481 7.71429L13.0002 11.7622L10.7022 9.46427C10.3605 9.12257 9.80645 9.12259 9.46476 9.46431C9.12306 9.80603 9.12308 10.3601 9.4648 10.7017L11.7628 12.9996L11.2148 13.5476C10.8731 13.8893 10.8731 14.4433 11.2148 14.7851C11.5565 15.1268 12.1105 15.1268 12.4522 14.7851L13.0003 14.237L13.548 14.7847C13.8897 15.1264 14.4437 15.1263 14.7854 14.7846C15.1271 14.4429 15.1271 13.8889 14.7854 13.5472L14.2377 12.9996L18.2855 8.95173Z" fill="#067647"/>
<path fill-rule="evenodd" clip-rule="evenodd" d="M13.0002 0.458008C6.07359 0.458008 0.458496 6.0731 0.458496 12.9997C0.458496 19.9262 6.07359 25.5413 13.0002 25.5413C19.9267 25.5413 25.5418 19.9262 25.5418 12.9997C25.5418 6.0731 19.9267 0.458008 13.0002 0.458008ZM2.2085 12.9997C2.2085 7.0396 7.04009 2.20801 13.0002 2.20801C18.9602 2.20801 23.7918 7.0396 23.7918 12.9997C23.7918 18.9597 18.9602 23.7913 13.0002 23.7913C7.04009 23.7913 2.2085 18.9597 2.2085 12.9997Z" fill="#067647"/>
</g>
</g>
</svg>
