<svg width="25" height="26" viewBox="0 0 25 26" fill="none" xmlns="http://www.w3.org/2000/svg">
<g id="elements">
<g id="Icon">
<path fill-rule="evenodd" clip-rule="evenodd" d="M12.3334 0.458625C8.72624 0.458625 5.78402 3.3057 5.63132 6.8753L4.21247 6.8753C3.63673 6.87522 3.10914 6.87515 2.68652 6.93929C2.21733 7.0105 1.72391 7.18112 1.36155 7.64248C1.00795 8.09268 0.944891 8.61024 0.960598 9.08452C0.97525 9.52692 1.06625 10.0699 1.16874 10.6814L2.54385 18.8902C2.77536 20.2723 2.9618 21.3854 3.21417 22.2545C3.47532 23.1538 3.83484 23.8982 4.48022 24.4742C5.13155 25.0555 5.89956 25.3099 6.79775 25.4287C7.65414 25.542 8.72308 25.542 10.0327 25.542L11.7501 25.542C12.2333 25.542 12.6251 25.1502 12.6251 24.667C12.6251 24.1837 12.2333 23.792 11.7501 23.792L10.093 23.792C8.70835 23.792 7.75556 23.7902 7.02728 23.6938C6.32771 23.6013 5.94156 23.4329 5.64549 23.1686C5.34348 22.8991 5.10968 22.5066 4.89475 21.7664C4.77607 21.3577 4.67175 20.8759 4.56286 20.292L11.7501 20.292C12.2333 20.292 12.6251 19.9002 12.6251 19.417C12.6251 18.9337 12.2333 18.542 11.7501 18.542L4.2599 18.542L2.90391 10.4472C2.7894 9.76369 2.71995 9.33787 2.70964 9.02659C2.70481 8.88076 2.71534 8.80048 2.72527 8.75868C2.72979 8.73964 2.73371 8.7307 2.73491 8.72815L2.73693 8.72457L2.74369 8.72107C2.76542 8.7106 2.82309 8.6886 2.9491 8.66948C3.22447 8.62769 3.61636 8.6253 4.27268 8.6253L20.3942 8.6253C21.0505 8.6253 21.4424 8.62769 21.7178 8.66948C21.8438 8.6886 21.9014 8.7106 21.9232 8.72107L21.9299 8.72457L21.9319 8.72815C21.9331 8.7307 21.9371 8.73964 21.9416 8.75868C21.9515 8.80048 21.962 8.88076 21.9572 9.02659C21.9469 9.33787 21.8774 9.76369 21.7629 10.4472L20.9686 15.1891C20.8888 15.6657 21.2104 16.1168 21.687 16.1966C22.1636 16.2765 22.6147 15.9548 22.6946 15.4782L23.4981 10.6814C23.6006 10.0699 23.6916 9.52691 23.7063 9.08452C23.722 8.61024 23.6589 8.09268 23.3053 7.64248C22.9429 7.18112 22.4495 7.0105 21.9803 6.93929C21.5577 6.87515 21.0301 6.87522 20.4544 6.8753L19.0355 6.8753C18.8828 3.3057 15.9406 0.458625 12.3334 0.458625ZM12.3334 2.20863C9.69292 2.20863 7.5345 4.27265 7.38353 6.8753L17.2833 6.8753C17.1324 4.27264 14.9739 2.20863 12.3334 2.20863Z" fill="#067647"/>
<path d="M23.1131 19.663C23.571 19.5085 23.817 19.0121 23.6625 18.5542C23.5081 18.0963 23.0117 17.8503 22.5538 18.0048C21.6865 18.2973 20.8468 18.8597 20.0995 19.4839C19.3438 20.1151 18.6354 20.8496 18.0318 21.5386C17.5259 22.1161 17.0862 22.6704 16.7458 23.1197C16.4127 22.708 16.0818 22.4227 15.7738 22.2271C15.5068 22.0576 15.2664 21.9618 15.072 21.9088C14.9753 21.8825 14.8914 21.8672 14.8228 21.8585C14.7886 21.8542 14.7583 21.8515 14.7321 21.8499C14.7219 21.8492 14.6945 21.8485 14.6777 21.8481L14.6668 21.8478C14.1835 21.8478 13.7918 22.2395 13.7918 22.7228C13.7918 23.1854 14.1509 23.5642 14.6056 23.5956L14.6125 23.5974C14.6413 23.6053 14.7199 23.6309 14.8358 23.7045C15.0647 23.8499 15.4795 24.2087 15.9337 25.0739C16.0772 25.3473 16.3542 25.5248 16.6626 25.541C16.9709 25.5572 17.265 25.4095 17.4363 25.1528L17.4432 25.1425L17.4683 25.1055C17.491 25.0723 17.5253 25.0224 17.5704 24.9579C17.6607 24.8289 17.7939 24.6418 17.9631 24.4135C18.3021 23.956 18.7825 23.3376 19.3482 22.6917C19.9157 22.0439 20.5584 21.3808 21.2213 20.827C21.8926 20.2664 22.5392 19.8566 23.1131 19.663Z" fill="#067647"/>
</g>
</g>
</svg>
