<svg width="26" height="24" viewBox="0 0 26 24" fill="none" xmlns="http://www.w3.org/2000/svg">
<g id="elements">
<g id="Icon">
<path d="M24.5955 1.75105C25.0565 1.60627 25.3129 1.11514 25.1681 0.654092C25.0234 0.193042 24.5322 -0.0633403 24.0712 0.0814454C21.9098 0.760208 20.0202 2.69721 18.7291 4.31676C18.2006 4.97968 17.7513 5.61663 17.4023 6.14253C16.9585 5.5135 16.172 4.70792 15 4.70792C14.5168 4.70792 14.125 5.09967 14.125 5.58292C14.125 6.06617 14.5168 6.45792 15 6.45792C15.3249 6.45792 15.68 6.70734 16.028 7.23278C16.1854 7.47037 16.3064 7.71426 16.3886 7.90225C16.4292 7.99499 16.4589 8.07102 16.4779 8.12178C16.4873 8.14709 16.494 8.16589 16.4979 8.17709L16.5014 8.18742L16.5018 8.18867C16.6101 8.51904 16.9037 8.75408 17.2499 8.78726C17.5967 8.8205 17.9302 8.64477 18.0989 8.33991L18.1 8.33794L18.1056 8.32801L18.1303 8.28445C18.1527 8.24521 18.1868 8.186 18.2321 8.10936C18.3227 7.95602 18.4576 7.73328 18.6316 7.46127C18.9803 6.91622 19.4827 6.17874 20.0974 5.40766C21.3596 3.82451 22.97 2.26151 24.5955 1.75105Z" fill="#067647"/>
<path d="M12.6058 1.20768L12.6667 1.20768C13.1499 1.20768 13.5417 1.59943 13.5417 2.08268C13.5417 2.56593 13.1499 2.95768 12.6667 2.95768C9.89449 2.95768 7.89468 2.95919 6.37103 3.14356C4.86392 3.32592 3.95638 3.67451 3.29389 4.27075C2.6446 4.85512 2.27535 5.63665 2.07897 6.95128C1.87729 8.30136 1.875 10.0804 1.875 12.5827C1.875 15.085 1.87729 16.864 2.07897 18.2141C2.27535 19.5287 2.6446 20.3102 3.29389 20.8946C3.95638 21.4909 4.86392 21.8394 6.37103 22.0218C7.89468 22.2062 9.89449 22.2077 12.6667 22.2077C15.4388 22.2077 17.4387 22.2062 18.9623 22.0218C20.4694 21.8394 21.377 21.4909 22.0394 20.8946C22.6887 20.3102 23.058 19.5287 23.2544 18.2141C23.456 16.864 23.4583 15.085 23.4583 12.5827V7.91696C23.4583 7.43371 23.8501 7.04102 24.3333 7.04102C24.8166 7.04102 25.2083 7.4328 25.2083 7.91605V12.6556C25.2084 15.0686 25.2084 16.9784 24.9852 18.4726C24.7544 20.0173 24.2694 21.242 23.2101 22.1954C22.1641 23.1368 20.8424 23.5571 19.1725 23.7591C17.5315 23.9577 15.4259 23.9577 12.7275 23.9577H12.6058C9.90748 23.9577 7.80183 23.9577 6.16081 23.7591C4.49092 23.5571 3.16925 23.1368 2.1232 22.1954C1.06395 21.242 0.578921 20.0173 0.348172 18.4726C0.124961 16.9784 0.124978 15.0686 0.125 12.6556V12.5098C0.124978 10.0968 0.124961 8.18693 0.348172 6.69273C0.578921 5.14807 1.06395 3.92332 2.1232 2.96999C3.16925 2.02854 4.49092 1.60829 6.16081 1.40623C7.80183 1.20766 9.90749 1.20767 12.6058 1.20768Z" fill="#067647"/>
<path fill-rule="evenodd" clip-rule="evenodd" d="M5.37521 9.66602C5.37521 7.8941 6.81163 6.45768 8.58354 6.45768C10.3555 6.45768 11.7919 7.8941 11.7919 9.66602C11.7919 11.4379 10.3555 12.8743 8.58354 12.8743C6.81163 12.8743 5.37521 11.4379 5.37521 9.66602ZM8.58354 8.20768C7.77813 8.20768 7.12521 8.8606 7.12521 9.66602C7.12521 10.4714 7.77813 11.1243 8.58354 11.1243C9.38896 11.1243 10.0419 10.4714 10.0419 9.66602C10.0419 8.8606 9.38896 8.20768 8.58354 8.20768Z" fill="#067647"/>
<path d="M8.56167 16.3748C7.11408 16.3962 5.81592 17.086 5.29267 18.2037C5.08778 18.6413 4.56689 18.83 4.12922 18.6251C3.69156 18.4203 3.50286 17.8994 3.70775 17.4617C4.59419 15.5682 6.62814 14.6532 8.53584 14.625C10.4542 14.5967 12.5228 15.4612 13.4593 17.4617C13.6642 17.8994 13.4755 18.4203 13.0379 18.6251C12.6002 18.83 12.0793 18.6413 11.8744 18.2037C11.3085 16.9948 9.99862 16.3536 8.56167 16.3748Z" fill="#067647"/>
</g>
</g>
</svg>
