<svg width="19" height="26" viewBox="0 0 19 26" fill="none" xmlns="http://www.w3.org/2000/svg">
<g id="elements">
<g id="Icon">
<path fill-rule="evenodd" clip-rule="evenodd" d="M16.625 9.49527C16.625 9.97827 17.017 10.3703 17.5 10.3703V10.3726C17.983 10.3726 18.375 9.98061 18.375 9.49761V4.82513C18.3738 4.60813 18.2933 4.40978 18.1615 4.25695C18.1242 4.21262 18.0821 4.17295 18.0366 4.13795C17.9725 4.08895 17.9025 4.04808 17.8266 4.01775L9.67867 0.525953C9.45817 0.431453 9.20965 0.431453 8.98915 0.525953L0.822481 4.02595C0.500481 4.16362 0.29167 4.47975 0.29167 4.82975C0.29167 5.17974 0.500481 5.49593 0.822481 5.63359L4.375 7.15613V8.8854C4.37467 8.8953 4.3745 8.90525 4.3745 8.91523V10.0819C4.3745 12.8203 6.59443 15.0402 9.33284 15.0402C12.0712 15.0402 14.2912 12.8203 14.2912 10.0819V8.94035C14.2915 8.93053 14.2917 8.92067 14.2917 8.9108V7.15493L16.625 6.15512V9.49527ZM12.5412 9.55307C11.9527 9.40271 10.8783 9.20247 9.33334 9.20247C7.78873 9.20247 6.71454 9.40262 6.1245 9.55354V10.0819C6.1245 11.8538 7.56092 13.2902 9.33284 13.2902C11.1048 13.2902 12.5412 11.8538 12.5412 10.0819V9.55307ZM12.5417 7.75809C11.802 7.60292 10.7298 7.45361 9.33334 7.45361H9.33562C7.93912 7.45361 6.86695 7.60176 6.12728 7.75809V6.57861C6.12728 6.22861 5.91847 5.91242 5.59647 5.77476L3.38915 4.82861L9.33448 2.28062L15.2798 4.82861L13.0725 5.77476C12.7505 5.91242 12.5417 6.22861 12.5417 6.57861V7.75809Z" fill="#067647"/>
<path fill-rule="evenodd" clip-rule="evenodd" d="M14.7158 17.7426C11.4224 15.6941 7.24422 15.6941 3.95083 17.7426C3.85109 17.8047 3.72561 17.8786 3.58197 17.9632C2.93738 18.3427 1.92719 18.9375 1.2374 19.6429C0.804007 20.086 0.380858 20.6814 0.303872 21.4172C0.22183 22.2012 0.551161 22.9334 1.1961 23.5752C2.27223 24.6462 3.59765 25.5395 5.33246 25.5395H13.3342C15.069 25.5395 16.3944 24.6462 17.4706 23.5752C18.1155 22.9334 18.4448 22.2012 18.3628 21.4172C18.2858 20.6814 17.8627 20.086 17.4293 19.6429C16.7395 18.9375 15.7293 18.3427 15.0847 17.9632C14.9411 17.8786 14.8156 17.8047 14.7158 17.7426ZM4.36459 19.536C4.54307 19.4302 4.71536 19.328 4.87515 19.2286C7.6026 17.5321 11.0641 17.5321 13.7915 19.2286C13.9513 19.328 14.1236 19.4302 14.3021 19.536C14.9462 19.918 15.6708 20.3477 16.1781 20.8665C16.4905 21.1858 16.6046 21.4305 16.6223 21.5993C16.6349 21.7197 16.6162 21.9566 16.2361 22.3348C15.3093 23.2572 14.404 23.7895 13.3342 23.7895H5.33246C4.26269 23.7895 3.35737 23.2572 2.43058 22.3349C2.05048 21.9566 2.03177 21.7197 2.04437 21.5993C2.06203 21.4305 2.17622 21.1858 2.48853 20.8665C2.99585 20.3477 3.72046 19.918 4.36459 19.536Z" fill="#067647"/>
</g>
</g>
</svg>
