<svg width="26" height="26" viewBox="0 0 26 26" fill="none" xmlns="http://www.w3.org/2000/svg">
<g id="elements">
<path id="Icon" fill-rule="evenodd" clip-rule="evenodd" d="M9.23138 1.59469C9.32132 1.30769 9.25757 0.994625 9.06255 0.765663C8.86754 0.536702 8.56861 0.423939 8.27096 0.467063C2.95313 1.23752 1.11929 5.54702 0.832007 7.88288C0.522354 10.4007 2.05029 12.753 4.39113 13.4183C4.62556 16.1723 5.2979 19.2417 6.63584 22.5306C6.27462 23.069 5.92124 23.6341 5.57705 24.2269C5.33441 24.6448 5.47651 25.1803 5.89443 25.4229C6.31235 25.6656 6.84784 25.5235 7.09047 25.1056C8.04749 23.4572 9.07452 22.0449 10.1375 20.8377C11.9752 23.4441 15.486 23.9736 18.3124 22.0555C19.134 21.4978 19.7462 20.719 20.2586 19.9101C20.6217 19.3371 20.9648 18.6969 21.2975 18.0762C21.4264 17.8358 21.5538 17.5981 21.6801 17.3685C22.6218 15.657 23.6202 14.1729 25.353 13.4098C25.6101 13.2966 25.7972 13.0668 25.856 12.7921C25.9148 12.5174 25.8381 12.2312 25.6499 12.0227C23.3165 9.43782 20.6472 8.57935 18.2166 8.6265C15.8233 8.67293 13.7032 9.59345 12.3659 10.5011C9.58088 12.3912 8.28976 16.0816 9.29862 19.1572C8.81052 19.6812 8.32963 20.2427 7.85861 20.8439C6.89788 18.2367 6.37872 15.7984 6.16345 13.584C8.47019 13.3728 10.377 11.5128 10.6745 9.09337C10.7683 8.33046 10.6151 7.61338 10.4009 6.96804C10.2504 6.51485 10.0482 6.04038 9.85914 5.59682C9.78804 5.43001 9.71879 5.26754 9.65487 5.11225C9.16042 3.91095 8.84482 2.82819 9.23138 1.59469ZM11.3779 19.5342C12.9293 18.0278 14.5273 16.916 16.0724 16.1083C16.5007 15.8845 16.6664 15.3558 16.4425 14.9275C16.2187 14.4993 15.69 14.3336 15.2617 14.5575C13.7668 15.3389 12.2425 16.3722 10.7586 17.7161C10.4743 15.609 11.4426 13.2426 13.3486 11.9491C14.4677 11.1896 16.264 10.4147 18.2506 10.3762C19.942 10.3434 21.8028 10.8413 23.5571 12.4044C21.9282 13.4852 20.943 15.0779 20.1469 16.5249C19.9984 16.7947 19.8585 17.0558 19.7229 17.3088C19.4031 17.9055 19.1073 18.4574 18.7803 18.9736C18.3234 19.6949 17.8647 20.2443 17.3297 20.6074C15.1192 22.1076 12.5747 21.5516 11.3779 19.5342ZM6.05267 11.8347C7.49708 11.6747 8.73874 10.4967 8.9376 8.87976C8.98678 8.47992 8.9144 8.04478 8.73999 7.51939C8.61363 7.13874 8.45583 6.76864 8.27882 6.3535C8.2015 6.17215 8.12022 5.98151 8.03659 5.77833C7.64967 4.83829 7.25812 3.72966 7.31417 2.4673C3.98151 3.48911 2.77617 6.41133 2.56892 8.0965C2.38797 9.56782 3.1328 10.8957 4.29503 11.5036C4.27781 10.3436 4.33708 9.25094 4.45256 8.23433C4.5071 7.75417 4.94056 7.40914 5.42072 7.46368C5.90089 7.51822 6.24592 7.95169 6.19137 8.43185C6.07258 9.47759 6.01723 10.6155 6.05267 11.8347Z" fill="#067647"/>
</g>
</svg>
