<svg width="24" height="24" viewBox="0 0 24 24" fill="none" xmlns="http://www.w3.org/2000/svg">
<g id="elements">
<g id="Icon">
<path d="M2.375 1.5C2.375 1.01675 1.98325 0.625 1.5 0.625C1.01675 0.625 0.625 1.01675 0.625 1.5V14.3984C0.62498 16.2681 0.624963 17.7602 0.782302 18.9305C0.944844 20.1394 1.2896 21.1351 2.07726 21.9227C2.86493 22.7104 3.86057 23.0552 5.06955 23.2177C6.23982 23.375 7.73194 23.375 9.60164 23.375H22.5C22.9833 23.375 23.375 22.9832 23.375 22.5C23.375 22.0168 22.9833 21.625 22.5 21.625H9.66667C7.71703 21.625 6.34283 21.6231 5.30273 21.4833C5.11652 21.4583 4.94547 21.4293 4.78775 21.3962C5.02251 20.9275 5.26792 20.3709 5.52032 19.7984C5.57033 19.6849 5.62062 19.5708 5.67116 19.4567C6.05589 18.5878 6.47168 17.6745 6.94208 16.8382C7.4156 15.9963 7.918 15.2813 8.4559 14.7848C8.98618 14.2954 9.49894 14.0637 10.024 14.0637C10.7277 14.0637 11.1898 14.4778 11.9284 15.2318L12.001 15.306C12.6526 15.9734 13.582 16.9253 15.0492 16.9253C16.2912 16.9253 17.1879 16.3823 17.8632 15.643C18.4564 14.9935 18.9069 14.1576 19.2997 13.4285L19.3828 13.2746C20.2828 11.6099 20.9761 10.5417 22.5 10.5417C22.9833 10.5417 23.375 10.1499 23.375 9.66667C23.375 9.18342 22.9833 8.79167 22.5 8.79167C19.8169 8.79167 18.6757 10.9025 17.8508 12.4286L17.7973 12.5275C17.368 13.3221 17.0132 13.9787 16.5711 14.4628C16.1532 14.9203 15.6994 15.1753 15.0492 15.1753C14.3723 15.1753 13.9254 14.7695 13.1786 14.0072L13.1235 13.9509C12.4631 13.2755 11.5226 12.3137 10.024 12.3137C8.92538 12.3137 8.00865 12.8161 7.26895 13.4989C6.53688 14.1746 5.92885 15.0699 5.4168 15.9803C4.90164 16.8962 4.45674 17.877 4.071 18.7482L3.91614 19.0987C3.65996 19.6793 3.43644 20.1858 3.23103 20.5969C2.87142 20.1955 2.64358 19.641 2.5167 18.6973C2.37686 17.6572 2.375 16.283 2.375 14.3333V1.5Z" fill="#067647"/>
<path d="M7.33333 3.54167C7.81658 3.54167 8.20833 3.14992 8.20833 2.66667C8.20833 2.18342 7.81658 1.79167 7.33333 1.79167H6.16667C5.68342 1.79167 5.29167 2.18342 5.29167 2.66667C5.29167 3.14992 5.68342 3.54167 6.16667 3.54167H7.33333Z" fill="#067647"/>
<path d="M11.7083 6.16667C11.7083 6.64992 11.3166 7.04167 10.8333 7.04167H6.16667C5.68342 7.04167 5.29167 6.64992 5.29167 6.16667C5.29167 5.68342 5.68342 5.29167 6.16667 5.29167H10.8333C11.3166 5.29167 11.7083 5.68342 11.7083 6.16667Z" fill="#067647"/>
</g>
</g>
</svg>
