<svg width="25" height="24" viewBox="0 0 25 24" fill="none" xmlns="http://www.w3.org/2000/svg">
<g id="elements">
<g id="Icon">
<path fill-rule="evenodd" clip-rule="evenodd" d="M3.61296 0.671434C4.30831 0.718877 4.90085 0.817697 5.45404 1.04683C6.79442 1.60204 7.8629 2.66041 8.43119 3.99366C8.76785 3.68789 9.15748 3.43913 9.58569 3.26176C9.99595 3.09183 10.4264 3.02261 10.9048 2.98997C11.3686 2.95832 11.9372 2.95833 12.636 2.95833H12.6667C13.1499 2.95833 13.5417 3.35008 13.5417 3.83333V3.86399C13.5417 4.56274 13.5417 5.13138 13.51 5.59516C13.4774 6.07357 13.4082 6.50405 13.2382 6.91431C12.8337 7.89102 12.0577 8.66701 11.081 9.07158C10.6707 9.24151 10.2402 9.31073 9.76182 9.34337C9.5009 9.36117 9.20679 9.36896 8.875 9.37236V13.4583H12.6667C13.1499 13.4583 13.5417 13.8501 13.5417 14.3333C13.5417 14.8166 13.1499 15.2083 12.6667 15.2083H1C0.516751 15.2083 0.125 14.8166 0.125 14.3333C0.125 13.8501 0.516751 13.4583 1 13.4583H7.125V9.37397C6.44825 9.37134 5.87642 9.36196 5.38705 9.32857C4.6917 9.28112 4.09915 9.1823 3.54596 8.95317C2.1881 8.39072 1.10928 7.3119 0.546835 5.95404C0.317697 5.40085 0.218877 4.8083 0.171434 4.11296C0.124992 3.43229 0.124996 2.59208 0.125 1.53194V1.5C0.125 1.01675 0.516751 0.625 1 0.625H1.03194C2.09208 0.624996 2.93229 0.624992 3.61296 0.671434ZM1.8761 2.3761C1.87873 3.03605 1.88757 3.55704 1.91737 3.99383C1.95874 4.60008 2.03753 4.97993 2.16362 5.28434C2.54846 6.21341 3.28659 6.95154 4.21566 7.33638C4.52007 7.46247 4.89992 7.54126 5.50617 7.58263C5.94296 7.61243 6.46395 7.62127 7.1239 7.62389C7.12127 6.96395 7.11243 6.44296 7.08263 6.00617C7.04126 5.39992 6.96247 5.02007 6.83638 4.71566C6.45155 3.78659 5.71341 3.04845 4.78434 2.66362C4.47993 2.53753 4.10008 2.45874 3.49383 2.41737C3.05704 2.38757 2.53605 2.37873 1.8761 2.3761ZM11.7889 4.71112C11.7857 5.01148 11.7788 5.26023 11.7641 5.47603C11.7375 5.86535 11.6883 6.08313 11.6215 6.24461C11.3945 6.79252 10.9592 7.22783 10.4113 7.45479C10.2498 7.52167 10.032 7.57086 9.6427 7.59743C9.4269 7.61215 9.17815 7.61901 8.87779 7.62221C8.88099 7.32185 8.88785 7.0731 8.90257 6.8573C8.92914 6.46799 8.97833 6.2502 9.04521 6.08872C9.27217 5.54081 9.70748 5.1055 10.2554 4.87855C10.4169 4.81166 10.6347 4.76247 11.024 4.73591C11.2398 4.72118 11.4885 4.71432 11.7889 4.71112Z" fill="#067647"/>
<path d="M12.6667 18.7083C13.1499 18.7083 13.5417 18.3166 13.5417 17.8333C13.5417 17.3501 13.1499 16.9583 12.6667 16.9583H1C0.516751 16.9583 0.125 17.3501 0.125 17.8333C0.125 18.3166 0.516751 18.7083 1 18.7083H12.6667Z" fill="#067647"/>
<path d="M13.5417 21.3333C13.5417 21.8166 13.1499 22.2083 12.6667 22.2083H1C0.516751 22.2083 0.125 21.8166 0.125 21.3333C0.125 20.8501 0.516751 20.4583 1 20.4583H12.6667C13.1499 20.4583 13.5417 20.8501 13.5417 21.3333Z" fill="#067647"/>
<path fill-rule="evenodd" clip-rule="evenodd" d="M21.6843 15.2118C20.8766 14.4294 19.6234 14.4294 18.8157 15.2118C18.3573 15.6558 17.7831 16.2794 17.3182 17.0067C16.8595 17.7244 16.4583 18.6192 16.4583 19.5873C16.4583 21.4326 17.884 23.375 20.25 23.375C22.6161 23.375 24.0417 21.4326 24.0417 19.5873C24.0417 18.6192 23.6405 17.7244 23.1818 17.0067C22.7169 16.2794 22.1427 15.6558 21.6843 15.2118ZM20.0333 16.4688C20.1623 16.3437 20.3377 16.3437 20.4668 16.4688C20.8708 16.8602 21.3421 17.3779 21.7072 17.9491C22.0785 18.5299 22.2917 19.091 22.2917 19.5873C22.2917 20.6137 21.5083 21.625 20.25 21.625C18.9917 21.625 18.2083 20.6137 18.2083 19.5873C18.2083 19.091 18.4215 18.5299 18.7928 17.9491C19.1579 17.3779 19.6292 16.8602 20.0333 16.4688Z" fill="#067647"/>
</g>
</g>
</svg>
