<svg width="24" height="26" viewBox="0 0 24 26" fill="none" xmlns="http://www.w3.org/2000/svg">
<g id="elements">
<g id="Icon">
<path d="M17.6668 2.20801C18.7915 2.20801 19.547 2.20987 20.1105 2.28564C20.6489 2.35802 20.8793 2.48311 21.0314 2.63515C21.1834 2.78718 21.3085 3.0176 21.3809 3.55597C21.4566 4.11951 21.4585 4.875 21.4585 5.99968V12.9997C21.4585 14.1244 21.4566 14.8798 21.3809 15.4434C21.3085 15.9818 21.1834 16.2122 21.0314 16.3642C20.8793 16.5162 20.6489 16.6413 20.1105 16.7137C19.547 16.7895 18.7915 16.7913 17.6668 16.7913H9.50016C9.01691 16.7913 8.62516 17.1831 8.62516 17.6663C8.62516 18.1496 9.01691 18.5413 9.50016 18.5413L17.7275 18.5413C18.7757 18.5414 19.6498 18.5414 20.3437 18.4481C21.0761 18.3496 21.7374 18.133 22.2688 17.6016C22.8002 17.0703 23.0168 16.409 23.1153 15.6766C23.2086 14.9827 23.2085 14.1086 23.2085 13.0603V5.93902C23.2085 4.89079 23.2086 4.0167 23.1153 3.32279C23.0168 2.59036 22.8002 1.92909 22.2688 1.39771C21.7374 0.866329 21.0761 0.649714 20.3437 0.551241C19.6498 0.457949 18.7757 0.457976 17.7275 0.458009L1.3335 0.458012C0.850247 0.458012 0.458496 0.849762 0.458496 1.33301C0.458496 1.81626 0.850247 2.20801 1.3335 2.20801H17.6668Z" fill="#067647"/>
<path d="M10.6668 5.70801C10.1836 5.70801 9.79183 6.09976 9.79183 6.58301C9.79183 7.06626 10.1836 7.45801 10.6668 7.45801H17.6668C18.1501 7.45801 18.5418 7.06626 18.5418 6.58301C18.5418 6.09976 18.1501 5.70801 17.6668 5.70801H10.6668Z" fill="#067647"/>
<path fill-rule="evenodd" clip-rule="evenodd" d="M3.61463 10.958L13.0002 10.958C13.4834 10.958 13.8752 11.3498 13.8752 11.833C13.8752 12.3163 13.4834 12.708 13.0002 12.708H6.87517V24.6664C6.87517 25.1496 6.48342 25.5414 6.00017 25.5414C5.51692 25.5414 5.12517 25.1496 5.12517 24.6664V19.708H2.2085V24.6664C2.2085 25.1496 1.81675 25.5414 1.3335 25.5414C0.850255 25.5414 0.458504 25.1496 0.458504 24.6664L0.4585 14.1141C0.458441 13.6092 0.458386 13.1462 0.50902 12.7696C0.564779 12.3549 0.695967 11.9165 1.05649 11.556C1.41702 11.1955 1.85537 11.0643 2.2701 11.0085C2.64671 10.9579 3.10968 10.958 3.61463 10.958ZM5.12517 17.958V12.708H3.66684C3.09213 12.708 2.74912 12.7099 2.50328 12.7429C2.39063 12.7581 2.33421 12.7759 2.3088 12.7864C2.30291 12.7888 2.29904 12.7907 2.29679 12.7919L2.29395 12.7935L2.29234 12.7963C2.29116 12.7986 2.28928 12.8024 2.28686 12.8083C2.2764 12.8337 2.25856 12.8901 2.24342 13.0028C2.21036 13.2486 2.2085 13.5916 2.2085 14.1663V17.958H5.12517Z" fill="#067647"/>
<path fill-rule="evenodd" clip-rule="evenodd" d="M3.66683 3.37468C1.89492 3.37468 0.458496 4.8111 0.458496 6.58301C0.458496 8.35492 1.89492 9.79134 3.66683 9.79134C5.43874 9.79134 6.87516 8.35492 6.87516 6.58301C6.87516 4.8111 5.43874 3.37468 3.66683 3.37468ZM2.2085 6.58301C2.2085 5.77759 2.86141 5.12468 3.66683 5.12468C4.47224 5.12468 5.12516 5.77759 5.12516 6.58301C5.12516 7.38842 4.47224 8.04134 3.66683 8.04134C2.86141 8.04134 2.2085 7.38842 2.2085 6.58301Z" fill="#067647"/>
</g>
</g>
</svg>
