<svg width="21" height="26" viewBox="0 0 21 26" fill="none" xmlns="http://www.w3.org/2000/svg">
<g id="elements">
<g id="Icon">
<path d="M1.03615 1.3694C0.164744 1.29018 0.164701 1.29066 0.164701 1.29066L1.03615 1.3694Z" fill="#067647"/>
<path fill-rule="evenodd" clip-rule="evenodd" d="M7.58213 9.84547C5.84273 10.7622 3.64009 10.489 2.17683 9.02573C0.855716 7.70461 0.391002 5.68577 0.221484 4.16011C0.133992 3.37268 0.119635 2.66143 0.126874 2.14744C0.130504 1.8897 0.139596 1.67965 0.147945 1.53215C0.152122 1.45835 0.156121 1.40007 0.159174 1.35916L0.162952 1.311L0.164132 1.29709L0.164514 1.29275L0.164701 1.29066C0.202943 0.870002 0.537336 0.536142 0.957993 0.4979C0.957993 0.4979 0.956932 0.497996 1.03615 1.3694L0.957993 0.4979L0.959499 0.497766L0.963838 0.497384L0.977748 0.496204L1.02591 0.492426C1.06682 0.489373 1.1251 0.485374 1.1989 0.481197C1.3464 0.472848 1.55644 0.463756 1.81418 0.460126C2.32818 0.452887 3.03943 0.467244 3.82686 0.554736C5.35252 0.724254 7.37136 1.18897 8.69248 2.51009C10.4006 4.21817 10.4871 6.93376 8.95209 8.74394C8.99842 8.81288 9.04959 8.89105 9.10465 8.97824C9.34293 9.35549 9.65546 9.90321 9.96652 10.603C10.5884 12.0021 11.2086 14.0192 11.2086 16.4994C11.2086 16.9827 10.8169 17.3744 10.3336 17.3744C9.85036 17.3744 9.45861 16.9827 9.45861 16.4994C9.45861 14.3138 8.91218 12.5396 8.36737 11.3138C8.09509 10.7013 7.82429 10.2282 7.62506 9.91275C7.61035 9.88945 7.59602 9.86702 7.58213 9.84547ZM1.96078 3.96686C1.8854 3.28842 1.87094 2.66802 1.87622 2.20947C2.33477 2.20419 2.95516 2.21865 3.63361 2.29403C5.07694 2.4544 6.57691 2.86939 7.45504 3.74752C8.57087 4.86335 8.57087 6.67246 7.45504 7.78829C6.33921 8.90412 4.5301 8.90412 3.41427 7.78829C2.53614 6.91016 2.12115 5.41019 1.96078 3.96686Z" fill="#067647"/>
<path d="M16.2908 15.6341C16.7692 15.7024 17.1016 16.1456 17.0332 16.624L16.4311 20.8389C16.3014 21.7472 16.1925 22.5096 16.0274 23.112C15.8524 23.7503 15.5881 24.3156 15.0788 24.7574C14.5694 25.1991 13.9724 25.3808 13.3158 25.4637C12.6961 25.542 11.926 25.542 11.0084 25.5419H9.65897C8.74137 25.542 7.97132 25.542 7.35157 25.4637C6.69494 25.3808 6.09798 25.1991 5.58861 24.7574C5.07923 24.3156 4.81499 23.7503 4.64002 23.112C4.47488 22.5096 4.36601 21.7472 4.23627 20.8389L3.63415 16.624C3.56581 16.1456 3.89822 15.7024 4.37661 15.6341C4.855 15.5657 5.29822 15.8981 5.36656 16.3765L5.96084 20.5365C6.10052 21.5142 6.19529 22.1661 6.32776 22.6494C6.45372 23.1089 6.58667 23.3065 6.73521 23.4353C6.88375 23.5641 7.09818 23.6678 7.57088 23.7275C8.06804 23.7903 8.72674 23.7919 9.7144 23.7919H10.953C11.9406 23.7919 12.5993 23.7903 13.0965 23.7275C13.5692 23.6678 13.7836 23.5641 13.9322 23.4353C14.0807 23.3065 14.2137 23.1089 14.3396 22.6494C14.4721 22.1661 14.5669 21.5142 14.7065 20.5365L15.3008 16.3765C15.3692 15.8981 15.8124 15.5657 16.2908 15.6341Z" fill="#067647"/>
<path d="M20.5076 4.78552C20.5076 4.78552 20.5075 4.78505 19.6361 4.86427L20.5076 4.78552Z" fill="#067647"/>
<path fill-rule="evenodd" clip-rule="evenodd" d="M19.7143 3.99277L19.7129 3.99265L19.7089 3.9923L19.6965 3.99125L19.6542 3.98793C19.6184 3.98526 19.5677 3.98178 19.5037 3.97815C19.3757 3.97091 19.1939 3.96304 18.971 3.95991C18.5267 3.95365 17.9117 3.96604 17.2303 4.04175C15.9167 4.18771 14.1492 4.58959 12.9852 5.75361C11.3942 7.34464 11.3942 9.9242 12.9852 11.5152C14.5762 13.1063 17.1558 13.1063 18.7468 11.5152C19.9108 10.3512 20.3127 8.58371 20.4587 7.27012C20.5344 6.58872 20.5468 5.97368 20.5405 5.5294C20.5374 5.30651 20.5295 5.12469 20.5223 4.9967C20.5186 4.93266 20.5151 4.88196 20.5125 4.84619L20.5092 4.80388L20.5081 4.79146L20.5076 4.78552C20.4693 4.36486 20.135 4.03102 19.7143 3.99277ZM17.4235 5.78105C16.1923 5.91785 14.9437 6.27001 14.2226 6.99105C13.315 7.89866 13.315 9.37018 14.2226 10.2778C15.1302 11.1854 16.6017 11.1854 17.5094 10.2778C18.2304 9.55675 18.5826 8.30812 18.7194 7.07686C18.7768 6.56002 18.7925 6.08253 18.7919 5.70852C18.4179 5.70787 17.9404 5.72362 17.4235 5.78105ZM19.6361 4.86427L19.7143 3.99277C19.7143 3.99277 19.7154 3.99287 19.6361 4.86427Z" fill="#067647"/>
</g>
</g>
</svg>
