<svg width="26" height="26" viewBox="0 0 26 26" fill="none" xmlns="http://www.w3.org/2000/svg">
<g id="elements">
<path id="Icon" fill-rule="evenodd" clip-rule="evenodd" d="M4.29175 11.1944L3.40868 10.7293L3.31652 10.6688C2.6287 10.2178 2.02952 9.82495 1.61431 9.45232C1.17452 9.05763 0.767261 8.53352 0.792897 7.80389C0.818624 7.07169 1.26433 6.57937 1.73331 6.22057C2.17451 5.88303 2.80045 5.54101 3.51707 5.14945L9.12927 2.08231C10.0357 1.58692 10.769 1.18613 11.4017 0.913662C12.0591 0.630536 12.668 0.458008 13.3334 0.458008C13.9989 0.458008 14.6078 0.630536 15.2652 0.913662C15.8978 1.18614 16.6312 1.58692 17.5376 2.08233L23.1498 5.14944C23.8664 5.54101 24.4924 5.88303 24.9336 6.22057C25.4026 6.57937 25.8483 7.07169 25.874 7.80389C25.8996 8.53352 25.4924 9.05763 25.0526 9.45232C24.6374 9.82496 24.0382 10.2178 23.3503 10.6689L23.2582 10.7293L22.3751 11.1944V16.5267C22.3751 19.2881 21.0383 21.8779 18.805 23.3296L17.1717 24.3913C14.8127 25.9247 11.8541 25.9247 9.49517 24.3913L7.86184 23.3296C5.62851 21.8779 4.29175 19.2881 4.29175 16.5267V11.1944ZM9.93186 3.63798C10.8836 3.11784 11.5454 2.75718 12.0939 2.52093C12.6262 2.29167 12.9903 2.20801 13.3334 2.20801C13.6766 2.20801 14.0407 2.29167 14.573 2.52093C15.1215 2.75718 15.7833 3.11784 16.735 3.63798L22.25 6.652C23.0452 7.08658 23.5492 7.36487 23.8702 7.61046C24.0224 7.72686 24.0869 7.80238 24.1128 7.84126C24.1207 7.8531 24.1239 7.85996 24.1249 7.86238L24.1251 7.86534L24.1248 7.86993L24.1231 7.87467C24.1215 7.87861 24.1184 7.88532 24.113 7.89499C24.0887 7.93815 24.0281 8.02037 23.8837 8.14991C23.5843 8.41858 23.1103 8.73344 22.3685 9.21997L21.4113 9.72417C19.0526 9.02394 16.2843 8.62467 13.3334 8.62467C10.3826 8.62467 7.61427 9.02393 5.25559 9.72416L4.29835 9.21997C3.55663 8.73344 3.08254 8.41858 2.78316 8.14991C2.63882 8.02036 2.5782 7.93815 2.5539 7.89499C2.54845 7.88532 2.54541 7.87861 2.5438 7.87467C2.54254 7.87158 2.54182 7.86916 2.54182 7.86916L2.54182 7.86534L2.54199 7.86239C2.543 7.85996 2.54621 7.8531 2.55408 7.84127C2.57994 7.80238 2.64451 7.72686 2.79666 7.61046C3.11768 7.36487 3.62166 7.08658 4.41685 6.652L9.93186 3.63798ZM6.04175 11.3185V13.5892C8.22036 13.0249 10.7045 12.708 13.3334 12.708C15.9624 12.708 18.4465 13.0249 20.6251 13.5892V11.3185C18.5052 10.722 16.0114 10.3747 13.3334 10.3747C10.6554 10.3747 8.1616 10.722 6.04175 11.3185ZM13.3334 14.458C16.0114 14.458 18.5052 14.8053 20.6251 15.4018V16.5267C20.6251 18.7378 19.5537 20.7558 17.8512 21.8624L16.2179 22.9241C14.4389 24.0804 12.2279 24.0804 10.4489 22.9241L8.81558 21.8624C7.11316 20.7558 6.04175 18.7378 6.04175 16.5267V15.4018C8.1616 14.8053 10.6554 14.458 13.3334 14.458Z" fill="#067647"/>
</g>
</svg>
