<svg width="29" height="28" viewBox="0 0 29 28" fill="none" xmlns="http://www.w3.org/2000/svg">
<g id="plant-01">
<path id="Icon" d="M4.35381 13.2122C5.44815 14.3077 6.90764 14.8677 8.37414 14.8677C9.24201 14.8677 10.1118 14.6716 10.9087 14.2735C12.2039 16.7136 13.4554 20.1879 13.4554 24.4997C13.4554 24.9725 13.831 25.3581 14.2998 25.3742C14.3103 25.3746 14.3208 25.3748 14.3313 25.3748V25.3736C14.8143 25.3736 15.2063 24.9816 15.2063 24.4986C15.2063 16.9258 21.7361 12.4481 21.8178 12.3933C22.2191 12.1249 22.3277 11.5813 22.0593 11.18C21.791 10.7775 21.2484 10.6689 20.8459 10.9373C20.7797 10.9815 19.4307 11.8897 17.899 13.589C17.2555 12.3142 17.4733 10.7301 18.5342 9.66914C19.6472 8.55614 21.5467 8.13383 22.9443 7.97516C23.8018 7.87716 24.5812 7.86548 25.1213 7.87598C25.1307 8.41615 25.1189 9.19664 25.0221 10.053C24.8646 11.4518 24.4412 13.3511 23.3282 14.4641C22.6585 15.1338 21.7357 15.4955 20.786 15.4546H20.7486C20.282 15.4546 19.8946 15.8221 19.8748 16.2923C19.8538 16.7753 20.2283 17.1825 20.7113 17.2035C20.7836 17.207 20.856 17.2082 20.9283 17.2082V17.207C22.2875 17.207 23.6023 16.6645 24.5648 15.7008C27.3368 12.93 26.8515 7.20281 26.8293 6.96014C26.7908 6.53897 26.4583 6.2065 26.0371 6.168C25.7956 6.147 20.0673 5.66049 17.2965 8.43249C15.5018 10.2271 15.2983 13.0066 16.7239 15.0235C15.8058 16.2619 15.0741 17.5694 14.5378 18.9215C13.9242 16.4079 12.9725 14.3225 12.0506 12.724C12.0226 12.6533 11.9849 12.5852 11.9372 12.5215C11.9308 12.5129 11.9242 12.5044 11.9175 12.4961C11.8006 12.2987 11.6846 12.1092 11.57 11.9277C9.76754 9.07291 7.96621 7.55624 7.89037 7.49324C7.51937 7.18524 6.96873 7.2354 6.65956 7.60524C6.3504 7.97507 6.39939 8.52691 6.76922 8.83724C6.76922 8.83724 6.77144 8.8392 6.77447 8.84183C6.87752 8.93122 8.4462 10.2919 10.0235 12.7573C8.55968 13.4375 6.76842 13.1544 5.59049 11.9755C4.31532 10.7015 3.83348 8.53734 3.65381 6.94601C3.53831 5.92167 3.53013 4.99418 3.54529 4.38168C4.15896 4.36651 5.08529 4.37467 6.10962 4.49017C7.70096 4.66984 9.86519 5.15285 11.1404 6.42801C12.0165 7.30301 12.4295 8.55949 12.2452 9.78682C12.1728 10.2652 12.5018 10.7108 12.9801 10.782C13.4573 10.8543 13.903 10.5254 13.9753 10.047C14.2425 8.27135 13.644 6.456 12.377 5.19017C9.29581 2.10667 2.90251 2.65033 2.63184 2.67483C2.21067 2.71333 1.87817 3.047 1.83967 3.467C1.814 3.73767 1.27148 10.131 4.35381 13.2122Z" fill="#067647"/>
</g>
</svg>
