<svg width="26" height="26" viewBox="0 0 26 26" fill="none" xmlns="http://www.w3.org/2000/svg">
<g id="elements">
<g id="Icon">
<path d="M15.8418 0.475893C15.3684 0.379152 14.9061 0.684549 14.8094 1.15802C14.7126 1.63148 15.018 2.09373 15.4915 2.19047C19.3026 2.96916 22.4171 5.69704 23.7574 9.29941L22.4453 8.70323C22.0053 8.50332 21.4866 8.69792 21.2867 9.13788C21.0868 9.57784 21.2814 10.0966 21.7214 10.2965L23.9443 11.3065L23.996 11.3274C24.1438 11.3871 24.3381 11.4656 24.5113 11.5056C24.7096 11.5514 25.1493 11.6105 25.5256 11.2704C25.8936 10.9378 25.8892 10.5061 25.8656 10.2988C25.8456 10.1232 25.7897 9.92345 25.748 9.77398L25.7383 9.73923C24.4387 5.0674 20.6202 1.45222 15.8418 0.475893Z" fill="#067647"/>
<path d="M9.03672 3.88788L9.63291 2.57578C6.03053 3.91607 3.30265 7.03062 2.52396 10.8417C2.42722 11.3151 1.96498 11.6205 1.49151 11.5238C1.01805 11.4271 0.712648 10.9648 0.809389 10.4913C1.78571 5.71302 5.4009 1.89452 10.0727 0.594918L10.1075 0.585217C10.2569 0.543443 10.4567 0.487619 10.6323 0.467629C10.8395 0.444033 11.2713 0.439584 11.6039 0.807558C11.944 1.18387 11.8849 1.62355 11.8391 1.82193C11.7991 1.99504 11.7206 2.18939 11.6609 2.33712L11.64 2.38888L10.63 4.61181C10.4301 5.05177 9.91134 5.24638 9.47138 5.04647C9.03141 4.84656 8.83681 4.32784 9.03672 3.88788Z" fill="#067647"/>
<path d="M25.8573 15.5083C25.954 15.0349 25.6486 14.5726 25.1752 14.4759C24.7017 14.3792 24.2395 14.6845 24.1427 15.158C23.364 18.9691 20.6361 22.0836 17.0338 23.4239L17.63 22.1118C17.8299 21.6719 17.6353 21.1531 17.1953 20.9532C16.7553 20.7533 16.2366 20.9479 16.0367 21.3879L15.0267 23.6108L15.0058 23.6626C14.9461 23.8103 14.8676 24.0047 14.8276 24.1778C14.7818 24.3761 14.7227 24.8158 15.0628 25.1921C15.3954 25.5601 15.8271 25.5557 16.0344 25.5321C16.21 25.5121 16.4097 25.4563 16.5592 25.4145L16.594 25.4048C21.2658 24.1052 24.881 20.2867 25.8573 15.5083Z" fill="#067647"/>
<path d="M2.67066 14.6723C2.52292 14.6126 2.32855 14.5341 2.15542 14.4941C1.95705 14.4483 1.51737 14.3892 1.14105 14.7293C0.773079 15.0619 0.77753 15.4936 0.801125 15.7009C0.821116 15.8765 0.876939 16.0762 0.918713 16.2257L0.928414 16.2605C2.22801 20.9323 6.04652 24.5475 10.8248 25.5238C11.2983 25.6205 11.7606 25.3151 11.8573 24.8417C11.954 24.3682 11.6486 23.906 11.1752 23.8092C7.36411 23.0305 4.24956 20.3027 2.90928 16.7003L4.22138 17.2965C4.66134 17.4964 5.18006 17.3018 5.37996 16.8618C5.57987 16.4218 5.38527 15.9031 4.94531 15.7032L2.72238 14.6932L2.67066 14.6723Z" fill="#067647"/>
<path fill-rule="evenodd" clip-rule="evenodd" d="M13.855 16.8531C12.913 17.0695 11.8619 16.9807 10.7037 16.5729C10.4589 17.1401 10.2534 17.7615 10.1046 18.4378C10.0007 18.9098 9.53393 19.2082 9.06197 19.1043C8.59001 19.0005 8.29161 18.5337 8.39547 18.0617C8.61035 17.0853 8.9271 16.2035 9.30936 15.4151C8.7842 14.0609 8.63678 12.845 8.83229 11.7664C9.04807 10.5758 9.66617 9.63891 10.4846 8.92946C12.0794 7.54704 14.457 7.00058 16.3917 6.89125L16.4303 6.88905C16.6189 6.87823 16.8524 6.86483 17.0578 6.88671C17.3252 6.91519 17.6342 7.00928 17.897 7.27585C18.1582 7.54086 18.2476 7.84922 18.277 8.10892C18.3002 8.31419 18.2907 8.54975 18.2827 8.74734L18.2811 8.78593C18.2021 10.7705 17.769 13.2821 16.5305 14.9984C15.8934 15.8812 15.0181 16.5859 13.855 16.8531ZM16.4905 8.63847L16.5357 8.63592L16.5325 8.7163C16.4575 10.6003 16.0424 12.6842 15.1114 13.9743C14.6637 14.5946 14.1238 14.9958 13.4631 15.1476C12.9702 15.2608 12.3447 15.2502 11.5541 15.0107C12.2653 13.9497 13.0944 13.1734 13.8282 12.6701C14.2267 12.3968 14.3282 11.8522 14.0548 11.4536C13.7815 11.0551 13.2369 10.9536 12.8383 11.227C12.0936 11.7377 11.2885 12.4619 10.5564 13.4048C10.4768 12.8975 10.4854 12.4581 10.5542 12.0785C10.6889 11.3357 11.0685 10.7393 11.6309 10.2518C12.7977 9.2404 14.7138 8.73886 16.4905 8.63847Z" fill="#067647"/>
</g>
</g>
</svg>
