<svg width="21" height="20" viewBox="0 0 21 20" fill="none" xmlns="http://www.w3.org/2000/svg">
<g id="Group">
<path id="Vector" d="M18.7865 12.0702C16.2965 12.1102 14.0665 12.9602 11.9465 14.1902C11.2265 14.6102 10.5265 15.0602 9.87654 15.5902C9.64654 15.7802 9.48654 15.8002 9.33654 15.4802C9.19654 15.1902 9.01654 14.9102 8.83654 14.6402C8.38654 14.0002 7.88654 13.4302 7.16654 13.0702C6.17654 12.5702 5.10654 12.5302 4.02654 12.4602C2.99654 12.3902 1.92654 12.5402 0.956543 11.9502C1.00654 12.4702 1.18654 12.9002 1.36654 13.3402C1.89654 14.6402 2.81654 15.5302 4.15654 15.9802C5.10654 16.3102 6.10654 16.3002 7.08654 16.4202C7.28654 16.4402 7.28654 16.3502 7.24654 16.2102C6.90654 15.0002 6.27654 14.0002 4.79654 13.6202C4.24654 13.4802 3.68654 13.4202 3.10654 13.3702C3.24654 13.2902 3.37654 13.2302 3.51654 13.2002C5.05654 12.9302 6.95654 13.9402 7.64654 15.3602C8.06654 16.2202 8.30654 17.1202 8.50654 18.0402C8.59654 18.4802 8.69654 18.9202 8.79654 19.3602C8.82654 19.3802 8.85654 19.4002 8.88654 19.4202C8.96654 19.3002 9.04654 19.1802 9.13654 19.0702C10.6065 17.4902 12.2065 16.0802 14.0165 14.9002C15.1165 14.1802 16.2665 13.5402 17.4865 13.0502C18.3765 12.6902 19.3265 12.5502 20.2465 12.2802C19.7665 12.1202 19.2665 12.0402 18.7565 12.0402L18.7865 12.0702Z" fill="#067647"/>
<path id="Vector_2" d="M5.32643 10.8505C5.94643 11.6205 6.70643 12.1605 7.73643 12.2105C8.31643 12.2405 8.44643 12.0405 8.22643 11.4905C7.97643 10.8605 7.52643 10.3805 7.07643 9.89047C6.75643 9.54047 6.45643 9.17047 6.22643 8.90047C6.63643 8.93047 7.82643 9.80047 8.57643 10.7505C8.52643 10.1405 8.52643 9.59047 8.34643 9.07047C7.95643 7.98047 7.31643 7.15047 6.15643 6.81047C5.59643 6.65047 5.02643 6.57047 4.47643 6.37047C4.07643 6.22047 3.74643 5.97047 3.33643 5.73047C3.48643 6.53047 3.65643 7.26047 3.88643 7.97047C4.21643 9.01047 4.64643 10.0005 5.33643 10.8605L5.32643 10.8505Z" fill="#067647"/>
<path id="Vector_3" d="M12.9464 11.8001C11.8064 11.8801 10.8164 12.2601 10.0264 13.1201C9.64642 13.5401 9.63642 13.5401 9.88642 14.0401C9.97642 14.2101 10.0564 14.3901 10.1264 14.5601C10.2064 14.7901 10.3364 14.8301 10.5364 14.6901C11.2564 14.1601 12.0464 13.7601 12.8064 13.2901C13.3964 12.9201 13.9864 12.5501 14.6664 12.3401C15.0064 12.2401 15.3264 12.0801 15.6564 11.9401C14.7464 11.8001 13.8564 11.7301 12.9464 11.7901V11.8001Z" fill="#067647"/>
<path id="Vector_4" d="M9.02666 10.3698C9.02666 10.4698 8.97666 10.5998 9.07666 10.7098C9.60666 9.82984 10.4067 9.31984 11.2667 8.86984C11.3867 8.78984 11.5167 8.71984 11.6967 8.60984C11.5667 8.77984 11.4767 8.86984 11.4067 8.92984C11.2767 9.05984 11.1467 9.17984 11.0267 9.30984C10.4567 9.90984 9.84666 10.4798 9.46666 11.2398C9.33666 11.4998 9.14666 11.8198 9.36666 12.0898C9.54666 12.3198 9.86666 12.2098 10.1167 12.1698C11.1467 12.0198 11.8667 11.3798 12.4267 10.5598C13.4467 9.07984 13.8567 7.38984 14.1567 5.58984C13.4867 6.12984 12.7767 6.41984 11.9967 6.56984C11.4567 6.67984 10.9267 6.84984 10.4667 7.18984C9.40666 7.98984 9.07666 9.10984 9.02666 10.3698Z" fill="#067647"/>
<path id="Vector_5" d="M8.09647 6.86022C8.92647 7.10022 9.80646 6.82022 10.2165 6.16022C10.6165 5.53022 10.5165 4.83022 10.3565 4.16022C10.0665 2.92022 9.46646 1.80022 8.83646 0.700216C8.72646 0.500216 8.63646 0.520216 8.52646 0.700216C8.22646 1.18022 7.94646 1.67022 7.70646 2.18022C7.29646 3.08022 6.90646 3.99022 6.87646 5.00022C6.87646 5.07022 6.87646 5.14022 6.87646 5.22022C6.89646 6.07022 7.31646 6.64022 8.08646 6.86022H8.09647ZM7.28646 4.95022C7.63646 5.64022 8.10646 6.13022 8.87646 6.36022C7.82646 6.66022 7.11646 6.03022 7.28646 4.95022Z" fill="#067647"/>
</g>
</svg>
