<svg width="29" height="28" viewBox="0 0 29 28" fill="none" xmlns="http://www.w3.org/2000/svg">
<g id="green-house">
<path id="Icon" d="M12.5155 26.5436C10.9359 26.5436 8.98753 26.4316 8.11369 24.9826C7.49419 23.9547 7.11037 22.2946 8.79854 20.2249C8.99804 19.9799 9.21619 19.7407 9.44835 19.5062C8.77869 18.105 8.80672 16.4064 9.59772 14.9003C10.5637 12.9776 12.3125 12.3393 13.7184 11.8272C14.8197 11.4258 15.7706 11.0794 16.2279 10.2546C16.2349 10.2429 16.2407 10.2312 16.2489 10.2196C16.5849 9.67475 15.9502 8.86853 15.9432 8.86037C15.6982 8.5687 15.6726 8.15456 15.8756 7.83372C16.0786 7.51172 16.4682 7.36003 16.8369 7.4557C18.4982 7.8862 19.8784 8.97119 20.723 10.5089C21.6867 12.2647 21.8839 14.4778 21.2516 16.4308C20.2634 19.4793 18.1156 21.4067 15.0391 22.0029C13.4384 22.3132 11.5099 21.8571 10.5007 20.9389C9.46819 22.0321 9.00623 23.0715 9.61173 24.0772C10.0527 24.8087 11.721 24.797 12.9379 24.79C13.0732 24.79 13.2062 24.7878 13.3334 24.7878H15.991C19.7594 24.7878 21.6506 24.7877 22.7706 23.8567C23.8777 22.935 24.153 21.1418 24.7037 17.5683L25.056 15.2782C25.4422 12.7663 25.6359 11.5064 25.2264 10.5462C24.8157 9.58256 23.754 8.81484 21.64 7.28651L19.96 6.07199C14.6774 2.25349 14.6482 2.25349 9.36905 6.07199L7.68787 7.28776C5.57387 8.81609 4.51223 9.5837 4.10157 10.5474C3.69323 11.5075 3.8869 12.7676 4.2719 15.2794L4.62303 17.5649C5.02087 20.1561 5.28455 21.8675 5.83055 22.9303C6.05105 23.3597 5.88185 23.8882 5.45252 24.1087C5.02202 24.3292 4.49473 24.16 4.27423 23.7307C3.59873 22.4147 3.31756 20.5912 2.89406 17.8308L2.54286 15.5453C2.12053 12.7955 1.8872 11.2812 2.49153 9.86138C3.09353 8.44971 4.2859 7.58758 6.66356 5.86908L8.34355 4.65456C11.2906 2.52422 12.7687 1.45557 14.6645 1.45557C16.5603 1.45557 18.0397 2.52425 20.9844 4.65342L22.6655 5.86908C25.042 7.58758 26.2356 8.44971 26.8376 9.86138C27.4419 11.2812 27.2097 12.7955 26.7862 15.5453L26.435 17.8308C25.8365 21.7193 25.5075 23.8578 23.8905 25.2042C22.284 26.54 20.1817 26.54 15.9922 26.54H13.3345C13.2109 26.54 13.0825 26.54 12.9507 26.5423C12.8095 26.5423 12.6637 26.5447 12.5155 26.5447V26.5436ZM11.8027 19.7489C12.4537 20.233 13.7196 20.4781 14.7066 20.2868C17.1542 19.8119 18.7957 18.3337 19.5867 15.8931C20.0732 14.3904 19.925 12.6929 19.1889 11.3524C18.9567 10.9289 18.6067 10.4365 18.0946 10.0119C18.0724 10.3794 17.9697 10.7562 17.748 11.1225C16.971 12.505 15.6223 12.9962 14.3168 13.4722C13.0277 13.9424 11.8109 14.3857 11.1576 15.6923C11.1552 15.6982 11.1517 15.704 11.1494 15.7099C10.7107 16.5405 10.6174 17.454 10.8449 18.2625C11.4492 17.7748 12.0757 17.3152 12.6684 16.8801C13.4909 16.2769 14.2679 15.7063 14.6657 15.2782C14.9947 14.9247 15.5489 14.9049 15.9024 15.2339C16.2559 15.5629 16.2757 16.1171 15.9467 16.4706C15.4357 17.0201 14.633 17.6092 13.7032 18.2917C13.0254 18.7887 12.379 19.2752 11.8027 19.75V19.7489Z" fill="#067647"/>
</g>
</svg>
