<svg width="26" height="24" viewBox="0 0 26 24" fill="none" xmlns="http://www.w3.org/2000/svg">
<g id="elements">
<g id="Icon">
<path d="M12.6662 13.1667C12.0218 13.1667 11.4995 13.689 11.4995 14.3333C11.4995 14.9777 12.0218 15.5 12.6662 15.5H12.6767C13.321 15.5 13.8433 14.9777 13.8433 14.3333C13.8433 13.689 13.321 13.1667 12.6767 13.1667H12.6662Z" fill="#067647"/>
<path fill-rule="evenodd" clip-rule="evenodd" d="M13.5412 1.5C13.5412 1.01675 13.1494 0.625 12.6662 0.625C12.1829 0.625 11.7912 1.01675 11.7912 1.5L11.7912 7.68054C10.1426 7.89639 8.93289 8.72467 8.05745 9.87184C7.07023 11.1655 6.52345 12.8409 6.14564 14.4047C6.10746 14.5627 6.07534 14.7183 6.04909 14.8714L0.674778 17.0211C0.226092 17.2006 0.00785313 17.7098 0.187327 18.1585C0.366802 18.6072 0.876026 18.8255 1.32471 18.646L2.45785 18.1927V19C2.45785 19.4832 2.8496 19.875 3.33285 19.875C3.81609 19.875 4.20785 19.4832 4.20785 19V17.4927L6.03117 16.7634C6.2292 17.9183 6.82449 18.8643 7.69052 19.5694C9.01914 20.6512 10.8893 21.0932 12.667 21.0369C14.4447 21.0932 16.3148 20.6512 17.6434 19.5694C18.5094 18.8644 19.1046 17.9185 19.3027 16.7638L21.1245 17.4925V19C21.1245 19.4832 21.5163 19.875 21.9995 19.875C22.4828 19.875 22.8745 19.4832 22.8745 19V18.1925L24.0081 18.646C24.4568 18.8255 24.966 18.6072 25.1455 18.1585C25.325 17.7098 25.1067 17.2006 24.658 17.0211L19.2849 14.8719C19.2587 14.7186 19.2265 14.5628 19.1883 14.4047C18.8105 12.8409 18.2637 11.1655 17.2765 9.87184C16.4008 8.7243 15.1905 7.89586 13.5412 7.68033L13.5412 1.5ZM7.84669 14.8157C8.21137 13.3063 8.69072 11.9267 9.44863 10.9335C10.1701 9.98813 11.1534 9.375 12.667 9.375C14.1805 9.375 15.1639 9.98813 15.8853 10.9335C16.6432 11.9267 17.1226 13.3063 17.4873 14.8157C17.8832 16.4546 17.3875 17.5211 16.5385 18.2123C15.6274 18.9541 14.205 19.3396 12.6975 19.2869C12.6772 19.2862 12.6568 19.2862 12.6365 19.2869C11.1289 19.3396 9.70651 18.9541 8.79544 18.2123C7.94645 17.5211 7.45071 16.4546 7.84669 14.8157Z" fill="#067647"/>
<path d="M2.16618 22.5C2.16618 21.8557 2.68851 21.3333 3.33285 21.3333H3.34332C3.98766 21.3333 4.50999 21.8557 4.50999 22.5C4.50999 23.1443 3.98766 23.6667 3.34332 23.6667H3.33285C2.68851 23.6667 2.16618 23.1443 2.16618 22.5Z" fill="#067647"/>
<path d="M21.9995 21.3333C21.3552 21.3333 20.8328 21.8557 20.8328 22.5C20.8328 23.1443 21.3552 23.6667 21.9995 23.6667H22.01C22.6543 23.6667 23.1767 23.1443 23.1767 22.5C23.1767 21.8557 22.6543 21.3333 22.01 21.3333H21.9995Z" fill="#067647"/>
</g>
</g>
</svg>
