<svg width="28" height="28" viewBox="0 0 28 28" fill="none" xmlns="http://www.w3.org/2000/svg">
<g id="green-house">
<path id="Icon" d="M11.849 26.5431C10.2694 26.5431 8.32102 26.4311 7.44719 24.9821C6.82769 23.9543 6.44387 22.2941 8.13204 20.2244C8.33154 19.9794 8.54968 19.7402 8.78185 19.5057C8.11218 18.1045 8.14021 16.4059 8.93121 14.8998C9.89721 12.9771 11.646 12.3388 13.0519 11.8267C14.1532 11.4253 15.1041 11.0789 15.5614 10.2541C15.5684 10.2424 15.5742 10.2308 15.5824 10.2191C15.9184 9.67426 15.2837 8.86805 15.2767 8.85988C15.0317 8.56821 15.0061 8.15407 15.2091 7.83324C15.4121 7.51124 15.8017 7.35954 16.1704 7.45521C17.8317 7.88571 19.2119 8.9707 20.0565 10.5084C21.0202 12.2642 21.2174 14.4773 20.5851 16.4303C19.5969 19.4788 17.4491 21.4063 14.3726 22.0024C12.7719 22.3128 10.8434 21.8566 9.83418 20.9384C8.80168 22.0316 8.33973 23.071 8.94523 24.0767C9.38623 24.8082 11.0545 24.7965 12.2714 24.7895C12.4067 24.7895 12.5397 24.7873 12.6669 24.7873H15.3245C19.0929 24.7873 20.9841 24.7872 22.1041 23.8562C23.2112 22.9345 23.4865 21.1413 24.0372 17.5678L24.3895 15.2777C24.7757 12.7659 24.9694 11.5059 24.5599 10.5457C24.1492 9.58207 23.0875 8.81435 20.9735 7.28602L19.2935 6.0715C14.0109 2.253 13.9817 2.253 8.70255 6.0715L7.02137 7.28727C4.90737 8.81561 3.84573 9.58321 3.43506 10.5469C3.02673 11.507 3.22039 12.7671 3.60539 15.2789L3.95653 17.5644C4.35436 20.1556 4.61804 21.867 5.16404 22.9298C5.38454 23.3592 5.21535 23.8877 4.78602 24.1082C4.35552 24.3287 3.82823 24.1595 3.60773 23.7302C2.93223 22.4142 2.65105 20.5907 2.22755 17.8303L1.87636 15.5449C1.45402 12.795 1.2207 11.2807 1.82503 9.86089C2.42703 8.44922 3.61939 7.58709 5.99706 5.86859L7.67705 4.65407C10.624 2.52374 12.1022 1.45508 13.998 1.45508C15.8938 1.45508 17.3732 2.52376 20.3179 4.65293L21.999 5.86859C24.3755 7.58709 25.569 8.44922 26.171 9.86089C26.7754 11.2807 26.5432 12.795 26.1197 15.5449L25.7685 17.8303C25.17 21.7188 24.841 23.8574 23.224 25.2037C21.6175 26.5395 19.5152 26.5395 15.3257 26.5395H12.668C12.5444 26.5395 12.416 26.5395 12.2842 26.5418C12.143 26.5418 11.9972 26.5442 11.849 26.5442V26.5431ZM11.1362 19.7484C11.7872 20.2326 13.0531 20.4776 14.0401 20.2863C16.4877 19.8114 18.1292 18.3332 18.9202 15.8926C19.4067 14.3899 19.2585 12.6924 18.5224 11.3519C18.2902 10.9284 17.9402 10.4361 17.4281 10.0114C17.4059 10.3789 17.3032 10.7557 17.0815 11.122C16.3045 12.5045 14.9558 12.9957 13.6503 13.4717C12.3612 13.9419 11.1444 14.3852 10.4911 15.6918C10.4887 15.6977 10.4852 15.7035 10.4829 15.7094C10.0442 16.54 9.95087 17.4535 10.1784 18.262C10.7827 17.7744 11.4092 17.3147 12.0019 16.8796C12.8244 16.2764 13.6014 15.7059 13.9992 15.2777C14.3282 14.9242 14.8824 14.9044 15.2359 15.2334C15.5894 15.5624 15.6092 16.1166 15.2802 16.4701C14.7692 17.0196 13.9665 17.6087 13.0367 18.2912C12.3589 18.7882 11.7125 19.2747 11.1362 19.7495V19.7484Z" fill="#067647"/>
</g>
</svg>
