<svg width="25" height="24" viewBox="0 0 25 24" fill="none" xmlns="http://www.w3.org/2000/svg">
<g id="elements">
<g id="Icon">
<path fill-rule="evenodd" clip-rule="evenodd" d="M3.94645 0.671434C4.6418 0.718877 5.23435 0.817697 5.78753 1.04683C7.12792 1.60204 8.1964 2.66041 8.76469 3.99366C9.10135 3.68789 9.49098 3.43913 9.91919 3.26176C10.3294 3.09183 10.7599 3.02261 11.2383 2.98997C11.7021 2.95832 12.2707 2.95833 12.9695 2.95833H13.0002C13.4834 2.95833 13.8752 3.35008 13.8752 3.83333V3.86399C13.8752 4.56274 13.8752 5.13138 13.8435 5.59516C13.8109 6.07357 13.7417 6.50405 13.5717 6.91431C13.1672 7.89102 12.3912 8.66701 11.4145 9.07158C11.0042 9.24151 10.5737 9.31073 10.0953 9.34337C9.83439 9.36117 9.54029 9.36896 9.2085 9.37236V13.4583H13.0002C13.4834 13.4583 13.8752 13.8501 13.8752 14.3333C13.8752 14.8166 13.4834 15.2083 13.0002 15.2083H1.3335C0.850247 15.2083 0.458496 14.8166 0.458496 14.3333C0.458496 13.8501 0.850248 13.4583 1.3335 13.4583H7.4585V9.37397C6.78175 9.37134 6.20991 9.36196 5.72054 9.32857C5.02519 9.28112 4.43265 9.1823 3.87946 8.95317C2.5216 8.39072 1.44278 7.3119 0.880331 5.95404C0.651193 5.40085 0.552373 4.8083 0.50493 4.11296C0.458488 3.43229 0.458492 2.59208 0.458496 1.53194V1.5C0.458496 1.01675 0.850247 0.625 1.3335 0.625H1.36544C2.42558 0.624996 3.26578 0.624992 3.94645 0.671434ZM2.2096 2.3761C2.21222 3.03605 2.22107 3.55704 2.25087 3.99383C2.29223 4.60008 2.37103 4.97993 2.49712 5.28434C2.88195 6.21341 3.62009 6.95154 4.54916 7.33638C4.85357 7.46247 5.23342 7.54126 5.83967 7.58263C6.27645 7.61243 6.79745 7.62127 7.45739 7.62389C7.45477 6.96395 7.44592 6.44296 7.41612 6.00617C7.37476 5.39992 7.29596 5.02007 7.16987 4.71566C6.78504 3.78659 6.0469 3.04845 5.11784 2.66362C4.81343 2.53753 4.43357 2.45874 3.82733 2.41737C3.39054 2.38757 2.86955 2.37873 2.2096 2.3761ZM12.1224 4.71112C12.1192 5.01148 12.1123 5.26023 12.0976 5.47603C12.071 5.86535 12.0218 6.08313 11.9549 6.24461C11.728 6.79252 11.2927 7.22783 10.7448 7.45479C10.5833 7.52167 10.3655 7.57086 9.9762 7.59743C9.76039 7.61215 9.51165 7.61901 9.21128 7.62221C9.21448 7.32185 9.22135 7.0731 9.23607 6.8573C9.26263 6.46799 9.31182 6.2502 9.37871 6.08872C9.60566 5.54081 10.041 5.1055 10.5889 4.87855C10.7504 4.81166 10.9681 4.76247 11.3575 4.73591C11.5733 4.72118 11.822 4.71432 12.1224 4.71112Z" fill="#067647"/>
<path d="M13.0002 18.7083C13.4834 18.7083 13.8752 18.3166 13.8752 17.8333C13.8752 17.3501 13.4834 16.9583 13.0002 16.9583H1.3335C0.850248 16.9583 0.458496 17.3501 0.458496 17.8333C0.458496 18.3166 0.850247 18.7083 1.3335 18.7083H13.0002Z" fill="#067647"/>
<path d="M13.8752 21.3333C13.8752 21.8166 13.4834 22.2083 13.0002 22.2083H1.3335C0.850247 22.2083 0.458496 21.8166 0.458496 21.3333C0.458496 20.8501 0.850248 20.4583 1.3335 20.4583H13.0002C13.4834 20.4583 13.8752 20.8501 13.8752 21.3333Z" fill="#067647"/>
<path fill-rule="evenodd" clip-rule="evenodd" d="M22.0178 15.2118C21.2101 14.4294 19.9569 14.4294 19.1492 15.2118C18.6908 15.6558 18.1166 16.2794 17.6517 17.0067C17.193 17.7244 16.7918 18.6192 16.7918 19.5873C16.7918 21.4326 18.2174 23.375 20.5835 23.375C22.9495 23.375 24.3752 21.4326 24.3752 19.5873C24.3752 18.6192 23.974 17.7244 23.5153 17.0067C23.0504 16.2794 22.4762 15.6558 22.0178 15.2118ZM20.3667 16.4688C20.4958 16.3437 20.6712 16.3437 20.8002 16.4688C21.2043 16.8602 21.6756 17.3779 22.0407 17.9491C22.412 18.5299 22.6252 19.091 22.6252 19.5873C22.6252 20.6137 21.8418 21.625 20.5835 21.625C19.3252 21.625 18.5418 20.6137 18.5418 19.5873C18.5418 19.091 18.755 18.5299 19.1263 17.9491C19.4914 17.3779 19.9627 16.8602 20.3667 16.4688Z" fill="#067647"/>
</g>
</g>
</svg>
