<svg width="26" height="26" viewBox="0 0 26 26" fill="none" xmlns="http://www.w3.org/2000/svg">
<g id="elements">
<path id="Icon" fill-rule="evenodd" clip-rule="evenodd" d="M12.6216 0.458009H12.2126H12.2125C11.3428 0.457983 10.6144 0.457962 10.0202 0.52831C9.39008 0.602913 8.82326 0.764478 8.31284 1.146C7.80508 1.52552 7.48342 2.02544 7.22025 2.6121C6.98404 3.13865 6.76677 3.80295 6.51108 4.59783C6.04513 4.62347 5.61535 4.66075 5.2197 4.71496C3.91151 4.89418 2.8471 5.27297 2.00841 6.1276C1.17197 6.97993 0.803282 8.05782 0.628444 9.38297C0.458465 10.6713 0.458479 12.3171 0.458496 14.3934V14.3934V14.5226V14.5226C0.458479 16.5989 0.458465 18.2447 0.628444 19.533C0.803282 20.8582 1.17197 21.9361 2.00841 22.7884C2.8471 23.643 3.91151 24.0218 5.2197 24.2011C6.48719 24.3747 8.105 24.3747 10.1398 24.3747H10.1399H11.841C12.3243 24.3747 12.716 23.9829 12.716 23.4997C12.716 23.0164 12.3243 22.6247 11.841 22.6247H10.2065C8.08995 22.6247 6.59218 22.6227 5.45724 22.4673C4.34918 22.3155 3.71818 22.0322 3.25744 21.5627C2.79445 21.0909 2.51343 20.4412 2.36341 19.3041C2.21029 18.1436 2.2085 16.6134 2.2085 14.458C2.2085 12.3026 2.21029 10.7724 2.36341 9.61188C2.51343 8.47486 2.79445 7.82512 3.25744 7.35333C3.71818 6.88384 4.34918 6.60057 5.45724 6.44876C6.59218 6.29327 8.08995 6.29134 10.2065 6.29134H14.6431C16.7596 6.29134 18.2574 6.29327 19.3924 6.44876C20.5004 6.60057 21.1314 6.88384 21.5922 7.35333C22.3178 8.09273 22.5714 9.23446 22.6254 11.8511C22.6353 12.3342 23.0351 12.7178 23.5182 12.7078C24.0014 12.6979 24.3849 12.2981 24.375 11.815C24.3226 9.27699 24.1151 7.42573 22.8412 6.1276C22.0025 5.27297 20.9381 4.89418 19.6299 4.71496C19.2298 4.66014 18.7948 4.62263 18.3228 4.59696C18.0672 3.80247 17.85 3.13846 17.6139 2.6121C17.3507 2.02544 17.0291 1.52552 16.5213 1.146C16.0109 0.764478 15.4441 0.602913 14.8139 0.52831C14.2198 0.457962 13.4913 0.457983 12.6216 0.458009H12.6216ZM16.4662 4.54634C16.2975 4.03481 16.1586 3.6437 16.0172 3.32836C15.8197 2.88821 15.6533 2.68202 15.4736 2.54771C15.2965 2.41538 15.0631 2.32003 14.6082 2.26617C14.1289 2.20943 13.5046 2.20801 12.5706 2.20801H12.2636C11.3295 2.20801 10.7052 2.20943 10.2259 2.26617C9.77106 2.32003 9.53758 2.41538 9.36055 2.54771C9.18086 2.68202 9.0144 2.88821 8.81695 3.32836C8.67548 3.64373 8.53659 4.03489 8.36784 4.54648C8.91988 4.54133 9.50991 4.54134 10.1399 4.54134H14.7097C15.3338 4.54134 15.9187 4.54133 16.4662 4.54634ZM19.4168 15.0413C17.0006 15.0413 15.0418 17.0001 15.0418 19.4163C15.0418 21.8326 17.0006 23.7913 19.4168 23.7913C21.8331 23.7913 23.7918 21.8326 23.7918 19.4163C23.7918 17.0001 21.8331 15.0413 19.4168 15.0413ZM13.2918 19.4163C13.2918 16.0336 16.0341 13.2913 19.4168 13.2913C22.7996 13.2913 25.5418 16.0336 25.5418 19.4163C25.5418 22.7991 22.7996 25.5413 19.4168 25.5413C16.0341 25.5413 13.2918 22.7991 13.2918 19.4163ZM19.4271 16.1788C19.9103 16.1788 20.3021 16.5706 20.3021 17.0538V19.4163C20.3021 19.8996 19.9103 20.2913 19.4271 20.2913C18.9438 20.2913 18.5521 19.8996 18.5521 19.4163V17.0538C18.5521 16.5706 18.9438 16.1788 19.4271 16.1788ZM18.5418 21.7788C18.5418 21.2956 18.9336 20.9038 19.4168 20.9038H19.4263C19.9095 20.9038 20.3013 21.2956 20.3013 21.7788C20.3013 22.2621 19.9095 22.6538 19.4263 22.6538H19.4168C18.9336 22.6538 18.5418 22.2621 18.5418 21.7788Z" fill="#067647"/>
</g>
</svg>
