<svg width="16" height="16" viewBox="0 0 16 16" fill="none" xmlns="http://www.w3.org/2000/svg">
<path fill-rule="evenodd" clip-rule="evenodd" d="M8.0131 5.16675C6.4483 5.16675 5.17977 6.43528 5.17977 8.00008C5.17977 9.56489 6.4483 10.8334 8.0131 10.8334C9.57791 10.8334 10.8464 9.56489 10.8464 8.00008C10.8464 6.43528 9.57791 5.16675 8.0131 5.16675ZM6.17977 8.00008C6.17977 6.98756 7.00058 6.16675 8.0131 6.16675C9.02562 6.16675 9.84644 6.98756 9.84644 8.00008C9.84644 9.0126 9.02562 9.83342 8.0131 9.83342C7.00058 9.83342 6.17977 9.0126 6.17977 8.00008Z" fill="#161616"/>
<path fill-rule="evenodd" clip-rule="evenodd" d="M8.43692 0.838625L7.64663 0.838625C7.4355 0.838599 7.23709 0.838574 7.07081 0.857596C6.88551 0.878792 6.69066 0.927812 6.50884 1.05912C6.32711 1.19036 6.21924 1.35988 6.14071 1.52902C6.07017 1.68094 6.0075 1.86942 5.94073 2.07019L5.93331 2.09249L5.71481 2.74507C5.65166 2.90425 5.54118 3.03992 5.39858 3.13375L5.19699 3.25007C5.02825 3.33402 4.8361 3.35794 4.65209 3.31797L3.85187 3.09258L3.82836 3.0859C3.60969 3.02382 3.4052 2.96576 3.22911 2.93781C3.03327 2.90671 2.81903 2.90275 2.5975 2.99285C2.37604 3.08292 2.22534 3.23526 2.10669 3.39411C1.99994 3.53704 1.89375 3.72139 1.7801 3.91867L1.42676 4.53188C1.32029 4.7166 1.22039 4.88993 1.15337 5.0447C1.07874 5.21704 1.02369 5.4116 1.04727 5.63598C1.07084 5.86039 1.16514 6.03925 1.27398 6.1923C1.37171 6.32973 1.50547 6.47844 1.64798 6.63689L1.66293 6.6535L1.6638 6.65448L2.33789 7.40812C2.42215 7.52227 2.51023 7.77039 2.51023 8.00519C2.51023 8.24022 2.42217 8.48825 2.3379 8.60241L1.66381 9.35605L1.66293 9.35703L1.64798 9.37365C1.50547 9.53209 1.37171 9.6808 1.27398 9.81823C1.16514 9.97128 1.07084 10.1501 1.04727 10.3745C1.02369 10.5989 1.07875 10.7935 1.15337 10.9658C1.22039 11.1206 1.3203 11.2939 1.42676 11.4786L1.7801 12.0919C1.89374 12.2891 1.99994 12.4735 2.10669 12.6164C2.22533 12.7753 2.37603 12.9276 2.5975 13.0177C2.81904 13.1078 3.03329 13.1038 3.22913 13.0727C3.40522 13.0448 3.60971 12.9867 3.82839 12.9246L3.8515 12.918L4.65206 12.6925C4.83611 12.6526 5.02831 12.6765 5.19707 12.7605L5.39861 12.8768C5.54119 12.9706 5.65165 13.1063 5.71479 13.2654L5.93331 13.9181L5.94073 13.9404C6.0075 14.1412 6.07017 14.3296 6.14071 14.4816C6.21924 14.6507 6.3271 14.8202 6.50884 14.9515C6.69066 15.0828 6.88552 15.1318 7.07081 15.153C7.2371 15.172 7.43551 15.172 7.64664 15.172H8.43691C8.64804 15.172 8.84645 15.172 9.01274 15.153C9.19803 15.1318 9.39289 15.0828 9.57471 14.9515C9.75644 14.8202 9.86431 14.6507 9.94284 14.4816C10.0134 14.3297 10.076 14.1412 10.1428 13.9404L10.1502 13.9181L10.3688 13.2654C10.4319 13.1063 10.5424 12.9706 10.6849 12.8768L10.8865 12.7605C11.0552 12.6765 11.2474 12.6526 11.4315 12.6925L12.232 12.918L12.2552 12.9246C12.4738 12.9867 12.6783 13.0448 12.8544 13.0727C13.0503 13.1038 13.2645 13.1078 13.486 13.0177C13.7075 12.9276 13.8582 12.7753 13.9769 12.6164C14.0836 12.4735 14.1898 12.2891 14.3034 12.0919L14.6568 11.4787C14.7632 11.294 14.8632 11.1206 14.9302 10.9658C15.0048 10.7935 15.0599 10.5989 15.0363 10.3745C15.0127 10.1501 14.9184 9.97128 14.8096 9.81823C14.7118 9.68081 14.5781 9.53211 14.4356 9.37367L14.4206 9.35703L13.7456 8.60241C13.6614 8.48825 13.5733 8.24022 13.5733 8.00519C13.5733 7.77039 13.6614 7.52227 13.7457 7.40811L14.4197 6.65448L14.4206 6.6535L14.4356 6.63689C14.5781 6.47844 14.7118 6.32973 14.8096 6.1923C14.9184 6.03925 15.0127 5.86039 15.0363 5.63598C15.0599 5.4116 15.0048 5.21704 14.9302 5.0447C14.8632 4.88994 14.7633 4.71662 14.6568 4.53191L14.3034 3.91865C14.1898 3.72137 14.0836 3.53704 13.9769 3.39411C13.8582 3.23526 13.7075 3.08292 13.4861 2.99285C13.2645 2.90275 13.0503 2.90671 12.8544 2.93781C12.6784 2.96576 12.4739 3.02382 12.2552 3.08591L12.2321 3.09247L11.4315 3.31797C11.2474 3.35794 11.0553 3.33402 10.8866 3.25007L10.685 3.13375C10.5424 3.03992 10.4319 2.90425 10.3687 2.74506L10.1499 2.09157L10.1428 2.07016C10.076 1.8694 10.0134 1.68093 9.94284 1.52902C9.86431 1.35988 9.75644 1.19036 9.57471 1.05912C9.39289 0.927812 9.19803 0.878792 9.01274 0.857596C8.84645 0.838574 8.64805 0.838599 8.43692 0.838625ZM7.09376 1.87029L7.09431 1.86981C7.09431 1.86981 7.09765 1.8681 7.1029 1.86636C7.11424 1.86261 7.13822 1.85641 7.18446 1.85112C7.28702 1.83939 7.42719 1.83863 7.67018 1.83863L8.41337 1.83863C8.65636 1.83863 8.79653 1.83939 8.89909 1.85112C8.94533 1.85641 8.96931 1.86261 8.98065 1.86636C8.9859 1.8681 8.98924 1.86981 8.98924 1.86981L8.98979 1.87029C8.98979 1.87029 8.99205 1.87258 8.9954 1.87708C9.00263 1.88679 9.01615 1.90775 9.03583 1.95014C9.07945 2.04407 9.12454 2.17724 9.20137 2.40816L9.42773 3.08423L9.4316 3.09431C9.57169 3.45955 9.82485 3.77046 10.1542 3.98141L10.164 3.98766L10.4091 4.12912L10.42 4.13468C10.8041 4.33206 11.2456 4.38713 11.6665 4.29008L11.6782 4.28739L12.5041 4.05475C12.7553 3.98348 12.9014 3.94288 13.0112 3.92544C13.0609 3.91755 13.0875 3.91728 13.1002 3.91805C13.106 3.9184 13.1089 3.91904 13.1089 3.91904L13.1097 3.91938C13.1097 3.91938 13.1123 3.92102 13.1168 3.92487C13.1265 3.93324 13.1455 3.95208 13.1757 3.99251C13.2424 4.08183 13.319 4.21311 13.4495 4.43958L13.7785 5.01065C13.9009 5.22309 13.971 5.34627 14.0125 5.44207C14.0312 5.48531 14.038 5.50958 14.0404 5.52161C14.0416 5.52717 14.0418 5.53052 14.0418 5.53052L14.0418 5.53151L14.0416 5.53245C14.0416 5.53245 14.0407 5.53566 14.0384 5.54085C14.0335 5.55207 14.0219 5.57438 13.9946 5.61275C13.9342 5.69776 13.84 5.80359 13.6762 5.98585L13.6753 5.98682L12.9777 6.7667L12.9682 6.77871C12.7186 7.09471 12.5733 7.58031 12.5733 8.00519C12.5733 8.43024 12.7186 8.91575 12.9682 9.23181L12.9777 9.24382L13.6762 10.0247C13.84 10.2069 13.9342 10.3128 13.9946 10.3978C14.0219 10.4362 14.0335 10.4585 14.0384 10.4697C14.0407 10.4749 14.0416 10.4781 14.0416 10.4781L14.0418 10.479L14.0418 10.48C14.0418 10.48 14.0416 10.4834 14.0404 10.4889C14.038 10.501 14.0312 10.5252 14.0125 10.5685C13.971 10.6643 13.9009 10.7874 13.7785 10.9999L13.4495 11.5709C13.319 11.7974 13.2424 11.9287 13.1757 12.018C13.1455 12.0584 13.1265 12.0773 13.1168 12.0857C13.1123 12.0895 13.1097 12.0911 13.1097 12.0911L13.1089 12.0915C13.1089 12.0915 13.106 12.0921 13.1002 12.0925C13.0875 12.0932 13.0609 12.093 13.0112 12.0851C12.9014 12.0676 12.7553 12.027 12.5041 11.9558L11.6782 11.7231L11.6665 11.7204C11.2456 11.6233 10.804 11.6785 10.4198 11.8759L10.409 11.8815L10.1638 12.0229L10.1541 12.0292C9.82479 12.2401 9.57169 12.551 9.43162 12.9162L9.42776 12.9263L9.20167 13.6015L9.20137 13.6024C9.12454 13.8334 9.07945 13.9665 9.03583 14.0604C9.01615 14.1028 9.00263 14.1238 8.9954 14.1335C8.99205 14.138 8.98979 14.1403 8.98979 14.1403L8.98868 14.1411C8.98868 14.1411 8.98774 14.1416 8.98593 14.1423C8.98462 14.1428 8.98285 14.1435 8.98065 14.1442C8.96931 14.148 8.94533 14.1542 8.89909 14.1595C8.79653 14.1712 8.65636 14.172 8.41337 14.172H7.67018C7.42719 14.172 7.28702 14.1712 7.18446 14.1595C7.13822 14.1542 7.11424 14.148 7.1029 14.1442C7.09765 14.1425 7.09431 14.1408 7.09431 14.1408L7.09376 14.1403C7.09376 14.1403 7.0915 14.138 7.08815 14.1335C7.08092 14.1238 7.0674 14.1028 7.04772 14.0604C7.0041 13.9665 6.95901 13.8334 6.88218 13.6024L6.65579 12.9263L6.65193 12.9162C6.51186 12.551 6.25876 12.2401 5.92947 12.0292L5.91971 12.0229L5.67458 11.8815L5.66375 11.8759C5.27954 11.6785 4.83794 11.6233 4.41702 11.7204L4.40535 11.7231L3.57943 11.9558C3.32827 12.027 3.18215 12.0676 3.0723 12.0851C3.02262 12.093 2.99604 12.0932 2.98339 12.0925C2.97758 12.0921 2.97464 12.0915 2.97464 12.0915L2.97383 12.0911C2.97383 12.0911 2.9712 12.0895 2.96674 12.0857C2.95704 12.0773 2.93808 12.0584 2.90789 12.018C2.84117 11.9287 2.76457 11.7974 2.63408 11.5709L2.30503 10.9999C2.18262 10.7874 2.11252 10.6643 2.07103 10.5685C2.05231 10.5252 2.0456 10.501 2.04313 10.4889C2.04199 10.4834 2.04178 10.48 2.04178 10.48L2.04179 10.479L2.04198 10.4781C2.04198 10.4781 2.04287 10.4749 2.04514 10.4697C2.05004 10.4585 2.06163 10.4362 2.08891 10.3978C2.14937 10.3128 2.24351 10.2069 2.40739 10.0247L2.40827 10.0237L3.10585 9.24382L3.11534 9.23181C3.36499 8.91575 3.51023 8.43024 3.51023 8.00519C3.51023 7.58031 3.36493 7.09471 3.11532 6.77871L3.10583 6.7667L2.40827 5.98682L2.40739 5.98585C2.24351 5.80359 2.14937 5.69776 2.08891 5.61275C2.06163 5.57438 2.05004 5.55207 2.04514 5.54085C2.04287 5.53566 2.04198 5.53245 2.04198 5.53245L2.04179 5.5315L2.04177 5.53052C2.04177 5.53052 2.04199 5.52717 2.04313 5.52161C2.0456 5.50958 2.05231 5.48531 2.07103 5.44207C2.11251 5.34627 2.18261 5.22309 2.30503 5.01065L2.63409 4.43958C2.76458 4.21311 2.84118 4.08183 2.9079 3.99251C2.93809 3.95208 2.95704 3.93324 2.96674 3.92487C2.9712 3.92102 2.97383 3.91938 2.97383 3.91938L2.97464 3.91904C2.97464 3.91904 2.97758 3.9184 2.98339 3.91805C2.99604 3.91728 3.02263 3.91755 3.0723 3.92544C3.18215 3.94288 3.32827 3.98348 3.57942 4.05475L4.40539 4.28739L4.41706 4.29008C4.83791 4.38713 5.27942 4.33206 5.66358 4.13468L5.67442 4.12912L5.91958 3.98766L5.92934 3.98141C6.2587 3.77046 6.51186 3.45955 6.65195 3.09431L6.65581 3.08423L6.88218 2.40816C6.95901 2.17724 7.0041 2.04407 7.04772 1.95014C7.0674 1.90775 7.08092 1.88679 7.08815 1.87708C7.0915 1.87258 7.09376 1.87029 7.09376 1.87029Z" fill="#161616"/>
</svg>
