<svg width="16" height="16" viewBox="0 0 16 16" fill="none" xmlns="http://www.w3.org/2000/svg">
<path d="M5.66659 10.1667C5.39044 10.1667 5.16659 9.94289 5.16659 9.66675C5.16659 9.39061 5.39044 9.16675 5.66659 9.16675H10.3333C10.6094 9.16675 10.8333 9.39061 10.8333 9.66675C10.8333 9.94289 10.6094 10.1667 10.3333 10.1667H5.66659Z" fill="#161616"/>
<path d="M5.66659 6.83342C5.39044 6.83342 5.16659 6.60956 5.16659 6.33342C5.16659 6.05727 5.39044 5.83342 5.66659 5.83342H7.99992C8.27606 5.83342 8.49992 6.05727 8.49992 6.33342C8.49992 6.60956 8.27606 6.83342 7.99992 6.83342H5.66659Z" fill="#161616"/>
<path fill-rule="evenodd" clip-rule="evenodd" d="M9.48015 1.21523C8.50666 1.15052 7.4912 1.15065 6.51969 1.21523C3.47525 1.41761 1.05973 3.87513 0.861119 6.94832C0.823963 7.52326 0.823963 8.11797 0.861119 8.69291C0.935068 9.83716 1.43424 10.8694 1.98912 11.707C2.15534 12.028 2.06874 12.5095 1.75785 13.0986L1.74353 13.1257C1.63908 13.3236 1.53683 13.5172 1.47784 13.6823C1.41534 13.8573 1.35074 14.1351 1.51186 14.4098C1.65989 14.6622 1.89642 14.7546 2.0876 14.7916C2.24632 14.8223 2.44095 14.827 2.62354 14.8313L2.65403 14.8321C3.60053 14.8551 4.2675 14.5818 4.79579 14.1923C4.90064 14.1149 4.97265 14.062 5.02686 14.0248C5.1057 14.0537 5.21345 14.0979 5.37218 14.1633C5.7331 14.3119 6.14306 14.401 6.51969 14.426C7.4912 14.4906 8.50666 14.4907 9.48015 14.426C12.5246 14.2236 14.9401 11.7661 15.1387 8.69291C15.1759 8.11797 15.1759 7.52326 15.1387 6.94832C14.9401 3.87513 12.5246 1.41761 9.48015 1.21523ZM6.58601 2.21303C7.5134 2.15138 8.48454 2.15126 9.41383 2.21303C11.9467 2.3814 13.9739 4.42953 14.1408 7.01281C14.1752 7.5448 14.1752 8.09643 14.1408 8.62842C13.9739 11.2117 11.9467 13.2598 9.41383 13.4282C8.48454 13.49 7.5134 13.4898 6.58601 13.4282C6.30873 13.4098 6.00594 13.3428 5.753 13.2386L5.74008 13.2333C5.58043 13.1675 5.44212 13.1106 5.33339 13.0723C5.24839 13.0425 5.07809 12.9828 4.90252 13.0044C4.73487 13.025 4.59693 13.111 4.52154 13.1598C4.43473 13.216 4.32984 13.2933 4.21407 13.3787L4.20229 13.3874C3.84259 13.6527 3.39086 13.8497 2.67837 13.8324C2.61283 13.8308 2.55619 13.8294 2.50587 13.8276C2.54296 13.7536 2.58775 13.6686 2.64227 13.5653C2.97505 12.9347 3.30176 12.0148 2.8562 11.2081C2.84952 11.196 2.84234 11.1842 2.83469 11.1727C2.32222 10.4031 1.91764 9.53523 1.85904 8.62842C1.82466 8.09643 1.82466 7.5448 1.85904 7.01281C2.02599 4.42953 4.0531 2.3814 6.58601 2.21303Z" fill="#161616"/>
</svg>
