<svg width="16" height="16" viewBox="0 0 16 16" fill="none" xmlns="http://www.w3.org/2000/svg">
<path d="M6.00008 8.16659C5.72394 8.16659 5.50008 8.39044 5.50008 8.66659C5.50008 8.94273 5.72394 9.16659 6.00008 9.16659H6.16674L6.16675 11.3333C6.16675 11.6094 6.39061 11.8333 6.66675 11.8333C6.94289 11.8333 7.16675 11.6094 7.16675 11.3333L7.16674 8.89806C7.16674 8.55629 6.91008 8.16659 6.46314 8.16659H6.00008Z" fill="#161616"/>
<path d="M8.66675 8.16659C8.39061 8.16659 8.16675 8.39044 8.16675 8.66659C8.16675 8.94273 8.39061 9.16659 8.66675 9.16659H9.35708L8.61774 11.1593C8.52169 11.4182 8.6537 11.706 8.91259 11.802C9.17149 11.8981 9.45924 11.7661 9.55529 11.5072L10.4583 9.07328C10.6372 8.59108 10.2445 8.16659 9.81387 8.16659H8.66675Z" fill="#161616"/>
<path d="M4.00008 4.83325C3.72394 4.83325 3.50008 5.05711 3.50008 5.33325C3.50008 5.60939 3.72394 5.83325 4.00008 5.83325H12.0001C12.2762 5.83325 12.5001 5.60939 12.5001 5.33325C12.5001 5.05711 12.2762 4.83325 12.0001 4.83325H4.00008Z" fill="#161616"/>
<path fill-rule="evenodd" clip-rule="evenodd" d="M4.50008 1.33325C4.50008 1.05711 4.27622 0.833252 4.00008 0.833252C3.72394 0.833252 3.50008 1.05711 3.50008 1.33325V1.75644C2.96358 1.90851 2.51108 2.15565 2.13444 2.56283C1.61584 3.12348 1.38531 3.83187 1.27491 4.71959C1.16674 5.58945 1.16674 6.70423 1.16675 8.12661V8.5399C1.16674 9.96228 1.16674 11.0771 1.27491 11.9469C1.38531 12.8346 1.61584 13.543 2.13444 14.1037C2.65818 14.6699 3.32859 14.9266 4.16761 15.0486C4.97963 15.1666 6.01711 15.1666 7.32624 15.1666H8.67392C9.98305 15.1666 11.0205 15.1666 11.8326 15.0486C12.6716 14.9266 13.342 14.6699 13.8657 14.1037C14.3843 13.543 14.6148 12.8346 14.7252 11.9469C14.8334 11.077 14.8334 9.96227 14.8334 8.53987V8.12663C14.8334 6.70424 14.8334 5.58946 14.7252 4.71959C14.6148 3.83187 14.3843 3.12348 13.8657 2.56283C13.4891 2.15565 13.0366 1.90851 12.5001 1.75644V1.33325C12.5001 1.05711 12.2762 0.833252 12.0001 0.833252C11.7239 0.833252 11.5001 1.05711 11.5001 1.33325V1.57718C10.7427 1.4999 9.81073 1.49991 8.67392 1.49992H7.32624C6.18943 1.49991 5.25746 1.4999 4.50008 1.57718V1.33325ZM2.86854 3.24187C3.04144 3.05496 3.24761 2.91186 3.51915 2.80381C3.57879 3.01324 3.77153 3.16659 4.00008 3.16659C4.27622 3.16659 4.50008 2.94273 4.50008 2.66659V2.58298C5.20742 2.50096 6.12166 2.49992 7.36675 2.49992H8.63341C9.8785 2.49992 10.7927 2.50096 11.5001 2.58298V2.66659C11.5001 2.94273 11.7239 3.16659 12.0001 3.16659C12.2286 3.16659 12.4214 3.01324 12.481 2.80382C12.7526 2.91186 12.9587 3.05496 13.1316 3.24187C13.4478 3.58364 13.6346 4.05269 13.7329 4.843C13.8325 5.64397 13.8334 6.69655 13.8334 8.16208V8.50442C13.8334 9.96996 13.8325 11.0225 13.7329 11.8235C13.6346 12.6138 13.4478 13.0829 13.1316 13.4246C12.8206 13.7609 12.4019 13.9553 11.6887 14.059C10.9569 14.1653 9.99216 14.1666 8.63341 14.1666H7.36675C6.008 14.1666 5.04325 14.1653 4.31144 14.059C3.59827 13.9553 3.17956 13.7609 2.86854 13.4246C2.55241 13.0829 2.36556 12.6138 2.26727 11.8235C2.16766 11.0225 2.16675 9.96996 2.16675 8.50442V8.16208C2.16675 6.69655 2.16766 5.64397 2.26727 4.843C2.36556 4.05269 2.55241 3.58364 2.86854 3.24187Z" fill="#161616"/>
</svg>
