<svg width="16" height="16" viewBox="0 0 16 16" fill="none" xmlns="http://www.w3.org/2000/svg">
<path fill-rule="evenodd" clip-rule="evenodd" d="M7.99984 2.16675C6.43503 2.16675 5.1665 3.43527 5.1665 5.00008C5.1665 6.56489 6.43503 7.83341 7.99984 7.83341C9.56464 7.83341 10.8332 6.56489 10.8332 5.00008C10.8332 3.43527 9.56464 2.16675 7.99984 2.16675ZM6.1665 5.00008C6.1665 3.98756 6.98731 3.16675 7.99984 3.16675C9.01236 3.16675 9.83317 3.98756 9.83317 5.00008C9.83317 6.0126 9.01236 6.83341 7.99984 6.83341C6.98731 6.83341 6.1665 6.0126 6.1665 5.00008Z" fill="#161616"/>
<path d="M3.66653 3.50008C2.46992 3.50008 1.49987 4.47013 1.49987 5.66675C1.49987 6.86336 2.46992 7.83341 3.66653 7.83341C3.94268 7.83341 4.16653 7.60956 4.16653 7.33341C4.16653 7.05727 3.94268 6.83341 3.66653 6.83341C3.0222 6.83341 2.49987 6.31108 2.49987 5.66675C2.49987 5.02242 3.0222 4.50008 3.66653 4.50008C3.94268 4.50008 4.16653 4.27622 4.16653 4.00008C4.16653 3.72394 3.94268 3.50008 3.66653 3.50008Z" fill="#161616"/>
<path d="M3.83117 8.6217C3.80628 8.34668 3.56317 8.1439 3.28815 8.16878C2.66246 8.22539 2.0541 8.46609 1.5179 8.87899C1.48701 8.90278 1.44631 8.93239 1.39849 8.96718C1.17137 9.13241 0.783567 9.41453 0.522227 9.74535C0.355238 9.95674 0.199079 10.2334 0.170964 10.566C0.141519 10.9144 0.258303 11.2528 0.508674 11.5613C0.89191 12.0335 1.41777 12.5001 2.1505 12.5001C2.42665 12.5001 2.6505 12.2762 2.6505 12.0001C2.6505 11.7239 2.42665 11.5001 2.1505 11.5001C1.88417 11.5001 1.61538 11.338 1.28512 10.9311C1.17034 10.7897 1.16314 10.7008 1.16741 10.6502C1.17301 10.584 1.20827 10.4901 1.30692 10.3652C1.47308 10.1549 1.706 9.98371 1.93241 9.8173C1.99879 9.76851 2.06461 9.72013 2.12802 9.6713C2.5216 9.36822 2.95138 9.20333 3.37825 9.16471C3.65327 9.13983 3.85605 8.89672 3.83117 8.6217Z" fill="#161616"/>
<path d="M11.9998 3.50008C11.7237 3.50008 11.4998 3.72394 11.4998 4.00008C11.4998 4.27622 11.7237 4.50008 11.9998 4.50008C12.6442 4.50008 13.1665 5.02242 13.1665 5.66675C13.1665 6.31108 12.6442 6.83341 11.9998 6.83341C11.7237 6.83341 11.4998 7.05727 11.4998 7.33341C11.4998 7.60956 11.7237 7.83341 11.9998 7.83341C13.1965 7.83341 14.1665 6.86336 14.1665 5.66675C14.1665 4.47013 13.1965 3.50008 11.9998 3.50008Z" fill="#161616"/>
<path d="M12.7116 8.16878C12.4365 8.1439 12.1934 8.34668 12.1685 8.6217C12.1437 8.89672 12.3464 9.13983 12.6215 9.16471C13.0483 9.20333 13.4781 9.36822 13.8717 9.6713C13.9351 9.72012 14.0009 9.76849 14.0673 9.81727C14.2937 9.98368 14.5266 10.1549 14.6928 10.3652C14.7914 10.4901 14.8267 10.584 14.8323 10.6502C14.8366 10.7008 14.8294 10.7897 14.7146 10.9311C14.3843 11.338 14.1155 11.5001 13.8492 11.5001C13.5731 11.5001 13.3492 11.7239 13.3492 12.0001C13.3492 12.2762 13.5731 12.5001 13.8492 12.5001C14.5819 12.5001 15.1078 12.0335 15.491 11.5613C15.7414 11.2528 15.8582 10.9144 15.8287 10.566C15.8006 10.2334 15.6445 9.95674 15.4775 9.74535C15.2161 9.41453 14.8284 9.13246 14.6013 8.96723C14.5535 8.93245 14.5127 8.90278 14.4818 8.87899C13.9456 8.46609 13.3372 8.22539 12.7116 8.16878Z" fill="#161616"/>
<path fill-rule="evenodd" clip-rule="evenodd" d="M5.12618 9.64894C6.88469 8.56157 9.11518 8.56157 10.8737 9.64894C10.9255 9.68099 10.9912 9.7194 11.0666 9.76353C11.4081 9.96337 11.9503 10.2806 12.3202 10.6567C12.5526 10.8928 12.7843 11.2148 12.8266 11.6162C12.8718 12.0456 12.6895 12.4431 12.3418 12.7871C11.7674 13.3554 11.0558 13.8334 10.1228 13.8334H5.87702C4.94405 13.8334 4.23249 13.3554 3.65808 12.7871C3.31037 12.4431 3.1281 12.0456 3.1733 11.6162C3.21555 11.2148 3.44729 10.8928 3.67963 10.6567C4.04957 10.2806 4.5917 9.96341 4.93321 9.76358C5.00867 9.71942 5.07433 9.681 5.12618 9.64894ZM10.3478 10.4995C8.91155 9.61139 7.08832 9.61139 5.6521 10.4995C5.56589 10.5528 5.47344 10.6073 5.37806 10.6635C5.03682 10.8647 4.65797 11.0881 4.39249 11.358C4.22916 11.524 4.17578 11.6452 4.16781 11.7209C4.16279 11.7686 4.1652 11.8822 4.36139 12.0763C4.84975 12.5594 5.32185 12.8334 5.87702 12.8334H10.1228C10.678 12.8334 11.1501 12.5594 11.6385 12.0763C11.8347 11.8822 11.8371 11.7686 11.8321 11.7209C11.8241 11.6452 11.7707 11.524 11.6074 11.358C11.3419 11.0881 10.9631 10.8648 10.6218 10.6635C10.5264 10.6073 10.434 10.5528 10.3478 10.4995Z" fill="#161616"/>
</svg>
