<svg width="16" height="16" viewBox="0 0 16 16" fill="none" xmlns="http://www.w3.org/2000/svg">
<path fill-rule="evenodd" clip-rule="evenodd" d="M4.16675 5.00008C4.16675 4.53984 4.53984 4.16675 5.00008 4.16675C5.46032 4.16675 5.83342 4.53984 5.83342 5.00008C5.83342 5.46032 5.46032 5.83342 5.00008 5.83342C4.53984 5.83342 4.16675 5.46032 4.16675 5.00008ZM5.00008 5.16675C5.09213 5.16675 5.16675 5.09213 5.16675 5.00008C5.16675 4.90803 5.09213 4.83341 5.00008 4.83341C4.90803 4.83341 4.83341 4.90803 4.83341 5.00008C4.83341 5.09213 4.90803 5.16675 5.00008 5.16675Z" fill="#161616"/>
<path d="M6.83342 5.00008C6.83342 4.72394 7.05727 4.50008 7.33342 4.50008L11.3334 4.50008C11.6096 4.50008 11.8334 4.72394 11.8334 5.00008C11.8334 5.27622 11.6096 5.50008 11.3334 5.50008L7.33342 5.50008C7.05727 5.50008 6.83342 5.27622 6.83342 5.00008Z" fill="#161616"/>
<path fill-rule="evenodd" clip-rule="evenodd" d="M4.16675 8.00008C4.16675 7.53984 4.53984 7.16675 5.00008 7.16675C5.46032 7.16675 5.83342 7.53984 5.83342 8.00008C5.83342 8.46032 5.46032 8.83342 5.00008 8.83342C4.53984 8.83342 4.16675 8.46032 4.16675 8.00008ZM5.00008 8.16675C5.09213 8.16675 5.16675 8.09213 5.16675 8.00008C5.16675 7.90803 5.09213 7.83342 5.00008 7.83342C4.90803 7.83342 4.83341 7.90803 4.83341 8.00008C4.83341 8.09213 4.90803 8.16675 5.00008 8.16675Z" fill="#161616"/>
<path d="M7.33342 7.50008C7.05727 7.50008 6.83342 7.72394 6.83342 8.00008C6.83342 8.27622 7.05727 8.50008 7.33342 8.50008L11.3334 8.50008C11.6096 8.50008 11.8334 8.27622 11.8334 8.00008C11.8334 7.72394 11.6096 7.50008 11.3334 7.50008L7.33342 7.50008Z" fill="#161616"/>
<path fill-rule="evenodd" clip-rule="evenodd" d="M5.00008 10.1667C4.53984 10.1667 4.16675 10.5398 4.16675 11.0001C4.16675 11.4603 4.53984 11.8334 5.00008 11.8334C5.46032 11.8334 5.83342 11.4603 5.83342 11.0001C5.83342 10.5398 5.46032 10.1667 5.00008 10.1667ZM5.16675 11.0001C5.16675 11.0921 5.09213 11.1667 5.00008 11.1667C4.90803 11.1667 4.83341 11.0921 4.83341 11.0001C4.83341 10.908 4.90803 10.8334 5.00008 10.8334C5.09213 10.8334 5.16675 10.908 5.16675 11.0001Z" fill="#161616"/>
<path d="M6.83342 11.0001C6.83342 10.7239 7.05727 10.5001 7.33342 10.5001H11.3334C11.6096 10.5001 11.8334 10.7239 11.8334 11.0001C11.8334 11.2762 11.6096 11.5001 11.3334 11.5001H7.33342C7.05727 11.5001 6.83342 11.2762 6.83342 11.0001Z" fill="#161616"/>
<path fill-rule="evenodd" clip-rule="evenodd" d="M7.96197 1.16675L8.0382 1.16675C9.49866 1.16674 10.6458 1.16673 11.5414 1.28714C12.4592 1.41054 13.1873 1.66856 13.7595 2.24069C14.3316 2.81282 14.5896 3.54099 14.713 4.45876C14.8334 5.35437 14.8334 6.50151 14.8334 7.96197V8.03822C14.8334 9.49868 14.8334 10.6458 14.713 11.5414C14.5896 12.4592 14.3316 13.1873 13.7595 13.7595C13.1873 14.3316 12.4592 14.5896 11.5414 14.713C10.6458 14.8334 9.49866 14.8334 8.03819 14.8334H7.96195C6.50148 14.8334 5.35437 14.8334 4.45876 14.713C3.54099 14.5896 2.81282 14.3316 2.24069 13.7595C1.66856 13.1873 1.41054 12.4592 1.28714 11.5414C1.16673 10.6458 1.16674 9.49867 1.16675 8.03821L1.16675 7.96197C1.16674 6.5015 1.16673 5.35437 1.28714 4.45876C1.41054 3.54099 1.66856 2.81282 2.24069 2.24069C2.81282 1.66856 3.54099 1.41054 4.45876 1.28714C5.35437 1.16673 6.5015 1.16674 7.96197 1.16675ZM4.59201 2.27823C3.78513 2.38671 3.30316 2.59243 2.9478 2.9478C2.59243 3.30316 2.38671 3.78513 2.27823 4.59201C2.16781 5.41328 2.16675 6.49317 2.16675 8.00008C2.16675 9.507 2.16781 10.5869 2.27823 11.4082C2.38671 12.215 2.59243 12.697 2.9478 13.0524C3.30316 13.4077 3.78513 13.6135 4.59201 13.7219C5.41328 13.8324 6.49317 13.8334 8.00008 13.8334C9.507 13.8334 10.5869 13.8324 11.4082 13.7219C12.215 13.6135 12.697 13.4077 13.0524 13.0524C13.4077 12.697 13.6135 12.215 13.7219 11.4082C13.8324 10.5869 13.8334 9.507 13.8334 8.00008C13.8334 6.49317 13.8324 5.41328 13.7219 4.59201C13.6135 3.78513 13.4077 3.30316 13.0524 2.9478C12.697 2.59243 12.215 2.38671 11.4082 2.27823C10.5869 2.16781 9.507 2.16675 8.00008 2.16675C6.49317 2.16675 5.41328 2.16781 4.59201 2.27823Z" fill="#161616"/>
</svg>
