<svg width="16" height="16" viewBox="0 0 16 16" fill="none" xmlns="http://www.w3.org/2000/svg">
<path fill-rule="evenodd" clip-rule="evenodd" d="M6.16659 6C6.16659 4.98748 6.98739 4.16667 7.99992 4.16667C9.01244 4.16667 9.83325 4.98748 9.83325 6C9.83325 7.01249 9.01245 7.83333 7.99992 7.83333C6.98739 7.83333 6.16659 7.01249 6.16659 6ZM7.99992 5.16667C7.53968 5.16667 7.16659 5.53976 7.16659 6C7.16659 6.46022 7.53969 6.83333 7.99992 6.83333C8.46015 6.83333 8.83325 6.46022 8.83325 6C8.83325 5.53976 8.46016 5.16667 7.99992 5.16667Z" fill="#161616"/>
<path fill-rule="evenodd" clip-rule="evenodd" d="M3.96525 1.5L12.0346 1.5C12.6336 1.49998 13.1331 1.49997 13.5296 1.55328C13.9481 1.60955 14.326 1.73333 14.6296 2.03697C14.9333 2.34062 15.057 2.71849 15.1133 3.13702C15.1666 3.53354 15.1666 4.03302 15.1666 4.63201L15.1666 8.01684C15.1666 8.31315 15.1666 8.5605 15.1527 8.76358C15.1383 8.97498 15.1072 9.17466 15.027 9.36825C14.841 9.81747 14.4841 10.1744 14.0348 10.3604C13.8412 10.4406 13.6416 10.4717 13.4302 10.4862C13.3487 10.4917 13.2602 10.495 13.1643 10.497C13.1605 10.8933 13.1508 11.2357 13.1254 11.5337C13.0833 12.0287 12.9954 12.4468 12.7927 12.8261C12.4974 13.3784 12.045 13.8308 11.4927 14.1261C11.1133 14.3288 10.6953 14.4167 10.2002 14.4588C9.71626 14.5 9.11496 14.5 8.35619 14.5H7.98166C7.37589 14.5 6.89575 14.5 6.5068 14.4735C6.10946 14.4464 5.77086 14.3899 5.45475 14.259C4.67883 13.9376 4.06237 13.3211 3.74097 12.5452C3.61003 12.2291 3.55356 11.8905 3.52645 11.4931C3.50736 11.2132 3.502 10.8861 3.5005 10.499C3.10325 10.4961 2.75939 10.4856 2.47027 10.4467C2.05174 10.3905 1.67387 10.2667 1.37023 9.96303C1.06658 9.65938 0.942798 9.28152 0.886528 8.86299C0.833218 8.46647 0.833234 7.967 0.833253 7.36802L0.833253 4.632C0.833234 4.03303 0.833218 3.53353 0.886528 3.13702C0.942798 2.71849 1.06658 2.34062 1.37023 2.03697C1.67387 1.73333 2.05174 1.60955 2.47027 1.55328C2.86678 1.49997 3.36628 1.49998 3.96525 1.5ZM4.50055 10.5C4.50204 10.8774 4.50709 11.1753 4.52413 11.425C4.54777 11.7715 4.59279 11.9885 4.66485 12.1625C4.88475 12.6934 5.30654 13.1152 5.83744 13.3351C6.01139 13.4071 6.22845 13.4522 6.57487 13.4758C6.92579 13.4997 7.37182 13.5 7.99992 13.5H8.33325C9.12007 13.5 9.67885 13.4996 10.1155 13.4624C10.5459 13.4258 10.8115 13.3563 11.0213 13.2442C11.3992 13.0422 11.7087 12.7326 11.9107 12.3547C12.0229 12.1449 12.0924 11.8793 12.129 11.4489C12.1662 11.0123 12.1666 10.4535 12.1666 9.66667V6.58535C11.584 6.79127 11.1666 7.34689 11.1666 8V9.33333C11.1666 9.60948 10.9427 9.83333 10.6666 9.83333C9.83816 9.83333 9.16658 10.5049 9.16658 11.3333C9.16658 11.6095 8.94273 11.8333 8.66659 11.8333C8.39044 11.8333 8.16659 11.6095 8.16659 11.3333C8.16659 11.0411 8.21671 10.7606 8.30884 10.5L4.50055 10.5ZM8.96689 9.5C9.29657 9.19421 9.70888 8.97625 10.1666 8.88334V8C10.1666 6.61929 11.2859 5.5 12.6666 5.5C12.9427 5.5 13.1666 5.72386 13.1666 6V9.49677C13.2394 9.49506 13.3038 9.49245 13.3621 9.48847C13.5226 9.47752 13.6007 9.45787 13.6522 9.43657C13.8563 9.35199 14.0186 9.18976 14.1032 8.98557C14.1245 8.93414 14.1441 8.85599 14.1551 8.69551C14.1663 8.53053 14.1666 8.31747 14.1666 8L14.1666 4.66667C14.1666 4.02399 14.1655 3.59229 14.1222 3.27026C14.0809 2.96262 14.0094 2.83096 13.9225 2.74408C13.8356 2.6572 13.704 2.58572 13.3963 2.54436C13.0743 2.50106 12.6426 2.5 11.9999 2.5L3.99992 2.5C3.35725 2.5 2.92554 2.50106 2.60352 2.54436C2.29587 2.58572 2.16421 2.6572 2.07733 2.74408C1.99045 2.83096 1.91897 2.96262 1.87761 3.27026C1.83432 3.59229 1.83325 4.02399 1.83325 4.66667L1.83325 7.33333C1.83325 7.97601 1.83432 8.40772 1.87761 8.72974C1.91897 9.03738 1.99045 9.16905 2.07733 9.25592C2.16421 9.3428 2.29587 9.41428 2.60352 9.45564C2.92554 9.49894 3.35725 9.5 3.99992 9.5" fill="#161616"/>
</svg>
