<svg width="16" height="16" viewBox="0 0 16 16" fill="none" xmlns="http://www.w3.org/2000/svg">
<path fill-rule="evenodd" clip-rule="evenodd" d="M7.99992 15.1666C4.04188 15.1666 0.833252 11.958 0.833252 7.99992C0.833252 4.04188 4.04188 0.833252 7.99992 0.833252C11.958 0.833252 15.1666 4.04188 15.1666 7.99992C15.1666 11.958 11.958 15.1666 7.99992 15.1666ZM5.3626 13.5758C3.35665 12.6253 1.94548 10.6242 1.83964 8.28316C2.28563 8.51558 2.80886 8.67872 3.39244 8.67872C3.81493 8.67872 4.1255 8.69933 4.35651 8.74261C4.58678 8.78574 4.70247 8.84513 4.76546 8.89671C4.87191 8.98388 4.9722 9.17008 4.9722 9.83446L4.97219 9.88396C4.97216 10.4992 4.97214 10.8647 5.02102 11.1916C5.07136 11.5282 5.17253 11.8181 5.3334 12.279L5.34673 12.3172C5.53485 12.8564 5.56104 13.2508 5.3626 13.5758ZM7.99992 14.1666C7.41307 14.1666 6.84536 14.0846 6.30763 13.9315C6.62992 13.2695 6.49257 12.5657 6.29091 11.9878C6.11292 11.4776 6.04497 11.2774 6.01003 11.0437C5.97355 10.7998 5.9722 10.5138 5.9722 9.83446C5.9722 9.17424 5.89917 8.53257 5.39902 8.12302C5.15872 7.92624 4.86279 7.82005 4.54063 7.7597C4.2192 7.69949 3.83652 7.67872 3.39244 7.67872C2.82581 7.67872 2.31249 7.44865 1.89262 7.14081C2.22531 4.75398 3.9242 2.80459 6.17378 2.10812C6.15912 2.29547 6.16667 2.48269 6.1982 2.66451C6.28979 3.19267 6.59048 3.69029 7.14171 3.95784C7.35187 4.05985 7.43634 4.16284 7.48283 4.24885C7.53863 4.35209 7.56612 4.47712 7.59701 4.68471C7.60033 4.707 7.60363 4.73012 7.60704 4.754C7.66379 5.15129 7.75046 5.75799 8.42122 6.19209C8.8742 6.48526 9.44112 6.59044 10.0419 6.41366C10.6313 6.24022 11.2124 5.80878 11.7542 5.10746C12.0882 4.67516 12.5408 4.45361 12.9752 4.3558C13.7242 5.37671 14.1666 6.63665 14.1666 7.99992C14.1666 8.07698 14.1652 8.15371 14.1624 8.23009C13.5908 8.0943 12.9394 8.15447 12.2904 8.6209C11.6897 9.05259 11.2003 9.08967 10.7506 9.1102L10.6891 9.11286C10.4848 9.12147 10.2245 9.13243 9.99274 9.20552C9.69062 9.30081 9.4385 9.49461 9.26457 9.82793C9.02089 10.2949 9.06099 10.7069 9.19288 11.067C9.25116 11.2262 9.32879 11.3795 9.39438 11.5091L9.39867 11.5176C9.46927 11.6571 9.53121 11.7799 9.58293 11.9111C9.68035 12.1584 9.73918 12.4306 9.67718 12.794C9.62314 13.1107 9.47277 13.5221 9.13423 14.0625C8.76655 14.1308 8.38741 14.1666 7.99992 14.1666ZM10.4658 13.6538C12.2805 12.8612 13.64 11.2205 14.0433 9.23268C13.6716 9.11372 13.2793 9.1416 12.874 9.43293C12.0375 10.0342 11.3128 10.0856 10.7962 10.1092C10.525 10.1215 10.394 10.1275 10.2935 10.1592C10.2394 10.1763 10.2004 10.1962 10.1511 10.2905C10.0663 10.453 10.0731 10.5627 10.1319 10.7231C10.1677 10.8208 10.2191 10.9242 10.2909 11.066L10.2962 11.0764C10.3628 11.2081 10.4436 11.3678 10.5133 11.5445C10.6623 11.9227 10.762 12.3816 10.6629 12.9622C10.6257 13.1802 10.5615 13.4098 10.4658 13.6538ZM7.22731 1.88118C7.1649 2.09473 7.1513 2.30802 7.18349 2.49364C7.22997 2.76166 7.36493 2.95461 7.57837 3.05821C7.95483 3.24094 8.20533 3.48249 8.36254 3.77334C8.51045 4.04696 8.55541 4.33111 8.58612 4.53755L8.58874 4.55514C8.65158 4.97783 8.67991 5.16836 8.96454 5.35257C9.17797 5.4907 9.44407 5.54718 9.75962 5.45433C10.0865 5.35815 10.5051 5.08866 10.9629 4.49609C11.335 4.0144 11.7955 3.71463 12.253 3.53457C11.1465 2.4804 9.64881 1.83325 7.99992 1.83325C7.73826 1.83325 7.4804 1.84955 7.22731 1.88118Z" fill="#161616"/>
</svg>
