<svg width="20" height="22" viewBox="0 0 20 22" fill="none" xmlns="http://www.w3.org/2000/svg">
<g id="elements">
<path id="Icon" fill-rule="evenodd" clip-rule="evenodd" d="M10.7925 5.3339C10.8723 4.67667 11.0718 3.90579 11.4499 3.24934C11.9452 2.38939 12.722 1.75 14 1.75C14.4142 1.75 14.75 1.41421 14.75 1C14.75 0.585786 14.4142 0.25 14 0.25C12.078 0.25 10.8548 1.27728 10.1501 2.50066C9.61962 3.42163 9.37027 4.46493 9.2853 5.31803C8.35539 5.49747 7.54786 6.02043 7 6.74963C6.31583 5.83901 5.2267 5.25 4 5.25C1.92893 5.25 0.25 6.92893 0.25 9C0.25 10.8934 1.6533 12.4591 3.47659 12.7138C3.33005 13.1151 3.25 13.5483 3.25 13.9999C3.25 15.819 4.5452 17.3355 6.2637 17.6777C6.25463 17.784 6.25 17.8915 6.25 17.9999C6.25 20.071 7.92893 21.7499 10 21.7499C12.0711 21.7499 13.75 20.071 13.75 17.9999C13.75 17.8915 13.7454 17.784 13.7363 17.6777C15.4548 17.3355 16.75 15.819 16.75 13.9999C16.75 13.5483 16.67 13.1151 16.5234 12.7138C18.3467 12.4591 19.75 10.8934 19.75 9C19.75 6.92893 18.0711 5.25 16 5.25C14.7733 5.25 13.6842 5.83901 13 6.74964C12.4675 6.04084 11.6896 5.5269 10.7925 5.3339ZM10 6.75C8.75736 6.75 7.75 7.75736 7.75 9C7.75 10.2426 8.75736 11.25 10 11.25C11.2426 11.25 12.25 10.2426 12.25 9C12.25 7.75736 11.2426 6.75 10 6.75ZM4 6.75C5.24264 6.75 6.25 7.75736 6.25 9C6.25 10.2426 5.24264 11.25 4 11.25C2.75736 11.25 1.75 10.2426 1.75 9C1.75 7.75736 2.75736 6.75 4 6.75ZM5.30955 12.515C5.98755 12.2623 6.57274 11.819 7 11.2504C7.42726 11.819 8.01245 12.2623 8.69045 12.515C9.0393 12.9117 9.25 13.4303 9.25 13.9999C9.25 15.2426 8.24264 16.2499 7 16.2499C5.75736 16.2499 4.75 15.2426 4.75 13.9999C4.75 13.4303 4.9607 12.9117 5.30955 12.515ZM16 6.75C17.2426 6.75 18.25 7.75736 18.25 9C18.25 10.2426 17.2426 11.25 16 11.25C14.7574 11.25 13.75 10.2426 13.75 9C13.75 7.75736 14.7574 6.75 16 6.75ZM11.3096 12.515C11.9876 12.2623 12.5727 11.819 13 11.2504C13.4273 11.819 14.0124 12.2623 14.6904 12.515C15.0393 12.9117 15.25 13.4303 15.25 13.9999C15.25 15.2426 14.2426 16.2499 13 16.2499C11.7574 16.2499 10.75 15.2426 10.75 13.9999C10.75 13.4303 10.9607 12.9117 11.3096 12.515ZM10 16.2503C9.4638 16.964 8.67887 17.4801 7.77392 17.67C7.75818 17.7774 7.75 17.8876 7.75 17.9999C7.75 19.2426 8.75736 20.2499 10 20.2499C11.2426 20.2499 12.25 19.2426 12.25 17.9999C12.25 17.8876 12.2418 17.7774 12.2261 17.67C11.3211 17.4801 10.5362 16.964 10 16.2503Z" fill="#067647"/>
</g>
</svg>
