<svg width="22" height="22" viewBox="0 0 22 22" fill="none" xmlns="http://www.w3.org/2000/svg">
<g id="elements">
<path id="Icon" fill-rule="evenodd" clip-rule="evenodd" d="M7.48392 1.2243C7.56101 0.978303 7.50636 0.709958 7.33921 0.513705C7.17206 0.317452 6.91583 0.220798 6.6607 0.257761C2.10256 0.918154 0.530694 4.61201 0.284455 6.61418C0.0190386 8.77228 1.32869 10.7886 3.33513 11.3589C3.53608 13.7194 4.11237 16.3503 5.25917 19.1694C4.94955 19.6309 4.64665 20.1152 4.35163 20.6233C4.14366 20.9816 4.26546 21.4405 4.62368 21.6485C4.9819 21.8565 5.44088 21.7347 5.64886 21.3765C6.46915 19.9636 7.34946 18.753 8.26057 17.7183C9.83575 19.9524 12.845 20.4063 15.2677 18.7621C15.9719 18.2841 16.4966 17.6166 16.9359 16.9232C17.247 16.432 17.5412 15.8833 17.8263 15.3513C17.9368 15.1452 18.046 14.9415 18.1543 14.7447C18.9614 13.2777 19.8172 12.0056 21.3025 11.3515C21.5228 11.2545 21.6832 11.0575 21.7336 10.8221C21.784 10.5866 21.7183 10.3413 21.5569 10.1626C19.5568 7.94699 17.2689 7.21115 15.1856 7.25157C13.1342 7.29136 11.3169 8.08038 10.1706 8.85835C7.78349 10.4784 6.67681 13.6416 7.54156 16.2779C7.12318 16.7271 6.71099 17.2083 6.30726 17.7236C5.48378 15.4889 5.03878 13.399 4.85426 11.5008C6.83147 11.3198 8.46585 9.72553 8.72089 7.65174C8.80132 6.99782 8.66996 6.38318 8.48633 5.83002C8.35738 5.44158 8.18404 5.03489 8.022 4.6547C7.96106 4.51172 7.9017 4.37245 7.84691 4.23935C7.4231 3.20967 7.15258 2.28158 7.48392 1.2243ZM9.32375 16.601C10.6536 15.3098 12.0233 14.3569 13.3477 13.6646C13.7148 13.4727 13.8568 13.0196 13.6649 12.6525C13.473 12.2854 13.0199 12.1434 12.6528 12.3352C11.3715 13.005 10.0649 13.8907 8.79298 15.0426C8.54926 13.2366 9.37929 11.2082 11.013 10.0995C11.9722 9.44853 13.5119 8.78431 15.2147 8.75128C16.6645 8.72316 18.2594 9.14995 19.7631 10.4898C18.3669 11.4162 17.5224 12.7814 16.8401 14.0217C16.7128 14.2529 16.5929 14.4767 16.4766 14.6936C16.2026 15.205 15.949 15.6781 15.6687 16.1205C15.2771 16.7387 14.8839 17.2097 14.4253 17.5209C12.5306 18.8068 10.3497 18.3302 9.32375 16.601ZM4.75931 10.0015C5.99737 9.86427 7.06166 8.85458 7.23211 7.46864C7.27426 7.12592 7.21222 6.75295 7.06272 6.30261C6.95442 5.97634 6.81916 5.65911 6.66744 5.30328C6.60116 5.14783 6.5315 4.98443 6.45981 4.81027C6.12817 4.00452 5.79255 3.05428 5.8406 1.97225C2.98403 2.84809 1.95088 5.35285 1.77324 6.79728C1.61814 8.05841 2.25656 9.19661 3.25276 9.71769C3.238 8.72333 3.2888 7.7868 3.38778 6.91542C3.43454 6.50385 3.80608 6.20811 4.21764 6.25486C4.62921 6.30161 4.92495 6.67315 4.8782 7.08472C4.77638 7.98107 4.72893 8.95643 4.75931 10.0015Z" fill="#067647"/>
</g>
</svg>
