<svg width="22" height="22" viewBox="0 0 22 22" fill="none" xmlns="http://www.w3.org/2000/svg">
<g id="elements">
<path id="Icon" fill-rule="evenodd" clip-rule="evenodd" d="M3 16.25C1.48122 16.25 0.25 17.4812 0.25 19C0.25 20.5188 1.48122 21.75 3 21.75C4.51878 21.75 5.75 20.5188 5.75 19C5.75 18.5478 5.64088 18.1212 5.44754 17.7449L8.15972 15.8076C8.95193 16.3995 9.93504 16.75 11 16.75C12.065 16.75 13.0481 16.3995 13.8403 15.8076L16.5525 17.7448C16.3591 18.1211 16.25 18.5478 16.25 19C16.25 20.5188 17.4812 21.75 19 21.75C20.5188 21.75 21.75 20.5188 21.75 19C21.75 17.4812 20.5188 16.25 19 16.25C18.4833 16.25 17.9999 16.3925 17.5869 16.6404L14.8959 14.7182C15.4342 13.9481 15.75 13.0109 15.75 12C15.75 9.63187 14.017 7.6685 11.7501 7.30889V5.64647C12.9043 5.31998 13.75 4.25876 13.75 3C13.75 1.48122 12.5188 0.25 11 0.25C9.48122 0.25 8.25 1.48122 8.25 3C8.25 4.2588 9.09578 5.32006 10.2501 5.6465V7.30887C7.98304 7.66843 6.25 9.63183 6.25 12C6.25 13.0109 6.56581 13.9481 7.10416 14.7182L4.41316 16.6404C4.00017 16.3925 3.51673 16.25 3 16.25ZM1.75 19C1.75 18.3096 2.30964 17.75 3 17.75C3.69036 17.75 4.25 18.3096 4.25 19C4.25 19.6904 3.69036 20.25 3 20.25C2.30964 20.25 1.75 19.6904 1.75 19ZM11 8.75C9.20507 8.75 7.75 10.2051 7.75 12C7.75 13.7949 9.20507 15.25 11 15.25C12.7949 15.25 14.25 13.7949 14.25 12C14.25 10.2051 12.7949 8.75 11 8.75ZM11 1.75C10.3096 1.75 9.75 2.30964 9.75 3C9.75 3.69036 10.3096 4.25 11 4.25C11.6904 4.25 12.25 3.69036 12.25 3C12.25 2.30964 11.6904 1.75 11 1.75ZM19 17.75C18.3096 17.75 17.75 18.3096 17.75 19C17.75 19.6904 18.3096 20.25 19 20.25C19.6904 20.25 20.25 19.6904 20.25 19C20.25 18.3096 19.6904 17.75 19 17.75Z" fill="#067647"/>
</g>
</svg>
