<svg width="24" height="18" viewBox="0 0 24 18" fill="none" xmlns="http://www.w3.org/2000/svg">
<g id="elements">
<g id="Icon">
<path fill-rule="evenodd" clip-rule="evenodd" d="M11.9999 0.25C9.65268 0.25 7.74989 2.15279 7.74989 4.5C7.74989 6.84721 9.65268 8.75 11.9999 8.75C14.3471 8.75 16.2499 6.84721 16.2499 4.5C16.2499 2.15279 14.3471 0.25 11.9999 0.25ZM9.24989 4.5C9.24989 2.98122 10.4811 1.75 11.9999 1.75C13.5187 1.75 14.7499 2.98122 14.7499 4.5C14.7499 6.01878 13.5187 7.25 11.9999 7.25C10.4811 7.25 9.24989 6.01878 9.24989 4.5Z" fill="#067647"/>
<path d="M5.49994 2.25C3.70501 2.25 2.24994 3.70507 2.24994 5.5C2.24994 7.29493 3.70501 8.75 5.49994 8.75C5.91415 8.75 6.24994 8.41421 6.24994 8C6.24994 7.58579 5.91415 7.25 5.49994 7.25C4.53344 7.25 3.74994 6.4665 3.74994 5.5C3.74994 4.5335 4.53344 3.75 5.49994 3.75C5.91415 3.75 6.24994 3.41421 6.24994 3C6.24994 2.58579 5.91415 2.25 5.49994 2.25Z" fill="#067647"/>
<path d="M5.74689 9.93242C5.70957 9.5199 5.34489 9.21573 4.93236 9.25305C3.99383 9.33796 3.08128 9.69902 2.27699 10.3184C2.23065 10.3541 2.1696 10.3985 2.09788 10.4506C1.75719 10.6985 1.17549 11.1217 0.783477 11.6179C0.532995 11.935 0.298756 12.3499 0.256583 12.8489C0.212416 13.3714 0.387592 13.8791 0.763149 14.3418C1.338 15.0501 2.1268 15.75 3.22589 15.75C3.64011 15.75 3.97589 15.4142 3.97589 15C3.97589 14.5858 3.64011 14.25 3.22589 14.25C2.82639 14.25 2.42321 14.0069 1.92782 13.3965C1.75564 13.1844 1.74485 13.051 1.75125 12.9752C1.75965 12.8758 1.81254 12.7351 1.96051 12.5477C2.20976 12.2322 2.55914 11.9754 2.89875 11.7258C2.99832 11.6526 3.09705 11.5801 3.19217 11.5068C3.78254 11.0522 4.4272 10.8049 5.06751 10.747C5.48004 10.7096 5.78421 10.345 5.74689 9.93242Z" fill="#067647"/>
<path d="M17.9999 2.25C17.5857 2.25 17.2499 2.58579 17.2499 3C17.2499 3.41421 17.5857 3.75 17.9999 3.75C18.9664 3.75 19.7499 4.5335 19.7499 5.5C19.7499 6.4665 18.9664 7.25 17.9999 7.25C17.5857 7.25 17.2499 7.58579 17.2499 8C17.2499 8.41421 17.5857 8.75 17.9999 8.75C19.7948 8.75 21.2499 7.29493 21.2499 5.5C21.2499 3.70507 19.7948 2.25 17.9999 2.25Z" fill="#067647"/>
<path d="M19.0675 9.25305C18.6549 9.21573 18.2903 9.5199 18.2529 9.93242C18.2156 10.345 18.5198 10.7096 18.9323 10.747C19.5726 10.8049 20.2173 11.0522 20.8077 11.5068C20.9028 11.5801 21.0015 11.6526 21.101 11.7258C21.4406 11.9754 21.7901 12.2322 22.0393 12.5477C22.1873 12.7351 22.2402 12.8758 22.2486 12.9752C22.255 13.051 22.2442 13.1844 22.072 13.3965C21.5766 14.0069 21.1734 14.25 20.7739 14.25C20.3597 14.25 20.0239 14.5858 20.0239 15C20.0239 15.4142 20.3597 15.75 20.7739 15.75C21.873 15.75 22.6618 15.0501 23.2367 14.3418C23.6122 13.8791 23.7874 13.3714 23.7432 12.8489C23.7011 12.3499 23.4668 11.935 23.2164 11.6179C22.8243 11.1217 22.2427 10.6986 21.9021 10.4507C21.8303 10.3985 21.7692 10.3541 21.7228 10.3184C20.9185 9.69902 20.006 9.33796 19.0675 9.25305Z" fill="#067647"/>
<path fill-rule="evenodd" clip-rule="evenodd" d="M7.6894 11.4733C10.3272 9.84224 13.6729 9.84224 16.3107 11.4733C16.3884 11.5214 16.4869 11.579 16.6 11.6452C17.1123 11.9449 17.9256 12.4208 18.4805 12.9849C18.829 13.3391 19.1766 13.8221 19.24 14.4242C19.3078 15.0683 19.0344 15.6646 18.5128 16.1806C17.6512 17.033 16.5839 17.75 15.1844 17.75H8.81567C7.41621 17.75 6.34888 17.033 5.48726 16.1806C4.96569 15.6646 4.69229 15.0683 4.76009 14.4242C4.82347 13.8221 5.17107 13.3391 5.51959 12.9849C6.07449 12.4208 6.88768 11.945 7.39995 11.6452C7.51314 11.579 7.61163 11.5214 7.6894 11.4733ZM15.5218 12.7491C13.3675 11.417 10.6326 11.417 8.47829 12.7491C8.34897 12.8291 8.2103 12.9108 8.06723 12.9952C7.55536 13.297 6.98709 13.6321 6.58888 14.0368C6.34388 14.2859 6.26381 14.4676 6.25185 14.5812C6.24432 14.6527 6.24793 14.8231 6.54222 15.1143C7.27476 15.839 7.98291 16.25 8.81567 16.25H15.1844C16.0172 16.25 16.7253 15.839 17.4579 15.1143C17.7521 14.8231 17.7558 14.6527 17.7482 14.5812C17.7363 14.4676 17.6562 14.2859 17.4112 14.0368C17.013 13.6321 16.4448 13.297 15.9329 12.9952C15.7898 12.9108 15.6511 12.8291 15.5218 12.7491Z" fill="#067647"/>
</g>
</g>
</svg>
