<svg width="29" height="28" viewBox="0 0 29 28" fill="none" xmlns="http://www.w3.org/2000/svg">
<path d="M20.2084 6.37348C20.1813 6.35654 20.1549 6.34096 20.1292 6.32669C19.8852 6.19081 19.5305 6.06804 19.1519 6.11625C19.1423 6.11746 19.1328 6.11883 19.1234 6.12036L16.9353 6.47253C16.4582 6.54932 16.1336 6.99834 16.2104 7.47545C16.2872 7.95256 16.7362 8.27708 17.2134 8.20029L18.0482 8.06593C14.5869 12.5369 9.98986 12.6001 7.76999 12.5262C7.28701 12.5101 6.88243 12.8886 6.86634 13.3716C6.85025 13.8545 7.22874 14.2591 7.71172 14.2752C10.1167 14.3553 15.5745 14.2893 19.5703 8.95686L19.758 9.5768C19.8979 10.0393 20.3864 10.3008 20.8489 10.1608C21.3114 10.0208 21.5729 9.53238 21.4329 9.06985L20.8544 7.15834C20.8483 7.13815 20.8414 7.1182 20.8339 7.09851C20.7053 6.76326 20.4544 6.53293 20.2346 6.39015C20.226 6.38447 20.2173 6.3789 20.2084 6.37348Z" fill="#1B8354"/>
<path d="M21.4583 15.1666C21.4583 14.6833 21.0665 14.2916 20.5833 14.2916C20.1 14.2916 19.7083 14.6833 19.7083 15.1666V20.9999C19.7083 21.4832 20.1 21.8749 20.5833 21.8749C21.0665 21.8749 21.4583 21.4832 21.4583 20.9999V15.1666Z" fill="#1B8354"/>
<path d="M14.75 16.6249C15.2332 16.6249 15.625 17.0167 15.625 17.4999V20.9999C15.625 21.4832 15.2332 21.8749 14.75 21.8749C14.2667 21.8749 13.875 21.4832 13.875 20.9999V17.4999C13.875 17.0167 14.2667 16.6249 14.75 16.6249Z" fill="#1B8354"/>
<path d="M8.91663 17.7916C9.39988 17.7916 9.79163 18.1833 9.79163 18.6666V20.9999C9.79163 21.4832 9.39988 21.8749 8.91663 21.8749C8.43338 21.8749 8.04163 21.4832 8.04163 20.9999V18.6666C8.04163 18.1833 8.43338 17.7916 8.91663 17.7916Z" fill="#1B8354"/>
<path fill-rule="evenodd" clip-rule="evenodd" d="M14.8167 2.0416H14.6832C12.1274 2.04158 10.12 2.04157 8.55265 2.25229C6.94655 2.46822 5.67225 2.91976 4.67102 3.921C3.66979 4.92223 3.21825 6.19653 3.00232 7.80263C2.7916 9.36995 2.79161 11.3774 2.79163 13.9332V14.0666C2.79161 16.6224 2.7916 18.6299 3.00232 20.1972C3.21825 21.8033 3.66979 23.0776 4.67101 24.0789C5.67225 25.0802 6.94656 25.5317 8.55266 25.7476C10.1198 25.9583 12.1269 25.9583 14.6822 25.9583H14.8177C17.373 25.9583 19.3802 25.9583 20.9473 25.7476C22.5534 25.5317 23.8277 25.0802 24.829 24.0789C25.8302 23.0776 26.2817 21.8033 26.4976 20.1972C26.7083 18.6299 26.7083 16.6225 26.7083 14.0667V13.9322C26.7083 11.3769 26.7083 9.36974 26.4977 7.80264C26.2817 6.19653 25.8302 4.92222 24.8289 3.92098C23.8277 2.91976 22.5534 2.46822 20.9472 2.25229C19.3799 2.04157 17.3725 2.04158 14.8167 2.0416ZM5.90846 5.15843C6.53034 4.53654 7.37379 4.17652 8.78583 3.98668C10.2231 3.79345 12.1129 3.7916 14.75 3.7916C17.387 3.7916 19.2768 3.79346 20.7141 3.98668C22.1261 4.17653 22.9696 4.53655 23.5915 5.15844C24.2134 5.78032 24.5734 6.62375 24.7633 8.03579C24.9565 9.47302 24.9583 11.3628 24.9583 13.9999C24.9583 16.637 24.9564 18.5268 24.7632 19.964C24.5734 21.3761 24.2134 22.2196 23.5915 22.8415C22.9696 23.4634 22.1262 23.8234 20.7141 24.0132C19.2769 24.2064 17.387 24.2083 14.75 24.2083C12.1128 24.2083 10.223 24.2064 8.78582 24.0132C7.37378 23.8234 6.53035 23.4634 5.90847 22.8415C5.28658 22.2196 4.92656 21.3761 4.73671 19.964C4.54348 18.5268 4.54163 16.637 4.54163 13.9999C4.54163 11.3628 4.54348 9.47303 4.73671 8.03581C4.92656 6.62376 5.28657 5.78032 5.90846 5.15843Z" fill="#1B8354"/>
</svg>
