<svg width="165" height="165" viewBox="0 0 165 165" fill="none" xmlns="http://www.w3.org/2000/svg">
<g filter="url(#filter0_d_27_9193)">
<path d="M96.4472 109.017L108.468 96.994C116.279 89.1824 116.279 76.5173 108.468 68.7057L96.4472 56.6831C88.6367 48.8715 75.9734 48.8715 68.1629 56.6831L56.1421 68.7057C48.3316 76.5173 48.3316 89.1824 56.1421 96.994L68.1629 109.017C75.9734 116.828 88.6367 116.828 96.4472 109.017Z" fill="white"/>
</g>
<path d="M85.4447 76.6037C85.2833 76.7256 84.8016 77.0895 84.5239 77.3062C83.9677 77.7403 83.2286 78.3334 82.4917 78.9732C81.7511 79.6163 81.0298 80.2918 80.4995 80.8919C80.2337 81.1928 80.0316 81.4571 79.9001 81.6753C79.7765 81.8804 79.7507 82.0016 79.7507 82.0016C79.7507 82.0016 79.7765 82.1192 79.9001 82.3244C80.0316 82.5425 80.2337 82.8068 80.4995 83.1078C81.0298 83.7079 81.7511 84.3834 82.4917 85.0264C83.2286 85.6662 83.9677 86.2593 84.5239 86.6934C84.8016 86.9101 85.2827 87.2735 85.4441 87.3954C85.7776 87.6411 85.8495 88.1111 85.6039 88.4446C85.3583 88.7781 84.8888 88.8494 84.5552 88.6037L84.5527 88.6018C84.3834 88.474 83.8844 88.0971 83.6011 87.8759C83.0323 87.4321 82.2714 86.8216 81.5083 86.1591C80.7489 85.4997 79.9702 84.7741 79.3755 84.101C79.0788 83.7653 78.8121 83.425 78.6155 83.0988C78.4313 82.7932 78.25 82.4063 78.25 81.9998C78.25 81.5933 78.4313 81.2064 78.6155 80.9008C78.8121 80.5747 79.0788 80.2344 79.3755 79.8987C79.9702 79.2256 80.7489 78.4999 81.5083 77.8406C82.2714 77.178 83.0323 76.5676 83.601 76.1237C83.8846 75.9024 84.3836 75.5255 84.5525 75.3979L84.5547 75.3963C84.8882 75.1506 85.3582 75.2215 85.6038 75.5551C85.8495 75.8886 85.7782 76.3581 85.4447 76.6037Z" fill="#161616"/>
<defs>
<filter id="filter0_d_27_9193" x="0.284241" y="0.824463" width="164.042" height="164.051" filterUnits="userSpaceOnUse" color-interpolation-filters="sRGB">
<feFlood flood-opacity="0" result="BackgroundImageFix"/>
<feColorMatrix in="SourceAlpha" type="matrix" values="0 0 0 0 0 0 0 0 0 0 0 0 0 0 0 0 0 0 127 0" result="hardAlpha"/>
<feOffset/>
<feGaussianBlur stdDeviation="25"/>
<feColorMatrix type="matrix" values="0 0 0 0 0 0 0 0 0 0 0 0 0 0 0 0 0 0 0.161 0"/>
<feBlend mode="normal" in2="BackgroundImageFix" result="effect1_dropShadow_27_9193"/>
<feBlend mode="normal" in="SourceGraphic" in2="effect1_dropShadow_27_9193" result="shape"/>
</filter>
</defs>
</svg>
