<svg width="24" height="24" viewBox="0 0 24 24" fill="none" xmlns="http://www.w3.org/2000/svg">
<path d="M3.25042 11.9994C3.25042 12.3729 3.41607 12.7195 3.57294 12.9797C3.74222 13.2606 3.96986 13.5505 4.2196 13.8332C4.7206 14.4002 5.37429 15.0092 6.00865 15.5601C6.64675 16.1142 7.28264 16.6244 7.75767 16.9952C7.99558 17.1809 8.19406 17.3323 8.33346 17.4376C8.40318 17.4903 8.45818 17.5315 8.496 17.5596L8.53957 17.592L8.55113 17.6006L8.55514 17.6035C8.88864 17.8492 9.35858 17.7783 9.60424 17.4448C9.84989 17.1113 9.7787 16.6418 9.44523 16.3962L9.43251 16.3868L9.39246 16.357C9.35704 16.3306 9.30462 16.2914 9.23762 16.2407C9.10359 16.1395 8.91145 15.9929 8.68061 15.8127C8.21814 15.4517 7.60405 14.9589 6.99215 14.4275C6.37653 13.8929 5.78023 13.3341 5.34373 12.84C5.31612 12.8088 5.28941 12.7781 5.26358 12.7479L20.0004 12.7479C20.4146 12.7479 20.7504 12.4121 20.7504 11.9979C20.7504 11.5837 20.4146 11.2479 20.0004 11.2479L5.26612 11.2479C5.29115 11.2187 5.31703 11.189 5.34373 11.1587C5.78023 10.6647 6.37653 10.1058 6.99215 9.57125C7.60405 9.0399 8.21814 8.547 8.68061 8.18603C8.91144 8.00586 9.10359 7.85926 9.23762 7.75801C9.30461 7.7074 9.35704 7.66816 9.39245 7.64175L9.4325 7.61198L9.44523 7.60257C9.7787 7.3569 9.84989 6.88742 9.60424 6.55394C9.35857 6.22043 8.88864 6.14954 8.55514 6.39521L8.55113 6.39817L8.53957 6.40672L8.496 6.4391C8.45818 6.4673 8.40318 6.50847 8.33346 6.56114C8.19405 6.66645 7.99558 6.81789 7.75767 7.00358C7.28264 7.37436 6.64675 7.88457 6.00865 8.43867C5.37429 8.98954 4.7206 9.59852 4.2196 10.1656C3.96986 10.4483 3.74222 10.7382 3.57294 11.019C3.41702 11.2777 3.25241 11.6217 3.25044 11.9927" fill="#161616"/>
</svg>
