<svg width="18" height="12" viewBox="0 0 18 12" fill="none" xmlns="http://www.w3.org/2000/svg">
<g id="elements">
<path id="Icon" d="M17.7497 5.99949C17.7496 5.62593 17.584 5.27937 17.4271 5.01914C17.2579 4.73832 17.0302 4.44839 16.7805 4.16572C16.2795 3.59864 15.6258 2.98966 14.9914 2.4388C14.3533 1.88469 13.7174 1.37448 13.2424 1.00371C13.0045 0.818009 12.806 0.666573 12.6666 0.561262C12.5969 0.508593 12.5419 0.46742 12.5041 0.439226L12.4605 0.406841L12.4489 0.398288L12.4449 0.395327C12.1114 0.149666 11.6415 0.220556 11.3958 0.554058C11.1502 0.887545 11.2214 1.35702 11.5548 1.60269L11.5676 1.61211L11.6076 1.64188C11.643 1.66828 11.6955 1.70752 11.7625 1.75813C11.8965 1.85938 12.0886 2.00598 12.3195 2.18615C12.7819 2.54712 13.396 3.04002 14.0079 3.57137C14.6235 4.10596 15.2198 4.66479 15.6563 5.15886C15.6839 5.19011 15.7107 5.22082 15.7365 5.25098L0.999634 5.25098C0.58542 5.25098 0.249634 5.58677 0.249634 6.00098C0.249634 6.41519 0.585421 6.75098 0.999634 6.75098L15.734 6.75098C15.7089 6.78018 15.683 6.80991 15.6563 6.84014C15.2198 7.33421 14.6235 7.89303 14.0079 8.42762C13.396 8.95898 12.7819 9.45187 12.3195 9.81284C12.0886 9.99302 11.8965 10.1396 11.7625 10.2409C11.6955 10.2915 11.643 10.3307 11.6076 10.3571L11.5676 10.3869L11.5548 10.3963C11.2214 10.642 11.1502 11.1115 11.3958 11.4449C11.6415 11.7784 12.1114 11.8493 12.4449 11.6037L12.4489 11.6007L12.4605 11.5922L12.5041 11.5598C12.5419 11.5316 12.5969 11.4904 12.6666 11.4377C12.806 11.3324 13.0045 11.181 13.2424 10.9953C13.7174 10.6245 14.3533 10.1143 14.9914 9.5602C15.6258 9.00933 16.2795 8.40035 16.7805 7.83328C17.0302 7.5506 17.2579 7.26067 17.4271 6.97986C17.5831 6.72119 17.7477 6.37721 17.7496 6.00622" fill="#161616"/>
</g>
</svg>
