<svg width="17" height="18" viewBox="0 0 17 18" fill="none" xmlns="http://www.w3.org/2000/svg">
<g id="elements">
<g id="Icon">
<path d="M7.75 9.1875C7.43934 9.1875 7.1875 9.43934 7.1875 9.75C7.1875 10.0607 7.43934 10.3125 7.75 10.3125H11.5C11.8107 10.3125 12.0625 10.0607 12.0625 9.75C12.0625 9.43934 11.8107 9.1875 11.5 9.1875H7.75Z" fill="#161616"/>
<path d="M5.5 9.1875C5.18934 9.1875 4.9375 9.43934 4.9375 9.75C4.9375 10.0607 5.18934 10.3125 5.5 10.3125H5.50674C5.8174 10.3125 6.06924 10.0607 6.06924 9.75C6.06924 9.43934 5.8174 9.1875 5.50674 9.1875H5.5Z" fill="#161616"/>
<path d="M5.5 12.1875C5.18934 12.1875 4.9375 12.4393 4.9375 12.75C4.9375 13.0607 5.18934 13.3125 5.5 13.3125H9.25C9.56066 13.3125 9.8125 13.0607 9.8125 12.75C9.8125 12.4393 9.56066 12.1875 9.25 12.1875H5.5Z" fill="#161616"/>
<path d="M11.4933 12.1875C11.1826 12.1875 10.9308 12.4393 10.9308 12.75C10.9308 13.0607 11.1826 13.3125 11.4933 13.3125H11.5C11.8107 13.3125 12.0625 13.0607 12.0625 12.75C12.0625 12.4393 11.8107 12.1875 11.5 12.1875H11.4933Z" fill="#161616"/>
<path fill-rule="evenodd" clip-rule="evenodd" d="M4.5625 1.5C4.5625 1.18934 4.31066 0.9375 4 0.9375C3.68934 0.9375 3.4375 1.18934 3.4375 1.5V1.97609C2.83393 2.14716 2.32488 2.4252 1.90116 2.88327C1.31773 3.51401 1.05839 4.31094 0.934187 5.30963C0.812485 6.28823 0.812492 7.54235 0.8125 9.14253V9.60747C0.812492 11.2077 0.812485 12.4618 0.934187 13.4404C1.05839 14.4391 1.31773 15.236 1.90116 15.8667C2.49036 16.5037 3.24457 16.7926 4.18846 16.9297C5.10199 17.0625 6.26916 17.0625 7.74193 17.0625H9.25807C10.7308 17.0625 11.898 17.0625 12.8115 16.9297C13.7554 16.7926 14.5096 16.5037 15.0988 15.8667C15.6823 15.236 15.9416 14.4391 16.0658 13.4404C16.1875 12.4618 16.1875 11.2076 16.1875 9.60745V9.14255C16.1875 7.54236 16.1875 6.28823 16.0658 5.30963C15.9416 4.31094 15.6823 3.51401 15.0988 2.88327C14.6751 2.4252 14.1661 2.14716 13.5625 1.97609V1.5C13.5625 1.18934 13.3107 0.9375 13 0.9375C12.6893 0.9375 12.4375 1.18934 12.4375 1.5V1.77442C11.5855 1.68748 10.537 1.68749 9.25807 1.6875H7.74193C6.46302 1.68749 5.41455 1.68748 4.5625 1.77442V1.5ZM2.72702 3.64719C2.92152 3.43692 3.15347 3.27593 3.45895 3.15438C3.52605 3.38998 3.74288 3.5625 4 3.5625C4.31066 3.5625 4.5625 3.31066 4.5625 3V2.90594C5.35825 2.81367 6.38678 2.8125 7.7875 2.8125H9.2125C10.6132 2.8125 11.6417 2.81367 12.4375 2.90594V3C12.4375 3.31066 12.6893 3.5625 13 3.5625C13.2571 3.5625 13.474 3.38998 13.5411 3.15439C13.8465 3.27593 14.0785 3.43692 14.273 3.64719C14.6272 4.0301 14.8371 4.55502 14.948 5.4375H2.05196C2.16289 4.55502 2.37283 4.0301 2.72702 3.64719ZM1.96669 6.5625C1.93791 7.28017 1.9375 8.1381 1.9375 9.18243V9.56757C1.9375 11.2163 1.93853 12.4004 2.05059 13.3015C2.16116 14.1906 2.37136 14.7183 2.72702 15.1028C3.07691 15.4811 3.54796 15.6998 4.35028 15.8164C5.17357 15.9361 6.25891 15.9375 7.7875 15.9375H9.2125C10.7411 15.9375 11.8264 15.9361 12.6497 15.8164C13.452 15.6998 13.9231 15.4811 14.273 15.1028C14.6286 14.7183 14.8388 14.1906 14.9494 13.3015C15.0615 12.4004 15.0625 11.2163 15.0625 9.56757V9.18243C15.0625 8.1381 15.0621 7.28017 15.0333 6.5625H1.96669Z" fill="#161616"/>
</g>
</g>
</svg>
