<svg width="18" height="18" viewBox="0 0 18 18" fill="none" xmlns="http://www.w3.org/2000/svg">
<g id="elements">
<path id="Icon" fill-rule="evenodd" clip-rule="evenodd" d="M3.43064 0.0714886C3.90288 0.169092 4.27896 0.486375 4.51262 0.905568L5.25696 2.24093C5.53114 2.73277 5.76187 3.14668 5.91255 3.50649C6.07238 3.88817 6.16731 4.26455 6.12392 4.68069C6.08052 5.09682 5.90998 5.44552 5.67483 5.78601C5.45316 6.10699 5.142 6.46438 4.77224 6.88907L2.9157 9.0216C4.38807 11.4349 6.56218 13.61 8.97797 15.0839L11.1105 13.2273C11.5352 12.8576 11.8926 12.5464 12.2136 12.3247C12.5541 12.0896 12.9027 11.919 13.3189 11.8757C13.735 11.8323 14.1114 11.9272 14.4931 12.087C14.8529 12.2377 15.2668 12.4684 15.7586 12.7426L17.094 13.4869C17.5132 13.7206 17.8305 14.0967 17.9281 14.5689C18.0267 15.0461 17.8812 15.5257 17.5599 15.9199C16.3942 17.3502 14.5265 18.2609 12.5671 17.8657C11.3627 17.6227 10.1744 17.2179 8.73714 16.3937C5.84934 14.7375 3.26011 12.1469 1.60589 9.26243C0.781621 7.82518 0.376859 6.63685 0.133907 5.43247C-0.26134 3.47311 0.649355 1.60538 2.07966 0.439627C2.47385 0.118342 2.95348 -0.027134 3.43064 0.0714886ZM10.1423 15.7276C11.1142 16.2065 11.9596 16.4679 12.8143 16.6403C14.2277 16.9255 15.6545 16.2792 16.591 15.1302C16.714 14.9793 16.7147 14.874 16.704 14.8219C16.6922 14.7649 16.6444 14.6674 16.4854 14.5788L15.18 13.8511C14.6503 13.5559 14.2976 13.3604 14.0102 13.24C13.7374 13.1258 13.5809 13.1051 13.4485 13.1189C13.3162 13.1327 13.1673 13.1852 12.9239 13.3533C12.6675 13.5304 12.3628 13.7944 11.9054 14.1926L10.1423 15.7276ZM2.27197 7.85732L3.80696 6.09415C4.20515 5.63677 4.46922 5.33205 4.64628 5.07568C4.81434 4.83231 4.86686 4.6834 4.88066 4.55104C4.89446 4.41867 4.8738 4.26213 4.75956 3.98932C4.63921 3.70193 4.44369 3.34929 4.14844 2.81959L3.42079 1.51416C3.33214 1.35512 3.23465 1.3074 3.17764 1.29562C3.12555 1.28485 3.02024 1.28561 2.86938 1.40856C1.7204 2.34503 1.07411 3.77192 1.35922 5.18529C1.53163 6.03994 1.79303 6.88534 2.27197 7.85732Z" fill="#54C08A"/>
</g>
</svg>
