<svg width="29" height="28" viewBox="0 0 29 28" fill="none" xmlns="http://www.w3.org/2000/svg">
<path fill-rule="evenodd" clip-rule="evenodd" d="M22.5204 2.56668C21.611 1.45835 20.2587 1.45833 18.0319 1.45833H11.4453C9.21853 1.45833 7.86618 1.45835 6.95683 2.56668C6.41149 3.23448 6.25921 3.98183 6.28254 4.95834L5.70536 4.95834C5.05522 4.95828 4.47836 4.95823 4.02169 5.0217C3.5322 5.08974 3.0087 5.25096 2.62373 5.71472C2.23334 6.18501 2.18018 6.73071 2.21888 7.223C2.25432 7.67385 2.38074 8.22333 2.52096 8.83278L2.99053 10.8747C3.73501 14.1121 6.38351 16.5238 9.61174 17.1405C10.3359 18.2898 11.1488 19.1896 12.0247 19.7982C10.8785 20.5553 9.97212 21.7621 9.40905 23.1593C9.104 23.9163 9.16602 24.7164 9.46461 25.3429C9.75284 25.9477 10.3541 26.5417 11.2019 26.5417H18.2981C19.146 26.5417 19.7472 25.9477 20.0354 25.3429C20.334 24.7164 20.396 23.9163 20.091 23.1593C19.5268 21.7594 18.618 20.5505 17.4686 19.7937C18.3401 19.1859 19.1487 18.2889 19.8691 17.1441C23.106 16.5333 25.7635 14.1185 26.5095 10.8747L26.979 8.83279C27.1193 8.22334 27.2457 7.67385 27.2811 7.223C27.3198 6.73071 27.2667 6.18501 26.8763 5.71472C26.4913 5.25096 25.9678 5.08974 25.4783 5.0217C25.0216 4.95823 24.4448 4.95828 23.7946 4.95834L23.1947 4.95834C23.218 3.98183 23.0657 3.23448 22.5204 2.56668ZM23.0441 6.70834C23.0294 6.83358 23.0141 6.96187 22.9984 7.09335C22.6311 10.1471 21.9344 12.8251 20.9985 14.9798C22.8941 14.1606 24.3361 12.517 24.804 10.4825L25.2598 8.50019C25.4181 7.8118 25.5125 7.39123 25.5365 7.08586C25.5476 6.94431 25.5387 6.8735 25.532 6.84343C25.5307 6.8376 25.5295 6.83372 25.5288 6.83143C25.528 6.83088 25.5213 6.8259 25.5043 6.81833C25.4663 6.80143 25.3881 6.77599 25.2374 6.75504C24.9159 6.71035 24.463 6.70834 23.736 6.70834H23.0441ZM8.47786 14.9695C7.54221 12.8166 6.84549 10.1422 6.47884 7.09335C6.46313 6.96187 6.44781 6.83358 6.4331 6.70834H5.76397C5.03704 6.70834 4.58413 6.71035 4.26261 6.75504C4.11187 6.77599 4.03367 6.80143 3.99573 6.81833C3.97873 6.8259 3.97211 6.83078 3.97137 6.83133C3.97062 6.83362 3.96932 6.8376 3.96801 6.84343C3.96127 6.8735 3.95237 6.94431 3.9635 7.08586C3.9875 7.39123 4.08186 7.8118 4.24016 8.50019L4.69601 10.4825C5.16193 12.5085 6.5939 14.1469 8.47786 14.9695ZM14.7443 18.9583C17.6822 18.9583 20.4102 13.8834 21.2613 6.88336C21.4944 4.95836 21.5644 4.16503 21.168 3.67503C20.795 3.22003 19.9789 3.19666 18.0203 3.19666H11.4569C9.49834 3.19666 8.68226 3.22003 8.3092 3.67503C7.91282 4.16503 7.98276 4.95836 8.21593 6.88336C9.06699 13.8834 11.8064 18.9583 14.7443 18.9583ZM11.0322 23.8135C11.8296 21.8348 13.2785 20.7083 14.75 20.7083C16.2215 20.7083 17.6705 21.8348 18.4678 23.8135C18.5819 24.0964 18.5527 24.3864 18.4557 24.59C18.3763 24.7565 18.3016 24.7871 18.2876 24.7917H11.2124C11.1985 24.7871 11.1237 24.7565 11.0444 24.59C10.9473 24.3864 10.9182 24.0964 11.0322 23.8135Z" fill="#80519F"/>
</svg>
