<svg width="22" height="22" viewBox="0 0 22 22" fill="none" xmlns="http://www.w3.org/2000/svg">
<g id="elements">
<g id="Icon">
<path d="M14.2673 2.26072C14.9528 1.5752 16.0642 1.5752 16.7497 2.26072L19.7359 5.24687C20.4214 5.93238 20.4214 7.04383 19.7359 7.72935L16.7407 10.7246C16.4148 11.0504 16.0593 11.2227 15.7086 11.2639C15.3615 11.3048 14.9573 11.2246 14.5152 10.9379C14.1677 10.7124 13.7033 10.8114 13.4779 11.1589C13.2525 11.5064 13.3514 11.9709 13.699 12.1963C14.3973 12.6493 15.1478 12.8402 15.8838 12.7537C16.6164 12.6675 17.2727 12.3139 17.8013 11.7852L20.7965 8.79C22.0678 7.5187 22.0678 5.45751 20.7965 4.18621L17.8104 1.20006C16.5391 -0.0712443 14.4779 -0.0712445 13.2066 1.20006L10.2114 4.19529C9.31722 5.08949 8.75876 6.83113 9.8572 8.34803C10.1001 8.68352 10.5691 8.75855 10.9045 8.51561C11.24 8.27267 11.3151 7.80376 11.0721 7.46827C10.5102 6.69225 10.7624 5.76564 11.2721 5.25595L14.2673 2.26072Z" fill="#1B8354"/>
<path d="M5.25617 11.2719C5.76586 10.7622 6.69246 10.51 7.46847 11.0719C7.80396 11.3149 8.27287 11.2398 8.51581 10.9044C8.75875 10.5689 8.68373 10.1 8.34824 9.85702C6.83134 8.75856 5.0897 9.31703 4.19551 10.2112L1.2003 13.2065C-0.0709974 14.4778 -0.0709979 16.5389 1.2003 17.8103L4.18643 20.7964C5.45772 22.0677 7.51891 22.0677 8.79021 20.7964L11.7854 17.8012C12.3141 17.2725 12.6677 16.6163 12.7539 15.8837C12.8404 15.1476 12.6495 14.3971 12.1965 13.6988C11.9711 13.3513 11.5066 13.2523 11.1591 13.4777C10.8116 13.7031 10.7126 14.1676 10.938 14.5151C11.2247 14.9571 11.305 15.3613 11.2641 15.7085C11.2229 16.0591 11.0506 16.4147 10.7248 16.7405L7.72954 19.7357C7.04403 20.4213 5.9326 20.4213 5.24709 19.7357L2.26096 16.7496C1.57545 16.0641 1.57545 14.9526 2.26096 14.2671L5.25617 11.2719Z" fill="#1B8354"/>
<path d="M13.9626 9.05157C14.2555 8.75868 14.2555 8.2838 13.9626 7.99091C13.6698 7.69802 13.1949 7.69802 12.902 7.99091L7.98896 12.904C7.69606 13.1968 7.69606 13.6717 7.98896 13.9646C8.28185 14.2575 8.75672 14.2575 9.04962 13.9646L13.9626 9.05157Z" fill="#1B8354"/>
</g>
</g>
</svg>
