<svg width="20" height="20" viewBox="0 0 20 20" fill="none" xmlns="http://www.w3.org/2000/svg">
<path d="M6.66659 10C6.20635 10 5.83325 10.3731 5.83325 10.8334C5.83325 11.2936 6.20635 11.6667 6.66659 11.6667H6.67406C7.1343 11.6667 7.5074 11.2936 7.5074 10.8334C7.5074 10.3731 7.1343 10 6.67406 10H6.66659Z" fill="#161616"/>
<path d="M9.99618 10C9.53594 10 9.16285 10.3731 9.16285 10.8334C9.16285 11.2936 9.53594 11.6667 9.99618 11.6667H10.0037C10.4639 11.6667 10.837 11.2936 10.837 10.8334C10.837 10.3731 10.4639 10 10.0037 10H9.99618Z" fill="#161616"/>
<path d="M13.3258 10C12.8655 10 12.4924 10.3731 12.4924 10.8334C12.4924 11.2936 12.8655 11.6667 13.3258 11.6667H13.3333C13.7935 11.6667 14.1666 11.2936 14.1666 10.8334C14.1666 10.3731 13.7935 10 13.3333 10H13.3258Z" fill="#161616"/>
<path d="M6.66659 13.3334C6.20635 13.3334 5.83325 13.7065 5.83325 14.1667C5.83325 14.6269 6.20635 15 6.66659 15H6.67406C7.1343 15 7.5074 14.6269 7.5074 14.1667C7.5074 13.7065 7.1343 13.3334 6.67406 13.3334H6.66659Z" fill="#161616"/>
<path d="M9.99618 13.3334C9.53594 13.3334 9.16285 13.7065 9.16285 14.1667C9.16285 14.6269 9.53594 15 9.99618 15H10.0037C10.4639 15 10.837 14.6269 10.837 14.1667C10.837 13.7065 10.4639 13.3334 10.0037 13.3334H9.99618Z" fill="#161616"/>
<path fill-rule="evenodd" clip-rule="evenodd" d="M5.62492 1.66669C5.62492 1.32151 5.3451 1.04169 4.99992 1.04169C4.65474 1.04169 4.37492 1.32151 4.37492 1.66669V2.19568C3.70429 2.38575 3.13867 2.69469 2.66787 3.20365C2.01961 3.90447 1.73146 4.78996 1.59346 5.89961C1.45824 6.98694 1.45824 8.38041 1.45825 10.1584V10.675C1.45824 12.453 1.45824 13.8464 1.59346 14.9338C1.73146 16.0434 2.01961 16.9289 2.66787 17.6297C3.32254 18.3375 4.16056 18.6584 5.20932 18.8109C6.22435 18.9584 7.52121 18.9584 9.15762 18.9584H10.8422C12.4786 18.9584 13.7755 18.9584 14.7905 18.8109C15.8393 18.6584 16.6773 18.3375 17.332 17.6297C17.9802 16.9289 18.2684 16.0434 18.4064 14.9338C18.5416 13.8464 18.5416 12.453 18.5416 10.675V10.1584C18.5416 8.38042 18.5416 6.98695 18.4064 5.89961C18.2684 4.78996 17.9802 3.90447 17.332 3.20365C16.8612 2.69469 16.2956 2.38575 15.6249 2.19568V1.66669C15.6249 1.32151 15.3451 1.04169 14.9999 1.04169C14.6547 1.04169 14.3749 1.32151 14.3749 1.66669V1.9716C13.4282 1.875 12.2632 1.87501 10.8422 1.87502H9.15762C7.73661 1.87501 6.57164 1.875 5.62492 1.9716V1.66669ZM4.39875 3.50489C4.47331 3.76667 4.71423 3.95835 4.99992 3.95835C5.3451 3.95835 5.62492 3.67853 5.62492 3.33335V3.22884C6.50909 3.12632 7.6519 3.12502 9.20825 3.12502H10.7916C12.3479 3.12502 13.4907 3.12632 14.3749 3.22884V3.33335C14.3749 3.67853 14.6547 3.95835 14.9999 3.95835C15.2856 3.95835 15.5265 3.76667 15.6011 3.50489C15.9405 3.63995 16.1982 3.81882 16.4143 4.05246C16.8086 4.47868 17.042 5.06325 17.1651 6.047C17.1383 6.04349 17.111 6.04169 17.0833 6.04169H2.91659C2.88885 6.04169 2.86154 6.04349 2.83476 6.047C2.95785 5.06326 3.19124 4.47868 3.5855 4.05246C3.80161 3.81882 4.05933 3.63995 4.39875 3.50489ZM2.74169 7.26689C2.70872 8.06931 2.70825 9.0303 2.70825 10.2027V10.6307C2.70825 12.4626 2.70939 13.7783 2.8339 14.7795C2.95676 15.7674 3.19032 16.3537 3.5855 16.7809C3.97426 17.2012 4.49765 17.4443 5.38912 17.5738C6.30388 17.7068 7.50982 17.7084 9.20825 17.7084H10.7916C12.49 17.7084 13.696 17.7068 14.6107 17.5738C15.5022 17.4443 16.0256 17.2012 16.4143 16.7809C16.8095 16.3537 17.0431 15.7674 17.1659 14.7795C17.2904 13.7783 17.2916 12.4626 17.2916 10.6307V10.2027C17.2916 9.0303 17.2911 8.06931 17.2581 7.26689C17.2026 7.28303 17.144 7.29169 17.0833 7.29169H2.91659C2.85588 7.29169 2.79719 7.28303 2.74169 7.26689Z" fill="#161616"/>
</svg>
