<svg width="32" height="32" viewBox="0 0 32 32" fill="none" xmlns="http://www.w3.org/2000/svg">
<path d="M13.9167 20.375C13.5715 20.375 13.2917 20.0951 13.2917 19.75L13.2917 14.75C13.2917 14.4048 13.5715 14.125 13.9167 14.125C14.2618 14.125 14.5417 14.4048 14.5417 14.75L14.5417 19.75C14.5417 20.0951 14.2618 20.375 13.9167 20.375Z" fill="#161616"/>
<path d="M18.7083 14.75C18.7083 14.4048 18.4285 14.125 18.0833 14.125C17.7382 14.125 17.4583 14.4048 17.4583 14.75V19.75C17.4583 20.0951 17.7382 20.375 18.0833 20.375C18.4285 20.375 18.7083 20.0951 18.7083 19.75V14.75Z" fill="#161616"/>
<path fill-rule="evenodd" clip-rule="evenodd" d="M16.0552 7.04163H16.0018C15.5807 7.04161 15.2236 7.04161 14.9272 7.06859C14.6126 7.09722 14.3196 7.15924 14.0363 7.30989C13.9245 7.36934 13.8178 7.43797 13.7173 7.51505C13.4627 7.71036 13.2848 7.95124 13.1283 8.22557C12.9808 8.48408 12.8326 8.80908 12.658 9.19223L12.3088 9.95829H8.5C8.15482 9.95829 7.875 10.2381 7.875 10.5833C7.875 10.9285 8.15482 11.2083 8.5 11.2083H9.16161L9.63194 18.9992C9.6948 20.0406 9.74469 20.8669 9.84847 21.5271C9.95489 22.204 10.126 22.7678 10.4693 23.261C10.7833 23.7122 11.1878 24.0931 11.6571 24.3793C12.1701 24.6922 12.7432 24.8291 13.4253 24.8945C14.0905 24.9583 14.9183 24.9583 15.9615 24.9583H16.0263C17.0681 24.9583 17.895 24.9583 18.5593 24.8946C19.2407 24.8293 19.8131 24.6927 20.3258 24.3804C20.7948 24.0947 21.1992 23.7145 21.5133 23.264C21.8567 22.7716 22.0283 22.2087 22.1355 21.5327C22.2401 20.8735 22.2911 20.0483 22.3554 19.0084L22.8376 11.2083H23.5C23.8452 11.2083 24.125 10.9285 24.125 10.5833C24.125 10.2381 23.8452 9.95829 23.5 9.95829H19.7714L19.3618 9.11338C19.1826 8.74382 19.0306 8.43011 18.8809 8.18069C18.722 7.91594 18.5433 7.68392 18.2918 7.4963C18.1924 7.42216 18.0871 7.35621 17.977 7.2991C17.6985 7.15458 17.4117 7.09503 17.1042 7.06752C16.8145 7.04161 16.4658 7.04162 16.0552 7.04163ZM21.5852 11.2083H19.3935C19.3847 11.2085 19.3758 11.2085 19.3669 11.2083H12.7242C12.715 11.2085 12.7058 11.2085 12.6966 11.2083H10.4139L10.8777 18.8916C10.943 19.9725 10.9899 20.739 11.0833 21.3329C11.1751 21.9169 11.3037 22.2717 11.4953 22.547C11.7101 22.8557 11.9869 23.1163 12.308 23.3122C12.5944 23.4868 12.9563 23.5938 13.5447 23.6502C14.1432 23.7076 14.9111 23.7083 15.994 23.7083C17.0754 23.7083 17.8423 23.7076 18.44 23.6503C19.0277 23.594 19.3893 23.4873 19.6754 23.3129C19.9963 23.1174 20.2731 22.8573 20.488 22.5491C20.6796 22.2742 20.8085 21.9199 20.901 21.3368C20.9951 20.7437 21.043 19.9784 21.1098 18.899L21.5852 11.2083ZM18.3822 9.95829H13.6825L13.7842 9.73524C13.973 9.32098 14.098 9.04828 14.214 8.84502C14.3241 8.65207 14.403 8.56445 14.4782 8.50682C14.5238 8.47178 14.5723 8.44059 14.6232 8.41356C14.7068 8.36911 14.8193 8.33358 15.0405 8.31344C15.2735 8.29222 15.5735 8.29163 16.0288 8.29163C16.4729 8.29163 16.7654 8.2922 16.9928 8.31255C17.2087 8.33185 17.319 8.36592 17.4014 8.40866C17.4514 8.43462 17.4992 8.4646 17.5444 8.4983C17.6188 8.55378 17.6976 8.63819 17.8091 8.82399C17.9267 9.01981 18.0547 9.28268 18.2485 9.68236L18.3822 9.95829Z" fill="#161616"/>
</svg>
