<svg width="18" height="18" viewBox="0 0 18 18" fill="none" xmlns="http://www.w3.org/2000/svg">
<g id="elements">
<g id="Icon">
<path d="M9.75 1.5C9.75 1.08579 9.41421 0.75 9 0.75C8.58579 0.75 8.25 1.08579 8.25 1.5V9.96193L8.24394 9.95478C8.03326 9.70615 7.82697 9.44338 7.63406 9.19766L7.58933 9.14069C7.39711 8.89596 7.19487 8.63885 7.03781 8.47726C6.74911 8.18023 6.27428 8.17349 5.97726 8.46219C5.68023 8.75089 5.67349 9.22572 5.96219 9.52274C6.05089 9.614 6.19651 9.79581 6.40971 10.0672L6.45677 10.1272C6.64683 10.3693 6.86982 10.6534 7.09954 10.9245C7.34574 11.215 7.62131 11.5168 7.89679 11.7515C8.03484 11.869 8.19043 11.985 8.35782 12.0746C8.51926 12.161 8.74171 12.25 9 12.25C9.25829 12.25 9.48074 12.161 9.64218 12.0746C9.80957 11.985 9.96517 11.869 10.1032 11.7515C10.3787 11.5168 10.6543 11.215 10.9005 10.9245C11.1302 10.6534 11.3531 10.3694 11.5432 10.1272L11.5903 10.0672C11.8035 9.79581 11.9491 9.614 12.0378 9.52274C12.3265 9.22572 12.3198 8.75089 12.0227 8.46219C11.7257 8.17349 11.2509 8.18023 10.9622 8.47726C10.8051 8.63885 10.6029 8.89596 10.4107 9.14069L10.366 9.19763C10.1731 9.44335 9.96674 9.70615 9.75606 9.95478L9.75 9.96193V1.5Z" fill="white"/>
<path d="M1.75 13.5C1.75 13.0858 1.41421 12.75 1 12.75C0.585786 12.75 0.25 13.0858 0.25 13.5C0.25 14.1367 0.282233 14.699 0.387186 15.1768C0.494005 15.663 0.686116 16.1083 1.03892 16.4611C1.39172 16.8139 1.83699 17.006 2.32323 17.1128C2.80098 17.2178 3.36327 17.25 4 17.25H14C14.6367 17.25 15.199 17.2178 15.6768 17.1128C16.163 17.006 16.6083 16.8139 16.9611 16.4611C17.3139 16.1083 17.506 15.663 17.6128 15.1768C17.7178 14.699 17.75 14.1367 17.75 13.5C17.75 13.0858 17.4142 12.75 17 12.75C16.5858 12.75 16.25 13.0858 16.25 13.5C16.25 14.1043 16.2175 14.5375 16.1477 14.8549C16.0799 15.1639 15.9874 15.3135 15.9004 15.4004C15.8135 15.4874 15.6639 15.5799 15.3549 15.6477C15.0375 15.7175 14.6043 15.75 14 15.75H4C3.39573 15.75 2.96252 15.7175 2.64508 15.6477C2.33614 15.5799 2.18653 15.4874 2.09958 15.4004C2.01263 15.3135 1.92012 15.1639 1.85225 14.8549C1.78252 14.5375 1.75 14.1043 1.75 13.5Z" fill="white"/>
</g>
</g>
</svg>
