<svg width="18" height="18" viewBox="0 0 18 18" fill="none" xmlns="http://www.w3.org/2000/svg">
<g id="elements">
<g id="Icon">
<path d="M4.57935 0.666687C4.57935 0.321509 4.29952 0.041687 3.95435 0.041687C3.60917 0.041687 3.32935 0.321509 3.32935 0.666687L3.32935 0.996223C2.59296 1.12681 1.97662 1.37805 1.47885 1.88368C0.924625 2.44666 0.682842 3.15704 0.56878 4.01883C0.458227 4.8541 0.458238 5.91934 0.458252 7.25537L0.458252 11.5137C0.458238 12.8497 0.458227 13.915 0.56878 14.7502C0.682842 15.612 0.924644 16.3224 1.47885 16.8854C2.03441 17.4498 2.73768 17.6972 3.59068 17.8137C4.41488 17.9262 5.46521 17.9262 6.77883 17.9262H7.57426C7.91944 17.9262 8.19926 17.6464 8.19926 17.3012C8.19926 16.956 7.91944 16.6762 7.57426 16.6762H6.82585C5.45437 16.6762 4.48961 16.6748 3.75982 16.5752C3.04904 16.4781 2.65505 16.2984 2.36963 16.0085C2.08286 15.7172 1.90415 15.3129 1.80797 14.5862C1.70954 13.8425 1.70825 12.8602 1.70825 11.4679L1.70825 7.30121C1.70825 5.90888 1.70954 4.92654 1.80797 4.18284C1.90416 3.45613 2.08287 3.0519 2.36963 2.76061C2.59142 2.53532 2.87876 2.37659 3.32935 2.27147V2.33335C3.32935 2.67853 3.60917 2.95835 3.95435 2.95835C4.29952 2.95835 4.57935 2.67853 4.57935 2.33335V2.12317C5.18206 2.09348 5.91408 2.09288 6.82585 2.09288H7.49601V2.33335C7.49601 2.67853 7.77584 2.95835 8.12101 2.95835C8.46619 2.95835 8.74601 2.67853 8.74601 2.33335V2.09288H9.28696C10.2293 2.09288 11.0103 2.09892 11.6627 2.13925V2.33335C11.6627 2.67853 11.9425 2.95835 12.2877 2.95835C12.6329 2.95835 12.9127 2.67853 12.9127 2.33335V2.29701C13.4268 2.41282 13.7504 2.58236 13.9712 2.8066C14.2595 3.09946 14.4351 3.49389 14.529 4.20553C14.6249 4.93318 14.6249 5.89582 14.6249 7.27607V8.2899C14.6249 8.63507 14.9047 8.9149 15.2499 8.9149C15.5951 8.9149 15.8749 8.63507 15.8749 8.2899L15.8749 7.18834C15.875 5.88556 15.8751 4.85231 15.7682 4.04212C15.6557 3.18826 15.4146 2.49107 14.862 1.92966C14.3583 1.41804 13.6891 1.16084 12.9127 1.02233V0.666687C12.9127 0.321509 12.6329 0.041687 12.2877 0.041687C11.9425 0.041687 11.6627 0.321509 11.6627 0.666687V0.887173C10.9703 0.847429 10.1781 0.842876 9.28696 0.842876L8.74601 0.842876V0.666687C8.74601 0.321509 8.46619 0.041687 8.12101 0.041687C7.77584 0.041687 7.49601 0.321509 7.49601 0.666687V0.842876L6.77883 0.842876C5.94203 0.842866 5.21207 0.842857 4.57935 0.871948V0.666687Z" fill="#161616"/>
<path d="M4.20825 7.33335C4.20825 6.98818 4.48807 6.70835 4.83325 6.70835L11.4999 6.70835C11.8451 6.70835 12.1249 6.98818 12.1249 7.33335C12.1249 7.67853 11.8451 7.95835 11.4999 7.95835L4.83325 7.95835C4.48807 7.95835 4.20825 7.67853 4.20825 7.33335Z" fill="#161616"/>
<path d="M4.20825 11.5C4.20825 11.1548 4.48807 10.875 4.83325 10.875H8.16659C8.51176 10.875 8.79159 11.1548 8.79159 11.5C8.79159 11.8452 8.51176 12.125 8.16659 12.125H4.83325C4.48807 12.125 4.20825 11.8452 4.20825 11.5Z" fill="#161616"/>
<path fill-rule="evenodd" clip-rule="evenodd" d="M15.5158 10.1003C15.9436 10.2178 16.3369 10.5069 16.7444 10.9585C16.979 11.1743 17.2385 11.4457 17.3951 11.8069C17.5671 12.2038 17.5874 12.6404 17.457 13.1297L17.4473 13.166L17.4334 13.2008C17.2799 13.5847 16.9708 13.9195 16.6902 14.2006C16.565 14.3261 16.4433 14.4429 16.3203 14.561C16.128 14.7455 15.9327 14.9331 15.7168 15.1604L15.7093 15.1683L15.7016 15.1758C15.3154 15.5553 14.9895 15.8875 14.7072 16.1753C14.58 16.305 14.4615 16.4258 14.3504 16.5377C14.0216 16.8691 13.7103 17.1743 13.4526 17.3291C13.0975 17.5422 12.6492 17.6579 12.1351 17.7505L12.1251 17.7523L12.1151 17.7537C11.9631 17.776 11.7968 17.8025 11.6342 17.8284C11.4348 17.8602 11.2405 17.8912 11.0856 17.9123C10.9337 17.9331 10.782 17.9502 10.6452 17.9561C10.5239 17.9613 10.3486 17.9617 10.1824 17.9111C9.72946 17.7731 9.6544 17.327 9.63857 17.211C9.61409 17.0316 9.62655 16.8332 9.64457 16.6641C9.67249 16.4019 9.73001 16.0826 9.78271 15.7899C9.79835 15.7031 9.81356 15.6186 9.82745 15.5387C9.90428 14.9975 10.065 14.4622 10.2797 14.109C10.3214 14.0379 10.3721 13.978 10.3914 13.9552L10.3946 13.9515C10.4326 13.9064 10.4796 13.8538 10.5314 13.7975C10.6358 13.6841 10.7753 13.5383 10.9355 13.374C11.2569 13.0443 11.6738 12.6273 12.0881 12.218L12.0994 12.2068L12.1113 12.1962C12.2586 12.0649 12.4676 11.8473 12.7129 11.5919C12.8548 11.4443 13.0088 11.284 13.1699 11.1205C13.3767 10.9107 13.5914 10.7004 13.7828 10.5363C13.878 10.4548 13.979 10.3745 14.0787 10.3094C14.1502 10.2627 14.2795 10.1836 14.4384 10.1475C14.7136 10.0665 15.0842 9.98184 15.5158 10.1003ZM14.7693 11.3532C14.9945 11.2857 15.0909 11.2799 15.1849 11.3057C15.2903 11.3347 15.4943 11.4348 15.8335 11.8149L15.8549 11.8389L15.8787 11.8606C16.0909 12.054 16.1962 12.1842 16.2482 12.304C16.2877 12.3951 16.3167 12.5273 16.2596 12.7665C16.2028 12.8847 16.0696 13.053 15.8055 13.3176C15.7179 13.4053 15.6115 13.5077 15.495 13.62C15.2856 13.8216 15.0432 14.055 14.818 14.2917C14.4268 14.6762 14.0881 15.0214 13.8045 15.3105C13.6801 15.4374 13.5661 15.5535 13.4632 15.6572C13.0953 16.0279 12.9036 16.2007 12.8093 16.2573C12.6623 16.3455 12.4088 16.4306 11.9233 16.5185C11.7312 16.5468 11.5637 16.5737 11.4093 16.5985C11.2337 16.6267 11.075 16.6522 10.9165 16.6738L10.9021 16.6758C10.927 16.4901 10.9649 16.2795 11.0061 16.0506C11.0239 15.9513 11.0425 15.8482 11.0608 15.7425L11.0625 15.7325L11.0639 15.7224C11.1267 15.2739 11.2505 14.9224 11.344 14.7647L11.3504 14.757C11.3715 14.732 11.4046 14.6946 11.4512 14.644C11.5436 14.5436 11.6734 14.4078 11.8306 14.2465C12.1415 13.9276 12.5479 13.521 12.9559 13.1178C13.1377 12.9539 13.4032 12.6778 13.6703 12.4002C13.8032 12.262 13.9366 12.1233 14.0602 11.998C14.2621 11.7931 14.4466 11.6137 14.5963 11.4854C14.6717 11.4208 14.7266 11.3792 14.7623 11.3559L14.764 11.3548L14.7693 11.3532Z" fill="#161616"/>
</g>
</g>
</svg>
