<svg width="22" height="22" viewBox="0 0 22 22" fill="none" xmlns="http://www.w3.org/2000/svg">
<g id="elements">
<path id="Icon" fill-rule="evenodd" clip-rule="evenodd" d="M2.361 19.6399C3.971 21.2499 6.32 21.25 11 21.25C15.68 21.25 18.028 21.2499 19.639 19.6409C21.25 18.0309 21.25 15.681 21.25 11C21.25 6.31903 21.25 3.96996 19.639 2.35996C18.029 0.75 15.6801 0.75 11.0003 0.75C6.32043 0.75 3.97098 0.75 2.361 2.35898C0.75 3.96898 0.75 6.319 0.75 11C0.75 15.681 0.75 18.0299 2.361 19.6399ZM11 2.25C15.2659 2.25 17.408 2.25 18.579 3.421C19.75 4.59099 19.75 6.73299 19.75 11C19.75 15.2669 19.75 17.4089 18.579 18.5789C17.4779 19.6791 15.5214 19.7457 11.7509 19.7497L11.7958 13.7503H13.8848C14.2988 13.7503 14.6348 13.4143 14.6348 13.0003C14.6348 12.5863 14.2988 12.2503 13.8848 12.2503H11.8068L11.8318 8.91523C11.8358 8.28923 12.3518 7.78027 12.9818 7.78027L15.9258 7.78027C16.3398 7.78027 16.6758 7.44427 16.6758 7.03027C16.6758 6.61627 16.3398 6.28027 15.9258 6.28027L12.9818 6.28027C11.5308 6.28027 10.3418 7.4572 10.3318 8.9042L10.3068 12.2503H9.08179C8.66779 12.2503 8.33179 12.5863 8.33179 13.0003C8.33179 13.4143 8.66779 13.7503 9.08179 13.7503H10.2958L10.2508 19.7497C6.47908 19.7457 4.52135 19.6793 3.421 18.5789C2.25 17.4089 2.25 15.267 2.25 11C2.25 6.73307 2.25 4.59099 3.421 3.421C4.59299 2.25 6.73399 2.25 11 2.25Z" fill="#1B8354"/>
</g>
</svg>
