<svg width="41" height="44" viewBox="0 0 41 44" fill="none" xmlns="http://www.w3.org/2000/svg">
<g id="elements">
<g id="Icon">
<path d="M9.89063 2C9.89063 1.17157 9.21905 0.5 8.39063 0.5C7.5622 0.5 6.89063 1.17157 6.89063 2L6.89063 2.79089C5.12331 3.1043 3.64408 3.70726 2.44943 4.92079C1.11929 6.27194 0.539016 7.97685 0.265267 10.0451C-5.97537e-05 12.0498 -3.29133e-05 14.6064 7.55939e-07 17.8128L7.55939e-07 28.0328C-3.29133e-05 31.2393 -5.97537e-05 33.7959 0.265267 35.8005C0.539017 37.8688 1.11934 39.5738 2.44944 40.925C3.78278 42.2794 5.47063 42.8732 7.51784 43.1528C9.49591 43.4229 12.0167 43.4229 15.1694 43.4229H17.0784C17.9068 43.4229 18.5784 42.7513 18.5784 41.9229C18.5784 41.0944 17.9068 40.4229 17.0784 40.4229H15.2822C11.9907 40.4229 9.67525 40.4196 7.92377 40.1804C6.21788 39.9474 5.27231 39.5161 4.5873 38.8203C3.89906 38.1211 3.47017 37.1509 3.23933 35.4069C3.00309 33.622 3 31.2644 3 27.9229L3 17.9229C3 14.5813 3.00309 12.2236 3.23933 10.4388C3.47017 8.69466 3.89909 7.72452 4.58732 7.02542C5.1196 6.48472 5.80921 6.10377 6.89063 5.85147L6.89063 6C6.89063 6.82843 7.5622 7.5 8.39063 7.5C9.21905 7.5 9.89063 6.82843 9.89063 6V5.49556C11.3371 5.42431 13.094 5.42285 15.2822 5.42285L16.8906 5.42285V6C16.8906 6.82843 17.5622 7.5 18.3906 7.5C19.2191 7.5 19.8906 6.82843 19.8906 6V5.42285L21.1889 5.42285C23.4504 5.42285 25.3248 5.43735 26.8906 5.53414V6C26.8906 6.82843 27.5622 7.5 28.3906 7.5C29.2191 7.5 29.8906 6.82843 29.8906 6V5.91277C31.1246 6.19073 31.9012 6.59761 32.431 7.13579C33.123 7.83865 33.5445 8.78529 33.7697 10.4932C34 12.2396 34 14.5499 34 17.8625V20.2957C34 21.1241 34.6716 21.7957 35.5 21.7957C36.3284 21.7957 37 21.1241 37 20.2957L37 17.652C37.0002 14.5253 37.0004 12.0455 36.744 10.101C36.4738 8.05177 35.8953 6.37851 34.5689 5.03113C33.36 3.80324 31.754 3.18598 29.8906 2.85353V2C29.8906 1.17157 29.2191 0.5 28.3906 0.5C27.5622 0.5 26.8906 1.17157 26.8906 2V2.52917C25.229 2.43378 23.3277 2.42285 21.1889 2.42285L19.8906 2.42285V2C19.8906 1.17157 19.2191 0.5 18.3906 0.5C17.5622 0.5 16.8906 1.17157 16.8906 2V2.42285L15.1694 2.42285C13.1611 2.42283 11.4092 2.42281 9.89063 2.49263V2Z" fill="#DBA102"/>
<path d="M9 18C9 17.1716 9.67157 16.5 10.5 16.5L26.5 16.5C27.3284 16.5 28 17.1716 28 18C28 18.8284 27.3284 19.5 26.5 19.5L10.5 19.5C9.67157 19.5 9 18.8284 9 18Z" fill="#DBA102"/>
<path d="M9 28C9 27.1716 9.67157 26.5 10.5 26.5H18.5C19.3284 26.5 20 27.1716 20 28C20 28.8284 19.3284 29.5 18.5 29.5H10.5C9.67157 29.5 9 28.8284 9 28Z" fill="#DBA102"/>
<path fill-rule="evenodd" clip-rule="evenodd" d="M36.1382 24.6408C37.1648 24.9226 38.1087 25.6166 39.0868 26.7003C39.6497 27.2183 40.2726 27.8696 40.6483 28.7364C41.0613 29.6891 41.1099 30.7369 40.7969 31.9113L40.7737 31.9983L40.7403 32.0819C40.3719 33.0032 39.6302 33.8067 38.9567 34.4815C38.6562 34.7825 38.364 35.063 38.069 35.3463C37.6075 35.7893 37.1387 36.2393 36.6204 36.785L36.6026 36.8038L36.5841 36.8219C35.6572 37.7327 34.8751 38.53 34.1976 39.2206C33.8922 39.532 33.6078 39.8219 33.3412 40.0905C32.552 40.8857 31.805 41.6183 31.1864 41.9897C30.3342 42.5012 29.2584 42.7789 28.0244 43.0011L28.0005 43.0054L27.9764 43.0089C27.6117 43.0624 27.2126 43.126 26.8224 43.1882C26.3438 43.2645 25.8775 43.3388 25.5057 43.3895C25.1411 43.4393 24.777 43.4805 24.4487 43.4946C24.1575 43.507 23.7367 43.5079 23.3379 43.3865C22.2509 43.0555 22.0708 41.9848 22.0328 41.7064C21.974 41.2757 22.0039 40.7997 22.0472 40.3937C22.1142 39.7646 22.2522 38.9981 22.3787 38.2957C22.4162 38.0874 22.4527 37.8847 22.4861 37.6929C22.6705 36.3941 23.0563 35.1093 23.5714 34.2615C23.6716 34.0909 23.7933 33.9471 23.8396 33.8924L23.8472 33.8835C23.9384 33.7752 24.0513 33.6491 24.1756 33.514C24.4262 33.2417 24.7609 32.892 25.1455 32.4975C25.9167 31.7063 26.9174 30.7054 27.9116 29.7232L27.9387 29.6964L27.9673 29.6709C28.3207 29.3556 28.8225 28.8334 29.4112 28.2206C29.7516 27.8663 30.1213 27.4815 30.508 27.0892C31.0042 26.5857 31.5196 26.0809 31.9789 25.6872C32.2074 25.4914 32.4499 25.2988 32.6891 25.1425C32.8608 25.0304 33.1709 24.8406 33.5524 24.754C34.2127 24.5595 35.1022 24.3564 36.1382 24.6408ZM34.3464 27.6477C34.8869 27.4855 35.1184 27.4718 35.344 27.5337C35.5969 27.6032 36.0865 27.8436 36.9005 28.7557L36.952 28.8134L37.0091 28.8655C37.5183 29.3296 37.7712 29.642 37.8958 29.9296C37.9906 30.1482 38.0602 30.4655 37.9232 31.0396C37.7869 31.3231 37.4673 31.727 36.8334 32.3621C36.6232 32.5727 36.3679 32.8185 36.0882 33.0879C35.5856 33.5718 35.0038 34.132 34.4633 34.7C33.5246 35.6227 32.7116 36.4514 32.031 37.1452C31.7323 37.4496 31.4589 37.7283 31.2118 37.9773C30.329 38.8669 29.8688 39.2816 29.6424 39.4175C29.2897 39.6292 28.6813 39.8333 27.5162 40.0443C27.0551 40.1122 26.6531 40.1768 26.2826 40.2363C25.8611 40.304 25.4801 40.3652 25.0998 40.4171L25.0653 40.4218C25.125 39.9762 25.2159 39.4708 25.3147 38.9214C25.3576 38.683 25.4021 38.4356 25.4461 38.1819L25.4502 38.1579L25.4536 38.1337C25.6042 37.0573 25.9013 36.2138 26.1257 35.8352L26.1411 35.8168C26.1917 35.7568 26.2713 35.667 26.3832 35.5455C26.6048 35.3046 26.9163 34.9787 27.2937 34.5915C28.0398 33.8261 29.0151 32.8503 29.9944 31.8827C30.4307 31.4893 31.0679 30.8268 31.7088 30.1605C32.0279 29.8287 32.348 29.496 32.6446 29.1951C33.1292 28.7034 33.572 28.2729 33.9313 27.965C34.1122 27.8099 34.2441 27.7101 34.3298 27.6541L34.3338 27.6515L34.3464 27.6477Z" fill="#DBA102"/>
</g>
</g>
</svg>
