<svg width="14" height="14" viewBox="0 0 14 14" fill="none" xmlns="http://www.w3.org/2000/svg">
<g id="elements">
<g id="Icon">
<path fill-rule="evenodd" clip-rule="evenodd" d="M9.99984 2.50033C9.17141 2.50033 8.49984 3.1719 8.49984 4.00033C8.49984 4.82875 9.17141 5.50033 9.99984 5.50033C10.8283 5.50033 11.4998 4.82875 11.4998 4.00033C11.4998 3.1719 10.8283 2.50033 9.99984 2.50033ZM9.49984 4.00033C9.49984 3.72418 9.7237 3.50033 9.99984 3.50033C10.276 3.50033 10.4998 3.72418 10.4998 4.00033C10.4998 4.27647 10.276 4.50033 9.99984 4.50033C9.7237 4.50033 9.49984 4.27647 9.49984 4.00033Z" fill="#161616"/>
<path fill-rule="evenodd" clip-rule="evenodd" d="M7.03795 0.166992H6.96172C5.50125 0.166983 4.35413 0.166976 3.45852 0.287388C2.54075 0.410779 1.81258 0.668802 1.24045 1.24093C0.668314 1.81307 0.410291 2.54124 0.2869 3.45901C0.166488 4.35462 0.166495 5.50174 0.166504 6.96221V7.03844C0.166495 8.49891 0.166488 9.64603 0.2869 10.5416C0.410291 11.4594 0.668314 12.1876 1.24045 12.7597C1.81258 13.3318 2.54075 13.5899 3.45852 13.7133C4.35413 13.8337 5.50124 13.8337 6.9617 13.8337H7.03795C8.49841 13.8337 9.64555 13.8337 10.5412 13.7133C11.4589 13.5899 12.1871 13.3318 12.7592 12.7597C13.3314 12.1876 13.5894 11.4594 13.7128 10.5416C13.8332 9.64604 13.8332 8.49892 13.8332 7.03846V6.96221C13.8332 5.50175 13.8332 4.35462 13.7128 3.45901C13.5894 2.54124 13.3314 1.81307 12.7592 1.24093C12.1871 0.668802 11.4589 0.410779 10.5412 0.287388C9.64554 0.166976 8.49842 0.166983 7.03795 0.166992ZM1.94755 1.94804C2.30292 1.59268 2.78488 1.38695 3.59177 1.27847C4.41303 1.16805 5.49292 1.16699 6.99984 1.16699C8.50675 1.16699 9.58664 1.16805 10.4079 1.27847C11.2148 1.38695 11.6968 1.59268 12.0521 1.94804C12.4075 2.3034 12.6132 2.78537 12.7217 3.59226C12.8321 4.41352 12.8332 5.49341 12.8332 7.00033C12.8332 7.95244 12.8327 8.73408 12.8046 9.38773C12.2966 9.24122 11.7793 9.16661 11.2582 9.16703C10.1408 9.16287 9.04763 9.49961 8.02524 10.1389C7.76961 9.90501 7.49598 9.68509 7.20572 9.48086C5.63612 8.37649 3.67551 7.79726 1.67312 7.83543C1.50441 7.83513 1.33579 7.83893 1.16747 7.84681C1.16655 7.58053 1.1665 7.29881 1.1665 7.00033C1.1665 5.49341 1.16757 4.41352 1.27798 3.59226C1.38647 2.78537 1.59219 2.3034 1.94755 1.94804ZM8.73476 10.8787C9.21972 11.4564 9.60932 12.0949 9.8887 12.7757C10.0728 12.7616 10.2454 12.744 10.4079 12.7222C11.2148 12.6137 11.6968 12.408 12.0521 12.0526C12.4074 11.6973 12.6131 11.2155 12.7216 10.4089C12.236 10.2469 11.7465 10.1665 11.258 10.167L11.2555 10.167C10.412 10.1637 9.56203 10.3988 8.73476 10.8787ZM6.63029 10.2987C7.60016 10.9811 8.34468 11.8514 8.81484 12.8226C8.28835 12.8334 7.68872 12.8337 6.99984 12.8337C5.49292 12.8337 4.41303 12.8326 3.59177 12.7222C2.78488 12.6137 2.30292 12.408 1.94755 12.0526C1.59219 11.6972 1.38647 11.2153 1.27798 10.4084C1.21907 9.97023 1.19129 9.45845 1.17819 8.84748C1.34395 8.83907 1.51006 8.83505 1.67628 8.83544L1.68725 8.83535C3.49086 8.79995 5.24275 9.32244 6.63029 10.2987Z" fill="#161616"/>
</g>
</g>
</svg>
