<svg width="22" height="22" viewBox="0 0 22 22" fill="none" xmlns="http://www.w3.org/2000/svg">
<g id="elements">
<g id="Icon">
<path d="M6.75 9C6.75 8.58579 6.41421 8.25 6 8.25C5.58579 8.25 5.25 8.58579 5.25 9L5.25 16C5.25 16.4142 5.58579 16.75 6 16.75C6.41421 16.75 6.75 16.4142 6.75 16L6.75 9Z" fill="#1B8354"/>
<path d="M10 8.25C10.4141 8.25 10.7499 8.58564 10.75 8.99973C11.3767 8.52896 12.1558 8.25 13 8.25C15.0711 8.25 16.75 9.92893 16.75 12V16C16.75 16.4142 16.4142 16.75 16 16.75C15.5858 16.75 15.25 16.4142 15.25 16V12C15.25 10.7574 14.2426 9.75 13 9.75C11.7574 9.75 10.75 10.7574 10.75 12V16C10.75 16.4142 10.4142 16.75 10 16.75C9.58579 16.75 9.25 16.4142 9.25 16L9.25 9C9.25 8.58579 9.58579 8.25 10 8.25Z" fill="#1B8354"/>
<path d="M7.00806 6C7.00806 6.55229 6.56034 7 6.00806 7H5.99907C5.44679 7 4.99907 6.55228 4.99907 6C4.99907 5.44771 5.44679 5 5.99907 5H6.00806C6.56034 5 7.00806 5.44771 7.00806 6Z" fill="#1B8354"/>
<path fill-rule="evenodd" clip-rule="evenodd" d="M11.0572 0.75L10.9428 0.75C8.75214 0.749987 7.03143 0.749977 5.68802 0.930594C4.31137 1.11568 3.21911 1.50271 2.36091 2.36091C1.50272 3.21911 1.11568 4.31137 0.930594 5.68802C0.749976 7.03144 0.749987 8.75212 0.75 10.9428L0.75 11.0572C0.749987 13.2479 0.749976 14.9686 0.930594 16.312C1.11568 17.6886 1.50272 18.7809 2.36091 19.6391C3.21911 20.4973 4.31137 20.8843 5.68802 21.0694C7.03144 21.25 8.7521 21.25 10.9428 21.25H11.0572C13.2479 21.25 14.9686 21.25 16.312 21.0694C17.6886 20.8843 18.7809 20.4973 19.6391 19.6391C20.4973 18.7809 20.8843 17.6886 21.0694 16.312C21.25 14.9686 21.25 13.2479 21.25 11.0572V10.9428C21.25 8.75214 21.25 7.03144 21.0694 5.68802C20.8843 4.31137 20.4973 3.21911 19.6391 2.36091C18.7809 1.50271 17.6886 1.11568 16.312 0.930594C14.9686 0.749977 13.2479 0.749987 11.0572 0.75ZM3.42157 3.42157C3.95462 2.88853 4.67757 2.57994 5.8879 2.41722C7.11979 2.25159 8.73963 2.25 11 2.25C13.2604 2.25 14.8802 2.25159 16.1121 2.41722C17.3224 2.57994 18.0454 2.88853 18.5784 3.42157C19.1115 3.95462 19.4201 4.67757 19.5828 5.88789C19.7484 7.11979 19.75 8.73963 19.75 11C19.75 13.2604 19.7484 14.8802 19.5828 16.1121C19.4201 17.3224 19.1115 18.0454 18.5784 18.5784C18.0454 19.1115 17.3224 19.4201 16.1121 19.5828C14.8802 19.7484 13.2604 19.75 11 19.75C8.73963 19.75 7.11979 19.7484 5.8879 19.5828C4.67757 19.4201 3.95462 19.1115 3.42157 18.5784C2.88853 18.0454 2.57994 17.3224 2.41722 16.1121C2.25159 14.8802 2.25 13.2604 2.25 11C2.25 8.73963 2.25159 7.11979 2.41722 5.8879C2.57994 4.67757 2.88853 3.95462 3.42157 3.42157Z" fill="#1B8354"/>
</g>
</g>
</svg>
