<svg width="18" height="18" viewBox="0 0 18 18" fill="none" xmlns="http://www.w3.org/2000/svg">
<g id="elements">
<g id="Icon">
<path d="M8.57588 8.79265C8.518 8.79171 8.45108 8.79169 8.36851 8.79169C8.02333 8.79169 7.74351 8.51187 7.74351 8.16669C7.74351 7.82151 8.02333 7.54169 8.36851 7.54169L8.39721 7.54168C8.56814 7.54161 8.75297 7.54154 8.90899 7.56252C9.09176 7.58709 9.32525 7.65028 9.52175 7.84678C9.71825 8.04328 9.78144 8.27677 9.80602 8.45954C9.82699 8.61556 9.82692 8.80039 9.82685 8.97132L9.82684 13.1667C9.82684 13.5119 9.54702 13.7917 9.20184 13.7917C8.85667 13.7917 8.57684 13.5119 8.57684 13.1667V9.00002C8.57684 8.91745 8.57682 8.85053 8.57588 8.79265Z" fill="#161616"/>
<path d="M8.99351 4.83334C8.53327 4.83334 8.16018 5.20643 8.16018 5.66667C8.16018 6.12691 8.53327 6.50001 8.99351 6.50001H9.00099C9.46123 6.50001 9.83433 6.12691 9.83433 5.66667C9.83433 5.20643 9.46123 4.83334 9.00099 4.83334H8.99351Z" fill="#161616"/>
<path fill-rule="evenodd" clip-rule="evenodd" d="M0.041687 9.00001C0.041687 13.9476 4.05247 17.9583 9.00002 17.9583C13.9476 17.9583 17.9584 13.9476 17.9584 9.00001C17.9584 4.05245 13.9476 0.0416718 9.00002 0.0416718C4.05247 0.0416718 0.041687 4.05245 0.041687 9.00001ZM9.00002 16.7083C4.74283 16.7083 1.29169 13.2572 1.29169 9.00001C1.29169 4.74281 4.74283 1.29167 9.00002 1.29167C13.2572 1.29167 16.7084 4.74281 16.7084 9.00001C16.7084 13.2572 13.2572 16.7083 9.00002 16.7083Z" fill="#161616"/>
</g>
</g>
</svg>
