<svg width="18" height="18" viewBox="0 0 18 18" fill="none" xmlns="http://www.w3.org/2000/svg">
<g id="elements">
<g id="Icon">
<path d="M8.61828 8.81338C8.56618 8.81254 8.50595 8.81251 8.43164 8.81251C8.12098 8.81251 7.86914 8.56067 7.86914 8.25001C7.86914 7.93935 8.12098 7.68751 8.43164 7.68751L8.45747 7.68751C8.61131 7.68745 8.77766 7.68738 8.91807 7.70626C9.08256 7.72837 9.2927 7.78525 9.46955 7.9621C9.6464 8.13895 9.70328 8.34909 9.7254 8.51358C9.74427 8.654 9.74421 8.82034 9.74415 8.97418L9.74414 12.75C9.74414 13.0607 9.4923 13.3125 9.18164 13.3125C8.87098 13.3125 8.61914 13.0607 8.61914 12.75V9.00001C8.61914 8.9257 8.61912 8.86547 8.61828 8.81338Z" fill="#085D3A"/>
<path d="M8.99414 5.25C8.57993 5.25 8.24414 5.58579 8.24414 6C8.24414 6.41421 8.57993 6.75 8.99414 6.75H9.00088C9.41509 6.75 9.75088 6.41421 9.75088 6C9.75088 5.58579 9.41509 5.25 9.00088 5.25H8.99414Z" fill="#085D3A"/>
<path fill-rule="evenodd" clip-rule="evenodd" d="M0.9375 9C0.9375 13.4528 4.5472 17.0625 9 17.0625C13.4528 17.0625 17.0625 13.4528 17.0625 9C17.0625 4.5472 13.4528 0.9375 9 0.9375C4.5472 0.9375 0.9375 4.5472 0.9375 9ZM9 15.9375C5.16852 15.9375 2.0625 12.8315 2.0625 9C2.0625 5.16852 5.16852 2.0625 9 2.0625C12.8315 2.0625 15.9375 5.16852 15.9375 9C15.9375 12.8315 12.8315 15.9375 9 15.9375Z" fill="#085D3A"/>
</g>
</g>
</svg>
