<svg width="29" height="28" viewBox="0 0 29 28" fill="none" xmlns="http://www.w3.org/2000/svg">
<path d="M13.7638 1.45833H12.4028C10.1268 1.45832 8.3343 1.45831 6.93365 1.63616C5.49985 1.81822 4.34458 2.20004 3.42977 3.06403C2.5079 3.93469 2.09403 5.04545 1.89797 6.42275C1.70829 7.75517 1.70831 9.4563 1.70833 11.5974V16.4025C1.70831 18.5437 1.70829 20.2448 1.89797 21.5772C2.09403 22.9545 2.5079 24.0653 3.42977 24.936C4.34458 25.8 5.49984 26.1818 6.93365 26.3638C8.33431 26.5417 10.1268 26.5417 12.4029 26.5417H13.701C14.1842 26.5417 14.576 26.1499 14.576 25.6667C14.576 25.1834 14.1842 24.7917 13.701 24.7917H12.4657C10.113 24.7917 8.43167 24.79 7.15409 24.6278C5.89679 24.4681 5.16379 24.1665 4.63136 23.6637C4.106 23.1675 3.79625 22.4949 3.6305 21.3306C3.46041 20.1358 3.45833 18.5594 3.45833 16.3333L3.45833 11.6667C3.45833 9.44063 3.46041 7.86423 3.6305 6.66938C3.79625 5.50508 4.106 4.83248 4.63136 4.3363C5.16379 3.83346 5.89679 3.53187 7.15409 3.37222C8.43167 3.20999 10.113 3.20833 12.4657 3.20833H13.701C16.0537 3.20833 17.735 3.20999 19.0126 3.37222C20.2699 3.53187 21.0029 3.83346 21.5353 4.3363C22.0607 4.83248 22.3704 5.50508 22.5362 6.66938C22.7063 7.86423 22.7083 9.44063 22.7083 11.6667V12.25C22.7083 12.7332 23.1001 13.125 23.5833 13.125C24.0666 13.125 24.4583 12.7332 24.4583 12.25V11.5975C24.4584 9.45631 24.4584 7.75518 24.2687 6.42275C24.0726 5.04546 23.6588 3.93469 22.7369 3.06403C21.8221 2.20004 20.6668 1.81822 19.233 1.63616C17.8324 1.45831 16.0398 1.45832 13.7638 1.45833Z" fill="#DBA102"/>
<path d="M8.41666 7.29167C7.93341 7.29167 7.54166 7.68342 7.54166 8.16667C7.54166 8.64991 7.93341 9.04167 8.41666 9.04167H17.75C18.2332 9.04167 18.625 8.64991 18.625 8.16667C18.625 7.68342 18.2332 7.29167 17.75 7.29167H8.41666Z" fill="#DBA102"/>
<path d="M7.54166 14C7.54166 13.5167 7.93341 13.125 8.41666 13.125H14.25C14.7332 13.125 15.125 13.5167 15.125 14C15.125 14.4832 14.7332 14.875 14.25 14.875H8.41666C7.93341 14.875 7.54166 14.4832 7.54166 14Z" fill="#DBA102"/>
<path fill-rule="evenodd" clip-rule="evenodd" d="M22.1251 15.1667C22.1251 14.6834 21.7333 14.2917 21.2501 14.2917C20.7669 14.2917 20.3751 14.6834 20.3751 15.1667V15.8696C19.3936 16.0467 18.5147 16.5163 17.8416 17.1853L17.0566 16.6806C16.6501 16.4193 16.1087 16.537 15.8474 16.9435C15.5861 17.35 15.7038 17.8914 16.1103 18.1527L16.8544 18.6311C16.6176 19.1802 16.4862 19.7836 16.4862 20.4167C16.4862 21.0498 16.6176 21.6534 16.8545 22.2025L16.1107 22.6806C15.7043 22.942 15.5866 23.4834 15.8479 23.8898C16.1092 24.2963 16.6506 24.414 17.0571 24.1527L17.8418 23.6482C18.5149 24.3172 19.3937 24.7867 20.3751 24.9637V25.6667C20.3751 26.1499 20.7669 26.5417 21.2501 26.5417C21.7333 26.5417 22.1251 26.1499 22.1251 25.6667V24.9637C23.1065 24.7867 23.9853 24.3172 24.6584 23.6482L25.4431 24.1527C25.8496 24.414 26.391 24.2963 26.6523 23.8898C26.9136 23.4834 26.7959 22.942 26.3895 22.6806L25.6457 22.2025C25.8826 21.6534 26.014 21.0498 26.014 20.4167C26.014 19.7836 25.8826 19.1802 25.6458 18.6311L26.3899 18.1527C26.7964 17.8914 26.9141 17.35 26.6528 16.9435C26.3915 16.537 25.8501 16.4193 25.4436 16.6806L24.6586 17.1853C23.9855 16.5163 23.1066 16.0467 22.1251 15.8696V15.1667ZM18.7333 18.8346C19.2691 18.061 20.1909 17.5417 21.2501 17.5417C22.3093 17.5417 23.2311 18.061 23.7669 18.8346C24.0823 19.2899 24.264 19.8328 24.264 20.4167C24.264 21.0006 24.0823 21.5435 23.7668 21.9989C23.2309 22.7724 22.3092 23.2917 21.2501 23.2917C20.191 23.2917 19.2693 22.7724 18.7334 21.9989C18.4179 21.5435 18.2362 21.0006 18.2362 20.4167C18.2362 19.8328 18.4179 19.2899 18.7333 18.8346Z" fill="#DBA102"/>
</svg>
