<svg width="14" height="18" viewBox="0 0 14 18" fill="none" xmlns="http://www.w3.org/2000/svg">
<g id="elements">
<g id="Icon">
<path fill-rule="evenodd" clip-rule="evenodd" d="M7 9.1875C5.656 9.1875 4.5625 8.094 4.5625 6.75C4.5625 5.406 5.656 4.3125 7 4.3125C8.344 4.3125 9.4375 5.406 9.4375 6.75C9.4375 8.094 8.344 9.1875 7 9.1875ZM7 5.4375C6.27625 5.4375 5.6875 6.02625 5.6875 6.75C5.6875 7.47375 6.27625 8.0625 7 8.0625C7.72375 8.0625 8.3125 7.47375 8.3125 6.75C8.3125 6.02625 7.72375 5.4375 7 5.4375Z" fill="#161616"/>
<path fill-rule="evenodd" clip-rule="evenodd" d="M5.66722 13.5263C6.02722 13.872 6.50047 14.0625 6.99997 14.0625C7.49947 14.0625 7.97195 13.872 8.33195 13.5255C8.50745 13.3568 8.68748 13.1858 8.86973 13.0133C11.1175 10.8818 13.9149 8.22897 12.3692 4.51199C11.4805 2.37374 9.32197 0.9375 6.99997 0.9375C4.67797 0.9375 2.52021 2.37374 1.63146 4.51199C0.0909639 8.21474 2.86521 10.8555 5.09421 12.9773L5.11578 12.9978C5.30192 13.1753 5.48597 13.3508 5.66722 13.5263ZM2.67022 4.94399C3.38647 3.22049 5.12647 2.0625 6.99997 2.0625V2.06175C8.87347 2.06175 10.6142 3.21974 11.3312 4.94324C12.5792 7.94474 10.3007 10.1063 8.09648 12.1965C7.91198 12.3713 7.73048 12.5438 7.55273 12.7148C7.40348 12.8588 7.20697 12.9375 6.99997 12.9375C6.79297 12.9375 6.59646 12.858 6.44871 12.7163C6.25971 12.5333 6.06623 12.3487 5.86973 12.162C3.68581 10.0831 1.42677 7.93263 2.67022 4.94399Z" fill="#161616"/>
<path d="M7 17.0625C4.5625 17.0625 0.4375 16.5892 0.4375 14.8155C0.4375 13.9807 1.34201 13.353 3.12626 12.951C3.42926 12.8827 3.72999 13.0733 3.79899 13.3763C3.86724 13.6793 3.67674 13.98 3.37374 14.049C2.08374 14.34 1.64349 14.6902 1.56924 14.8162C1.74924 15.153 3.53948 15.9375 7.00073 15.9375C10.462 15.9375 12.2515 15.153 12.4323 14.8162C12.358 14.6902 11.9178 14.3393 10.6278 14.049C10.3248 13.9808 10.1343 13.68 10.2025 13.3763C10.2708 13.0733 10.5715 12.8827 10.8752 12.951C12.6595 13.353 13.564 13.98 13.564 14.8155C13.564 15.561 12.8343 16.1445 11.3965 16.548C10.2153 16.8795 8.6545 17.0625 7.0015 17.0625H7Z" fill="#161616"/>
</g>
</g>
</svg>
