<svg width="18" height="18" viewBox="0 0 18 18" fill="none" xmlns="http://www.w3.org/2000/svg">
<g id="elements">
<g id="Icon">
<path fill-rule="evenodd" clip-rule="evenodd" d="M9.625 7.90862C11.5142 7.60896 12.9583 5.97281 12.9583 3.99935C12.9583 1.81322 11.1861 0.0410156 9 0.0410156C6.81387 0.0410156 5.04167 1.81322 5.04167 3.99935C5.04167 5.97281 6.48584 7.60896 8.375 7.90862V13.9993C8.375 14.3445 8.65482 14.6243 9 14.6243C9.34518 14.6243 9.625 14.3445 9.625 13.9993V7.90862ZM9 1.29102C7.50423 1.29102 6.29167 2.50358 6.29167 3.99935C6.29167 5.49512 7.50423 6.70768 9 6.70768C10.4958 6.70768 11.7083 5.49512 11.7083 3.99935C11.7083 2.50358 10.4958 1.29102 9 1.29102Z" fill="#54C08A"/>
<path d="M3.72437 12.0506C3.88018 12.3586 3.7568 12.7346 3.44879 12.8904C2.44771 13.3968 2.125 13.9102 2.125 14.2625C2.125 14.4646 2.22243 14.7166 2.52404 15.0085C2.82751 15.3022 3.29936 15.5955 3.93347 15.855C5.19866 16.373 6.98962 16.7077 9 16.7077C11.0104 16.7077 12.8013 16.373 14.0665 15.855C14.7006 15.5955 15.1725 15.3022 15.476 15.0085C15.7776 14.7166 15.875 14.4646 15.875 14.2625C15.875 13.9102 15.5523 13.3968 14.5512 12.8904C14.2432 12.7346 14.1198 12.3586 14.2756 12.0506C14.4314 11.7425 14.8074 11.6192 15.1155 11.775C16.199 12.3231 17.125 13.1526 17.125 14.2625C17.125 14.9083 16.8027 15.464 16.3453 15.9067C15.8897 16.3476 15.2632 16.7159 14.5401 17.0119C13.0908 17.6051 11.1318 17.9577 9 17.9577C6.86824 17.9577 4.90921 17.6051 3.45992 17.0119C2.73681 16.7159 2.1103 16.3476 1.65473 15.9067C1.19731 15.464 0.875 14.9083 0.875 14.2625C0.875 13.1526 1.80096 12.3231 2.88454 11.775C3.19255 11.6192 3.56855 11.7425 3.72437 12.0506Z" fill="#54C08A"/>
</g>
</g>
</svg>
