<svg width="18" height="18" viewBox="0 0 18 18" fill="none" xmlns="http://www.w3.org/2000/svg">
<g id="elements">
<g id="Icon">
<path fill-rule="evenodd" clip-rule="evenodd" d="M7.72974 8.28222C8.14307 8.56806 8.46976 8.79305 8.99976 8.79305C9.52893 8.79305 9.85561 8.56802 10.2681 8.28385C11.4906 7.44469 12.1664 6.36389 12.1223 5.31722C12.0923 4.61972 11.7381 4.01222 11.1748 3.69222C10.4464 3.27638 9.64144 3.27218 8.99895 3.67301C8.35478 3.27218 7.55144 3.27722 6.82394 3.69222C6.25977 4.01222 5.90559 4.62055 5.87643 5.31722C5.83226 6.36305 6.50807 7.44472 7.72974 8.28222ZM7.44393 4.77718C7.63977 4.66551 7.81061 4.62638 7.95394 4.62638H7.95309C8.14809 4.62638 8.29224 4.69972 8.37891 4.76139L8.38811 4.76725L8.39234 4.77017C8.60765 4.91867 8.7638 5.02637 8.99976 5.02637C9.23726 5.02637 9.39475 4.91808 9.61141 4.76725L9.62061 4.76139C9.77144 4.65389 10.0939 4.51389 10.5573 4.77889C10.7473 4.88722 10.8623 5.10219 10.8739 5.37052C10.8856 5.65719 10.7823 6.41557 9.55978 7.2539C9.18728 7.51057 9.12476 7.54305 8.99976 7.54305C8.87476 7.54305 8.81224 7.51053 8.43807 7.2522C7.21724 6.4147 7.11307 5.65721 7.12557 5.36971C7.13641 5.10138 7.25226 4.88635 7.44226 4.77718H7.44393Z" fill="#54C08A"/>
<path fill-rule="evenodd" clip-rule="evenodd" d="M2.54146 4.0013V4.49927L1.80067 4.99211L1.7632 5.01717L1.75611 5.02196C0.996425 5.5356 0.57654 5.81949 0.309868 6.31462C0.0380097 6.82175 0.039842 7.3405 0.0431619 8.28045L0.0431855 8.28711C0.0465188 9.52711 0.0598505 10.5454 0.0831838 11.4954C0.149017 14.1371 0.185676 15.593 1.30401 16.7105C2.42674 17.8332 3.8966 17.8662 6.56223 17.9262L6.5665 17.9263C7.38483 17.9471 8.19237 17.958 8.99904 17.958L9.00152 17.9588C9.80819 17.9588 10.6149 17.948 11.4315 17.9272L11.435 17.9271C14.1028 17.8671 15.5729 17.8341 16.6957 16.7113C17.8149 15.5938 17.8515 14.1388 17.9173 11.493C17.9407 10.5455 17.9532 9.52717 17.9574 8.288C17.9607 7.34301 17.9623 6.82297 17.6898 6.3138C17.4223 5.8188 17.0015 5.53382 16.2365 5.01799L15.4581 4.50087V4.0013C15.4581 2.31297 15.4581 1.38298 14.7881 0.719645C14.1165 0.0429785 13.1873 0.0429688 11.4998 0.0429688H6.4998C4.8123 0.0429688 3.88314 0.0429948 3.2148 0.715495C2.54147 1.38216 2.54146 2.31214 2.54146 4.0013ZM14.2081 4.0013V8.48199L11.2515 10.2572L11.2446 10.2613C10.0958 10.9486 9.51876 11.2938 8.9998 11.2938C8.48117 11.2938 7.90454 10.949 6.7581 10.2634L6.74898 10.258L3.79146 8.48255V4.0013C3.79146 2.54714 3.80398 1.89217 4.09814 1.6005C4.39064 1.3055 5.04563 1.29297 6.4998 1.29297H11.4998C12.9531 1.29297 13.6081 1.30551 13.9048 1.60384C14.1956 1.89134 14.2081 2.54714 14.2081 4.0013ZM2.54146 6.00113V7.73216L1.36254 7.02443C1.37595 6.98085 1.39186 6.94216 1.4107 6.90715C1.52653 6.69048 1.79983 6.50046 2.46233 6.05379L2.54146 6.00113ZM15.4581 7.73148V6.00162L15.499 6.02881L15.5365 6.05379C16.199 6.50046 16.4724 6.69044 16.5882 6.90544C16.6073 6.94076 16.6233 6.97979 16.6369 7.02375L15.4581 7.73148ZM1.29377 8.44096L6.10645 11.3297C7.41395 12.1122 8.1348 12.543 8.9998 12.543C9.8648 12.543 10.5856 12.1121 11.894 11.3288L16.7059 8.44008C16.7013 9.5995 16.6888 10.5633 16.6665 11.4646L16.6663 11.4746C16.6039 13.9376 16.5755 15.0624 15.8107 15.8263C15.0715 16.5663 13.9915 16.6188 11.3998 16.6772C9.78483 16.7188 8.21484 16.7188 6.59734 16.6772C4.00818 16.6188 2.92733 16.5655 2.18816 15.8263C1.42316 15.0622 1.39485 13.9346 1.33318 11.4613C1.31086 10.5642 1.29845 9.60147 1.29377 8.44096Z" fill="#54C08A"/>
</g>
</g>
</svg>
