<svg width="18" height="18" viewBox="0 0 18 18" fill="none" xmlns="http://www.w3.org/2000/svg">
<g id="elements">
<path id="Icon" fill-rule="evenodd" clip-rule="evenodd" d="M6.56815 17.5081C7.38648 17.529 8.19398 17.5399 9.00064 17.5399L9.0015 17.5415C9.80816 17.5415 10.614 17.5307 11.4307 17.5098C14.1282 17.4498 15.6132 17.4165 16.7357 16.2957C17.8573 15.1848 17.889 13.7481 17.9457 11.1398C17.9732 9.86981 17.959 8.64067 17.9023 7.37484C17.8665 6.5565 17.844 6.06234 17.5715 5.58984C17.2972 5.11272 16.8687 4.83376 16.1627 4.37417L16.1573 4.37069L13.0198 2.30981C11.1357 1.07731 10.1898 0.458984 9.00064 0.458984C7.81148 0.458984 6.86568 1.07736 4.97818 2.31152L1.84651 4.36816C1.13401 4.83066 0.704842 5.10982 0.429842 5.58732C0.157024 6.05893 0.134926 6.55212 0.0983841 7.36769L0.098177 7.37231V7.3807C0.0415103 8.63903 0.0273421 9.86816 0.0548421 11.139C0.111509 13.7465 0.143175 15.1832 1.26318 16.2923C2.38674 17.415 3.87155 17.4481 6.56379 17.508L6.56815 17.5081ZM2.14485 15.4057C1.38152 14.6507 1.35734 13.5415 1.30484 11.1115C1.28343 10.114 1.28833 9.14239 1.31955 8.16115L3.85502 9.99829C4.27252 10.3 4.61838 10.5491 4.93921 10.7749C5.91504 11.4724 6.67336 11.7083 7.9467 11.7083H10.0534C11.3267 11.7083 12.0867 11.4724 13.0575 10.7774C13.38 10.5508 13.7117 10.3116 14.1467 9.9974L16.6809 8.16144C16.7119 9.14237 16.7162 10.1135 16.6948 11.1115C16.6423 13.5415 16.6182 14.6498 15.8532 15.4073C15.1132 16.1465 14.0215 16.1998 11.3998 16.2581C9.78481 16.2998 8.21484 16.2998 6.59818 16.2581C3.97901 16.1998 2.88651 16.1473 2.14485 15.4057ZM16.6071 6.671L13.4142 8.98405C12.9842 9.29488 12.655 9.53157 12.3342 9.75741C11.575 10.3007 11.0642 10.4574 10.0542 10.4574H7.94755C6.93755 10.4574 6.42587 10.3007 5.66337 9.75488C5.3442 9.52988 5.00086 9.28328 4.58752 8.98494L1.3932 6.67061C1.41611 6.45597 1.44997 6.31961 1.51232 6.21151C1.63315 6.00317 1.91065 5.81648 2.52982 5.41398L5.66483 3.35482C7.34149 2.25815 8.18316 1.70817 8.99983 1.70817C9.8165 1.70817 10.6581 2.25813 12.3356 3.35563L15.4723 5.41569C16.0898 5.81652 16.3673 6.00232 16.4882 6.21232C16.5504 6.31975 16.5842 6.45582 16.6071 6.671Z" fill="#54C08A"/>
</g>
</svg>
