<svg width="54" height="78" viewBox="0 0 54 78" fill="none" xmlns="http://www.w3.org/2000/svg">
<g clip-path="url(#clip0_292_1411)">
<path d="M2.39526 77.7745V70.2574H7.96658V71.5253H3.91342V73.1866H7.67951V74.4545H3.91342V76.5083H8.10969V77.7762L2.39526 77.7745Z" fill="#006027"/>
<path d="M8.8772 76.2212L10.3234 76.007C10.3589 76.2622 10.4936 76.4932 10.6983 76.6497C10.93 76.8046 11.2059 76.8798 11.4842 76.864C11.7764 76.882 12.0675 76.8136 12.3211 76.6673C12.383 76.6226 12.4333 76.5635 12.4675 76.4952C12.5018 76.4268 12.519 76.3512 12.5178 76.2748C12.5191 76.2252 12.5103 76.1758 12.4919 76.1298C12.4735 76.0837 12.4458 76.0419 12.4106 76.007C12.2651 75.909 12.1011 75.8421 11.9286 75.8103C11.1596 75.691 10.413 75.4562 9.71411 75.114C9.50843 74.9829 9.3408 74.8002 9.228 74.584C9.11519 74.3678 9.06117 74.1257 9.07136 73.8821C9.0679 73.6539 9.11583 73.4278 9.21159 73.2206C9.30735 73.0135 9.44849 72.8305 9.62455 72.6853C10.1265 72.3241 10.7406 72.1532 11.357 72.2032C11.9329 72.1652 12.508 72.289 13.0174 72.5606C13.3836 72.821 13.6495 73.1991 13.7706 73.6318L12.4131 73.8829C12.3719 73.6869 12.2568 73.5143 12.0918 73.4008C11.8822 73.2744 11.64 73.2124 11.3955 73.2226C11.1124 73.2035 10.8294 73.2589 10.5745 73.3833C10.526 73.4137 10.4859 73.4557 10.4579 73.5055C10.4298 73.5554 10.4146 73.6115 10.4138 73.6686C10.4152 73.7213 10.4288 73.773 10.4536 73.8195C10.4785 73.866 10.5138 73.906 10.5569 73.9365C10.9843 74.1287 11.4342 74.2668 11.8959 74.3474C12.4712 74.4449 13.019 74.664 13.5028 74.9901C13.6549 75.1221 13.7743 75.2875 13.8517 75.4734C13.929 75.6592 13.9623 75.8605 13.9489 76.0614C13.9472 76.3087 13.8901 76.5525 13.7819 76.775C13.6738 76.9974 13.5172 77.1928 13.3237 77.3469C12.7888 77.742 12.1298 77.9321 11.4666 77.8825C10.8457 77.9173 10.229 77.7617 9.69904 77.4364C9.29579 77.1363 9.00633 76.7081 8.87803 76.2221" fill="#006027"/>
<path d="M17.7157 72.3287V73.4711H16.734V75.6672C16.7268 75.9296 16.7388 76.1923 16.77 76.453C16.7879 76.5259 16.8324 76.5895 16.8947 76.6313C16.9673 76.6841 17.0563 76.7093 17.1458 76.7024C17.3424 76.6832 17.535 76.635 17.7174 76.5593L17.8421 77.6841C17.4794 77.8321 17.0905 77.905 16.6989 77.8984C16.4606 77.9069 16.2232 77.8644 16.0026 77.7737C15.8192 77.7061 15.6584 77.5887 15.5381 77.4347C15.4352 77.2658 15.3682 77.0775 15.3414 76.8815C15.2945 76.5444 15.2765 76.204 15.2879 75.8638V73.4895H14.6267V72.3429H15.287V71.255L16.7332 70.4181V72.3429L17.7157 72.3287Z" fill="#006027"/>
<path d="M18.7158 70.2574H20.162V71.5964H18.7158V70.2574ZM18.7158 72.3287H20.162V77.7754H18.7158V72.3287Z" fill="#006027"/>
<path d="M26.6263 77.7745H25.2872V76.9711C25.0841 77.2621 24.8148 77.5008 24.5014 77.6674C24.2218 77.819 23.9089 77.8987 23.5908 77.8992C23.284 77.8998 22.9809 77.8327 22.7031 77.7024C22.4253 77.5722 22.1797 77.3822 21.9839 77.146C21.5486 76.5312 21.3119 75.798 21.3054 75.0447C21.299 74.2914 21.5232 73.5543 21.948 72.9321C22.1522 72.6994 22.4055 72.5147 22.6895 72.3913C22.9735 72.2679 23.2813 72.2088 23.5908 72.2183C23.8941 72.217 24.1937 72.2855 24.4662 72.4186C24.7388 72.5517 24.977 72.7457 25.1625 72.9857V70.275H26.6087L26.6263 77.7745ZM22.7874 74.9173C22.759 75.3546 22.8455 75.7917 23.0384 76.1852C23.1343 76.361 23.2765 76.5072 23.4496 76.608C23.6226 76.7087 23.8199 76.7602 24.0201 76.7568C24.1836 76.7567 24.3447 76.7178 24.4902 76.6433C24.6357 76.5688 24.7614 76.4609 24.8571 76.3283C25.1195 75.9599 25.2458 75.5117 25.2144 75.0604C25.2571 74.5827 25.1377 74.1045 24.8755 73.7029C24.7706 73.5745 24.6385 73.4709 24.4887 73.3998C24.3389 73.3287 24.1751 73.2918 24.0093 73.2918C23.8434 73.2918 23.6797 73.3287 23.5299 73.3998C23.38 73.4709 23.2479 73.5745 23.1431 73.7029C22.8828 74.0521 22.7561 74.4828 22.7857 74.9173" fill="#006027"/>
<path d="M29.1262 73.9892L27.8223 73.7573C27.9279 73.2934 28.1948 72.8821 28.5755 72.5966C29.0615 72.3136 29.6213 72.183 30.1824 72.2216C30.6699 72.19 31.1584 72.2693 31.611 72.4535C31.8857 72.5698 32.1168 72.7698 32.2713 73.0251C32.4307 73.4338 32.4979 73.8728 32.468 74.3106L32.4504 75.9877C32.437 76.3405 32.4609 76.6936 32.5215 77.0414C32.5766 77.2967 32.6667 77.5431 32.7893 77.7737H31.3624C31.3064 77.6338 31.2586 77.4907 31.2193 77.3452C31.2092 77.2837 31.1912 77.2238 31.1657 77.1669C30.9332 77.3852 30.668 77.5659 30.3799 77.7025C30.0983 77.8249 29.7938 77.8856 29.4869 77.8808C29.0027 77.904 28.5286 77.7373 28.1654 77.4163C28.0077 77.2678 27.8833 77.0876 27.8002 76.8875C27.7171 76.6875 27.6773 76.4721 27.6833 76.2555C27.6778 75.9674 27.752 75.6833 27.8976 75.4345C28.0475 75.193 28.2648 75.0007 28.5228 74.8813C28.8904 74.7281 29.2734 74.6144 29.6651 74.5424C30.1399 74.4688 30.6063 74.3492 31.0578 74.185V74.0419C31.0683 73.9344 31.0546 73.8259 31.0175 73.7245C30.9804 73.6231 30.9209 73.5314 30.8435 73.4561C30.6325 73.3446 30.3987 73.2834 30.1602 73.2772C29.9217 73.2709 29.685 73.3198 29.4685 73.4201C29.3157 73.5841 29.2001 73.779 29.1295 73.9917M31.0544 75.1525C30.7673 75.2407 30.4752 75.3122 30.1798 75.3667C29.9064 75.409 29.6413 75.4937 29.394 75.6178C29.3063 75.6688 29.2337 75.7422 29.1835 75.8304C29.1334 75.9186 29.1075 76.0185 29.1086 76.1199C29.1069 76.218 29.1268 76.3152 29.1669 76.4047C29.207 76.4943 29.2662 76.5739 29.3404 76.638C29.4165 76.7102 29.5062 76.7664 29.6044 76.8032C29.7026 76.84 29.8073 76.8567 29.912 76.8522C30.1826 76.8462 30.4451 76.7587 30.6652 76.6012C30.8329 76.4869 30.9534 76.3156 31.0042 76.1191C31.0493 75.8899 31.0673 75.6562 31.0578 75.4228L31.0544 75.1525Z" fill="#006027"/>
<path d="M33.7861 72.3288H35.1076V73.082C35.3056 72.8185 35.5616 72.6041 35.8558 72.4555C36.15 72.3069 36.4745 72.228 36.804 72.225C37.1209 72.2175 37.4343 72.2912 37.7146 72.4392C37.9778 72.5924 38.194 72.8146 38.3398 73.082C38.5505 72.819 38.8113 72.6005 39.1072 72.4392C39.3826 72.2952 39.6894 72.2216 40.0002 72.225C40.3555 72.2189 40.7062 72.3054 41.0179 72.476C41.3006 72.637 41.5208 72.8885 41.643 73.1899C41.7632 73.5521 41.8118 73.9341 41.7861 74.3148V77.7787H40.34V74.6721C40.3663 74.3148 40.3176 73.9558 40.1969 73.6184C40.1309 73.5194 40.0402 73.4394 39.9338 73.3861C39.8274 73.3328 39.7089 73.3082 39.5901 73.3146C39.3856 73.313 39.1858 73.3753 39.0185 73.4929C38.8361 73.6273 38.6992 73.8142 38.626 74.0285C38.5319 74.3958 38.49 74.7744 38.5013 75.1533V77.7779H37.0551V74.796C37.0754 74.4551 37.0515 74.113 36.984 73.7783C36.9483 73.6419 36.8663 73.5221 36.7521 73.4393C36.6174 73.36 36.4621 73.3227 36.3061 73.3322C36.0903 73.3279 35.8785 73.3902 35.6993 73.5105C35.5175 73.6339 35.3848 73.8173 35.3244 74.0285C35.2382 74.3969 35.2022 74.7753 35.2172 75.1533V77.7779H33.7686V72.3321L33.7861 72.3288Z" fill="#006027"/>
<path d="M44.3035 73.9892L43.0005 73.7573C43.1061 73.2934 43.3731 72.8821 43.7537 72.5966C44.2397 72.3136 44.7995 72.183 45.3606 72.2216C45.8482 72.19 46.3366 72.2693 46.7892 72.4535C47.0639 72.5698 47.295 72.7698 47.4495 73.0251C47.6089 73.4338 47.6761 73.8728 47.6462 74.3106L47.6278 75.9877C47.6144 76.3405 47.6383 76.6936 47.6989 77.0414C47.754 77.2967 47.8441 77.5431 47.9667 77.7737H46.5398C46.4838 77.6338 46.436 77.4907 46.3967 77.3452C46.3866 77.2837 46.3686 77.2238 46.3431 77.1669C46.1105 77.3852 45.8454 77.5659 45.5572 77.7025C45.2757 77.8249 44.9712 77.8856 44.6643 77.8808C44.1801 77.904 43.706 77.7373 43.3428 77.4163C43.1851 77.2678 43.0606 77.0876 42.9776 76.8875C42.8945 76.6875 42.8546 76.4721 42.8607 76.2555C42.8552 75.9674 42.9294 75.6833 43.075 75.4345C43.2249 75.193 43.4422 75.0007 43.7001 74.8813C44.0678 74.7281 44.4508 74.6144 44.8425 74.5424C45.3173 74.4688 45.7837 74.3492 46.2351 74.185V74.0419C46.2441 73.936 46.2313 73.8294 46.1975 73.7286C46.1637 73.6278 46.1095 73.5351 46.0385 73.4561C45.8275 73.3446 45.5936 73.2834 45.3551 73.2772C45.1166 73.2709 44.8799 73.3198 44.6634 73.4201C44.4985 73.5778 44.3756 73.7743 44.3061 73.9917M46.231 75.1525C45.9438 75.2407 45.6518 75.3122 45.3564 75.3667C45.0829 75.409 44.8178 75.4937 44.5705 75.6178C44.4828 75.6688 44.4102 75.7422 44.3601 75.8304C44.31 75.9186 44.2841 76.0185 44.2851 76.1199C44.2835 76.218 44.3034 76.3152 44.3434 76.4047C44.3835 76.4943 44.4427 76.5739 44.517 76.638C44.593 76.7102 44.6828 76.7664 44.781 76.8032C44.8792 76.84 44.9838 76.8567 45.0886 76.8522C45.3592 76.8462 45.6217 76.7587 45.8418 76.6012C46.0095 76.4869 46.1299 76.3156 46.1807 76.1191C46.2259 75.8899 46.2438 75.6562 46.2343 75.4228L46.231 75.1525Z" fill="#006027"/>
<path d="M50.4993 70.2574V73.0251C50.6972 72.7729 50.949 72.5681 51.2363 72.4259C51.5237 72.2837 51.8392 72.2076 52.1597 72.2032C52.467 72.1948 52.7722 72.2557 53.0527 72.3815C53.2883 72.487 53.4961 72.646 53.6594 72.8459C53.7994 73.0354 53.8913 73.2559 53.9273 73.4887C53.9875 73.848 54.0113 74.2125 53.9984 74.5767V77.7728H52.5506V74.898C52.5677 74.533 52.5376 74.1674 52.461 73.8101C52.4096 73.6571 52.3093 73.5254 52.1756 73.4351C52.0197 73.3399 51.8402 73.2903 51.6576 73.292C51.4305 73.2876 51.2071 73.3495 51.0148 73.4703C50.8274 73.5961 50.6838 73.7772 50.6039 73.9883C50.5034 74.3238 50.4613 74.6739 50.4792 75.0236V77.7737H49.0355V70.2574H50.4993Z" fill="#006027"/>
<path d="M7.37737 59.5968H5.53784V61.1685H7.37737V59.5968Z" fill="#006027"/>
<path d="M4.69842 59.5968H2.85889V61.1685H4.69842V59.5968Z" fill="#006027"/>
<path d="M15.3765 62.0431C14.956 62.0365 14.5385 62.1157 14.1496 62.2758C13.7606 62.4359 13.4084 62.6736 13.1143 62.9743C12.8202 63.275 12.5905 63.6325 12.4392 64.025C12.2878 64.4174 12.218 64.8365 12.2339 65.2568V65.882C12.2477 65.9892 12.2378 66.0982 12.2051 66.2012C12.1724 66.3043 12.1176 66.3989 12.0445 66.4786C11.9714 66.5583 11.8819 66.6211 11.782 66.6626C11.6822 66.7041 11.5745 66.7233 11.4665 66.7189H8.8411C8.73533 66.7261 8.62927 66.7099 8.53044 66.6716C8.43161 66.6332 8.34242 66.5736 8.26919 66.4969C8.19597 66.4203 8.1405 66.3285 8.10671 66.228C8.07291 66.1275 8.06163 66.0208 8.07365 65.9155V61.7393L6.25253 62.1854V62.6499C4.00291 62.6674 2.36006 63.4173 2.39521 65.5606C2.42112 66.1749 2.67202 66.7581 3.10012 67.1993C3.52823 67.6406 4.10363 67.9089 4.7168 67.9534C5.04804 67.9768 5.38019 67.9228 5.68697 67.7957C5.99376 67.6686 6.26675 67.4719 6.48435 67.2211C6.65702 67.6501 6.96479 68.0112 7.36104 68.2496C7.7573 68.4881 8.22047 68.5909 8.68041 68.5425H11.5376C11.8412 68.5469 12.142 68.4854 12.4195 68.3621C12.6969 68.2389 12.9443 68.0568 13.1445 67.8287C13.6179 68.2651 14.2108 68.5505 14.8472 68.6484C15.4837 68.7463 16.1349 68.6521 16.7176 68.378C17.3003 68.1039 17.788 67.6623 18.1185 67.1096C18.4489 66.5569 18.6071 65.9183 18.5727 65.2752C18.5839 64.8508 18.5092 64.4284 18.353 64.0336C18.1968 63.6387 17.9624 63.2796 17.6638 62.9776C17.3653 62.6757 17.0087 62.4373 16.6157 62.2767C16.2226 62.1161 15.8011 62.0366 15.3765 62.0431ZM6.2542 65.3464C6.2542 66.2034 5.75206 66.6495 5.16622 66.6319C4.39878 66.6143 4.14854 65.846 4.14854 65.3824C4.18452 64.132 5.32691 63.7395 6.25588 63.7395L6.2542 65.3464ZM15.3765 67.1139C14.43 67.1139 14.091 66.2209 14.091 65.2568C14.091 64.3998 14.43 63.5068 15.3765 63.5068C16.3582 63.5068 16.698 64.2927 16.698 65.2568C16.698 66.3448 16.3591 67.1139 15.3765 67.1139Z" fill="#006027"/>
<path d="M22.323 59.7575H20.5194V68.5074H22.323V59.7575Z" fill="#006027"/>
<path d="M35.5009 59.7575H33.6614V61.3292H35.5009V59.7575Z" fill="#006027"/>
<path d="M32.8404 59.7575H31.0009V61.3292H32.8404V59.7575Z" fill="#006027"/>
<path d="M48.0378 66.1858C48.0202 66.8285 47.8411 67.5073 46.9498 67.5073C46.3782 67.5073 45.8785 66.9892 45.8618 66.0962V62.916H44.0583V66.1657C44.0407 66.8085 43.8616 67.4872 42.9703 67.4872C42.3987 67.4872 41.899 66.9691 41.8823 66.0762V62.8959H40.0536V65.8778C40.0667 65.9849 40.0556 66.0936 40.021 66.1958C39.9864 66.298 39.9292 66.3912 39.8537 66.4683C39.7783 66.5455 39.6864 66.6047 39.585 66.6415C39.4836 66.6784 39.3752 66.692 39.2678 66.6812H36.8232C36.6487 66.694 36.4735 66.6689 36.3095 66.6079C36.1456 66.5469 35.9967 66.4513 35.8729 66.3276C35.7492 66.2038 35.6536 66.0549 35.5926 65.891C35.5316 65.727 35.5065 65.5518 35.5193 65.3773V62.895H33.6982V65.6267C33.7217 65.775 33.7098 65.9267 33.6634 66.0694C33.617 66.2121 33.5376 66.3419 33.4314 66.448C33.3253 66.5541 33.1956 66.6336 33.0528 66.68C32.9101 66.7263 32.7584 66.7383 32.6102 66.7147H29.4851V64.6969C29.4851 63.0716 28.5386 62.3402 26.807 62.3402C26.0212 62.3402 24.38 62.6256 24.3072 64.358H26.0212C26.0286 64.1518 26.1172 63.957 26.2677 63.8159C26.4182 63.6748 26.6184 63.5989 26.8246 63.6048C27.6105 63.6048 27.6105 64.2475 27.6105 64.2475V66.7114H24.0184V68.5149H33.1249C33.4894 68.5359 33.8531 68.4604 34.1791 68.2959C34.5052 68.1315 34.7821 67.884 34.982 67.5784C35.2003 67.8822 35.4902 68.1275 35.8259 68.2926C36.1617 68.4577 36.5329 68.5375 36.9069 68.525H39.4067C39.8185 68.5653 40.2332 68.4856 40.6008 68.2956C40.9683 68.1055 41.273 67.8131 41.4781 67.4537C41.6612 67.8877 41.9782 68.2517 42.383 68.4927C42.7877 68.7336 43.2589 68.8387 43.7277 68.7928C44.1234 68.7874 44.511 68.6791 44.8523 68.4787C45.1936 68.2783 45.4769 67.9925 45.6743 67.6495C45.8838 68.0057 46.1847 68.2995 46.5457 68.5005C46.9068 68.7015 47.315 68.8024 47.7281 68.7928C49.3534 68.7928 49.853 67.5248 49.853 66.1858V62.5251H48.0495L48.0378 66.1858Z" fill="#006027"/>
<path d="M53.6066 59.7575H51.8031V68.5074H53.6066V59.7575Z" fill="#006027"/>
<mask id="mask0_292_1411" style="mask-type:luminance" maskUnits="userSpaceOnUse" x="8" y="0" width="40" height="25">
<path d="M15.0912 6.58185C12.8008 8.85467 11.0207 11.5891 9.86919 14.6033C8.71766 17.6175 8.22113 20.8423 8.41262 24.0632C9.57837 18.8193 12.2089 14.0141 15.9984 10.2065C18.6854 7.64158 22.0283 5.86829 25.6588 5.0821C29.3906 4.29624 32.3909 4.61762 30.4443 4.67118C22.8736 4.92226 16.6236 9.09927 12.7855 15.51C11.5626 17.5314 10.5512 19.6735 9.76758 21.9023C15.7498 9.36709 25.5852 10.117 33.9091 10.8668C39.6411 11.3849 44.6408 11.8845 47.1942 8.09917C47.3151 7.93985 47.3878 7.74922 47.4037 7.54987C47.4195 7.35052 47.3779 7.1508 47.2838 6.97436C45.1312 4.80094 42.57 3.07467 39.7476 1.89489C36.9253 0.715102 33.8975 0.105093 30.8385 0.0999711C24.937 0.0866716 19.2719 2.41827 15.0895 6.58185" fill="white"/>
</mask>
<g mask="url(#mask0_292_1411)">
<path d="M47.5182 0.0999756H8.05615V24.0632H47.5182V0.0999756Z" fill="#69A52B"/>
</g>
<mask id="mask1_292_1411" style="mask-type:luminance" maskUnits="userSpaceOnUse" x="33" y="11" width="21" height="42">
<path d="M49.0354 25.1169C49.6932 28.7711 49.3223 32.5362 47.9641 35.9917C46.5715 39.5277 44.6433 41.8669 45.661 40.2056C49.643 33.7614 49.607 26.2417 46.3933 19.4921C45.3804 17.3615 44.1538 15.3392 42.7326 13.4562C54.7841 33.5421 29.2508 41.9187 33.5542 52.2755C33.6222 52.4657 33.7417 52.6331 33.8994 52.7592C34.0571 52.8853 34.2468 52.965 34.4472 52.9894C46.7858 50.5255 55.0352 38.7226 52.5713 26.3656C51.9384 23.2024 50.6419 20.2095 48.7674 17.5842C46.8929 14.9589 44.4829 12.761 41.6965 11.1355C45.3994 15.02 47.9415 19.863 49.0354 25.1169Z" fill="white"/>
</mask>
<g mask="url(#mask1_292_1411)">
<path d="M46.8626 -0.861419L9.77588 24.4014L37.4227 64.988L74.5094 39.7252L46.8626 -0.861419Z" fill="#006027"/>
</g>
<mask id="mask2_292_1411" style="mask-type:luminance" maskUnits="userSpaceOnUse" x="0" y="19" width="34" height="31">
<path d="M1.21678 19.5632C-2.78281 31.5093 3.37769 44.5266 15.3229 48.5077C18.3824 49.5354 21.6256 49.8997 24.8367 49.5765C28.0479 49.2532 31.1534 48.2498 33.9467 46.6331C28.7368 47.9383 23.2636 47.7401 18.1617 46.0615C14.6662 44.8149 11.5828 42.6275 9.25113 39.7403C6.87598 36.7584 5.80473 33.9371 6.75128 35.6511C10.3584 42.3113 16.9114 46.0288 24.3758 46.5795C26.7325 46.7694 29.1027 46.7097 31.4468 46.4012C7.98405 46.8657 13.3938 20.5457 2.26962 19.1523C2.19921 19.1375 2.12724 19.1316 2.05537 19.1347H2.02022C1.8641 19.1467 1.71219 19.1911 1.57416 19.265C1.43612 19.3389 1.31499 19.4407 1.21846 19.564" fill="white"/>
</mask>
<g mask="url(#mask2_292_1411)">
<path d="M2.88381 5.86718L-14.1732 45.8045L28.2802 63.936L45.3371 23.9987L2.88381 5.86718Z" fill="#69A52B"/>
</g>
<mask id="mask3_292_1411" style="mask-type:luminance" maskUnits="userSpaceOnUse" x="19" y="18" width="23" height="23">
<path d="M40.1257 26.5271C40.1251 28.9272 39.4406 31.2773 38.1523 33.3023C36.8639 35.3273 35.0252 36.9431 32.8515 37.9606C30.6778 38.9781 28.2592 39.355 25.8789 39.0472C23.4987 38.7394 21.2555 37.7596 19.4121 36.2227C20.5359 37.5687 21.9278 38.6658 23.499 39.4442C25.0702 40.2227 26.7863 40.6653 28.538 40.7439C30.2897 40.8226 32.0386 40.5355 33.6732 39.901C35.3079 39.2665 36.7924 38.2985 38.0323 37.0586C39.2723 35.8188 40.2403 34.3343 40.8749 32.6997C41.5095 31.065 41.7966 29.3162 41.7181 27.5645C41.6395 25.8128 41.197 24.0966 40.4186 22.5254C39.6403 20.9542 38.5432 19.5622 37.1973 18.4384C39.0891 20.7094 40.1247 23.5714 40.1257 26.5271Z" fill="white"/>
</mask>
<g mask="url(#mask3_292_1411)">
<path d="M28.4353 7.48431L8.45862 31.7352L32.7095 51.7119L52.6862 27.461L28.4353 7.48431Z" fill="#FFC600"/>
</g>
<path d="M18.5552 17.9027C20.6456 16.1635 23.2844 15.2209 26.0037 15.2422C28.2138 15.2459 30.3769 15.8804 32.2387 17.0712C34.1006 18.262 35.5838 19.9596 36.514 21.9643C37.4443 23.9691 37.7828 26.1978 37.49 28.3884C37.1971 30.579 36.2849 32.6405 34.8607 34.3305C36.1047 33.3014 37.1206 32.0245 37.8436 30.581C38.5666 29.1375 38.9809 27.5592 39.06 25.9468C39.1392 24.3343 38.8814 22.723 38.3033 21.2157C37.7251 19.7084 36.8391 18.338 35.7019 17.1921C34.5647 16.0462 33.2012 15.1499 31.6983 14.5602C30.1954 13.9706 28.5862 13.7006 26.9731 13.7674C25.3601 13.8343 23.7787 14.2365 22.3298 14.9485C20.8808 15.6605 19.5962 16.6667 18.5577 17.9027" fill="#69A52B"/>
<path d="M24.9625 38.0807C22.3236 37.1314 20.1348 35.2304 18.8253 32.7504C17.5159 30.2705 17.1805 27.3907 17.8849 24.6762C18.5893 21.9617 20.2827 19.6085 22.6328 18.0782C24.9828 16.5478 27.8199 15.951 30.5874 16.4047C28.4124 15.6237 26.0495 15.5322 23.8206 16.1426C21.5917 16.7529 19.6051 18.0355 18.1314 19.8156C16.6577 21.5957 15.7685 23.7867 15.585 26.0904C15.4014 28.3941 15.9324 30.6983 17.1056 32.6893C17.9346 34.1135 19.0694 35.3359 20.4281 36.2683C21.7868 37.2008 23.3355 37.8201 24.9625 38.0815" fill="#0070BC"/>
<path d="M34.9426 30.0982C34.344 31.5375 33.3321 32.7669 32.0348 33.631C30.7374 34.4951 29.213 34.9551 27.6542 34.9529C26.0954 34.9506 24.5723 34.4861 23.2775 33.6182C21.9827 32.7503 20.9744 31.5179 20.38 30.0769C19.7856 28.6359 19.6319 27.051 19.9383 25.5226C20.2447 23.9942 20.9974 22.591 22.1013 21.4905C23.2052 20.3899 24.6106 19.6414 26.1399 19.3396C27.6692 19.0378 29.2536 19.1963 30.6928 19.795C31.6486 20.1922 32.5167 20.7739 33.2476 21.5068C33.9784 22.2396 34.5578 23.1093 34.9524 24.0661C35.3471 25.0229 35.5494 26.0481 35.5477 27.0831C35.546 28.1182 35.3404 29.1427 34.9426 30.0982Z" fill="#FFC600"/>
</g>
<defs>
<clipPath id="clip0_292_1411">
<rect width="54" height="77.8001" fill="white" transform="translate(0 0.0999756)"/>
</clipPath>
</defs>
</svg>
