<svg width="14" height="18" viewBox="0 0 14 18" fill="none" xmlns="http://www.w3.org/2000/svg">
<g id="elements">
<g id="Icon">
<path fill-rule="evenodd" clip-rule="evenodd" d="M13.3754 10.3125C13.065 10.3123 12.8132 10.0604 12.8132 9.75V5.87249C12.8132 4.67174 12.8132 4.06878 12.6512 3.66753C12.3872 2.99778 11.8285 2.47047 11.1167 2.21697C10.6706 2.0625 10.0258 2.0625 8.74155 2.0625H8.74075C8.51323 2.0625 8.29695 2.0625 8.09109 2.06279C7.03943 2.08094 6.19002 2.94156 6.19002 3.99749C6.19002 4.11727 6.19538 4.24644 6.20104 4.38244L6.20203 4.40625C6.22003 4.81575 6.24022 5.28076 6.12622 5.71501C5.96347 6.34501 5.46924 6.83928 4.83774 7.00203C4.40499 7.11528 3.94002 7.09503 3.53052 7.07703L3.5049 7.07596C3.36964 7.07034 3.2417 7.06502 3.12175 7.06502C2.07257 7.06502 1.2162 7.90362 1.18751 8.94597L1.1875 9.75C1.1875 10.0605 0.9355 10.3125 0.625 10.3125C0.3145 10.3125 0.0625 10.0605 0.0625 9.75L0.0625047 8.99386C0.0627053 6.80373 0.071466 5.68246 0.453979 4.71299C1.07873 3.13124 2.39576 1.88702 4.06826 1.29902C5.00549 0.971911 6.08948 0.940775 8.08097 0.937812C8.09562 0.937604 8.1103 0.9375 8.125 0.9375C8.13044 0.9375 8.13586 0.937577 8.14125 0.937731C8.33235 0.9375 8.53172 0.9375 8.74001 0.9375C10.1514 0.9375 10.8595 0.9375 11.4895 1.15649C12.5117 1.52099 13.3142 2.28372 13.6959 3.25122C13.9374 3.85122 13.9375 4.52699 13.9375 5.87249V9.75C13.9375 10.0604 13.6857 10.3123 13.3754 10.3125ZM4.44099 2.36104C4.7932 2.23807 5.19569 2.16575 5.70758 2.12322C5.30497 2.64137 5.06501 3.29189 5.06501 3.99749C5.06501 4.14899 5.07174 4.30503 5.07849 4.45503L5.07861 4.45788C5.09358 4.8035 5.10904 5.16074 5.03799 5.43149C4.97649 5.66699 4.79203 5.85149 4.55503 5.91299C4.28572 5.98331 3.92836 5.96784 3.58268 5.95287L3.58003 5.95276C3.42928 5.94601 3.27399 5.93928 3.12249 5.93928C2.40798 5.93928 1.74994 6.18534 1.22866 6.59718C1.26848 5.97529 1.34682 5.51603 1.50098 5.12622C2.00573 3.84822 3.07749 2.84029 4.44099 2.36104Z" fill="#161616"/>
<path d="M10.1875 16.5007C10.1875 16.8112 10.4395 17.0632 10.75 17.0632C11.0605 17.0632 11.3125 16.8112 11.3125 16.5007V14.8132H12.625C12.9355 14.8132 13.1875 14.5612 13.1875 14.2507C13.1875 13.9402 12.9355 13.6882 12.625 13.6882H11.3125V13.5007C11.3125 13.143 11.3125 12.7012 11.3657 12.6165C11.4512 12.5632 11.893 12.5632 12.2499 12.5632H13.375C13.6855 12.5632 13.9375 12.3112 13.9375 12.0007C13.9375 11.6902 13.6855 11.4382 13.375 11.4382H12.25C11.4491 11.4382 10.9653 11.4382 10.5768 11.814L10.5632 11.8275C10.1875 12.216 10.1875 12.6997 10.1875 13.5006V16.5007Z" fill="#161616"/>
<path fill-rule="evenodd" clip-rule="evenodd" d="M5.44602 16.929C5.68077 17.0632 5.91925 17.0632 6.25 17.0632C7.801 17.0632 9.0625 15.801 9.0625 14.25C9.0625 12.699 7.801 11.4375 6.25 11.4375C5.92005 11.4375 5.68071 11.4375 5.44448 11.5725C4.93223 11.8672 4.93525 12.4057 4.9375 12.6945V15.8055C4.93525 16.095 4.93152 16.6327 5.44602 16.929ZM6.24581 15.9382C6.1833 15.9382 6.11752 15.9382 6.0625 15.9375V12.6877C6.06175 12.651 6.061 12.6052 6.0625 12.564C6.11747 12.5632 6.18391 12.5632 6.2457 12.5632H6.25C7.18075 12.5632 7.9375 13.32 7.9375 14.2507C7.9375 15.1815 7.18075 15.9382 6.25 15.9382H6.24581Z" fill="#161616"/>
<path fill-rule="evenodd" clip-rule="evenodd" d="M0.0625 16.5007C0.0625 16.8112 0.3145 17.0632 0.625 17.0632C0.9355 17.0632 1.1875 16.8112 1.1875 16.5007V14.8132H2.125C3.05575 14.8132 3.8125 14.0565 3.8125 13.1257C3.8125 12.195 3.05575 11.4382 2.125 11.4382H1.525C1.021 11.4382 0.655 11.4382 0.3625 11.7382C0.0625 12.03 0.0625 12.396 0.0625 12.9007V16.5007ZM2.125 13.6882H1.1875V12.8983C1.1875 12.7827 1.1875 12.6578 1.19197 12.5677C1.28133 12.5632 1.40696 12.5632 1.52254 12.5632H2.125C2.4355 12.5632 2.6875 12.8152 2.6875 13.1257C2.6875 13.4362 2.4355 13.6882 2.125 13.6882Z" fill="#161616"/>
</g>
</g>
</svg>
