<svg width="16" height="16" viewBox="0 0 16 16" fill="none" xmlns="http://www.w3.org/2000/svg">
<path fill-rule="evenodd" clip-rule="evenodd" d="M8.5 7.1274C10.0113 6.88767 11.1667 5.57875 11.1667 3.99998C11.1667 2.25108 9.7489 0.833313 8 0.833313C6.2511 0.833313 4.83333 2.25108 4.83333 3.99998C4.83333 5.57875 5.98867 6.88767 7.5 7.1274V12C7.5 12.2761 7.72386 12.5 8 12.5C8.27614 12.5 8.5 12.2761 8.5 12V7.1274ZM8 1.83331C6.80338 1.83331 5.83333 2.80336 5.83333 3.99998C5.83333 5.1966 6.80338 6.16665 8 6.16665C9.19662 6.16665 10.1667 5.1966 10.1667 3.99998C10.1667 2.80336 9.19662 1.83331 8 1.83331Z" fill="white"/>
<path d="M3.77949 10.4409C3.90415 10.6874 3.80544 10.9882 3.55903 11.1128C2.75817 11.5179 2.5 11.9287 2.5 12.2105C2.5 12.3722 2.57794 12.5738 2.81923 12.8073C3.06201 13.0422 3.43949 13.2769 3.94678 13.4845C4.95892 13.8989 6.3917 14.1666 8 14.1666C9.6083 14.1666 11.0411 13.8989 12.0532 13.4845C12.5605 13.2769 12.938 13.0422 13.1808 12.8073C13.4221 12.5738 13.5 12.3722 13.5 12.2105C13.5 11.9287 13.2418 11.5179 12.441 11.1128C12.1946 10.9882 12.0959 10.6874 12.2205 10.4409C12.3452 10.1945 12.646 10.0958 12.8924 10.2205C13.7592 10.659 14.5 11.3226 14.5 12.2105C14.5 12.7271 14.2422 13.1717 13.8762 13.5259C13.5118 13.8786 13.0106 14.1732 12.4321 14.41C11.2726 14.8846 9.70541 15.1666 8 15.1666C6.29459 15.1666 4.72737 14.8846 3.56794 14.41C2.98945 14.1732 2.48824 13.8786 2.12379 13.5259C1.75784 13.1717 1.5 12.7271 1.5 12.2105C1.5 11.3226 2.24077 10.659 3.10763 10.2205C3.35404 10.0958 3.65484 10.1945 3.77949 10.4409Z" fill="white"/>
</svg>
