<svg width="24" height="24" viewBox="0 0 24 24" fill="none" xmlns="http://www.w3.org/2000/svg">
<path d="M11.999 13.7461C11.585 13.7461 11.249 13.4101 11.249 12.9961V12.6161C11.249 11.7501 11.765 11.0931 12.221 10.5131L12.2321 10.499C12.38 10.3102 12.5196 10.132 12.625 9.96514C12.704 9.83914 12.749 9.68513 12.749 9.53613C12.749 9.10013 12.413 8.74609 11.999 8.74609C11.585 8.74609 11.249 9.10013 11.249 9.53613C11.249 9.97213 10.913 10.2861 10.499 10.2861C10.085 10.2861 9.74902 9.95013 9.74902 9.53613C9.74902 8.27313 10.758 7.24609 11.999 7.24609C13.24 7.24609 14.249 8.27313 14.249 9.53613C14.249 9.96913 14.127 10.3931 13.895 10.7641C13.743 11.0031 13.569 11.2251 13.401 11.4391L13.3977 11.4432C13.0787 11.8499 12.749 12.2703 12.749 12.6161V12.9961C12.749 13.4101 12.413 13.7461 11.999 13.7461Z" fill="#161616"/>
<path d="M11.2539 14.9961C11.2539 15.4101 11.5949 15.7461 12.0089 15.7461C12.4229 15.7461 12.7589 15.4101 12.7589 14.9961C12.7589 14.5821 12.4229 14.2461 12.0089 14.2461H11.9989C11.5849 14.2461 11.2539 14.5821 11.2539 14.9961Z" fill="#161616"/>
<path fill-rule="evenodd" clip-rule="evenodd" d="M4.14398 22.248C4.08998 22.248 4.03599 22.248 3.98099 22.246L3.90296 22.244C3.21996 22.223 2.62898 22.2039 2.27298 21.6339L2.25492 21.603C1.91795 21.001 2.21192 20.447 2.61886 19.6802L2.63695 19.646C2.96995 19.021 3.29695 18.1559 2.98695 17.5549C1.95595 16.0189 1.38593 14.499 1.29193 13.036C1.23993 12.167 1.23993 11.289 1.29193 10.423C1.58493 5.822 5.23392 2.12398 9.77992 1.81998C11.2279 1.72798 12.7619 1.72798 14.2169 1.81998C18.7659 2.12498 22.4159 5.82195 22.7079 10.421C22.7599 11.29 22.7599 12.1679 22.7079 13.0339C22.4149 17.6349 18.766 21.332 14.22 21.637C12.762 21.739 11.2249 21.739 9.77591 21.637C9.19691 21.601 8.58299 21.4609 8.05199 21.2419L7.92894 21.191L7.86691 21.1655C7.74859 21.1169 7.63252 21.0692 7.54398 21.036C7.4766 21.0817 7.39118 21.142 7.30392 21.2036L7.25091 21.241L7.189 21.2849C6.317 21.9339 5.31793 22.25 4.14193 22.25L4.14398 22.248ZM3.75795 20.7379C3.79977 20.7399 3.84292 20.7411 3.88563 20.7422L3.94994 20.744L4.02298 20.746C4.94198 20.767 5.64891 20.561 6.30091 20.075C6.30341 20.0735 6.30568 20.0717 6.30795 20.07C6.31021 20.0682 6.31248 20.0665 6.31498 20.065L6.38295 20.017L6.38515 20.0154C6.81968 19.7064 7.03847 19.5509 7.33597 19.5049C7.66197 19.4559 7.94296 19.5709 8.50296 19.8019L8.62494 19.8519C9.00194 20.0079 9.45694 20.111 9.87494 20.137C11.2619 20.234 12.7269 20.235 14.1169 20.137H14.119C17.917 19.883 20.965 16.7869 21.211 12.9379C21.259 12.1459 21.259 11.305 21.211 10.511C20.966 6.66399 17.917 3.56892 14.12 3.31392C12.729 3.22692 11.261 3.22692 9.87699 3.31392C6.08199 3.56792 3.03293 6.66295 2.78793 10.5129C2.73993 11.3049 2.73993 12.146 2.78793 12.94C2.86493 14.141 3.35791 15.422 4.25091 16.745C4.26291 16.763 4.27497 16.7819 4.28597 16.8019C4.81497 17.7579 4.70595 18.951 3.96195 20.348L3.94398 20.3809C3.88098 20.4989 3.81494 20.6249 3.75795 20.7379Z" fill="#161616"/>
</svg>
