<svg width="18" height="18" viewBox="0 0 18 18" fill="none" xmlns="http://www.w3.org/2000/svg">
<g id="elements">
<g id="Icon">
<path d="M8.5757 8.79272C8.51782 8.79179 8.45089 8.79176 8.36833 8.79176C8.02315 8.79176 7.74333 8.51194 7.74333 8.16676C7.74333 7.82159 8.02315 7.54176 8.36833 7.54176L8.39703 7.54176C8.56796 7.54169 8.75279 7.54162 8.9088 7.56259C9.09157 7.58716 9.32506 7.65036 9.52156 7.84686C9.71806 8.04336 9.78126 8.27685 9.80583 8.45962C9.82681 8.61564 9.82674 8.80046 9.82667 8.97139L9.82666 13.1668C9.82666 13.5119 9.54684 13.7918 9.20166 13.7918C8.85648 13.7918 8.57666 13.5119 8.57666 13.1668V9.0001C8.57666 8.91753 8.57663 8.8506 8.5757 8.79272Z" fill="#161616"/>
<path d="M8.99333 4.83341C8.53309 4.83341 8.15999 5.20651 8.15999 5.66675C8.15999 6.12699 8.53309 6.50008 8.99333 6.50008H9.00081C9.46105 6.50008 9.83415 6.12699 9.83415 5.66675C9.83415 5.20651 9.46105 4.83341 9.00081 4.83341H8.99333Z" fill="#161616"/>
<path fill-rule="evenodd" clip-rule="evenodd" d="M0.0415039 9.00008C0.0415039 13.9476 4.05229 17.9584 8.99984 17.9584C13.9474 17.9584 17.9582 13.9476 17.9582 9.00008C17.9582 4.05253 13.9474 0.041748 8.99984 0.041748C4.05229 0.041748 0.0415039 4.05253 0.0415039 9.00008ZM8.99984 16.7084C4.74264 16.7084 1.2915 13.2573 1.2915 9.00008C1.2915 4.74289 4.74264 1.29175 8.99984 1.29175C13.257 1.29175 16.7082 4.74289 16.7082 9.00008C16.7082 13.2573 13.257 16.7084 8.99984 16.7084Z" fill="#161616"/>
</g>
</g>
</svg>
