<svg width="16" height="12" viewBox="0 0 16 12" fill="none" xmlns="http://www.w3.org/2000/svg">
<g id="elements">
<g id="Icon">
<path d="M6.8335 3.33366C6.8335 3.05752 7.05735 2.83366 7.3335 2.83366L8.66683 2.83366C8.94297 2.83366 9.16683 3.05752 9.16683 3.33366C9.16683 3.6098 8.94297 3.83366 8.66683 3.83366L7.3335 3.83366C7.05735 3.83366 6.8335 3.6098 6.8335 3.33366Z" fill="#384250"/>
<path fill-rule="evenodd" clip-rule="evenodd" d="M5.963 0.166992H6.70399C7.77239 0.166981 8.62503 0.166971 9.29375 0.256879C9.9846 0.34976 10.5535 0.546764 11.0036 0.996857C11.4537 1.44695 11.6507 2.01589 11.7436 2.70673C11.7534 2.77991 11.7622 2.85528 11.77 2.9329C12.1673 2.61256 12.5134 2.34932 12.8166 2.16617C13.2726 1.89067 13.7959 1.69472 14.3221 1.95557C14.8412 2.21291 15.0155 2.74414 15.0911 3.27801C15.1669 3.81396 15.1669 4.54114 15.1668 5.4367V6.56394C15.1669 7.45951 15.1669 8.18671 15.0911 8.72267C15.0155 9.25653 14.8412 9.78776 14.3221 10.0451C13.7959 10.306 13.2726 10.11 12.8166 9.83451C12.5134 9.65135 12.1673 9.38812 11.77 9.06777C11.7622 9.14538 11.7534 9.22075 11.7436 9.29392C11.6507 9.98476 11.4537 10.5537 11.0036 11.0038C10.5535 11.4539 9.9846 11.6509 9.29375 11.7438C8.62503 11.8337 7.77239 11.8337 6.70399 11.8337H5.963C4.89461 11.8337 4.04196 11.8337 3.37324 11.7438C2.6824 11.6509 2.11345 11.4539 1.66336 11.0038C1.21327 10.5537 1.01626 9.98476 0.923383 9.29392C0.833475 8.62519 0.833485 7.77256 0.833496 6.70416V5.29649C0.833485 4.2281 0.833475 3.37546 0.923383 2.70673C1.01626 2.01589 1.21327 1.44695 1.66336 0.996857C2.11345 0.546764 2.6824 0.34976 3.37324 0.256879C4.04196 0.166971 4.89461 0.166981 5.963 0.166992ZM11.8287 7.82342C12.4974 8.37485 12.9662 8.75658 13.3337 8.97857C13.7246 9.21474 13.8374 9.16926 13.878 9.14914C13.9256 9.12551 14.0347 9.0505 14.1009 8.58261C14.1656 8.12523 14.1668 7.46962 14.1668 6.52161V5.47906C14.1668 4.53105 14.1656 3.87544 14.1009 3.41807C14.0347 2.95017 13.9256 2.87517 13.878 2.85153C13.8374 2.83141 13.7246 2.78593 13.3337 3.0221C12.9662 3.2441 12.4974 3.62582 11.8287 4.17725C11.8335 4.52074 11.8335 4.89325 11.8335 5.2965V6.70415C11.8335 7.10741 11.8335 7.47992 11.8287 7.82342ZM3.50649 1.24796C2.92653 1.32593 2.60379 1.47064 2.37047 1.70396C2.13714 1.93729 1.99244 2.26003 1.91447 2.83998C1.83456 3.43432 1.8335 4.21958 1.8335 5.33366V6.66699C1.8335 7.78107 1.83456 8.56633 1.91447 9.16067C1.99244 9.74062 2.13714 10.0634 2.37047 10.2967C2.60379 10.53 2.92653 10.6747 3.50649 10.7527C4.10082 10.8326 4.88608 10.8337 6.00016 10.8337H6.66683C7.78091 10.8337 8.56617 10.8326 9.16051 10.7527C9.74046 10.6747 10.0632 10.53 10.2965 10.2967C10.5299 10.0634 10.6746 9.74062 10.7525 9.16067C10.8324 8.56633 10.8335 7.78107 10.8335 6.66699V5.33366C10.8335 4.21958 10.8324 3.43432 10.7525 2.83998C10.6746 2.26003 10.5299 1.93729 10.2965 1.70396C10.0632 1.47064 9.74046 1.32593 9.16051 1.24796C8.56617 1.16805 7.78091 1.16699 6.66683 1.16699H6.00016C4.88608 1.16699 4.10083 1.16805 3.50649 1.24796Z" fill="#384250"/>
</g>
</g>
</svg>
