<svg width="22" height="22" viewBox="0 0 22 22" fill="none" xmlns="http://www.w3.org/2000/svg">
<g id="elements">
<g id="Icon">
<path fill-rule="evenodd" clip-rule="evenodd" d="M6.00025 5.25C5.7186 5.25 5.4607 5.40779 5.33248 5.65856C5.20426 5.90933 5.22734 6.21079 5.39224 6.43912L9.21182 11.7278L5.46992 15.4697C5.17702 15.7626 5.17702 16.2374 5.46992 16.5303C5.76281 16.8232 6.23768 16.8232 6.53058 16.5303L10.1014 12.9595L12.6145 16.4391C12.7555 16.6344 12.9816 16.75 13.2225 16.75H16.0002C16.2819 16.75 16.5398 16.5922 16.668 16.3414C16.7962 16.0907 16.7732 15.7892 16.6083 15.5609L12.7887 10.2722L16.5306 6.53033C16.8235 6.23744 16.8235 5.76256 16.5306 5.46967C16.2377 5.17678 15.7628 5.17678 15.4699 5.46967L11.8991 9.0405L9.38603 5.56088C9.24503 5.36565 9.01885 5.25 8.77802 5.25H6.00025ZM14.5334 15.25H13.606L7.46706 6.75H8.39454L14.5334 15.25Z" fill="#1B8354"/>
<path fill-rule="evenodd" clip-rule="evenodd" d="M11.0574 0.75H10.9431C8.75237 0.749987 7.03168 0.749976 5.68827 0.930594C4.31161 1.11568 3.21936 1.50272 2.36116 2.36091C1.50296 3.21911 1.11592 4.31137 0.930838 5.68802C0.75022 7.03144 0.750231 8.75212 0.750244 10.9428V11.0572C0.750231 13.2479 0.75022 14.9686 0.930838 16.312C1.11592 17.6886 1.50296 18.7809 2.36116 19.6391C3.21936 20.4973 4.31161 20.8843 5.68827 21.0694C7.03168 21.25 8.75235 21.25 10.943 21.25H11.0574C13.2481 21.25 14.9688 21.25 16.3122 21.0694C17.6889 20.8843 18.7811 20.4973 19.6393 19.6391C20.4975 18.7809 20.8846 17.6886 21.0697 16.312C21.2503 14.9686 21.2503 13.2479 21.2502 11.0572V10.9428C21.2503 8.75214 21.2503 7.03144 21.0697 5.68802C20.8846 4.31137 20.4975 3.21911 19.6393 2.36091C18.7811 1.50272 17.6889 1.11568 16.3122 0.930594C14.9688 0.749976 13.2481 0.749987 11.0574 0.75ZM3.42182 3.42157C3.95486 2.88853 4.67781 2.57994 5.88814 2.41722C7.12004 2.25159 8.73987 2.25 11.0002 2.25C13.2606 2.25 14.8804 2.25159 16.1123 2.41722C17.3227 2.57994 18.0456 2.88853 18.5787 3.42157C19.1117 3.95462 19.4203 4.67757 19.583 5.8879C19.7487 7.1198 19.7502 8.73963 19.7502 11C19.7502 13.2604 19.7487 14.8802 19.583 16.1121C19.4203 17.3224 19.1117 18.0454 18.5787 18.5784C18.0456 19.1115 17.3227 19.4201 16.1123 19.5828C14.8804 19.7484 13.2606 19.75 11.0002 19.75C8.73987 19.75 7.12004 19.7484 5.88814 19.5828C4.67781 19.4201 3.95486 19.1115 3.42182 18.5784C2.88877 18.0454 2.58019 17.3224 2.41746 16.1121C2.25184 14.8802 2.25024 13.2604 2.25024 11C2.25024 8.73963 2.25184 7.1198 2.41746 5.8879C2.58019 4.67757 2.88877 3.95462 3.42182 3.42157Z" fill="#1B8354"/>
</g>
</g>
</svg>
