<svg width="20" height="20" viewBox="0 0 20 20" fill="none" xmlns="http://www.w3.org/2000/svg">
<g id="Feedback Icon">
<path id="bg" fill-rule="evenodd" clip-rule="evenodd" d="M9.99992 19.1667C15.0625 19.1667 19.1666 15.0626 19.1666 10C19.1666 4.93743 15.0625 0.833374 9.99992 0.833374C4.93731 0.833374 0.833252 4.93743 0.833252 10C0.833252 15.0626 4.93731 19.1667 9.99992 19.1667Z" fill="white"/>
<path id="Icon" fill-rule="evenodd" clip-rule="evenodd" d="M9.99992 19.1667C15.0625 19.1667 19.1666 15.0626 19.1666 10C19.1666 4.93743 15.0625 0.833374 9.99992 0.833374C4.93731 0.833374 0.833252 4.93743 0.833252 10C0.833252 15.0626 4.93731 19.1667 9.99992 19.1667ZM9.99992 5.83337C9.53968 5.83337 9.16658 6.20647 9.16658 6.66671V10C9.16658 10.4603 9.53968 10.8334 9.99992 10.8334C10.4602 10.8334 10.8333 10.4603 10.8333 10V6.66671C10.8333 6.20647 10.4602 5.83337 9.99992 5.83337ZM9.99992 12.5C9.53968 12.5 9.16658 12.8731 9.16658 13.3334C9.16658 13.7936 9.53968 14.1667 9.99992 14.1667C10.4602 14.1667 10.8333 13.7936 10.8333 13.3334C10.8333 12.8731 10.4602 12.5 9.99992 12.5Z" fill="#B42318"/>
</g>
</svg>
