<svg width="20" height="20" viewBox="0 0 20 20" fill="none" xmlns="http://www.w3.org/2000/svg">
<g id="Feedback Icon">
<path id="bg" fill-rule="evenodd" clip-rule="evenodd" d="M9.99992 19.1667C15.0625 19.1667 19.1666 15.0626 19.1666 10C19.1666 4.93743 15.0625 0.833374 9.99992 0.833374C4.93731 0.833374 0.833252 4.93743 0.833252 10C0.833252 15.0626 4.93731 19.1667 9.99992 19.1667Z" fill="white"/>
<path id="Icon" fill-rule="evenodd" clip-rule="evenodd" d="M9.99992 19.1667C15.0625 19.1667 19.1666 15.0626 19.1666 10C19.1666 4.93743 15.0625 0.833374 9.99992 0.833374C4.93731 0.833374 0.833252 4.93743 0.833252 10C0.833252 15.0626 4.93731 19.1667 9.99992 19.1667ZM5.8751 9.26781C5.54966 9.59324 5.54966 10.1209 5.8751 10.4463L8.23212 12.8033C8.55756 13.1288 9.0852 13.1288 9.41063 12.8033L14.1247 8.0893C14.4501 7.76386 14.4501 7.23622 14.1247 6.91078C13.7992 6.58535 13.2716 6.58535 12.9462 6.91078L8.82138 11.0356L7.05361 9.26781C6.72817 8.94237 6.20054 8.94237 5.8751 9.26781Z" fill="#067647"/>
</g>
</svg>
