<svg width="10" height="10" viewBox="0 0 10 10" fill="none" xmlns="http://www.w3.org/2000/svg">
<g id="elements">
<path id="Icon" fill-rule="evenodd" clip-rule="evenodd" d="M0.646447 0.646569C0.841709 0.451307 1.15829 0.451307 1.35355 0.646569L5 4.29302L8.64645 0.646569C8.84171 0.451307 9.15829 0.451307 9.35355 0.646569C9.54882 0.841831 9.54882 1.15841 9.35355 1.35368L5.70711 5.00012L9.35355 8.64657C9.54882 8.84183 9.54882 9.15841 9.35355 9.35368C9.15829 9.54894 8.84171 9.54894 8.64645 9.35368L5 5.70723L1.35355 9.35368C1.15829 9.54894 0.841709 9.54894 0.646447 9.35368C0.451184 9.15841 0.451184 8.84183 0.646447 8.64657L4.29289 5.00012L0.646447 1.35368C0.451185 1.15841 0.451185 0.841831 0.646447 0.646569Z" fill="#161616"/>
</g>
</svg>
