<svg width="49" height="48" viewBox="0 0 49 48" fill="none" xmlns="http://www.w3.org/2000/svg">
<path fill-rule="evenodd" clip-rule="evenodd" d="M16.7198 4.93897C16.1341 4.35319 15.1843 4.35319 14.5985 4.93897C14.0127 5.52476 14.0127 6.47451 14.5985 7.06029L17.8588 10.3206C16.0266 11.5651 14.5281 13.1964 13.5304 14.8741C12.9355 15.8744 12.2531 17.2494 11.6909 18.915C10.5417 18.6512 9.69925 17.873 9.09602 16.8437C8.33198 15.54 8.10213 14.0634 8.18133 13.3638C8.27452 12.5406 7.68275 11.7978 6.85959 11.7046C6.03642 11.6114 5.29356 12.2032 5.20037 13.0263C5.03973 14.4453 5.45623 16.5663 6.50775 18.3606C7.39848 19.8805 8.84079 21.3119 10.9249 21.8187C10.6718 23.1376 10.5244 24.5686 10.5466 26.0856H6.69141C5.86298 26.0856 5.19141 26.7571 5.19141 27.5856C5.19141 28.414 5.86298 29.0856 6.69141 29.0856H10.8129C11.0496 30.5299 11.4544 32.0296 12.0733 33.5663C10.4591 34.0974 9.25288 35.2961 8.45034 36.5935C7.40764 38.2791 6.89612 40.3446 6.97106 42.0423C7.0076 42.8699 7.70814 43.5112 8.53576 43.4747C9.36338 43.4382 10.0047 42.7376 9.96815 41.91C9.92052 40.8311 10.267 39.3593 11.0017 38.1717C11.6416 37.1372 12.4577 36.4867 13.4015 36.3206C13.7085 36.8651 14.0444 37.4127 14.411 37.9626L14.4518 38.0238L14.4985 38.0808C18.146 42.536 22.3007 43.9187 26.1019 43.3953C29.7749 42.8897 32.886 40.6364 34.7028 38.2309C35.1462 37.6981 35.5816 37.0712 35.9929 36.3648C36.9038 36.5223 37.7015 37.1585 38.332 38.1935C39.0503 39.3725 39.3903 40.8359 39.3436 41.9108C39.3076 42.7385 39.9493 43.4386 40.777 43.4746C41.6046 43.5106 42.3047 42.8688 42.3407 42.0412C42.4139 40.3579 41.9145 38.3077 40.8939 36.6326C40.105 35.3376 38.9109 34.1318 37.3036 33.6049C37.8289 32.2346 38.2491 30.7094 38.5025 29.0856L42.6668 29.0856C43.4952 29.0856 44.1668 28.414 44.1668 27.5856C44.1668 26.7571 43.4952 26.0856 42.6668 26.0856L38.7653 26.0856C38.7921 24.6934 38.687 23.2498 38.4145 21.784C41.3042 21.1568 44.1416 17.9074 44.1416 13.1949C44.1416 12.3665 43.47 11.6949 42.6416 11.6949C41.8131 11.6949 41.1416 12.3665 41.1416 13.1949C41.1416 17.0177 38.8562 18.652 37.649 18.8688C37.1545 17.4257 36.4792 15.9797 35.5907 14.558L35.5652 14.5172L35.5371 14.4781C34.2497 12.6852 32.8782 11.3109 31.4647 10.3035L34.7079 7.06029C35.2937 6.47451 35.2937 5.52476 34.7079 4.93897C34.1221 4.35319 33.1723 4.35319 32.5866 4.93897L28.989 8.53658C28.8998 8.62576 28.8242 8.72337 28.7622 8.82685C26.7817 8.05253 24.7721 7.90268 22.8407 8.24589C22.0601 8.38462 21.3032 8.6021 20.577 8.88432C20.5095 8.75944 20.423 8.6421 20.3174 8.53658L16.7198 4.93897ZM34.5572 19.1495C31.6268 20.8364 28.7806 21.6206 26.1532 21.8264V27.5853C26.1532 28.4137 25.4816 29.0853 24.6532 29.0853C23.8248 29.0853 23.1532 28.4137 23.1532 27.5853V21.8196C19.6811 21.5338 16.7626 20.3308 14.7889 19.1521C13.2583 23.1458 12.3767 29.4566 16.8663 36.2369C19.9196 39.9363 23.0616 40.7856 25.6927 40.4234C28.4489 40.0439 30.9026 38.2979 32.3272 36.3984L32.3517 36.3658L32.3779 36.3345C33.7261 34.7271 35.1746 31.6819 35.6269 27.9872C35.9634 25.2391 35.7422 22.1857 34.5572 19.1495ZM33.2314 16.4498C25.9288 20.7434 19.2842 18.4374 16.0928 16.4346C16.0982 16.4255 16.1035 16.4165 16.1089 16.4076C17.5466 13.9901 20.2922 11.7458 23.3656 11.1996C26.2774 10.6822 29.7877 11.6372 33.0721 16.1888C33.1261 16.2757 33.1792 16.3627 33.2314 16.4498Z" fill="#54C08A"/>
</svg>
