<svg width="49" height="48" viewBox="0 0 49 48" fill="none" xmlns="http://www.w3.org/2000/svg">
<path d="M14.834 18C14.834 17.1716 15.5056 16.5 16.334 16.5L22.334 16.5C23.1624 16.5 23.834 17.1716 23.834 18C23.834 18.8284 23.1624 19.5 22.334 19.5H16.334C15.5056 19.5 14.834 18.8284 14.834 18Z" fill="#54C08A"/>
<path d="M14.834 26C14.834 25.1716 15.5056 24.5 16.334 24.5H22.334C23.1624 24.5 23.834 25.1716 23.834 26C23.834 26.8284 23.1624 27.5 22.334 27.5H16.334C15.5056 27.5 14.834 26.8284 14.834 26Z" fill="#54C08A"/>
<path fill-rule="evenodd" clip-rule="evenodd" d="M26.9919 6.92651L16.7884 3.96478C14.5595 3.31776 12.7225 2.78447 11.2475 2.58701C9.70289 2.38022 8.23831 2.49398 6.98849 3.47792C5.75213 4.45126 5.26626 5.85223 5.04631 7.42137C4.83389 8.93679 4.83393 10.9063 4.83399 13.3178L4.83399 42.5H4.33398C3.50556 42.5 2.83398 43.1716 2.83398 44C2.83398 44.8284 3.50556 45.5 4.33398 45.5H6.32634C6.32889 45.5 6.33144 45.5 6.33399 45.5C6.33654 45.5 6.33909 45.5 6.34163 45.5L32.3263 45.5C32.3289 45.5 32.3314 45.5 32.334 45.5C32.3365 45.5 32.3391 45.5 32.3416 45.5H44.334C45.1624 45.5 45.834 44.8284 45.834 44C45.834 43.1716 45.1624 42.5 44.334 42.5H43.8343V28.867C43.8344 27.5061 43.8344 26.3571 43.7254 25.4203C43.6096 24.4249 43.3571 23.5131 42.747 22.693C42.1368 21.8729 41.3359 21.369 40.4158 20.9721C39.5498 20.5985 38.4494 20.2684 37.1458 19.8774L33.834 18.8838V16.2527C33.834 14.8096 33.8341 13.6016 33.7228 12.6201C33.6052 11.5835 33.35 10.6399 32.7316 9.79404C32.1095 8.94318 31.2905 8.42413 30.3428 8.02004C29.4541 7.64109 28.3258 7.31363 26.9919 6.92651ZM33.834 22.0159L36.2021 22.7263C37.6091 23.1485 38.5406 23.4304 39.2275 23.7267C39.8783 24.0074 40.1594 24.2409 40.3401 24.4838C40.5207 24.7266 40.6636 25.063 40.7455 25.767C40.832 26.51 40.8343 27.4832 40.8343 28.9522V42.5H33.834L33.834 22.0159ZM30.834 42.5L30.834 16.3372C30.834 14.7875 30.8317 13.7507 30.7419 12.958C30.6561 12.2013 30.5047 11.8312 30.3098 11.5646C30.1186 11.303 29.8279 11.0618 29.1661 10.7796C28.4642 10.4803 27.5123 10.2014 26.0709 9.783L16.0709 6.88035C13.6932 6.19019 12.074 5.72443 10.8495 5.56048C9.66841 5.40237 9.17676 5.5733 8.84421 5.8351C8.49821 6.1075 8.1929 6.58477 8.01726 7.83782C7.83751 9.12021 7.83399 10.8777 7.83399 13.4345L7.83399 42.5H12.834L12.834 37.9105C12.8339 37.0449 12.8338 36.2512 12.9206 35.6056C13.0162 34.8946 13.2411 34.1432 13.8591 33.5251C14.4772 32.9071 15.2286 32.6822 15.9396 32.5866C16.5852 32.4998 17.3789 32.4999 18.2445 32.5H20.4235C21.2891 32.4999 22.0828 32.4998 22.7284 32.5866C23.4394 32.6822 24.1908 32.9071 24.8089 33.5251C25.4269 34.1432 25.6518 34.8946 25.7474 35.6056C25.8342 36.2512 25.8341 37.0448 25.834 37.9104L25.834 42.5H30.834ZM15.834 38L15.834 42.5L22.834 42.5L22.834 38C22.834 37.0148 22.8308 36.4268 22.7742 36.0053C22.7482 35.8122 22.7176 35.7155 22.6997 35.6719C22.6955 35.6619 22.6923 35.6552 22.6903 35.6514L22.6875 35.6465L22.6827 35.6437C22.6788 35.6417 22.6722 35.6385 22.6621 35.6343C22.6185 35.6164 22.5218 35.5858 22.3287 35.5599C21.9072 35.5032 21.3192 35.5 20.334 35.5H18.334C17.3488 35.5 16.7608 35.5032 16.3393 35.5599C16.1462 35.5858 16.0495 35.6164 16.0059 35.6343C15.9958 35.6385 15.9892 35.6417 15.9853 35.6437L15.9805 35.6465L15.9777 35.6514C15.9757 35.6552 15.9725 35.6619 15.9683 35.6719C15.9504 35.7155 15.9198 35.8122 15.8938 36.0053C15.8372 36.4268 15.834 37.0148 15.834 38Z" fill="#54C08A"/>
</svg>
