<svg width="49" height="48" viewBox="0 0 49 48" fill="none" xmlns="http://www.w3.org/2000/svg">
<path fill-rule="evenodd" clip-rule="evenodd" d="M12.6665 4.5C12.1396 4.5 11.6513 4.77645 11.3803 5.22826L8.38026 10.2283C8.24039 10.4614 8.1665 10.7281 8.1665 11C8.1665 13.303 9.36408 15.3238 11.1665 16.4778V22C11.1665 22.8284 11.8381 23.5 12.6665 23.5C13.4949 23.5 14.1665 22.8284 14.1665 22V17.481C14.3316 17.4936 14.4984 17.5 14.6665 17.5C16.677 17.5 18.4742 16.5872 19.6665 15.1535C20.8588 16.5872 22.6561 17.5 24.6665 17.5C26.677 17.5 28.4742 16.5872 29.6665 15.1535C30.8588 16.5872 32.6561 17.5 34.6665 17.5C34.8346 17.5 35.0014 17.4936 35.1665 17.481V22C35.1665 22.8284 35.8381 23.5 36.6665 23.5C37.4949 23.5 38.1665 22.8284 38.1665 22L38.1665 16.4778C39.9689 15.3238 41.1665 13.303 41.1665 11C41.1665 10.7281 41.0926 10.4614 40.9527 10.2283L37.9527 5.22826C37.6817 4.77645 37.1934 4.5 36.6665 4.5L12.6665 4.5ZM24.6665 14.5C22.7335 14.5 21.1665 12.9329 21.1665 11C21.1665 10.1716 20.4949 9.5 19.6665 9.5C18.8381 9.5 18.1665 10.1716 18.1665 11C18.1665 12.9329 16.5995 14.5 14.6665 14.5C14.166 14.5 13.6937 14.3958 13.2671 14.2094C12.1392 13.7166 11.3244 12.6493 11.187 11.3813L13.5158 7.5L35.8172 7.5L38.146 11.3813C38.0086 12.6493 37.1938 13.7166 36.0659 14.2094C35.6393 14.3958 35.167 14.5 34.6665 14.5C32.7335 14.5 31.1665 12.9329 31.1665 11C31.1665 10.1716 30.4949 9.5 29.6665 9.5C28.8381 9.5 28.1665 10.1716 28.1665 11C28.1665 12.9329 26.5995 14.5 24.6665 14.5Z" fill="#54C08A"/>
<path d="M8.1665 24C8.1665 23.1716 7.49493 22.5 6.6665 22.5C5.83808 22.5 5.1665 23.1716 5.1665 24L5.1665 42C5.1665 42.8284 5.83808 43.5 6.6665 43.5C7.49493 43.5 8.1665 42.8284 8.1665 42L8.1665 35.5H10.6665C12.1231 35.5 13.0647 35.5032 13.7584 35.5965C14.4091 35.6839 14.613 35.8252 14.7272 35.9393C14.8414 36.0535 14.9826 36.2574 15.07 36.9081C15.1633 37.6018 15.1665 38.5434 15.1665 40V42C15.1665 42.8284 15.8381 43.5 16.6665 43.5C17.4949 43.5 18.1665 42.8284 18.1665 42L18.1665 39.9013C18.1666 38.5715 18.1666 37.4258 18.0433 36.5083C17.9111 35.525 17.613 34.5825 16.8485 33.818C16.084 33.0535 15.1415 32.7554 14.1582 32.6232C13.2407 32.4999 12.095 32.4999 10.7652 32.5L8.1665 32.5L8.1665 24Z" fill="#54C08A"/>
<path d="M42.6665 22.5C43.4949 22.5 44.1665 23.1716 44.1665 24V42C44.1665 42.8284 43.4949 43.5 42.6665 43.5C41.8381 43.5 41.1665 42.8284 41.1665 42V35.5H38.6665C37.2099 35.5 36.2683 35.5032 35.5746 35.5965C34.924 35.6839 34.72 35.8252 34.6059 35.9393C34.4917 36.0535 34.3504 36.2574 34.263 36.9081C34.1697 37.6018 34.1665 38.5434 34.1665 40L34.1665 42C34.1665 42.8284 33.4949 43.5 32.6665 43.5C31.8381 43.5 31.1665 42.8284 31.1665 42L31.1665 39.9013C31.1664 38.5715 31.1664 37.4258 31.2897 36.5083C31.4219 35.525 31.72 34.5825 32.4845 33.818C33.249 33.0535 34.1915 32.7554 35.1748 32.6232C36.0923 32.4999 37.238 32.4999 38.5678 32.5L41.1665 32.5V24C41.1665 23.1716 41.8381 22.5 42.6665 22.5Z" fill="#54C08A"/>
<path d="M14.6665 26.5C13.8381 26.5 13.1665 27.1716 13.1665 28C13.1665 28.8284 13.8381 29.5 14.6665 29.5H23.1665V40.5H22.6665C21.8381 40.5 21.1665 41.1716 21.1665 42C21.1665 42.8284 21.8381 43.5 22.6665 43.5H26.6665C27.4949 43.5 28.1665 42.8284 28.1665 42C28.1665 41.1716 27.4949 40.5 26.6665 40.5H26.1665V29.5L34.6665 29.5C35.4949 29.5 36.1665 28.8284 36.1665 28C36.1665 27.1716 35.4949 26.5 34.6665 26.5L14.6665 26.5Z" fill="#54C08A"/>
</svg>
