<svg width="49" height="48" viewBox="0 0 49 48" fill="none" xmlns="http://www.w3.org/2000/svg">
<path d="M29.8335 24C29.8335 23.1716 30.5051 22.5 31.3335 22.5H37.3335C38.1619 22.5 38.8335 23.1716 38.8335 24C38.8335 24.8284 38.1619 25.5 37.3335 25.5H31.3335C30.5051 25.5 29.8335 24.8284 29.8335 24Z" fill="#54C08A"/>
<path d="M29.8335 32C29.8335 31.1716 30.5051 30.5 31.3335 30.5H37.3335C38.1619 30.5 38.8335 31.1716 38.8335 32C38.8335 32.8284 38.1619 33.5 37.3335 33.5H31.3335C30.5051 33.5 29.8335 32.8284 29.8335 32Z" fill="#54C08A"/>
<path d="M11.3335 10.5C10.5051 10.5 9.8335 11.1716 9.8335 12C9.8335 12.8284 10.5051 13.5 11.3335 13.5H17.3335C18.1619 13.5 18.8335 12.8284 18.8335 12C18.8335 11.1716 18.1619 10.5 17.3335 10.5H11.3335Z" fill="#54C08A"/>
<path d="M11.3335 18.5C10.5051 18.5 9.8335 19.1716 9.8335 20C9.8335 20.8284 10.5051 21.5 11.3335 21.5H17.3335C18.1619 21.5 18.8335 20.8284 18.8335 20C18.8335 19.1716 18.1619 18.5 17.3335 18.5H11.3335Z" fill="#54C08A"/>
<path d="M11.3335 26.5C10.5051 26.5 9.8335 27.1716 9.8335 28C9.8335 28.8284 10.5051 29.5 11.3335 29.5H17.3335C18.1619 29.5 18.8335 28.8284 18.8335 28C18.8335 27.1716 18.1619 26.5 17.3335 26.5H11.3335Z" fill="#54C08A"/>
<path fill-rule="evenodd" clip-rule="evenodd" d="M16.4375 2.5H12.2295C10.4326 2.49995 8.93409 2.4999 7.74454 2.65983C6.48896 2.82864 5.35536 3.19998 4.44442 4.11092C3.53348 5.02186 3.16213 6.15546 2.99333 7.41105C2.83339 8.6006 2.83344 10.099 2.8335 11.8959V36.104C2.83344 37.9009 2.83339 39.3994 2.99333 40.589C3.16213 41.8446 3.53348 42.9782 4.44442 43.8891C5.35536 44.8 6.48896 45.1714 7.74454 45.3402C8.93411 45.5001 10.4326 45.5001 12.2295 45.5L36.4375 45.5C38.2344 45.5001 39.7329 45.5001 40.9225 45.3402C42.178 45.1714 43.3116 44.8 44.2226 43.8891C45.1335 42.9782 45.5049 41.8446 45.6737 40.589C45.8336 39.3994 45.8336 37.9011 45.8335 36.1042V23.896C45.8336 22.0991 45.8336 20.6006 45.6737 19.411C45.5049 18.1555 45.1335 17.0219 44.2226 16.1109C43.3116 15.2 42.178 14.8286 40.9225 14.6598C39.7329 14.4999 38.2345 14.4999 36.4375 14.5L25.8335 14.5V11.896C25.8336 10.0991 25.8336 8.6006 25.6737 7.41105C25.5049 6.15546 25.1335 5.02186 24.2226 4.11092C23.3116 3.19998 22.178 2.82864 20.9225 2.65983C19.7329 2.4999 18.2344 2.49995 16.4375 2.5ZM25.8335 17.5L25.8335 42.5H36.3335C38.2615 42.5 39.5566 42.4968 40.5227 42.3669C41.4456 42.2429 41.8406 42.0284 42.1013 41.7678C42.3619 41.5071 42.5763 41.1121 42.7004 40.1892C42.8303 39.2231 42.8335 37.928 42.8335 36V24C42.8335 22.072 42.8303 20.7769 42.7004 19.8108C42.5763 18.8879 42.3619 18.4929 42.1013 18.2322C41.8406 17.9716 41.4456 17.7572 40.5227 17.6331C39.5566 17.5032 38.2615 17.5 36.3335 17.5H25.8335ZM6.56574 6.23224C6.82637 5.97161 7.22136 5.75716 8.14429 5.63308C9.11036 5.50319 10.4055 5.50001 12.3335 5.50001H16.3335C18.2615 5.50001 19.5566 5.50319 20.5227 5.63308C21.4456 5.75716 21.8406 5.97161 22.1013 6.23224C22.3619 6.49287 22.5763 6.88787 22.7004 7.81079C22.8303 8.77686 22.8335 10.072 22.8335 12V42.5H12.3335C10.4055 42.5 9.11036 42.4968 8.14429 42.3669C7.22136 42.2429 6.82637 42.0284 6.56574 41.7678C6.3051 41.5071 6.09066 41.1121 5.96657 40.1892C5.83669 39.2231 5.8335 37.928 5.8335 36V12C5.8335 10.072 5.83669 8.77686 5.96657 7.81079C6.09066 6.88787 6.3051 6.49287 6.56574 6.23224Z" fill="#54C08A"/>
</svg>
