<svg width="19" height="18" viewBox="0 0 19 18" fill="none" xmlns="http://www.w3.org/2000/svg">
<path d="M7.41699 9.1875C7.10633 9.1875 6.85449 9.43934 6.85449 9.75C6.85449 10.0607 7.10633 10.3125 7.41699 10.3125H7.60449L7.60449 12.75C7.60449 13.0607 7.85633 13.3125 8.16699 13.3125C8.47765 13.3125 8.72949 13.0607 8.72949 12.75L8.72948 10.0104C8.72948 9.62591 8.44074 9.1875 7.93793 9.1875H7.41699Z" fill="#161616"/>
<path d="M10.417 9.1875C10.1063 9.1875 9.85449 9.43934 9.85449 9.75C9.85449 10.0607 10.1063 10.3125 10.417 10.3125H11.1936L10.3619 12.5543C10.2538 12.8456 10.4023 13.1693 10.6936 13.2774C10.9848 13.3854 11.3085 13.2369 11.4166 12.9457L12.4325 10.2075C12.6338 9.66506 12.192 9.1875 11.7075 9.1875H10.417Z" fill="#161616"/>
<path d="M5.16699 5.4375C4.85633 5.4375 4.60449 5.68934 4.60449 6C4.60449 6.31066 4.85633 6.5625 5.16699 6.5625H14.167C14.4777 6.5625 14.7295 6.31066 14.7295 6C14.7295 5.68934 14.4777 5.4375 14.167 5.4375H5.16699Z" fill="#161616"/>
<path fill-rule="evenodd" clip-rule="evenodd" d="M5.72949 1.5C5.72949 1.18934 5.47765 0.9375 5.16699 0.9375C4.85633 0.9375 4.60449 1.18934 4.60449 1.5V1.97609C4.00092 2.14716 3.49187 2.4252 3.06815 2.88327C2.48472 3.51401 2.22538 4.31094 2.10118 5.30963C1.97948 6.28823 1.97948 7.54235 1.97949 9.14253V9.60747C1.97948 11.2077 1.97948 12.4618 2.10118 13.4404C2.22538 14.4391 2.48472 15.236 3.06815 15.8667C3.65735 16.5037 4.41157 16.7926 5.35546 16.9297C6.26898 17.0625 7.43615 17.0625 8.90892 17.0625H10.4251C11.8978 17.0625 13.065 17.0625 13.9785 16.9297C14.9224 16.7926 15.6766 16.5037 16.2658 15.8667C16.8493 15.236 17.1086 14.4391 17.2328 13.4404C17.3545 12.4618 17.3545 11.2076 17.3545 9.60745V9.14255C17.3545 7.54236 17.3545 6.28823 17.2328 5.30963C17.1086 4.31094 16.8493 3.51401 16.2658 2.88327C15.8421 2.4252 15.3331 2.14716 14.7295 1.97609V1.5C14.7295 1.18934 14.4777 0.9375 14.167 0.9375C13.8563 0.9375 13.6045 1.18934 13.6045 1.5V1.77442C12.7524 1.68748 11.704 1.68749 10.4251 1.6875H8.90893C7.63001 1.68749 6.58154 1.68748 5.72949 1.77442V1.5ZM3.89401 3.64719C4.08852 3.43692 4.32046 3.27593 4.62594 3.15438C4.69304 3.38998 4.90987 3.5625 5.16699 3.5625C5.47765 3.5625 5.72949 3.31066 5.72949 3V2.90594C6.52525 2.81367 7.55377 2.8125 8.95449 2.8125H10.3795C11.7802 2.8125 12.8087 2.81367 13.6045 2.90594V3C13.6045 3.31066 13.8563 3.5625 14.167 3.5625C14.4241 3.5625 14.6409 3.38998 14.708 3.15439C15.0135 3.27593 15.2455 3.43692 15.44 3.64719C15.7956 4.03169 16.0058 4.55936 16.1164 5.44847C16.2285 6.34955 16.2295 7.53371 16.2295 9.18243V9.56757C16.2295 11.2163 16.2285 12.4004 16.1164 13.3015C16.0058 14.1906 15.7956 14.7183 15.44 15.1028C15.0901 15.4811 14.619 15.6998 13.8167 15.8164C12.9934 15.9361 11.9081 15.9375 10.3795 15.9375H8.95449C7.4259 15.9375 6.34056 15.9361 5.51727 15.8164C4.71495 15.6998 4.2439 15.4811 3.89401 15.1028C3.53836 14.7183 3.32815 14.1906 3.21758 13.3015C3.10552 12.4004 3.10449 11.2163 3.10449 9.56757V9.18243C3.10449 7.53371 3.10552 6.34955 3.21758 5.44847C3.32815 4.55936 3.53836 4.03169 3.89401 3.64719Z" fill="#161616"/>
</svg>
