<svg width="19" height="18" viewBox="0 0 19 18" fill="none" xmlns="http://www.w3.org/2000/svg">
<path fill-rule="evenodd" clip-rule="evenodd" d="M9.66724 9.1875C8.32324 9.1875 7.22974 8.094 7.22974 6.75C7.22974 5.406 8.32324 4.3125 9.66724 4.3125C11.0112 4.3125 12.1047 5.406 12.1047 6.75C12.1047 8.094 11.0112 9.1875 9.66724 9.1875ZM9.66724 5.4375C8.94349 5.4375 8.35474 6.02625 8.35474 6.75C8.35474 7.47375 8.94349 8.0625 9.66724 8.0625C10.391 8.0625 10.9797 7.47375 10.9797 6.75C10.9797 6.02625 10.391 5.4375 9.66724 5.4375Z" fill="#161616"/>
<path fill-rule="evenodd" clip-rule="evenodd" d="M8.33446 13.5263C8.69446 13.872 9.16771 14.0625 9.66721 14.0625C10.1667 14.0625 10.64 13.872 11 13.5255C11.1755 13.3568 11.3555 13.1858 11.5377 13.0133C13.7847 10.8818 16.5821 8.22811 15.0364 4.51199C14.1477 2.37374 11.9892 0.9375 9.66721 0.9375C7.34521 0.9375 5.18745 2.37374 4.2987 4.51199C2.7582 8.21474 5.53244 10.8555 7.76144 12.9773L7.78301 12.9978C7.96916 13.1753 8.1532 13.3508 8.33446 13.5263ZM5.33746 4.94399C6.05371 3.22049 7.79371 2.0625 9.66721 2.0625C11.5407 2.0625 13.2815 3.22049 13.9985 4.94399C15.2465 7.94549 12.968 10.107 10.7637 12.1972C10.7219 12.237 10.6802 12.2766 10.6386 12.3162C10.4973 12.4504 10.3573 12.5834 10.22 12.7155C10.0707 12.8588 9.87421 12.9375 9.66721 12.9375C9.46021 12.9375 9.2637 12.858 9.11595 12.7163C8.92695 12.5333 8.73347 12.3487 8.53697 12.162C6.35304 10.0831 4.094 7.93263 5.33746 4.94399Z" fill="#161616"/>
<path d="M11.7057 17.0625H7.62866C5.20541 17.0625 3.98893 17.0625 3.39043 16.1745C3.33268 16.0882 3.28241 15.999 3.24116 15.909C2.78389 14.93 3.52018 13.8806 4.53863 12.429L4.54018 12.4267C4.71868 12.1725 5.06966 12.111 5.32391 12.2895C5.57816 12.468 5.63967 12.819 5.46117 13.0733C4.65192 14.2268 4.09167 15.072 4.26267 15.4373C4.28067 15.4763 4.30091 15.5115 4.32416 15.5468C4.5874 15.9375 5.79714 15.9375 7.62862 15.9375H11.7057C13.5372 15.9375 14.7469 15.9375 15.0109 15.546C15.0342 15.5115 15.0544 15.4762 15.0702 15.441C15.2427 15.072 14.6824 14.2268 13.8732 13.0733C13.6947 12.819 13.7562 12.468 14.0104 12.2895C14.2647 12.111 14.6157 12.1725 14.7942 12.4267C15.8134 13.8795 16.5499 14.9295 16.0917 15.9127C16.0519 15.999 16.0024 16.0882 15.9447 16.1737C15.3454 17.0625 14.1289 17.0625 11.7057 17.0625Z" fill="#161616"/>
</svg>
