<svg width="48" height="48" viewBox="0 0 48 48" fill="none" xmlns="http://www.w3.org/2000/svg">
<path fill-rule="evenodd" clip-rule="evenodd" d="M22.2884 5.6695L29.0142 9.03526C29.4847 9.27069 29.7727 9.41162 29.9739 9.50023L30 9.5C30.2649 9.5 30.5138 9.56869 30.7299 9.68924C30.9487 9.70253 31.2752 9.70588 31.8427 9.70588L36.1064 9.70588C37.9013 9.70582 39.4022 9.70576 40.5946 9.87067C41.858 10.0454 42.9949 10.4303 43.904 11.3654C44.8073 12.2946 45.1737 13.4466 45.3409 14.7258C45.5001 15.9437 45.5001 17.4801 45.5 19.3327V21C45.5 21.8284 44.8284 22.5 44 22.5C43.1716 22.5 42.5 21.8284 42.5 21V19.435C42.5 17.4541 42.497 16.1152 42.3662 15.1146C42.2405 14.1529 42.0211 13.7325 41.7529 13.4566C41.4904 13.1866 41.0987 12.9689 40.1836 12.8424C39.221 12.7092 37.9292 12.7059 36 12.7059L31.5 12.7059V19C31.5 19.8284 30.8284 20.5 30 20.5C29.1716 20.5 28.5 19.8284 28.5 19V12.1256C28.2738 12.0197 28.0379 11.9016 27.7834 11.774L21.0085 8.3837C19.5927 7.67522 18.6218 7.19107 17.8217 6.88038C17.7091 6.83665 17.6021 6.79729 17.5 6.762L17.5 33.638C18.5062 33.8186 19.4287 34.2038 20.2376 34.6019C20.6831 34.8212 21.1168 35.0561 21.5188 35.2746L21.579 35.3074C21.9663 35.518 22.322 35.7114 22.6713 35.8862C23.4121 36.2569 23.7122 37.1581 23.3414 37.8989C22.9707 38.6397 22.0696 38.9398 21.3287 38.569C20.9323 38.3707 20.535 38.1546 20.1599 37.9506L20.0858 37.9103C19.6801 37.6897 19.2965 37.4824 18.9129 37.2936C18.1397 36.9131 17.4554 36.6541 16.8055 36.5647C15.3178 36.3602 14.1033 37.0693 12.2374 38.1587L12.125 38.2244C10.8871 38.9471 9.85828 39.5478 9.00628 39.9349C8.14476 40.3263 7.20798 40.6251 6.21884 40.4475C5.14972 40.2555 4.19195 39.6778 3.51372 38.831C2.89263 38.0555 2.68628 37.0963 2.5927 36.1397C2.49995 35.1916 2.49997 33.979 2.5 32.5107V15.9285C2.49997 14.8184 2.49995 13.8805 2.57484 13.1037C2.6543 12.2796 2.82605 11.52 3.23792 10.7924C3.65105 10.0625 4.21303 9.52863 4.87798 9.04538C5.50127 8.59241 6.29763 8.12751 7.2338 7.581L9.81101 6.07637C11.105 5.32087 12.165 4.702 13.0869 4.27352C14.0509 3.8254 14.9627 3.53623 15.9758 3.50316C16.9891 3.47008 17.9173 3.69927 18.9076 4.08382C19.8543 4.45141 20.9505 5.00001 22.2884 5.6695ZM14.3514 6.994C14.402 6.97045 14.4515 6.94791 14.5 6.92635L14.5 33.7771C13.1555 34.1353 11.992 34.8212 11.007 35.4019C10.897 35.4668 10.7891 35.5304 10.6835 35.5921C9.35633 36.3669 8.46057 36.8877 7.76528 37.2036C7.06326 37.5226 6.82056 37.5076 6.74917 37.4947C6.40692 37.4333 6.08808 37.2463 5.85533 36.9557C5.7919 36.8765 5.65599 36.6404 5.57844 35.8476C5.50172 35.0633 5.5 33.9989 5.5 32.4315V15.9975C5.5 14.8001 5.50161 14.0075 5.56099 13.3916C5.61736 12.807 5.71725 12.5024 5.84867 12.2702C5.97882 12.0403 6.18259 11.8058 6.64165 11.4722C7.12887 11.1181 7.79369 10.728 8.80744 10.1361L11.2632 8.70241C12.6323 7.90307 13.5717 7.3564 14.3514 6.994Z" fill="#54C08A"/>
<path d="M35 31C33.8954 31 33 31.8954 33 33C33 34.1046 33.8954 35 35 35H35.018C36.1225 35 37.018 34.1046 37.018 33C37.018 31.8954 36.1225 31 35.018 31H35Z" fill="#54C08A"/>
<path fill-rule="evenodd" clip-rule="evenodd" d="M24.5 32.9258C24.5 27.1861 29.3196 22.5 35 22.5C40.6804 22.5 45.5 27.1861 45.5 32.9258C45.5 35.8673 44.2497 38.3153 42.5562 40.2918C40.8751 42.2536 38.7058 43.8148 36.7099 45.0362L36.6874 45.0499L36.6644 45.0629C36.1564 45.3497 35.5829 45.5 35 45.5C34.4171 45.5 33.8436 45.3497 33.3356 45.0629L33.3092 45.048L33.2835 45.0321C31.2982 43.8031 29.1297 42.2472 27.4482 40.2914C25.7528 38.3195 24.5 35.8767 24.5 32.9258ZM35 25.5C30.9393 25.5 27.5 28.8798 27.5 32.9258C27.5 34.9627 28.3492 36.7378 29.723 38.3356C31.102 39.9395 32.9553 41.298 34.8271 42.4594C34.8801 42.4858 34.9393 42.5 35 42.5C35.0615 42.5 35.1216 42.4854 35.175 42.4583C37.045 41.3115 38.8993 39.9488 40.2781 38.3397C41.6519 36.7364 42.5 34.9549 42.5 32.9258C42.5 28.8799 39.0607 25.5 35 25.5Z" fill="#54C08A"/>
</svg>
