<svg width="49" height="48" viewBox="0 0 49 48" fill="none" xmlns="http://www.w3.org/2000/svg">
<path fill-rule="evenodd" clip-rule="evenodd" d="M17.3016 4.44847C17.4558 3.95648 17.3465 3.41979 17.0122 3.02729C16.6779 2.63478 16.1654 2.44147 15.6551 2.5154C6.53886 3.83618 3.39513 11.2239 2.90265 15.2282C2.37182 19.5444 4.99113 23.577 9.004 24.7176C9.40589 29.4386 10.5585 34.7005 12.8521 40.3387C12.2328 41.2616 11.627 42.2303 11.037 43.2466C10.6211 43.963 10.8647 44.881 11.5811 45.2969C12.2975 45.7129 13.2155 45.4693 13.6315 44.7528C15.272 41.927 17.0327 39.506 18.8549 37.4365C22.0052 41.9046 28.0238 42.8124 32.869 39.5241C34.2776 38.5682 35.327 37.233 36.2055 35.8463C36.8278 34.864 37.4161 33.7665 37.9864 32.7025C38.2074 32.2903 38.4258 31.8828 38.6423 31.4893C40.2566 28.5552 41.9681 26.0112 44.9387 24.7029C45.3794 24.5089 45.7002 24.115 45.801 23.6441C45.9017 23.1732 45.7703 22.6825 45.4476 22.325C41.4474 17.8938 36.8716 16.4222 32.7049 16.503C28.6021 16.5826 24.9676 18.1606 22.675 19.7166C17.9007 22.9567 15.6874 29.2831 17.4169 34.5556C16.5801 35.454 15.7557 36.4165 14.9483 37.4471C13.3013 32.9777 12.4113 28.7978 12.0423 25.0015C15.9967 24.6396 19.2654 21.4509 19.7755 17.3034C19.9364 15.9955 19.6737 14.7662 19.3064 13.6599C19.0485 12.883 18.7018 12.0697 18.3777 11.3093C18.2559 11.0233 18.1371 10.7448 18.0276 10.4786C17.1799 8.41921 16.6389 6.56304 17.3016 4.44847ZM20.9812 35.2019C23.6409 32.6195 26.3804 30.7136 29.0291 29.329C29.7633 28.9453 30.0473 28.039 29.6636 27.3048C29.2798 26.5706 28.3735 26.2866 27.6393 26.6704C25.0767 28.01 22.4635 29.7814 19.9197 32.0851C19.4323 28.473 21.0923 24.4163 24.3597 22.1989C26.2781 20.8969 29.3575 19.5685 32.7631 19.5024C35.6627 19.4462 38.8525 20.2998 41.8599 22.9794C39.0675 24.8322 37.3786 27.5626 36.0138 30.0432C35.7594 30.5057 35.5195 30.9532 35.287 31.387C34.7389 32.4098 34.2317 33.356 33.6712 34.2409C32.8879 35.4773 32.1016 36.4193 31.1844 37.0418C27.3949 39.6135 23.033 38.6604 20.9812 35.2019ZM11.8524 22.0028C14.3285 21.7284 16.4571 19.709 16.798 16.9372C16.8823 16.2517 16.7582 15.5058 16.4592 14.6051C16.2426 13.9526 15.9721 13.3181 15.6686 12.6064C15.5361 12.2955 15.3967 11.9687 15.2534 11.6204C14.5901 10.0089 13.9188 8.10843 14.0149 5.94438C8.30179 7.69606 6.23551 12.7056 5.88022 15.5944C5.57001 18.1167 6.84686 20.3931 8.83927 21.4353C8.80974 19.4465 8.91134 17.5735 9.10931 15.8307C9.20281 15.0076 9.94589 14.4161 10.769 14.5096C11.5922 14.6031 12.1836 15.3462 12.0901 16.1693C11.8865 17.962 11.7916 19.9127 11.8524 22.0028Z" fill="#54C08A"/>
</svg>
