<svg width="49" height="48" viewBox="0 0 49 48" fill="none" xmlns="http://www.w3.org/2000/svg">
<path fill-rule="evenodd" clip-rule="evenodd" d="M29.4303 25.231C29.7183 25.371 30.0343 25.4431 30.3523 25.4431V25.4451C30.6083 25.4451 30.8662 25.399 31.1122 25.307C31.1342 25.299 31.1562 25.291 31.1782 25.281C34.1362 24.003 36.1802 23.227 38.4982 22.777C38.7084 22.7381 38.9375 22.703 39.1782 22.6661L39.1982 22.6631L39.2007 22.6627C40.5565 22.4587 42.4088 22.1801 43.3402 20.5251C43.7182 19.8671 43.8702 19.0791 43.8322 17.9751V6.00107C43.8322 5.84507 43.8102 5.69311 43.7622 5.54511C43.1942 3.76311 42.3602 2.94906 40.6862 2.54306C40.5422 2.50906 40.3942 2.49302 40.2462 2.50302C36.8682 2.69502 34.5562 3.15907 30.3502 5.30107C26.4242 3.20507 23.7803 2.68902 20.4143 2.50302C20.2943 2.49502 20.1762 2.50309 20.0582 2.52509C18.1982 2.86909 17.3043 3.75108 16.8683 5.66708C16.8423 5.77508 16.8303 5.88711 16.8303 5.99911V17.9911C16.8183 20.1051 17.3362 21.6691 19.9002 22.4371C19.9622 22.4571 20.0282 22.471 20.0922 22.481C24.3062 23.159 26.2303 23.725 29.4303 25.231ZM31.8322 21.7471V7.91503C35.3482 6.13103 37.2222 5.69708 40.1902 5.51308C40.5422 5.61108 40.6502 5.70906 40.8322 6.24306V18.0591C40.8582 18.7631 40.7662 18.9791 40.7382 19.0291C40.7344 19.0347 40.7307 19.0421 40.727 19.0497C40.515 19.4297 39.5783 19.5731 38.7523 19.6971C38.4883 19.7351 38.2142 19.7771 37.9362 19.8291C35.8762 20.2271 34.0662 20.8351 31.8322 21.7471ZM28.8322 21.6791C26.3462 20.6451 24.2383 20.1131 20.6683 19.5351C19.9083 19.3071 19.8262 19.2351 19.8322 18.0011V6.17109C19.9522 5.65709 20.0023 5.59508 20.4303 5.50908C23.3103 5.68108 25.5062 6.13111 28.8322 7.89111V21.6791Z" fill="#54C08A"/>
<path d="M18.334 45.501C12.48 45.501 9.25597 45.501 7.06797 43.457C4.83398 41.347 4.83398 38.297 4.83398 32.7611V23.101C4.83398 17.565 4.83401 14.515 7.06201 12.411C8.69801 10.893 10.81 10.619 12.256 10.543C13.084 10.501 13.788 11.135 13.832 11.963C13.874 12.791 13.238 13.495 12.412 13.539C10.834 13.621 9.81601 13.947 9.11201 14.601C7.88401 15.761 7.83398 17.913 7.83398 23.101V32.761C7.83398 37.949 7.88397 40.101 9.12197 41.271C10.44 42.501 13.0779 42.501 18.3337 42.501C23.5897 42.501 26.228 42.501 27.552 41.265C28.784 40.101 28.834 37.949 28.834 32.761V29.941C28.834 29.113 29.506 28.441 30.334 28.441C31.162 28.441 31.834 29.113 31.834 29.941V32.761C31.834 38.297 31.834 41.347 29.606 43.451C27.412 45.501 24.188 45.501 18.334 45.501Z" fill="#54C08A"/>
<path d="M18.3537 40.002C17.2497 40.002 16.3457 39.106 16.3457 38.002C16.3457 36.898 17.2318 36.002 18.3378 36.002H18.3558C19.4598 36.002 20.3558 36.898 20.3558 38.002C20.3558 39.106 19.4598 40.002 18.3558 40.002H18.3537Z" fill="#54C08A"/>
</svg>
