<svg width="48" height="48" viewBox="0 0 48 48" fill="none" xmlns="http://www.w3.org/2000/svg">
<path d="M33.8229 4.92493C33.2292 4.34721 32.2795 4.36021 31.7018 4.95395C31.1241 5.5477 31.1371 6.49736 31.7308 7.07507L33.1953 8.5H18.3884C9.65246 8.5 2.5 15.4012 2.5 24C2.5 27.3011 3.55936 30.3623 5.3599 32.8739C5.84257 33.5472 6.77966 33.7018 7.45295 33.2191C8.12624 32.7364 8.28078 31.7993 7.79811 31.1261C6.34737 29.1024 5.5 26.6479 5.5 24C5.5 17.1349 11.2314 11.5 18.3884 11.5L33.9973 11.5C34.5542 11.5002 35.1194 11.5003 35.5602 11.4397C35.9529 11.3857 36.9292 11.2032 37.349 10.2172C37.7778 9.20984 37.2019 8.37725 36.9575 8.06114C36.6868 7.71094 36.2839 7.31921 35.8918 6.93787L33.8229 4.92493Z" fill="#54C08A"/>
<path d="M42.6394 15.126C42.1568 14.4528 41.2197 14.2982 40.5464 14.7809C39.8731 15.2636 39.7185 16.2006 40.2012 16.8739C41.6519 18.8976 42.4993 21.3521 42.4993 24C42.4993 30.8651 36.7679 36.5 29.6109 36.5L14.0021 36.5C13.4452 36.4998 12.88 36.4996 12.4392 36.5603C12.0465 36.6143 11.0701 36.7968 10.6503 37.7828C10.2215 38.7902 10.7974 39.6227 11.0418 39.9389C11.3125 40.2891 11.7154 40.6808 12.1076 41.0621L14.1764 43.0751C14.7701 43.6528 15.7198 43.6398 16.2975 43.046C16.8752 42.4523 16.8622 41.5026 16.2685 40.9249L14.804 39.5H29.6109C38.3469 39.5 45.4993 32.5988 45.4993 24C45.4993 20.6989 44.44 17.6377 42.6394 15.126Z" fill="#54C08A"/>
</svg>
