<svg width="49" height="48" viewBox="0 0 49 48" fill="none" xmlns="http://www.w3.org/2000/svg">
<path fill-rule="evenodd" clip-rule="evenodd" d="M13.6666 2.5C10.3387 2.5 7.66659 5.22089 7.66659 8.54545C7.66659 11.87 10.3387 14.5909 13.6666 14.5909C16.9945 14.5909 19.6666 11.87 19.6666 8.54545C19.6666 5.22089 16.9945 2.5 13.6666 2.5ZM10.6666 8.54545C10.6666 6.84925 12.0239 5.5 13.6666 5.5C15.3093 5.5 16.6666 6.84925 16.6666 8.54545C16.6666 10.2417 15.3093 11.5909 13.6666 11.5909C12.0239 11.5909 10.6666 10.2417 10.6666 8.54545Z" fill="#54C08A"/>
<path fill-rule="evenodd" clip-rule="evenodd" d="M19.8031 16.755C16.04 14.718 11.2932 14.718 7.5301 16.755C7.43594 16.806 7.31161 16.8695 7.16522 16.9444C6.46468 17.3024 5.25897 17.9185 4.43679 18.6502C3.93293 19.0985 3.30347 19.8129 3.18552 20.7939C3.05346 21.8923 3.60675 22.8097 4.39722 23.4944C5.65009 24.5795 7.21609 25.5 9.25745 25.5H18.0757C20.1171 25.5 21.6831 24.5795 22.936 23.4944C23.7264 22.8097 24.2797 21.8923 24.1476 20.7939C24.0297 19.8129 23.4002 19.0985 22.8964 18.6502C22.0742 17.9185 20.8689 17.3026 20.1683 16.9446C20.0218 16.8697 19.8973 16.806 19.8031 16.755ZM8.95822 19.3933C11.8303 17.8386 15.5028 17.8386 18.3749 19.3933C18.5737 19.5009 18.7796 19.6073 18.9868 19.7144C19.6867 20.0762 20.4011 20.4455 20.9021 20.8913C21.0006 20.9789 21.065 21.0482 21.1065 21.0986C21.0746 21.1329 21.031 21.1755 20.9719 21.2267C20.0175 22.0533 19.1251 22.5 18.0757 22.5H9.25745C8.20807 22.5 7.3157 22.0533 6.36127 21.2267C6.30221 21.1755 6.25857 21.1329 6.22664 21.0986C6.26822 21.0482 6.33261 20.9789 6.43107 20.8913C6.93211 20.4455 7.64647 20.0762 8.34634 19.7144C8.55338 19.6074 8.75962 19.5008 8.95822 19.3933ZM21.1874 20.9913C21.1881 20.9912 21.1862 20.9966 21.1795 21.0076C21.1833 20.9968 21.1867 20.9913 21.1874 20.9913ZM6.1458 20.9913C6.14651 20.9913 6.14986 20.9968 6.15371 21.0076C6.14701 20.9966 6.14508 20.9912 6.1458 20.9913Z" fill="#54C08A"/>
<path d="M10.166 30C10.166 29.1716 9.49444 28.5 8.66602 28.5C7.83759 28.5 7.16602 29.1716 7.16602 30C7.16602 37.4627 13.2033 43.5 20.666 43.5C21.1859 43.5 21.6687 43.2308 21.942 42.7886C22.2153 42.3464 22.2401 41.7942 22.0077 41.3292L20.2934 37.9006C19.9229 37.1596 19.0219 36.8593 18.2809 37.2298C17.5399 37.6003 17.2396 38.5013 17.6101 39.2422L18.0789 40.1799C13.5272 39.0297 10.166 34.9128 10.166 30Z" fill="#54C08A"/>
<path d="M27.39 5.2114C27.6634 4.76918 28.1462 4.5 28.666 4.5C36.1287 4.5 42.166 10.5373 42.166 18C42.166 18.8284 41.4944 19.5 40.666 19.5C39.8376 19.5 39.166 18.8284 39.166 18C39.166 13.0872 35.8049 8.97035 31.2531 7.82013L31.7219 8.75775C32.0924 9.49872 31.7921 10.3997 31.0511 10.7702C30.3102 11.1407 29.4091 10.8404 29.0387 10.0994L27.3244 6.67082C27.0919 6.20584 27.1167 5.65363 27.39 5.2114Z" fill="#54C08A"/>
<path fill-rule="evenodd" clip-rule="evenodd" d="M35.6666 22.5C32.3387 22.5 29.6666 25.2209 29.6666 28.5455C29.6666 31.87 32.3387 34.5909 35.6666 34.5909C38.9945 34.5909 41.6666 31.87 41.6666 28.5455C41.6666 25.2209 38.9945 22.5 35.6666 22.5ZM32.6666 28.5455C32.6666 26.8492 34.0239 25.5 35.6666 25.5C37.3093 25.5 38.6666 26.8492 38.6666 28.5455C38.6666 30.2417 37.3093 31.5909 35.6666 31.5909C34.0239 31.5909 32.6666 30.2417 32.6666 28.5455Z" fill="#54C08A"/>
<path fill-rule="evenodd" clip-rule="evenodd" d="M41.8031 36.755C38.04 34.718 33.2932 34.718 29.5301 36.755C29.4359 36.806 29.3114 36.8697 29.1648 36.9446C28.4643 37.3026 27.259 37.9185 26.4368 38.6502C25.9329 39.0985 25.3035 39.8129 25.1855 40.7939C25.0535 41.8923 25.6067 42.8097 26.3972 43.4944C27.6501 44.5795 29.2161 45.5 31.2575 45.5H40.0757C42.1171 45.5 43.6831 44.5795 44.936 43.4944C45.7264 42.8097 46.2797 41.8923 46.1476 40.7939C46.0297 39.8129 45.4002 39.0985 44.8964 38.6502C44.0742 37.9185 42.8689 37.3026 42.1683 36.9446C42.0218 36.8697 41.8973 36.806 41.8031 36.755ZM30.3468 39.7142C30.5538 39.6072 30.7596 39.5008 30.9582 39.3933C33.8303 37.8386 37.5028 37.8386 40.375 39.3933C40.5737 39.5009 40.7796 39.6073 40.9868 39.7144C41.6867 40.0762 42.4011 40.4455 42.9021 40.8913C43.0006 40.9789 43.0649 41.0482 43.1065 41.0986C43.0746 41.1329 43.031 41.1755 42.9719 41.2267C42.0175 42.0533 41.1251 42.5 40.0757 42.5H31.2575C30.2081 42.5 29.3157 42.0533 28.3613 41.2267C28.3022 41.1755 28.2586 41.1329 28.2266 41.0986C28.2682 41.0482 28.3326 40.9789 28.4311 40.8913C28.9321 40.4455 29.6469 40.076 30.3468 39.7142ZM43.1874 40.9913C43.1881 40.9912 43.1862 40.9966 43.1795 41.0076C43.1833 40.9968 43.1867 40.9913 43.1874 40.9913ZM28.1458 40.9913C28.1465 40.9913 28.1499 40.9968 28.1537 41.0076C28.147 40.9966 28.1451 40.9912 28.1458 40.9913Z" fill="#54C08A"/>
</svg>
