<svg width="48" height="48" viewBox="0 0 48 48" fill="none" xmlns="http://www.w3.org/2000/svg">
<path d="M10 24.5C10.7706 24.5 11.416 25.0839 11.4927 25.8507C11.9493 30.417 13.9773 33.0675 15.8287 34.5921C16.7683 35.366 17.6795 35.8623 18.3489 36.1628C18.6086 36.2795 18.83 36.3657 19 36.4267C19.17 36.3657 19.3914 36.2794 19.6512 36.1627C20.3205 35.8621 21.2318 35.3656 22.1715 34.5917C24.0229 33.0668 26.0509 30.4162 26.5075 25.8507C26.5842 25.0839 27.2295 24.5 28.0001 24.5L28.0186 24.5L28.0665 24.5002L28.2371 24.5013C28.3789 24.5025 28.5733 24.505 28.7817 24.51C29.1291 24.5185 29.724 24.5362 30.0731 24.6057C32.2549 25.0397 33.9604 26.7452 34.3944 28.927C34.5008 29.462 34.5005 30.068 34.5001 30.8534L34.5001 42C34.5001 42.8284 33.8285 43.5 33.0001 43.5C32.1717 43.5 31.5001 42.8284 31.5001 42L31.5001 31C31.5001 29.9988 31.4928 29.7172 31.4521 29.5123C31.2548 28.5205 30.4795 27.7453 29.4878 27.548C29.4929 27.549 29.4907 27.5488 29.4801 27.5477C29.4588 27.5455 29.4038 27.5397 29.3062 27.5332C28.5156 32.1602 26.2666 35.1054 24.0787 36.9074C22.8934 37.8836 21.7421 38.5123 20.8803 38.8994C20.4484 39.0933 20.0861 39.228 19.8241 39.3162C19.693 39.3603 19.5866 39.3929 19.5088 39.4155L19.3641 39.4552C19.1252 39.5149 18.8735 39.5145 18.6346 39.4548L18.4916 39.4156C18.4138 39.393 18.3074 39.3604 18.1763 39.3163C17.9143 39.2282 17.5519 39.0936 17.1201 38.8997C16.2582 38.5127 15.1069 37.884 13.9215 36.9079C11.7335 35.106 9.48458 32.1608 8.69399 27.5332C8.59629 27.5397 8.54133 27.5455 8.5201 27.5477C8.50953 27.5488 8.50731 27.549 8.51237 27.548C7.52064 27.7453 6.7454 28.5205 6.54813 29.5123C6.50736 29.7172 6.50009 29.9988 6.50009 31L6.50009 42C6.50009 42.8284 5.82852 43.5 5.00009 43.5C4.17167 43.5 3.50009 42.8284 3.50009 42L3.50005 30.8534C3.49966 30.068 3.49936 29.462 3.60578 28.927C4.03976 26.7452 5.7453 25.0397 7.9271 24.6057C8.2762 24.5362 8.87113 24.5185 9.2185 24.51C9.42687 24.505 9.62129 24.5025 9.76307 24.5013L9.93365 24.5002L9.98161 24.5L10 24.5Z" fill="#54C08A"/>
<path d="M23.7886 23.7235C24.2308 23.9968 24.5 24.4796 24.5 24.9995L24.5 28.9995C24.5 29.5194 24.2308 30.0022 23.7886 30.2755C23.3464 30.5488 22.7942 30.5736 22.3292 30.3412L19.0001 28.6766L15.6709 30.3415C15.206 30.5741 14.6537 30.5493 14.2115 30.276C13.7692 30.0027 13.5 29.5198 13.5 28.9999V24.9999C13.5 24.4801 13.7692 23.9973 14.2113 23.724C14.6535 23.4507 15.2057 23.4258 15.6707 23.6582L18.9999 25.3225L22.3292 23.6579C22.7942 23.4254 23.3464 23.4502 23.7886 23.7235Z" fill="#54C08A"/>
<path fill-rule="evenodd" clip-rule="evenodd" d="M19 4.5C14.8289 4.5 11.5 7.94314 11.5 12.125L11.5 13.875C11.5 18.0569 14.8289 21.5 19 21.5C23.1711 21.5 26.5 18.0569 26.5 13.875V12.125C26.5 7.94314 23.1711 4.5 19 4.5ZM14.5 12.125C14.5 9.54137 16.5437 7.5 19 7.5C21.4563 7.5 23.5 9.54137 23.5 12.125V13.875C23.5 16.4586 21.4563 18.5 19 18.5C16.5437 18.5 14.5 16.4586 14.5 13.875V12.125Z" fill="#54C08A"/>
<path d="M39.4877 27.548C39.2828 27.5072 39.0012 27.5 38 27.5C37.1716 27.5 36.5 26.8284 36.5 26C36.5 25.1715 37.1716 24.5 38 24.5L38.1465 24.4999C38.932 24.4995 39.538 24.4992 40.073 24.6057C42.2548 25.0396 43.9603 26.7452 44.3943 28.927C44.5007 29.462 44.5004 30.068 44.5 30.8534L44.5 42C44.5 42.8284 43.8284 43.5 43 43.5C42.1716 43.5 41.5 42.8284 41.5 42V31C41.5 29.9988 41.4927 29.7172 41.452 29.5122C41.2547 28.5205 40.4795 27.7453 39.4877 27.548Z" fill="#54C08A"/>
<path d="M31.0004 4.5C30.1228 4.5 29.2775 4.6539 28.4913 4.93756C27.7121 5.21872 27.3083 6.07837 27.5894 6.85762C27.8706 7.63688 28.7302 8.04065 29.5095 7.75949C29.9745 7.59173 30.4755 7.5 31.0004 7.5C33.4567 7.5 35.5004 9.54137 35.5004 12.125V13.875C35.5004 16.4586 33.4567 18.5 31.0004 18.5C30.4755 18.5 29.9745 18.4083 29.5095 18.2405C28.7302 17.9593 27.8706 18.3631 27.5894 19.1424C27.3083 19.9216 27.7121 20.7813 28.4913 21.0624C29.2775 21.3461 30.1228 21.5 31.0004 21.5C35.1716 21.5 38.5004 18.0569 38.5004 13.875V12.125C38.5004 7.94314 35.1716 4.5 31.0004 4.5Z" fill="#54C08A"/>
</svg>
