<svg width="48" height="48" viewBox="0 0 48 48" fill="none" xmlns="http://www.w3.org/2000/svg">
<path fill-rule="evenodd" clip-rule="evenodd" d="M6.49986 19.0028C6.49986 9.79908 14.4273 2.5 23.9999 2.5C33.5725 2.5 41.4999 9.79908 41.4999 19.0028L41.4999 19.5383C41.5001 20.1871 41.5003 20.8414 41.418 21.3614C41.3264 21.9403 41.069 22.7747 40.1959 23.2382C39.3195 23.7035 38.4216 23.4522 37.9246 23.2528C37.369 23.03 36.8458 22.6842 36.4344 22.376C36.0098 22.0578 35.634 21.7258 35.3686 21.4787C35.2345 21.3537 35.125 21.2471 35.0477 21.1703C35.009 21.1319 34.9781 21.1007 34.9561 21.0782L34.9296 21.0511L34.9215 21.0427L34.9173 21.0383L35.9999 20C34.9169 21.0379 34.9173 21.0383 34.9173 21.0383C34.3441 20.4402 34.3639 19.4903 34.962 18.9171C35.5597 18.3442 36.5084 18.364 37.0817 18.961L37.0979 18.9776C37.1115 18.9914 37.1331 19.0133 37.162 19.042C37.2198 19.0995 37.306 19.1834 37.4133 19.2834C37.6311 19.4862 37.9222 19.742 38.2334 19.9752C38.3249 20.0437 38.4129 20.1064 38.4968 20.1629C38.4998 19.9556 38.4999 19.7193 38.4999 19.4413V19.0028C38.4999 11.6349 32.1004 5.5 23.9999 5.5C15.8993 5.5 9.49986 11.6349 9.49986 19.0028C9.49986 19.8312 8.82829 20.5028 7.99986 20.5028C7.17143 20.5028 6.49986 19.8312 6.49986 19.0028ZM39.1646 20.5075L39.1597 20.5073C39.1597 20.5073 39.1503 20.5054 39.1422 20.5033C39.1522 20.5044 39.1623 20.5066 39.1623 20.5066L39.1646 20.5075Z" fill="#1B8354"/>
<path fill-rule="evenodd" clip-rule="evenodd" d="M41.4999 28.9972C41.4999 38.2009 33.5725 45.5 23.9999 45.5C14.4273 45.5 6.49986 38.2009 6.49986 28.9972L6.49984 28.4617C6.49963 27.813 6.49943 27.1586 6.5817 26.6386C6.67329 26.0597 6.93068 25.2253 7.80379 24.7618C8.68022 24.2965 9.5781 24.5478 10.0752 24.7472C10.6307 24.97 11.1539 25.3158 11.5653 25.624C11.9899 25.9422 12.3657 26.2742 12.6311 26.5213C12.7653 26.6463 12.8747 26.7529 12.952 26.8297C12.9907 26.8681 13.0216 26.8993 13.0436 26.9218L13.0701 26.9489L13.0782 26.9573L13.0824 26.9617L11.9999 28C13.0828 26.9621 13.0824 26.9617 13.0824 26.9617C13.6556 27.5598 13.6359 28.5097 13.0378 29.0829C12.44 29.6558 11.4913 29.636 10.918 29.039L10.9018 29.0224C10.8883 29.0086 10.8666 28.9867 10.8378 28.958C10.7799 28.9005 10.6938 28.8166 10.5864 28.7166C10.3687 28.5138 10.0775 28.258 9.76635 28.0248C9.67485 27.9563 9.58678 27.8936 9.50294 27.8371C9.49993 28.0444 9.49986 28.2807 9.49986 28.5587V28.9972C9.49986 36.3651 15.8993 42.5 23.9999 42.5C32.1004 42.5 38.4999 36.3651 38.4999 28.9972C38.4999 28.1688 39.1714 27.4972 39.9999 27.4972C40.8283 27.4972 41.4999 28.1688 41.4999 28.9972ZM8.83515 27.4925C8.83515 27.4925 8.84196 27.4926 8.85757 27.4967C8.84329 27.4951 8.83515 27.4925 8.83515 27.4925Z" fill="#1B8354"/>
<path fill-rule="evenodd" clip-rule="evenodd" d="M28.9354 29.0426C27.6854 30.1664 26.0037 30.9409 23.8743 31.3421C23.9863 32.3708 24.204 33.4433 24.5541 34.5461C24.8047 35.3357 24.3678 36.179 23.5782 36.4297C22.7886 36.6803 21.9453 36.2434 21.6947 35.4538C21.1872 33.8552 20.9141 32.3064 20.8193 30.836C18.866 29.3245 17.5944 27.6821 16.9632 25.9329C16.2628 23.992 16.4086 22.0791 17.0522 20.3382C18.3035 16.9534 21.462 14.1164 24.3125 12.2961L24.3681 12.2606C24.6487 12.081 24.9878 11.8641 25.3128 11.7221C25.7289 11.5401 26.2589 11.4144 26.8702 11.5702C27.4868 11.7274 27.8932 12.0971 28.1702 12.4613C28.3856 12.7444 28.5759 13.1004 28.7325 13.3932L28.7638 13.4516C30.3482 16.4086 31.8507 20.4517 31.4274 24.0376C31.2091 25.8862 30.4708 27.6623 28.9354 29.0426ZM25.9271 14.8245L26.0528 14.7444L26.1195 14.8685C27.6181 17.6655 28.7614 21.0316 28.448 23.6859C28.2979 24.9575 27.8223 26.0093 26.9298 26.8116C26.2588 27.4148 25.2739 27.9472 23.8385 28.2845C24.021 26.165 24.6148 24.349 25.2979 22.9976C25.6716 22.2582 25.3752 21.3559 24.6358 20.9822C23.8965 20.6085 22.9942 20.9049 22.6205 21.6443C21.9078 23.0543 21.2873 24.8436 20.982 26.8981C20.39 26.2053 20.0104 25.5391 19.7851 24.9146C19.3627 23.7441 19.4263 22.5681 19.8661 21.3784C20.7816 18.9021 23.2857 16.5114 25.9271 14.8245Z" fill="#1B8354"/>
</svg>
