<svg width="24" height="24" viewBox="0 0 24 24" fill="none" xmlns="http://www.w3.org/2000/svg">
<path fill-rule="evenodd" clip-rule="evenodd" d="M8.48392 2.2243C8.56101 1.9783 8.50636 1.70996 8.33921 1.5137C8.17206 1.31745 7.91583 1.2208 7.6607 1.25776C3.10256 1.91815 1.53069 5.61201 1.28446 7.61418C1.01904 9.77228 2.32869 11.7886 4.33513 12.3589C4.53608 14.7194 5.11237 17.3503 6.25917 20.1694C5.94955 20.6309 5.64665 21.1152 5.35163 21.6233C5.14366 21.9816 5.26546 22.4405 5.62368 22.6485C5.9819 22.8565 6.44088 22.7347 6.64886 22.3765C7.46915 20.9636 8.34946 19.753 9.26057 18.7183C10.8358 20.9524 13.845 21.4063 16.2677 19.7621C16.9719 19.2841 17.4966 18.6166 17.9359 17.9232C18.247 17.432 18.5412 16.8833 18.8263 16.3513C18.9368 16.1452 19.046 15.9415 19.1543 15.7447C19.9614 14.2777 20.8172 13.0056 22.3025 12.3515C22.5228 12.2545 22.6832 12.0575 22.7336 11.8221C22.784 11.5866 22.7183 11.3413 22.5569 11.1626C20.5568 8.94699 18.2689 8.21115 16.1856 8.25157C14.1342 8.29136 12.3169 9.08038 11.1706 9.85835C8.78349 11.4784 7.67681 14.6416 8.54156 17.2779C8.12318 17.7271 7.71099 18.2083 7.30726 18.7236C6.48378 16.4889 6.03878 14.399 5.85426 12.5008C7.83147 12.3198 9.46585 10.7255 9.72089 8.65174C9.80132 7.99782 9.66996 7.38318 9.48633 6.83002C9.35738 6.44158 9.18404 6.03489 9.022 5.6547C8.96106 5.51172 8.9017 5.37245 8.84691 5.23935C8.4231 4.20967 8.15258 3.28158 8.48392 2.2243ZM10.3238 17.601C11.6536 16.3098 13.0233 15.3569 14.3477 14.6646C14.7148 14.4727 14.8568 14.0196 14.6649 13.6525C14.473 13.2854 14.0199 13.1434 13.6528 13.3352C12.3715 14.005 11.0649 14.8907 9.79298 16.0426C9.54926 14.2366 10.3793 12.2082 12.013 11.0995C12.9722 10.4485 14.5119 9.78431 16.2147 9.75128C17.6645 9.72316 19.2594 10.1499 20.7631 11.4898C19.3669 12.4162 18.5224 13.7814 17.8401 15.0217C17.7128 15.2529 17.5929 15.4767 17.4766 15.6936C17.2026 16.205 16.949 16.6781 16.6687 17.1205C16.2771 17.7387 15.8839 18.2097 15.4253 18.5209C13.5306 19.8068 11.3497 19.3302 10.3238 17.601ZM5.75931 11.0015C6.99737 10.8643 8.06166 9.85458 8.23211 8.46864C8.27426 8.12592 8.21222 7.75295 8.06272 7.30261C7.95442 6.97634 7.81916 6.65911 7.66744 6.30328C7.60116 6.14783 7.5315 5.98443 7.45981 5.81027C7.12817 5.00452 6.79255 4.05428 6.8406 2.97225C3.98403 3.84809 2.95088 6.35285 2.77324 7.79728C2.61814 9.05841 3.25656 10.1966 4.25276 10.7177C4.238 9.72333 4.2888 8.7868 4.38778 7.91542C4.43454 7.50385 4.80608 7.20811 5.21764 7.25486C5.62921 7.30161 5.92495 7.67315 5.8782 8.08472C5.77638 8.98107 5.72893 9.95643 5.75931 11.0015Z" fill="#067647"/>
</svg>
