<svg width="48" height="48" viewBox="0 0 48 48" fill="none" xmlns="http://www.w3.org/2000/svg">
<path fill-rule="evenodd" clip-rule="evenodd" d="M16.9679 4.44835C17.1221 3.95636 17.0128 3.41967 16.6785 3.02717C16.3441 2.63466 15.8317 2.44135 15.3214 2.51528C6.20515 3.83606 3.06142 11.2238 2.56894 15.2281C2.03811 19.5443 4.65742 23.5769 8.67029 24.7175C9.07218 29.4385 10.2248 34.7004 12.5184 40.3386C11.8991 41.2615 11.2933 42.2301 10.7033 43.2464C10.2874 43.9629 10.5309 44.8809 11.2474 45.2968C11.9638 45.7127 12.8818 45.4691 13.2977 44.7527C14.9383 41.9269 16.699 39.5059 18.5212 37.4364C21.6715 41.9045 27.6901 42.8123 32.5353 39.524C33.9438 38.568 34.9933 37.2329 35.8717 35.8462C36.4941 34.8638 37.0824 33.7664 37.6527 32.7024C37.8736 32.2902 38.0921 31.8827 38.3086 31.4892C39.9229 28.5551 41.6344 26.011 44.605 24.7028C45.0457 24.5087 45.3665 24.1149 45.4672 23.6439C45.568 23.173 45.4366 22.6824 45.1139 22.3249C41.1137 17.8937 36.5379 16.4221 32.3712 16.5029C28.2683 16.5825 24.6339 18.1605 22.3413 19.7165C17.567 22.9566 15.3537 29.283 17.0831 34.5555C16.2464 35.4539 15.422 36.4164 14.6146 37.447C12.9676 32.9775 12.0776 28.7977 11.7086 25.0014C15.663 24.6395 18.9317 21.4508 19.4418 17.3032C19.6027 15.9954 19.34 14.7661 18.9727 13.6598C18.7148 12.8829 18.3681 12.0695 18.044 11.3091C17.9221 11.0232 17.8034 10.7447 17.6939 10.4785C16.8462 8.41909 16.3052 6.56292 16.9679 4.44835ZM20.6475 35.2018C23.3072 32.6194 26.0467 30.7135 28.6954 29.3289C29.4296 28.9451 29.7136 28.0389 29.3299 27.3047C28.9461 26.5705 28.0398 26.2865 27.3056 26.6702C24.7429 28.0098 22.1298 29.7812 19.586 32.085C19.0985 28.4729 20.7586 24.4162 24.0259 22.1988C25.9444 20.8968 29.0238 19.5684 32.4293 19.5023C35.329 19.4461 38.5188 20.2997 41.5262 22.9793C38.7338 24.8321 37.0449 27.5625 35.6801 30.0431C35.4257 30.5056 35.1858 30.9531 34.9533 31.3869C34.4051 32.4097 33.898 33.3559 33.3375 34.2407C32.5542 35.4772 31.7679 36.4192 30.8507 37.0416C27.0612 39.6134 22.6993 38.6602 20.6475 35.2018ZM11.5186 22.0027C13.9948 21.7283 16.1233 19.7089 16.4642 16.937C16.5485 16.2516 16.4245 15.5056 16.1255 14.605C15.9089 13.9524 15.6383 13.318 15.3349 12.6063C15.2024 12.2954 15.063 11.9686 14.9197 11.6203C14.2564 10.0088 13.5851 8.10831 13.6812 5.94426C7.96808 7.69594 5.9018 12.7055 5.54651 15.5943C5.2363 18.1166 6.51315 20.393 8.50556 21.4351C8.47603 19.4464 8.57763 17.5734 8.7756 15.8306C8.8691 15.0075 9.61218 14.416 10.4353 14.5095C11.2584 14.603 11.8499 15.3461 11.7564 16.1692C11.5528 17.9619 11.4579 19.9126 11.5186 22.0027Z" fill="#1B8354"/>
</svg>
