<svg width="28" height="28" viewBox="0 0 28 28" fill="none" xmlns="http://www.w3.org/2000/svg">
<path d="M19.4584 6.37338C19.4313 6.35645 19.4049 6.34087 19.3792 6.3266C19.1352 6.19072 18.7805 6.06794 18.4019 6.11616C18.3923 6.11737 18.3828 6.11874 18.3734 6.12027L16.1853 6.47244C15.7082 6.54923 15.3836 6.99825 15.4604 7.47536C15.5372 7.95247 15.9862 8.27699 16.4634 8.2002L17.2982 8.06584C13.8369 12.5368 9.23986 12.6 7.01999 12.5261C6.53701 12.51 6.13243 12.8885 6.11634 13.3715C6.10025 13.8544 6.47874 14.259 6.96172 14.2751C9.36669 14.3552 14.8245 14.2892 18.8203 8.95677L19.008 9.57671C19.1479 10.0392 19.6364 10.3007 20.0989 10.1607C20.5614 10.0207 20.8229 9.53228 20.6829 9.06976L20.1044 7.15824C20.0983 7.13806 20.0914 7.1181 20.0839 7.09841C19.9553 6.76317 19.7044 6.53284 19.4846 6.39006C19.476 6.38437 19.4673 6.37881 19.4584 6.37338Z" fill="#DBA102"/>
<path d="M20.7083 15.1665C20.7083 14.6833 20.3165 14.2915 19.8333 14.2915C19.35 14.2915 18.9583 14.6833 18.9583 15.1665V20.9998C18.9583 21.4831 19.35 21.8748 19.8333 21.8748C20.3165 21.8748 20.7083 21.4831 20.7083 20.9998V15.1665Z" fill="#DBA102"/>
<path d="M14 16.6248C14.4832 16.6248 14.875 17.0166 14.875 17.4998V20.9998C14.875 21.4831 14.4832 21.8748 14 21.8748C13.5167 21.8748 13.125 21.4831 13.125 20.9998V17.4998C13.125 17.0166 13.5167 16.6248 14 16.6248Z" fill="#DBA102"/>
<path d="M8.16663 17.7915C8.64988 17.7915 9.04163 18.1833 9.04163 18.6665V20.9998C9.04163 21.4831 8.64988 21.8748 8.16663 21.8748C7.68338 21.8748 7.29163 21.4831 7.29163 20.9998V18.6665C7.29163 18.1833 7.68338 17.7915 8.16663 17.7915Z" fill="#DBA102"/>
<path fill-rule="evenodd" clip-rule="evenodd" d="M14.0667 2.0415H13.9332C11.3774 2.04149 9.36995 2.04148 7.80265 2.25219C6.19655 2.46812 4.92225 2.91966 3.92102 3.9209C2.91979 4.92214 2.46825 6.19643 2.25232 7.80253C2.0416 9.36985 2.04161 11.3773 2.04163 13.9331V14.0665C2.04161 16.6223 2.0416 18.6298 2.25232 20.1971C2.46825 21.8032 2.91979 23.0775 3.92101 24.0788C4.92225 25.0801 6.19656 25.5316 7.80266 25.7475C9.36976 25.9582 11.3769 25.9582 13.9322 25.9582H14.0677C16.623 25.9582 18.6302 25.9582 20.1973 25.7475C21.8034 25.5316 23.0777 25.0801 24.079 24.0788C25.0802 23.0775 25.5317 21.8032 25.7476 20.1971C25.9583 18.6298 25.9583 16.6224 25.9583 14.0666V13.9321C25.9583 11.3768 25.9583 9.36964 25.7477 7.80254C25.5317 6.19644 25.0802 4.92212 24.0789 3.92089C23.0777 2.91967 21.8034 2.46813 20.1972 2.2522C18.6299 2.04148 16.6225 2.04149 14.0667 2.0415ZM5.15846 5.15833C5.78034 4.53645 6.62379 4.17643 8.03583 3.98659C9.47305 3.79336 11.3629 3.7915 14 3.7915C16.637 3.7915 18.5268 3.79336 19.9641 3.98659C21.3761 4.17644 22.2196 4.53645 22.8415 5.15835C23.4634 5.78022 23.8234 6.62365 24.0133 8.0357C24.2065 9.47292 24.2083 11.3627 24.2083 13.9998C24.2083 16.6369 24.2064 18.5267 24.0132 19.9639C23.8234 21.376 23.4634 22.2195 22.8415 22.8414C22.2196 23.4633 21.3762 23.8233 19.9641 24.0131C18.5269 24.2063 16.637 24.2082 14 24.2082C11.3628 24.2082 9.47305 24.2063 8.03582 24.0131C6.62378 23.8233 5.78035 23.4633 5.15847 22.8414C4.53658 22.2195 4.17656 21.376 3.98671 19.9639C3.79348 18.5267 3.79163 16.6369 3.79163 13.9998C3.79163 11.3627 3.79348 9.47293 3.98671 8.03572C4.17656 6.62367 4.53657 5.78022 5.15846 5.15833Z" fill="#DBA102"/>
</svg>
