<svg width="48" height="48" viewBox="0 0 48 48" fill="none" xmlns="http://www.w3.org/2000/svg">
<path d="M24.9931 5.12417C25.6139 4.57568 25.6726 3.62775 25.1241 3.0069C24.5756 2.38605 23.6277 2.32738 23.0068 2.87587C22.457 3.36165 21.7722 4.24101 21.5626 5.37819C21.3293 6.64465 21.7319 7.99784 23.0068 9.12417C23.6277 9.67265 24.5756 9.61399 25.1241 8.99314C25.6726 8.37229 25.6139 7.42435 24.9931 6.87587C24.6978 6.61503 24.5858 6.40923 24.5404 6.28381C24.4961 6.16114 24.4901 6.0459 24.513 5.92184C24.5675 5.62569 24.7883 5.30506 24.9931 5.12417Z" fill="#1B8354"/>
<path d="M11.5025 9.09267C11.5537 8.26582 10.9249 7.55405 10.098 7.50288C9.27119 7.45171 8.55942 8.08052 8.50825 8.90737C8.4611 9.6692 8.60481 10.8189 9.28503 11.8065C10.0398 12.9023 11.3238 13.6012 13.0926 13.4917C13.9195 13.4406 14.5483 12.7288 14.4971 11.9019C14.4459 11.0751 13.7342 10.4463 12.9073 10.4975C12.4787 10.524 12.2256 10.4521 12.0823 10.3849C11.9417 10.319 11.8393 10.2262 11.7557 10.1047C11.5605 9.82144 11.4838 9.39488 11.5025 9.09267Z" fill="#1B8354"/>
<path d="M39.0926 7.5083C38.3313 7.46119 37.1824 7.60479 36.1955 8.28456C35.1003 9.03891 34.4019 10.3221 34.5113 12.0896C34.5625 12.9165 35.2742 13.5453 36.1011 13.4941C36.9279 13.4429 37.5567 12.7312 37.5056 11.9043C37.4791 11.4763 37.5509 11.2238 37.6179 11.0809C37.6836 10.9407 37.7761 10.8387 37.8973 10.7552C38.1799 10.5605 38.6056 10.4839 38.9073 10.5026C39.7342 10.5537 40.4459 9.92493 40.4971 9.09809C40.5483 8.27124 39.9195 7.55947 39.0926 7.5083Z" fill="#1B8354"/>
<path d="M45.1241 23.0069C44.6383 22.457 43.759 21.7723 42.6218 21.5627C41.3553 21.3293 40.0021 21.732 38.8758 23.0069C38.3273 23.6277 38.386 24.5757 39.0068 25.1242C39.6277 25.6727 40.5756 25.614 41.1241 24.9931C41.3849 24.6979 41.5908 24.5858 41.7162 24.5405C41.8388 24.4961 41.9541 24.4902 42.0781 24.513C42.3743 24.5676 42.6949 24.7884 42.8758 24.9931C43.4243 25.614 44.3722 25.6727 44.9931 25.1242C45.6139 24.5757 45.6726 23.6277 45.1241 23.0069Z" fill="#1B8354"/>
<path d="M5.12411 22.0069C4.57562 21.386 3.62769 21.3274 3.00684 21.8759C2.38599 22.4244 2.32732 23.3723 2.87581 23.9931C4.00213 25.2681 5.35532 25.6707 6.62178 25.4373C7.75896 25.2278 8.63833 24.543 9.12411 23.9931C9.67259 23.3723 9.61393 22.4244 8.99308 21.8759C8.37223 21.3274 7.42429 21.386 6.87581 22.0069C6.69492 22.2117 6.37428 22.4324 6.07813 22.487C5.95407 22.5099 5.83884 22.5039 5.71617 22.4595C5.59075 22.4142 5.38495 22.3022 5.12411 22.0069Z" fill="#1B8354"/>
<path d="M12.4886 34.9074C12.4374 34.0805 11.7257 33.4517 10.8988 33.5029C10.072 33.5541 9.44317 34.2658 9.49434 35.0927C9.51301 35.3943 9.4364 35.8201 9.24174 36.1027C9.15826 36.2239 9.05618 36.3164 8.91599 36.3821C8.77316 36.4491 8.5206 36.5209 8.09261 36.4944C7.26576 36.4432 6.55399 37.072 6.50282 37.8989C6.45165 38.7257 7.08046 39.4375 7.90731 39.4887C9.67479 39.5981 10.958 38.8996 11.7124 37.8045C12.3921 36.8176 12.5357 35.6687 12.4886 34.9074Z" fill="#1B8354"/>
<path d="M36.0876 36.5026C36.4054 36.484 36.8461 36.5604 37.1349 36.7485C37.2582 36.8288 37.3407 36.9197 37.3964 37.0318C37.4521 37.1442 37.5195 37.356 37.4947 37.7356C37.4406 38.5623 38.0669 39.2763 38.8935 39.3304C39.7202 39.3845 40.4342 38.7582 40.4883 37.9315C40.6021 36.193 39.8682 34.9484 38.7721 34.2346C37.7915 33.5959 36.6575 33.4641 35.9123 33.5077C35.0853 33.5561 34.4541 34.2657 34.5025 35.0928C34.5509 35.9198 35.2606 36.551 36.0876 36.5026Z" fill="#1B8354"/>
<path d="M24.9931 38.8759C24.3722 38.3274 23.4243 38.386 22.8758 39.0069C22.3273 39.6277 22.386 40.5757 23.0068 41.1242C23.2116 41.3051 23.4324 41.6257 23.4869 41.9218C23.5098 42.0459 23.5038 42.1611 23.4595 42.2838C23.4141 42.4092 23.3021 42.615 23.0068 42.8759C22.386 43.4244 22.3273 44.3723 22.8758 44.9931C23.4243 45.614 24.3722 45.6727 24.9931 45.1242C26.268 43.9978 26.6706 42.6447 26.4373 41.3782C26.2277 40.241 25.5429 39.3616 24.9931 38.8759Z" fill="#1B8354"/>
<path fill-rule="evenodd" clip-rule="evenodd" d="M23.9999 12.5C17.6487 12.5 12.4999 17.6487 12.4999 24C12.4999 30.3513 17.6487 35.5 23.9999 35.5C30.3512 35.5 35.4999 30.3513 35.4999 24C35.4999 17.6487 30.3512 12.5 23.9999 12.5ZM15.4999 24C15.4999 19.3056 19.3055 15.5 23.9999 15.5C28.6944 15.5 32.4999 19.3056 32.4999 24C32.4999 28.6944 28.6944 32.5 23.9999 32.5C19.3055 32.5 15.4999 28.6944 15.4999 24Z" fill="#1B8354"/>
</svg>
