<svg width="42" height="42" viewBox="0 0 42 42" fill="none" xmlns="http://www.w3.org/2000/svg">
<g id="elements">
<path id="Icon" fill-rule="evenodd" clip-rule="evenodd" d="M14.8717 1.92578C14.9127 2.7532 14.2752 3.45719 13.4478 3.49819C9.29001 3.70426 7.18811 4.31985 5.75398 5.75398C4.31985 7.18811 3.70426 9.29001 3.49819 13.4478C3.45719 14.2752 2.7532 14.9127 1.92578 14.8717C1.09837 14.8307 0.460866 14.1267 0.501872 13.2993C0.712059 9.05826 1.34168 5.92364 3.63266 3.63266C5.92363 1.34168 9.05826 0.71206 13.2993 0.501872C14.1267 0.460866 14.8307 1.09837 14.8717 1.92578ZM27.1283 1.92578C27.1693 1.09837 27.8733 0.460866 28.7007 0.501872C32.9418 0.712059 36.0764 1.34168 38.3674 3.63266C40.6584 5.92364 41.288 9.05826 41.4982 13.2993C41.5392 14.1267 40.9017 14.8307 40.0743 14.8717C39.2469 14.9127 38.5429 14.2752 38.5019 13.4478C38.2958 9.29001 37.6802 7.18811 36.2461 5.75398C34.812 4.31985 32.7101 3.70426 28.5522 3.49819C27.7248 3.45719 27.0873 2.7532 27.1283 1.92578ZM1.92578 27.1283C2.7532 27.0873 3.45719 27.7248 3.49819 28.5522C3.70426 32.7101 4.31985 34.812 5.75398 36.2461C7.1881 37.6802 9.29001 38.2958 13.4478 38.5019C14.2752 38.5429 14.9127 39.2469 14.8717 40.0743C14.8307 40.9017 14.1267 41.5392 13.2993 41.4982C9.05825 41.288 5.92363 40.6584 3.63266 38.3674C1.34168 36.0764 0.71206 32.9418 0.501872 28.7007C0.460866 27.8733 1.09837 27.1693 1.92578 27.1283ZM40.0743 27.1283C40.9017 27.1693 41.5392 27.8733 41.4982 28.7007C41.288 32.9418 40.6584 36.0764 38.3674 38.3674C36.0764 40.6584 32.9418 41.288 28.7007 41.4982C27.8733 41.5392 27.1693 40.9017 27.1283 40.0743C27.0873 39.2469 27.7248 38.5429 28.5522 38.5019C32.7101 38.2958 34.812 37.6802 36.2461 36.2461C37.6802 34.812 38.2958 32.7101 38.5019 28.5522C38.5429 27.7248 39.2469 27.0873 40.0743 27.1283ZM12.2287 15.5222C9.78152 17.228 7.94215 19.2692 6.9017 20.5718C6.7762 20.7289 6.68458 20.8439 6.6091 20.9442L6.56776 21L6.6091 21.0558C6.68458 21.1561 6.7762 21.2711 6.9017 21.4282C7.94215 22.7308 9.78152 24.772 12.2287 26.4778C14.6755 28.1833 17.651 29.5 21 29.5C24.349 29.5 27.3245 28.1833 29.7713 26.4778C32.2185 24.772 34.0579 22.7308 35.0983 21.4282C35.2238 21.2711 35.3154 21.1561 35.3909 21.0558L35.4322 21L35.3909 20.9442C35.3154 20.8439 35.2238 20.7289 35.0983 20.5718C34.0579 19.2692 32.2185 17.228 29.7713 15.5222C27.3245 13.8167 24.349 12.5 21 12.5C17.651 12.5 14.6755 13.8167 12.2287 15.5222ZM10.5132 13.0611C13.2794 11.1329 16.8462 9.5 21 9.5C25.1538 9.5 28.7206 11.1329 31.4868 13.0611C34.2527 14.9891 36.2971 17.2657 37.4424 18.6996C37.4719 18.7365 37.5032 18.775 37.5358 18.8152L37.5371 18.8168L37.5372 18.8169C37.9244 19.2937 38.5 20.0022 38.5 21C38.5 21.9978 37.9244 22.7063 37.5372 23.1831C37.504 23.2239 37.4723 23.263 37.4424 23.3004C36.2971 24.7343 34.2527 27.0109 31.4868 28.9389C28.7206 30.8671 25.1538 32.5 21 32.5C16.8462 32.5 13.2794 30.8671 10.5132 28.9389C7.74729 27.0109 5.70287 24.7343 4.55763 23.3004C4.52773 23.263 4.49597 23.2239 4.46284 23.1831C4.07555 22.7063 3.5 21.9978 3.5 21C3.5 20.0022 4.07555 19.2937 4.46284 18.8169L4.46299 18.8167C4.49607 18.776 4.52778 18.7369 4.55763 18.6996C5.70287 17.2657 7.74729 14.9891 10.5132 13.0611ZM18.5 21C18.5 22.3807 19.6193 23.5 21 23.5C22.3807 23.5 23.5 22.3807 23.5 21C23.5 19.6193 22.3807 18.5 21 18.5C19.6193 18.5 18.5 19.6193 18.5 21ZM21 26.5C17.9624 26.5 15.5 24.0376 15.5 21C15.5 17.9624 17.9624 15.5 21 15.5C24.0376 15.5 26.5 17.9624 26.5 21C26.5 24.0376 24.0376 26.5 21 26.5Z" fill="#54C08A"/>
</g>
</svg>
