<svg width="44" height="44" viewBox="0 0 44 44" fill="none" xmlns="http://www.w3.org/2000/svg">
<g id="elements">
<path id="Icon" fill-rule="evenodd" clip-rule="evenodd" d="M0.5 22C0.5 10.1259 10.1259 0.5 22 0.5C23.4706 0.5 24.9083 0.647875 26.2984 0.930064C27.1103 1.09487 27.6348 1.88663 27.47 2.6985C27.3052 3.51036 26.5135 4.03491 25.7016 3.8701C24.5069 3.62757 23.269 3.5 22 3.5C11.7827 3.5 3.5 11.7827 3.5 22C3.5 32.2172 11.7827 40.5 22 40.5C32.2172 40.5 40.5 32.2172 40.5 22C40.5 20.731 40.3724 19.4931 40.1299 18.2982C39.9652 17.4864 40.4899 16.6947 41.3018 16.5299C42.1136 16.3652 42.9053 16.8899 43.07 17.7018C43.352 19.0917 43.5 20.5294 43.5 22C43.5 33.874 33.874 43.5 22 43.5C10.1259 43.5 0.5 33.874 0.5 22ZM22 13.5C17.3056 13.5 13.5 17.3056 13.5 22C13.5 26.6944 17.3056 30.5 22 30.5C26.6944 30.5 30.5 26.6944 30.5 22C30.5 21.1716 31.1716 20.5 32 20.5C32.8284 20.5 33.5 21.1716 33.5 22C33.5 28.3512 28.3512 33.5 22 33.5C15.6487 33.5 10.5 28.3512 10.5 22C10.5 15.6487 15.6487 10.5 22 10.5C22.8284 10.5 23.5 11.1716 23.5 12C23.5 12.8284 22.8284 13.5 22 13.5ZM37.8066 2.26874C37.3071 0.664986 35.3094 -0.0779762 33.9027 1.07158C32.4543 2.25518 30.7194 3.81029 29.7421 5.84021C28.8442 7.7054 28.6349 9.86141 29.5696 12.2945L20.9999 20.8642C20.4141 21.45 20.4141 22.3998 20.9999 22.9855C21.5857 23.5713 22.5354 23.5713 23.1212 22.9855L31.65 14.4567C34.2423 15.4255 36.4626 15.1687 38.3452 14.2053C40.3152 13.1973 41.7898 11.4701 42.9019 10.1272C44.0744 8.71152 43.3259 6.65886 41.666 6.17897C41.6471 6.17352 41.6281 6.16844 41.6091 6.16373L38.6909 5.44292L37.8195 2.31256C37.8154 2.29789 37.8111 2.28328 37.8066 2.26874ZM36.9786 11.5347C35.8423 12.1161 34.4433 12.3481 32.5173 11.576C31.697 9.71938 31.8811 8.31315 32.4452 7.14154C33.0091 5.97019 34.0021 4.93134 35.157 3.93447L36.0357 7.09135C36.1809 7.61276 36.5956 8.01554 37.1211 8.14533L40.0415 8.8667C39.0836 9.97991 38.1114 10.955 36.9786 11.5347Z" fill="#54C08A"/>
</g>
</svg>
