<svg width="26" height="26" viewBox="0 0 26 26" fill="none" xmlns="http://www.w3.org/2000/svg">
<path d="M12.8723 10.9888C13.1282 11.0232 13.4551 11.1116 13.7302 11.3867C14.0053 11.6618 14.0938 11.9887 14.1282 12.2446C14.1576 12.4631 14.1575 12.7218 14.1574 12.9611L14.1574 17.668C14.1574 18.1512 13.7656 18.543 13.2824 18.543C12.7991 18.543 12.4074 18.1512 12.4074 17.668V13.0013C12.4074 12.8857 12.4073 12.792 12.406 12.711C12.325 12.7097 12.2313 12.7097 12.1157 12.7097C11.6325 12.7097 11.2407 12.3179 11.2407 11.8347C11.2407 11.3514 11.6325 10.9597 12.1157 10.9597L12.1559 10.9596C12.3952 10.9596 12.6539 10.9595 12.8723 10.9888Z" fill="#067647"/>
<path d="M12.9907 7.16797C12.3464 7.16797 11.8241 7.6903 11.8241 8.33464C11.8241 8.97897 12.3464 9.5013 12.9907 9.5013H13.0012C13.6456 9.5013 14.1679 8.97897 14.1679 8.33464C14.1679 7.6903 13.6456 7.16797 13.0012 7.16797H12.9907Z" fill="#067647"/>
<path fill-rule="evenodd" clip-rule="evenodd" d="M13.0002 25.543H12.8019C11.5769 25.4497 10.8069 24.5747 10.1886 23.863L10.1758 23.8485C9.78391 23.3988 9.41432 22.9749 9.02189 22.8364C8.60789 22.6869 8.04654 22.7301 7.44955 22.776L7.38345 22.7812C6.34015 22.8625 5.0425 22.9636 4.0519 21.973C3.08822 21.0094 3.1737 19.7185 3.24337 18.6663L3.24689 18.613L3.24886 18.587C3.29483 17.9783 3.33809 17.4056 3.18856 17.003C3.03689 16.6064 2.61689 16.233 2.16189 15.8364C1.45023 15.218 0.575224 14.448 0.481891 13.223C0.376891 11.7647 1.35689 10.9014 2.16189 10.213L2.17699 10.1999C2.62641 9.80809 3.05024 9.43863 3.20023 9.04636C3.34976 8.64376 3.3065 8.07105 3.26053 7.46241L3.25856 7.43635C3.1769 6.37468 3.08356 5.05634 4.06356 4.07634C5.06689 3.07301 6.38523 3.17801 7.43523 3.27134L7.54593 3.27996C8.1124 3.3243 8.65013 3.36639 9.03356 3.21302C9.43023 3.06136 9.80356 2.64135 10.2002 2.18635C10.8186 1.47468 11.5886 0.599681 12.8136 0.506348H13.2102C14.4331 0.598639 15.1996 1.46664 15.8145 2.16283L15.8352 2.18635L15.8479 2.20093C16.2399 2.65054 16.6095 3.07452 17.0019 3.21302C17.4159 3.36252 17.9772 3.3193 18.5742 3.27334L18.6002 3.27134C19.6502 3.17801 20.9686 3.07301 21.9719 4.07634C22.9752 5.09134 22.8702 6.39803 22.7769 7.44803L22.7683 7.55858C22.7239 8.1251 22.6818 8.66289 22.8352 9.04636C22.9801 9.42514 23.3802 9.78265 23.802 10.1595L23.8619 10.213C24.5736 10.8314 25.4486 11.6013 25.5419 12.8263C25.6469 14.2847 24.6552 15.1597 23.8619 15.848C23.4302 16.2214 23.0336 16.5714 22.8586 16.9447C22.662 17.361 22.7176 17.9722 22.7753 18.6077L22.7769 18.6247C22.8702 19.6747 22.9752 20.9814 21.9719 21.9847C20.9919 22.9647 19.6736 22.8714 18.6119 22.7897L18.5857 22.7877C17.9771 22.7418 17.4045 22.6985 17.0019 22.848C16.6052 22.9997 16.2319 23.4197 15.8352 23.8747C15.2169 24.5864 14.4469 25.4614 13.2219 25.5547H13.0119L13.0002 25.543ZM8.27522 20.9697C8.73022 20.9697 9.18523 21.0164 9.62856 21.1797C10.4108 21.4703 10.9575 22.0819 11.4431 22.625L11.5069 22.6964C12.0786 23.3497 12.4519 23.7464 12.9302 23.7814H13.0819C13.5602 23.7464 13.9336 23.3497 14.5052 22.6964L14.5136 22.6869C15.0131 22.1176 15.5714 21.4814 16.3836 21.1797C17.1536 20.8997 17.9586 20.958 18.7402 21.0164C19.7202 21.0864 20.3502 21.1097 20.7352 20.7247C21.1436 20.3164 21.1202 19.698 21.0386 18.7414L21.0374 18.7281C20.9677 17.9264 20.889 17.0217 21.2719 16.1863C21.5968 15.4785 22.1872 14.9669 22.7101 14.5137L22.7186 14.5063C23.4186 13.8997 23.8502 13.4914 23.8036 12.9314C23.7686 12.453 23.3719 12.0797 22.7186 11.508L22.7088 11.4994C22.1396 10.9999 21.5034 10.4417 21.1902 9.62969C20.9013 8.85526 20.9673 8.02361 21.0253 7.29351L21.0269 7.27307C21.1086 6.30474 21.1319 5.69805 20.7236 5.27805C20.3152 4.86971 19.6969 4.89303 18.7286 4.9747L18.7083 4.97631C17.9781 5.03429 17.1464 5.10034 16.3719 4.81135C15.5897 4.52082 15.0429 3.9092 14.5574 3.36605L14.4936 3.2947C13.9219 2.64136 13.5486 2.24471 13.0702 2.20971H12.9069C12.4402 2.24471 12.0669 2.64136 11.4952 3.2947L11.4869 3.3042C10.9874 3.87346 10.429 4.5097 9.61689 4.81135C8.84241 5.10034 8.01067 5.03429 7.28053 4.97631L7.26023 4.9747C6.2919 4.89303 5.68523 4.86971 5.26523 5.27805C4.88023 5.66305 4.90356 6.29307 4.97356 7.27307C5.0319 8.05474 5.09023 8.85969 4.81023 9.62969C4.5069 10.4464 3.85356 11.018 3.28189 11.508C2.55856 12.138 2.16189 12.5114 2.19689 13.0714C2.23189 13.5497 2.62856 13.9231 3.28189 14.4947L3.32159 14.5296C3.88352 15.0224 4.5139 15.5752 4.81023 16.3731C5.09023 17.1431 5.0319 17.948 4.97356 18.7297C4.90356 19.7097 4.88023 20.3397 5.26523 20.7247C5.67356 21.133 6.2919 21.1097 7.26023 21.028C7.32739 21.0231 7.39561 21.0176 7.46477 21.012C7.71984 20.9914 7.98841 20.9697 8.26356 20.9697H8.27522Z" fill="#067647"/>
</svg>
