<svg width="24" height="26" viewBox="0 0 24 26" fill="none" xmlns="http://www.w3.org/2000/svg">
<path d="M8.1665 25.5394C5.87867 25.5394 4.73067 25.5394 3.71217 25.117C2.34484 24.5512 1.27967 23.4861 0.713837 22.1187C0.291504 21.1002 0.291504 19.9522 0.291504 17.6644V10.6644C0.291504 6.02924 0.291504 3.70171 1.91433 2.08005C3.53716 0.456055 5.86348 0.456055 10.4998 0.456055C15.136 0.456055 17.4625 0.456055 19.0853 2.08005C20.7082 3.70171 20.7082 6.02922 20.7082 10.6644V11.2477C20.7082 11.7307 20.3162 12.1227 19.8332 12.1227C19.3502 12.1227 18.9582 11.7307 18.9582 11.2477V10.6644C18.9582 6.51222 18.9582 4.42736 17.8475 3.31786C16.7369 2.20605 14.6533 2.20605 10.5001 2.20605C6.34678 2.20605 4.26284 2.20606 3.15217 3.31672C2.04151 4.42739 2.0415 6.51106 2.0415 10.6644V17.6644C2.0415 19.72 2.0415 20.7526 2.32967 21.449C2.717 22.3835 3.44617 23.1127 4.38184 23.5001C5.07833 23.7894 6.11082 23.7894 8.16646 23.7894C8.64946 23.7894 9.0415 24.1814 9.0415 24.6644C9.0415 25.1474 8.6495 25.5394 8.1665 25.5394Z" fill="#067647"/>
<path d="M10.4998 12.7061H5.83317C5.35017 12.7061 4.95817 12.3141 4.95817 11.8311C4.95817 11.3481 5.35017 10.9561 5.83317 10.9561H10.4998C10.9828 10.9561 11.3748 11.3481 11.3748 11.8311C11.3748 12.3141 10.9828 12.7061 10.4998 12.7061Z" fill="#067647"/>
<path d="M15.1665 8.03939H5.83317C5.35017 8.03939 4.95817 7.64739 4.95817 7.16439C4.95817 6.68139 5.35017 6.28939 5.83317 6.28939H15.1665C15.6495 6.28939 16.0415 6.68139 16.0415 7.16439C16.0415 7.64739 15.6495 8.03939 15.1665 8.03939Z" fill="#067647"/>
<path fill-rule="evenodd" clip-rule="evenodd" d="M10.7915 24.6643C10.7915 25.1473 11.1835 25.5393 11.6665 25.5393H22.1665C22.6495 25.5393 23.0415 25.1485 23.0415 24.6655V23.2118C23.0415 22.3006 22.4897 21.5155 21.6695 21.2565L19.2685 20.4935C19.3455 19.7025 19.4808 18.9383 19.8203 18.1018C20.2053 17.1545 20.2228 15.6425 19.5123 14.5867C19.1215 14.0068 18.362 13.315 16.9165 13.315C15.471 13.315 14.6975 14.0138 14.3032 14.5995C13.5892 15.66 13.6032 17.165 13.9847 18.1018C14.3382 18.971 14.484 19.7596 14.5622 20.4946L12.1647 21.2553C11.3433 21.5143 10.7915 22.3007 10.7915 23.2107V24.6643ZM21.2915 23.2107V23.7893H12.5415V23.2107C12.5415 23.0625 12.6197 22.947 12.6932 22.9237L15.3252 22.0883C15.4255 22.0557 15.5305 22.0393 15.6355 22.0393H18.1975C18.3025 22.0393 18.4075 22.0557 18.509 22.0883L21.141 22.9237C21.2133 22.947 21.2915 23.0625 21.2915 23.2107ZM17.5302 20.2893H16.3005C16.2095 19.4435 16.0333 18.4938 15.6063 17.4415C15.4313 17.0121 15.3858 16.1243 15.7557 15.5748C15.9878 15.2306 16.374 15.0638 16.9177 15.0638C17.4613 15.0638 17.8347 15.2272 18.061 15.5632C18.4285 16.108 18.3772 17.0052 18.1998 17.4427C17.7845 18.4635 17.62 19.3852 17.5302 20.2893Z" fill="#067647"/>
</svg>
