<svg width="28" height="28" viewBox="0 0 28 28" fill="none" xmlns="http://www.w3.org/2000/svg">
<path fill-rule="evenodd" clip-rule="evenodd" d="M24.6061 18.5346L24.7248 18.5777C25.146 17.4194 25.3749 16.1731 25.3749 14.8764C25.3749 10.184 22.3862 6.1914 18.1899 4.57055C17.6479 2.77003 15.9771 1.4585 13.9999 1.4585C12.0228 1.4585 10.3519 2.77003 9.80997 4.57055C5.61367 6.1914 2.62492 10.184 2.62492 14.8764C2.62492 16.1851 2.85814 17.4421 3.28651 18.6091C2.17948 19.4029 1.45825 20.7006 1.45825 22.1668C1.45825 24.5831 3.41701 26.5418 5.83325 26.5418C7.19895 26.5418 8.41849 25.9161 9.2208 24.9356C10.6751 25.5924 12.2949 25.9584 13.9999 25.9584C15.705 25.9584 17.3247 25.5924 18.779 24.9356C19.5813 25.9161 20.8009 26.5418 22.1666 26.5418C24.5828 26.5418 26.5416 24.5831 26.5416 22.1668C26.5416 20.6538 25.7736 19.3202 24.6061 18.5346ZM11.3749 5.8335C11.3749 4.38375 12.5502 3.2085 13.9999 3.2085C15.4497 3.2085 16.6249 4.38375 16.6249 5.8335C16.6249 7.28324 15.4497 8.4585 13.9999 8.4585C12.5502 8.4585 11.3749 7.28324 11.3749 5.8335ZM9.68072 6.53413C6.52431 8.07309 4.37492 11.2398 4.37492 14.8764C4.37492 15.9333 4.55581 16.948 4.88903 17.894C5.19312 17.8271 5.50907 17.7918 5.83325 17.7918C8.2495 17.7918 10.2083 19.7506 10.2083 22.1668C10.2083 22.589 10.1485 22.9972 10.0369 23.3834C11.2442 23.913 12.5853 24.2084 13.9999 24.2084C15.4145 24.2084 16.7556 23.913 17.963 23.3834C17.8514 22.9972 17.7916 22.589 17.7916 22.1668C17.7916 19.7506 19.7503 17.7918 22.1666 17.7918C22.4908 17.7918 22.8067 17.8271 23.1108 17.894C23.4439 16.9483 23.6249 15.9336 23.6249 14.8764C23.6249 11.2398 21.4755 8.07309 18.3191 6.53413C17.9838 8.61732 16.1777 10.2085 13.9999 10.2085C11.8222 10.2085 10.016 8.61731 9.68072 6.53413ZM5.83325 19.5418C4.3835 19.5418 3.20825 20.7171 3.20825 22.1668C3.20825 23.6166 4.3835 24.7918 5.83325 24.7918C7.283 24.7918 8.45825 23.6166 8.45825 22.1668C8.45825 20.7171 7.283 19.5418 5.83325 19.5418ZM19.5416 22.1668C19.5416 20.7171 20.7168 19.5418 22.1666 19.5418C23.6163 19.5418 24.7916 20.7171 24.7916 22.1668C24.7916 23.6166 23.6163 24.7918 22.1666 24.7918C20.7168 24.7918 19.5416 23.6166 19.5416 22.1668Z" fill="#067647"/>
</svg>
