<svg width="26" height="26" viewBox="0 0 26 26" fill="none" xmlns="http://www.w3.org/2000/svg">
<path d="M20.2677 14.6482C17.8446 13.9991 15.3659 15.0604 14.1146 17.0921L13.6916 16.5466C13.3955 16.1647 12.8458 16.0952 12.4639 16.3913C12.082 16.6874 12.0125 17.2371 12.3086 17.619L13.6343 19.3285C13.8379 19.5912 14.1728 19.7158 14.4986 19.6501C14.8244 19.5845 15.0849 19.3399 15.1709 19.0189C15.7129 16.9969 17.7919 15.7966 19.8148 16.3386C20.8504 16.616 21.6695 17.2947 22.1513 18.165C22.3853 18.5878 22.9178 18.7408 23.3406 18.5068C23.7633 18.2728 23.9164 17.7403 23.6823 17.3175C22.98 16.0487 21.7808 15.0535 20.2677 14.6482Z" fill="#067647"/>
<path d="M22.4959 20.9809C22.5819 20.66 22.8423 20.4155 23.1679 20.3497C23.4936 20.284 23.8284 20.4083 24.0322 20.6708L25.3579 22.378C25.6543 22.7597 25.5851 23.3094 25.2034 23.6058C24.8218 23.9022 24.2721 23.833 23.9757 23.4513L23.5528 22.9068C22.3016 24.9391 19.8226 26.0008 17.3992 25.3516C15.9213 24.9557 14.7427 23.997 14.0342 22.7702C13.7926 22.3517 13.9359 21.8166 14.3544 21.5749C14.7729 21.3332 15.308 21.4766 15.5497 21.895C16.0355 22.7363 16.8404 23.3902 17.852 23.6612C19.8749 24.2031 21.954 23.0029 22.4959 20.9809Z" fill="#067647"/>
<path d="M3.99548 19.5634C4.1346 19.1006 4.62255 18.8383 5.08534 18.9774C5.74282 19.175 6.48692 19.3403 7.29809 19.4635C7.77587 19.536 8.10439 19.9821 8.03186 20.4599C7.95934 20.9377 7.51323 21.2662 7.03546 21.1937C6.15341 21.0598 5.32775 20.8776 4.58154 20.6533C4.11875 20.5142 3.85636 20.0262 3.99548 19.5634Z" fill="#067647"/>
<path d="M5.08534 10.8107C4.62255 10.6716 4.1346 10.934 3.99548 11.3968C3.85636 11.8596 4.11875 12.3475 4.58154 12.4866C5.32775 12.7109 6.15341 12.8931 7.03546 13.027C7.51323 13.0995 7.95934 12.771 8.03186 12.2932C8.10439 11.8154 7.77587 11.3693 7.29809 11.2968C6.48692 11.1737 5.74282 11.0084 5.08534 10.8107Z" fill="#067647"/>
<path fill-rule="evenodd" clip-rule="evenodd" d="M19.8472 2.81592C20.4271 3.33004 20.8752 4.00966 20.8752 4.83301L20.8752 11.8426C20.8752 12.3258 20.4834 12.7176 20.0002 12.7176C19.5169 12.7176 19.1252 12.3258 19.1252 11.8426L19.1252 7.38216C18.669 7.66561 18.1436 7.91348 17.5737 8.12717C15.7635 8.80602 13.3213 9.20801 10.6668 9.20801C8.01235 9.20801 5.5702 8.80602 3.75993 8.12717C3.1901 7.91348 2.66467 7.66561 2.2085 7.38216L2.2085 12.9997C2.2085 13.1387 2.27362 13.3568 2.5727 13.6482C2.87433 13.942 3.35796 14.2509 4.03253 14.5375C5.37728 15.109 7.31047 15.5205 9.54135 15.6256C10.0241 15.6484 10.3969 16.0582 10.3742 16.5409C10.3514 17.0236 9.94169 17.3965 9.45897 17.3737C7.08582 17.2619 4.93568 16.8228 3.34811 16.1481C2.93822 15.974 2.55429 15.7792 2.2085 15.5629L2.2085 21.1887C2.2085 21.3228 2.27161 21.5375 2.57069 21.8271C2.87212 22.1189 3.35578 22.4258 4.03067 22.7108C5.37592 23.2788 7.3097 23.6878 9.54109 23.7923C10.0238 23.8149 10.3968 24.2245 10.3742 24.7073C10.3516 25.19 9.94195 25.563 9.45923 25.5404C7.08659 25.4293 4.93704 24.9931 3.34996 24.323C2.55869 23.9889 1.86394 23.5786 1.3535 23.0844C0.840709 22.588 0.458496 21.9482 0.458496 21.1887L0.458496 4.83301C0.458496 4.00966 0.906594 3.33004 1.48648 2.81592C2.06737 2.3009 2.85803 1.87706 3.75993 1.53885C5.5702 0.859995 8.01235 0.458008 10.6668 0.458008C13.3213 0.458008 15.7635 0.859995 17.5737 1.53885C18.4756 1.87706 19.2663 2.3009 19.8472 2.81592ZM2.2085 4.83301C2.2085 4.68985 2.28273 4.44872 2.64744 4.12538C3.01112 3.80293 3.5873 3.47258 4.3744 3.17742C5.94213 2.58952 8.16665 2.20801 10.6668 2.20801C13.167 2.20801 15.3915 2.58952 16.9593 3.17742C17.7464 3.47258 18.3225 3.80293 18.6862 4.12538C19.0509 4.44872 19.1252 4.68985 19.1252 4.83301C19.1252 4.97616 19.0509 5.21729 18.6862 5.54064C18.3225 5.86308 17.7464 6.19343 16.9593 6.48859C15.3915 7.07649 13.167 7.45801 10.6668 7.45801C8.16665 7.45801 5.94213 7.07649 4.3744 6.48859C3.5873 6.19343 3.01112 5.86308 2.64744 5.54064C2.28273 5.21729 2.2085 4.97616 2.2085 4.83301Z" fill="#067647"/>
</svg>
