<svg width="26" height="26" viewBox="0 0 26 26" fill="none" xmlns="http://www.w3.org/2000/svg">
<path fill-rule="evenodd" clip-rule="evenodd" d="M13.4168 11.0927C14.1917 11.8526 15.2179 12.5078 16.2629 12.6807C16.6894 14.7351 18.6386 16.2085 20.8589 16.2085C23.3742 16.2085 25.5415 14.3177 25.5415 11.8335C25.5415 10.6959 25.1971 9.59325 24.4351 8.76585C23.821 8.0991 22.9865 7.66655 21.9805 7.51695C21.6583 5.3452 20.0811 3.25746 17.7516 2.85965C17.6294 2.16345 17.3373 1.59124 16.8657 1.17148C16.2421 0.616357 15.4491 0.458496 14.7498 0.458496C13.8526 0.458496 13.2056 0.911072 12.8186 1.29811C12.6878 1.42885 12.5798 1.55856 12.4937 1.67346C12.4539 1.67998 12.4121 1.68739 12.3687 1.69579C12.0196 1.76336 11.5471 1.89811 11.0496 2.1695C10.1511 2.65956 9.24088 3.55959 8.79911 5.12516H5.99967C5.51643 5.12516 5.12467 5.51691 5.12467 6.00016C5.12467 6.48341 5.51643 6.87516 5.99967 6.87516H6.03137V8.32064C6.03137 9.9981 6.02404 10.6743 5.8451 11.3157C5.66527 11.9604 5.31347 12.5651 4.43325 14.0433L3.23033 16.0636C2.17544 17.8351 1.32858 19.2573 0.869265 20.4076C0.398453 21.5867 0.230879 22.7363 0.916171 23.7763L0.932178 23.8003L0.934402 23.8036C1.6063 24.8034 2.73976 25.1878 4.07252 25.3653C5.39896 25.5419 7.17864 25.5418 9.42911 25.5418H9.57054C11.821 25.5418 13.6007 25.5419 14.9271 25.3653C16.2599 25.1878 17.3934 24.8034 18.0653 23.8036L18.0675 23.8003L18.0813 23.7795L18.0835 23.7762C18.7688 22.7363 18.6012 21.5867 18.1304 20.4076C17.6711 19.2573 16.8242 17.8351 15.7693 16.0635L14.5664 14.0433C13.6862 12.5651 13.3344 11.9604 13.1545 11.3157C13.0996 11.1186 13.0608 10.9182 13.0334 10.6865C13.1575 10.8286 13.2858 10.9643 13.4168 11.0927ZM13.2302 6.84448C13.2697 6.94423 13.2915 7.05299 13.2915 7.16683C13.2915 8.01463 13.8148 9.03204 14.642 9.84321C15.4914 10.6761 16.3936 11.0376 16.9371 10.966C17.187 10.9331 17.4389 11.0095 17.6283 11.1756C17.8178 11.3418 17.9264 11.5815 17.9264 11.8335C17.9264 13.2153 19.1685 14.4585 20.8589 14.4585C22.5494 14.4585 23.7915 13.2153 23.7915 11.8335C23.7915 11.0381 23.5525 10.3907 23.1479 9.95139C22.7541 9.52382 22.1262 9.2085 21.1665 9.2085C20.6832 9.2085 20.2915 8.81675 20.2915 8.3335C20.2915 6.34812 18.8082 4.54183 16.9431 4.54183C16.4598 4.54183 16.0681 4.15008 16.0681 3.66683C16.0681 2.93365 15.8641 2.62281 15.7021 2.4786C15.5208 2.31714 15.2172 2.2085 14.7498 2.2085C14.4804 2.2085 14.2523 2.33925 14.056 2.53555C13.9603 2.63132 13.828 2.82478 13.7788 2.89858C13.6305 3.18866 13.3332 3.37233 13.0074 3.37513C12.9537 3.37967 12.8083 3.39318 12.7012 3.41391C12.4852 3.45572 12.1921 3.53972 11.8876 3.70582C11.4674 3.93498 10.9775 4.34413 10.6486 5.12516H12.9997C13.4829 5.12516 13.8747 5.51691 13.8747 6.00016C13.8747 6.40363 13.6016 6.74331 13.2302 6.84448ZM9.48544 6.87516C9.49575 6.87535 9.50603 6.87534 9.51629 6.87516H11.2183L11.2183 8.44853C11.2181 9.95791 11.218 10.8864 11.4689 11.786C11.676 12.5282 12.0435 13.2132 12.6136 14.1821C12.453 14.2666 12.2317 14.3487 11.9597 14.4012C11.3945 14.5104 10.6506 14.4844 9.84789 14.1383C9.07355 13.8045 8.17217 13.4932 7.33315 13.3603C7.19044 13.3377 7.03964 13.3186 6.88414 13.3064C7.18047 12.7566 7.39176 12.2841 7.53074 11.786C7.78169 10.8864 7.78157 9.95792 7.78138 8.44854L7.78137 6.87516H9.48544ZM4.77656 16.8873L5.71102 15.318C5.81115 15.2822 5.9064 15.2275 5.99139 15.1534C6.06293 15.091 6.3545 14.9771 7.05935 15.0888C7.69889 15.1901 8.45119 15.4419 9.15509 15.7453C10.2968 16.2375 11.3992 16.2918 12.2915 16.1195C12.7358 16.0337 13.1384 15.8897 13.4742 15.7063L13.5085 15.6873L14.2231 16.8873C15.3304 18.747 16.1034 20.0505 16.5052 21.0566C16.901 22.0479 16.8322 22.4937 16.6231 22.8119L16.6222 22.8133L16.6128 22.8275L16.6119 22.8289C16.3754 23.1797 15.8993 23.4704 14.6962 23.6306C13.4991 23.7899 11.8366 23.7918 9.49983 23.7918C7.16304 23.7918 5.50056 23.7899 4.30347 23.6306C3.10041 23.4704 2.62432 23.1797 2.3878 22.8289L2.38688 22.8275L2.37743 22.8133L2.37652 22.8119C2.16746 22.4937 2.09864 22.0479 2.49449 21.0566C2.89624 20.0505 3.66924 18.747 4.77656 16.8873Z" fill="#067647"/>
</svg>
