<svg width="26" height="26" viewBox="0 0 26 26" fill="none" xmlns="http://www.w3.org/2000/svg">
<path fill-rule="evenodd" clip-rule="evenodd" d="M5.12516 3.66683C5.12516 1.89492 6.56158 0.458496 8.3335 0.458496C10.1054 0.458496 11.5418 1.89492 11.5418 3.66683C11.5418 5.43874 10.1054 6.87516 8.3335 6.87516C6.56158 6.87516 5.12516 5.43874 5.12516 3.66683ZM8.3335 2.2085C7.52808 2.2085 6.87516 2.86141 6.87516 3.66683C6.87516 4.47224 7.52808 5.12516 8.3335 5.12516C9.13891 5.12516 9.79183 4.47224 9.79183 3.66683C9.79183 2.86141 9.13891 2.2085 8.3335 2.2085Z" fill="#067647"/>
<path d="M8.27283 8.04183H8.39417C9.44238 8.0418 10.3165 8.04177 11.0104 8.13506C11.7428 8.23353 12.4041 8.45015 12.9355 8.98153C13.4668 9.51291 13.6835 10.1742 13.7819 10.9066C13.8752 11.6005 13.8752 12.4746 13.8752 13.5228L13.8752 14.1668C13.8752 14.6501 13.4834 15.0418 13.0002 15.0418C12.5169 15.0418 12.1252 14.6501 12.1252 14.1668V13.5835C12.1252 12.4588 12.1233 11.7033 12.0475 11.1398C11.9752 10.6014 11.8501 10.371 11.698 10.219C11.546 10.0669 11.3156 9.94184 10.7772 9.86946C10.2137 9.79369 9.45818 9.79183 8.3335 9.79183C7.20882 9.79183 6.45333 9.79369 5.88979 9.86946C5.35142 9.94184 5.121 10.0669 4.96897 10.219C4.81693 10.371 4.69184 10.6014 4.61946 11.1398C4.54369 11.7033 4.54183 12.4588 4.54183 13.5835V14.1668C4.54183 14.6501 4.15008 15.0418 3.66683 15.0418C3.18358 15.0418 2.79183 14.6501 2.79183 14.1668L2.79183 13.5228C2.7918 12.4746 2.79177 11.6005 2.88506 10.9066C2.98353 10.1742 3.20015 9.51291 3.73153 8.98153C4.26291 8.45015 4.92418 8.23353 5.65661 8.13506C6.35051 8.04177 7.22462 8.0418 8.27283 8.04183Z" fill="#067647"/>
<path fill-rule="evenodd" clip-rule="evenodd" d="M0.623666 17.1552C0.788123 16.927 1.05224 16.7918 1.3335 16.7918H10.6668C11.0435 16.7918 11.3778 17.0328 11.4969 17.3901L13.6308 23.7918H17.6668C18.1501 23.7918 18.5418 24.1836 18.5418 24.6668C18.5418 25.1501 18.1501 25.5418 17.6668 25.5418H3.66684C3.29021 25.5418 2.95584 25.3008 2.83674 24.9435L0.503405 17.9435C0.414461 17.6767 0.459208 17.3834 0.623666 17.1552ZM11.7862 23.7918L10.0362 18.5418H2.5475L4.2975 23.7918H11.7862Z" fill="#067647"/>
<path fill-rule="evenodd" clip-rule="evenodd" d="M18.8335 10.9585C17.0616 10.9585 15.6252 12.3949 15.6252 14.1668C15.6252 15.9387 17.0616 17.3752 18.8335 17.3752C20.6054 17.3752 22.0418 15.9387 22.0418 14.1668C22.0418 12.3949 20.6054 10.9585 18.8335 10.9585ZM17.3752 14.1668C17.3752 13.3614 18.0281 12.7085 18.8335 12.7085C19.6389 12.7085 20.2918 13.3614 20.2918 14.1668C20.2918 14.9722 19.6389 15.6252 18.8335 15.6252C18.0281 15.6252 17.3752 14.9722 17.3752 14.1668Z" fill="#067647"/>
<path d="M15.3335 18.5418C14.8502 18.5418 14.4585 18.9336 14.4585 19.4168C14.4585 19.9001 14.8502 20.2918 15.3335 20.2918H22.3335C23.1389 20.2918 23.7918 20.9447 23.7918 21.7502V22.3335C23.7918 23.1389 23.1389 23.7918 22.3335 23.7918H21.1668C20.6836 23.7918 20.2918 24.1836 20.2918 24.6668C20.2918 25.1501 20.6836 25.5418 21.1668 25.5418H22.3335C24.1054 25.5418 25.5418 24.1054 25.5418 22.3335V21.7502C25.5418 19.9782 24.1054 18.5418 22.3335 18.5418H15.3335Z" fill="#067647"/>
</svg>
