<svg width="26" height="26" viewBox="0 0 26 26" fill="none" xmlns="http://www.w3.org/2000/svg">
<path fill-rule="evenodd" clip-rule="evenodd" d="M13.417 11.0927C14.192 11.8526 15.2182 12.5078 16.2631 12.6807C16.6897 14.7351 18.6388 16.2085 20.8592 16.2085C23.3744 16.2085 25.5417 14.3177 25.5417 11.8335C25.5417 10.6959 25.1974 9.59325 24.4353 8.76585C23.8213 8.0991 22.9867 7.66655 21.9807 7.51695C21.6586 5.3452 20.0813 3.25746 17.7519 2.85965C17.6296 2.16345 17.3375 1.59124 16.866 1.17148C16.2424 0.616357 15.4493 0.458496 14.7501 0.458496C13.8528 0.458496 13.2059 0.911072 12.8188 1.29811C12.6881 1.42885 12.5801 1.55856 12.4939 1.67346C12.4541 1.67998 12.4124 1.68739 12.3689 1.69579C12.0199 1.76336 11.5474 1.89811 11.0498 2.1695C10.1514 2.65956 9.24113 3.55959 8.79935 5.12516H5.99992C5.51667 5.12516 5.12492 5.51691 5.12492 6.00016C5.12492 6.48341 5.51667 6.87516 5.99992 6.87516H6.03162V8.32064C6.03162 9.9981 6.02428 10.6743 5.84535 11.3157C5.66551 11.9604 5.31371 12.5651 4.43349 14.0433L3.23057 16.0636C2.17569 17.8351 1.32883 19.2573 0.869509 20.4076C0.398697 21.5867 0.231124 22.7363 0.916415 23.7763L0.932422 23.8003L0.934646 23.8036C1.60654 24.8034 2.74 25.1878 4.07277 25.3653C5.39921 25.5419 7.17889 25.5418 9.42936 25.5418H9.57078C11.8213 25.5418 13.6009 25.5419 14.9274 25.3653C16.2601 25.1878 17.3936 24.8034 18.0655 23.8036L18.0677 23.8003L18.0816 23.7795L18.0837 23.7762C18.769 22.7363 18.6014 21.5867 18.1306 20.4076C17.6713 19.2573 16.8244 17.8351 15.7695 16.0635L14.5666 14.0433C13.6864 12.5651 13.3346 11.9604 13.1548 11.3157C13.0998 11.1186 13.061 10.9182 13.0337 10.6865C13.1578 10.8286 13.286 10.9643 13.417 11.0927ZM13.2304 6.84448C13.27 6.94423 13.2917 7.05299 13.2917 7.16683C13.2917 8.01463 13.815 9.03204 14.6423 9.84321C15.4917 10.6761 16.3938 11.0376 16.9374 10.966C17.1872 10.9331 17.4391 11.0095 17.6286 11.1756C17.818 11.3418 17.9267 11.5815 17.9267 11.8335C17.9267 13.2153 19.1688 14.4585 20.8592 14.4585C22.5496 14.4585 23.7917 13.2153 23.7917 11.8335C23.7917 11.0381 23.5527 10.3907 23.1481 9.95139C22.7543 9.52382 22.1264 9.2085 21.1667 9.2085C20.6835 9.2085 20.2917 8.81675 20.2917 8.3335C20.2917 6.34812 18.8085 4.54183 16.9433 4.54183C16.4601 4.54183 16.0683 4.15008 16.0683 3.66683C16.0683 2.93365 15.8644 2.62281 15.7024 2.4786C15.521 2.31714 15.2175 2.2085 14.7501 2.2085C14.4806 2.2085 14.2526 2.33925 14.0563 2.53555C13.9605 2.63132 13.8283 2.82478 13.7791 2.89858C13.6307 3.18866 13.3334 3.37233 13.0076 3.37513C12.9539 3.37967 12.8086 3.39318 12.7015 3.41391C12.4854 3.45572 12.1923 3.53972 11.8878 3.70582C11.4677 3.93498 10.9778 4.34413 10.6488 5.12516H12.9999C13.4832 5.12516 13.8749 5.51691 13.8749 6.00016C13.8749 6.40363 13.6018 6.74331 13.2304 6.84448ZM9.48568 6.87516C9.49599 6.87535 9.50628 6.87534 9.51653 6.87516H11.2185L11.2185 8.44853C11.2183 9.95791 11.2182 10.8864 11.4692 11.786C11.6762 12.5282 12.0438 13.2132 12.6139 14.1821C12.4532 14.2666 12.232 14.3487 11.9599 14.4012C11.3947 14.5104 10.6509 14.4844 9.84813 14.1383C9.07379 13.8045 8.17242 13.4932 7.33339 13.3603C7.19069 13.3377 7.03988 13.3186 6.88439 13.3064C7.18071 12.7566 7.39201 12.2841 7.53099 11.786C7.78194 10.8864 7.78182 9.95792 7.78163 8.44854L7.78162 6.87516H9.48568ZM4.77681 16.8873L5.71126 15.318C5.81139 15.2822 5.90664 15.2275 5.99163 15.1534C6.06317 15.091 6.35475 14.9771 7.0596 15.0888C7.69913 15.1901 8.45143 15.4419 9.15533 15.7453C10.297 16.2375 11.3995 16.2918 12.2917 16.1195C12.7361 16.0337 13.1386 15.8897 13.4744 15.7063L13.5088 15.6873L14.2233 16.8873C15.3307 18.747 16.1037 20.0505 16.5054 21.0566C16.9013 22.0479 16.8324 22.4937 16.6234 22.8119L16.6225 22.8133L16.613 22.8275L16.6121 22.8289C16.3756 23.1797 15.8995 23.4704 14.6964 23.6306C13.4993 23.7899 11.8369 23.7918 9.50007 23.7918C7.16328 23.7918 5.5008 23.7899 4.30371 23.6306C3.10066 23.4704 2.62456 23.1797 2.38804 22.8289L2.38712 22.8275L2.37768 22.8133L2.37677 22.8119C2.1677 22.4937 2.09888 22.0479 2.49473 21.0566C2.89648 20.0505 3.66948 18.747 4.77681 16.8873Z" fill="#067647"/>
</svg>
