<svg width="26" height="26" viewBox="0 0 26 26" fill="none" xmlns="http://www.w3.org/2000/svg">
<path d="M13.0002 0.457031C13.4834 0.457031 13.8752 0.848782 13.8752 1.33203V2.4987C13.8752 2.98195 13.4834 3.3737 13.0002 3.3737C12.5169 3.3737 12.1252 2.98195 12.1252 2.4987V1.33203C12.1252 0.848782 12.5169 0.457031 13.0002 0.457031Z" fill="#067647"/>
<path d="M13.0002 6.29036C9.32077 6.29036 6.29183 9.37541 6.29183 13.2389C6.29183 14.278 6.51149 15.261 6.9039 16.143C7.10032 16.5846 6.90163 17.1017 6.4601 17.2982C6.01857 17.4946 5.50141 17.2959 5.30498 16.8544C4.81443 15.7517 4.54183 14.5266 4.54183 13.2389C4.54183 8.46076 8.30323 4.54036 13.0002 4.54036C17.6972 4.54036 21.4585 8.46076 21.4585 13.2389C21.4585 14.5267 21.1859 15.7517 20.6953 16.8543C20.4989 17.2959 19.9817 17.4946 19.5402 17.2982C19.0987 17.1017 18.9 16.5846 19.0964 16.143C19.4888 15.261 19.7085 14.278 19.7085 13.2389C19.7085 9.37541 16.6796 6.29036 13.0002 6.29036Z" fill="#067647"/>
<path d="M23.5002 12.1237C23.0169 12.1237 22.6252 12.5154 22.6252 12.9987C22.6252 13.4819 23.0169 13.8737 23.5002 13.8737H24.6668C25.1501 13.8737 25.5418 13.4819 25.5418 12.9987C25.5418 12.5154 25.1501 12.1237 24.6668 12.1237H23.5002Z" fill="#067647"/>
<path d="M0.458496 12.9987C0.458496 12.5154 0.850247 12.1237 1.3335 12.1237H2.50016C2.98341 12.1237 3.37516 12.5154 3.37516 12.9987C3.37516 13.4819 2.98341 13.8737 2.50016 13.8737H1.3335C0.850247 13.8737 0.458496 13.4819 0.458496 12.9987Z" fill="#067647"/>
<path d="M21.8677 5.36757C22.2094 5.02586 22.2094 4.47184 21.8677 4.13014C21.5259 3.78843 20.9719 3.78844 20.6302 4.13015L19.8053 4.95511C19.4636 5.29682 19.4636 5.85084 19.8053 6.19255C20.147 6.53425 20.701 6.53425 21.0427 6.19254L21.8677 5.36757Z" fill="#067647"/>
<path d="M4.13275 4.13128C4.47446 3.78957 5.02847 3.78957 5.37018 4.13128L6.19515 4.95624C6.53685 5.29795 6.53685 5.85197 6.19515 6.19368C5.85344 6.53539 5.29942 6.53539 4.95771 6.19368L4.13275 5.36872C3.79104 5.02701 3.79104 4.47299 4.13275 4.13128Z" fill="#067647"/>
<path fill-rule="evenodd" clip-rule="evenodd" d="M18.5907 19.0838C18.4591 20.1573 17.9996 21.4551 16.7653 22.1186C16.6617 23.0644 16.4272 23.9115 15.8742 24.5351C15.1799 25.318 14.1724 25.5524 13.012 25.5406C11.7452 25.5618 10.7301 25.264 10.0547 24.444C9.52254 23.7979 9.31027 22.9445 9.20468 22.0589C8.68814 21.7324 8.29501 21.3495 8.01143 20.8891C7.66108 20.3203 7.52492 19.7075 7.4532 19.1112C7.34593 18.2192 8.06477 17.5095 8.89078 17.5095L17.1685 17.5093C17.9557 17.5093 18.7019 18.1757 18.5907 19.0838ZM9.50148 19.9714C9.38504 19.7823 9.30379 19.5576 9.24565 19.2595L16.7879 19.2593C16.6354 19.9466 16.3133 20.4293 15.7841 20.6478H10.2525C9.8511 20.4156 9.63531 20.1887 9.50148 19.9714ZM11.4055 23.3314C11.2462 23.138 11.1214 22.8468 11.0293 22.3978H14.9567C14.8619 22.9005 14.7241 23.1945 14.5649 23.374C14.3658 23.5985 13.9849 23.802 13.0194 23.7905C13.0106 23.7904 13.0018 23.7905 12.9929 23.7906C11.9859 23.8092 11.6035 23.5718 11.4055 23.3314Z" fill="#067647"/>
</svg>
