<svg width="26" height="26" viewBox="0 0 26 26" fill="none" xmlns="http://www.w3.org/2000/svg">
<path fill-rule="evenodd" clip-rule="evenodd" d="M5.12492 3.66683C5.12492 1.89492 6.56134 0.458496 8.33325 0.458496C10.1052 0.458496 11.5416 1.89492 11.5416 3.66683C11.5416 5.43874 10.1052 6.87516 8.33325 6.87516C6.56134 6.87516 5.12492 5.43874 5.12492 3.66683ZM8.33325 2.2085C7.52784 2.2085 6.87492 2.86141 6.87492 3.66683C6.87492 4.47224 7.52784 5.12516 8.33325 5.12516C9.13867 5.12516 9.79159 4.47224 9.79159 3.66683C9.79159 2.86141 9.13867 2.2085 8.33325 2.2085Z" fill="#067647"/>
<path d="M8.27259 8.04183H8.39392C9.44214 8.0418 10.3162 8.04177 11.0101 8.13506C11.7426 8.23353 12.4038 8.45015 12.9352 8.98153C13.4666 9.51291 13.6832 10.1742 13.7817 10.9066C13.875 11.6005 13.875 12.4746 13.8749 13.5228L13.8749 14.1668C13.8749 14.6501 13.4832 15.0418 12.9999 15.0418C12.5167 15.0418 12.1249 14.6501 12.1249 14.1668V13.5835C12.1249 12.4588 12.1231 11.7033 12.0473 11.1398C11.9749 10.6014 11.8498 10.371 11.6978 10.219C11.5458 10.0669 11.3153 9.94184 10.777 9.86946C10.2134 9.79369 9.45794 9.79183 8.33326 9.79183C7.20857 9.79183 6.45309 9.79369 5.88955 9.86946C5.35117 9.94184 5.12076 10.0669 4.96872 10.219C4.81669 10.371 4.6916 10.6014 4.61921 11.1398C4.54345 11.7033 4.54159 12.4588 4.54159 13.5835V14.1668C4.54159 14.6501 4.14984 15.0418 3.66659 15.0418C3.18334 15.0418 2.79159 14.6501 2.79159 14.1668L2.79159 13.5228C2.79155 12.4746 2.79152 11.6005 2.88482 10.9066C2.98329 10.1742 3.19991 9.51291 3.73129 8.98153C4.26267 8.45015 4.92394 8.23353 5.65636 8.13506C6.35027 8.04177 7.22437 8.0418 8.27259 8.04183Z" fill="#067647"/>
<path fill-rule="evenodd" clip-rule="evenodd" d="M0.623421 17.1552C0.787879 16.927 1.052 16.7918 1.33326 16.7918H10.6666C11.0432 16.7918 11.3776 17.0328 11.4967 17.3901L13.6306 23.7918H17.6666C18.1498 23.7918 18.5416 24.1836 18.5416 24.6668C18.5416 25.1501 18.1498 25.5418 17.6666 25.5418H3.66659C3.28997 25.5418 2.95559 25.3008 2.83649 24.9435L0.50316 17.9435C0.414217 17.6767 0.458964 17.3834 0.623421 17.1552ZM11.7859 23.7918L10.0359 18.5418H2.54726L4.29726 23.7918H11.7859Z" fill="#067647"/>
<path fill-rule="evenodd" clip-rule="evenodd" d="M18.8333 10.9585C17.0613 10.9585 15.6249 12.3949 15.6249 14.1668C15.6249 15.9387 17.0613 17.3752 18.8333 17.3752C20.6052 17.3752 22.0416 15.9387 22.0416 14.1668C22.0416 12.3949 20.6052 10.9585 18.8333 10.9585ZM17.3749 14.1668C17.3749 13.3614 18.0278 12.7085 18.8333 12.7085C19.6387 12.7085 20.2916 13.3614 20.2916 14.1668C20.2916 14.9722 19.6387 15.6252 18.8333 15.6252C18.0278 15.6252 17.3749 14.9722 17.3749 14.1668Z" fill="#067647"/>
<path d="M15.3333 18.5418C14.85 18.5418 14.4583 18.9336 14.4583 19.4168C14.4583 19.9001 14.85 20.2918 15.3333 20.2918H22.3333C23.1387 20.2918 23.7916 20.9447 23.7916 21.7502V22.3335C23.7916 23.1389 23.1387 23.7918 22.3333 23.7918H21.1666C20.6833 23.7918 20.2916 24.1836 20.2916 24.6668C20.2916 25.1501 20.6833 25.5418 21.1666 25.5418H22.3333C24.1052 25.5418 25.5416 24.1054 25.5416 22.3335V21.7502C25.5416 19.9782 24.1052 18.5418 22.3333 18.5418H15.3333Z" fill="#067647"/>
</svg>
