<svg width="26" height="26" viewBox="0 0 26 26" fill="none" xmlns="http://www.w3.org/2000/svg">
<path fill-rule="evenodd" clip-rule="evenodd" d="M8.62468 11.5418C8.62468 9.12558 10.5834 7.16683 12.9997 7.16683C15.4159 7.16683 17.3747 9.12558 17.3747 11.5418C17.3747 13.9581 15.4159 15.9168 12.9997 15.9168C10.5834 15.9168 8.62468 13.9581 8.62468 11.5418ZM12.9997 8.91683C11.5499 8.91683 10.3747 10.0921 10.3747 11.5418C10.3747 12.9916 11.5499 14.1668 12.9997 14.1668C14.4494 14.1668 15.6247 12.9916 15.6247 11.5418C15.6247 10.0921 14.4494 8.91683 12.9997 8.91683Z" fill="#067647"/>
<path fill-rule="evenodd" clip-rule="evenodd" d="M12.3933 0.4585L13.6061 0.4585C13.925 0.45845 14.2337 0.4584 14.4941 0.488302C14.788 0.522037 15.1066 0.601185 15.4053 0.817728C15.7036 1.03398 15.8782 1.3119 16.0023 1.5801C16.1125 1.81843 16.2099 2.11232 16.3108 2.41687L16.3227 2.45264L16.6555 3.45047C16.7436 3.67161 16.8963 3.85962 17.0925 3.98995L17.394 4.16457C17.6265 4.2798 17.8904 4.31271 18.1433 4.25835L19.3613 3.91402L19.4001 3.90299C19.7304 3.80885 20.0484 3.71823 20.324 3.6743C20.6343 3.62486 20.9845 3.61684 21.349 3.76564C21.7131 3.91427 21.9578 4.16486 22.1453 4.41675C22.3121 4.64099 22.4771 4.92842 22.6488 5.2277L23.1914 6.17268C23.3523 6.4529 23.5075 6.72322 23.6123 6.96605C23.7303 7.2395 23.8209 7.55659 23.7824 7.92492C23.7438 8.29337 23.5894 8.58481 23.4172 8.82785C23.2644 9.04355 23.0564 9.27555 22.8411 9.51588L22.8162 9.54363L22.8146 9.54535L21.79 10.6952C21.6785 10.8496 21.551 11.2032 21.551 11.5417C21.551 11.8805 21.6785 12.234 21.79 12.3884L22.8146 13.5382L22.8162 13.54L22.8411 13.5678C23.0564 13.8081 23.2644 14.0401 23.4172 14.2557C23.5894 14.4988 23.7438 14.7902 23.7824 15.1587C23.8209 15.527 23.7303 15.8441 23.6123 16.1175C23.5075 16.3604 23.3523 16.6307 23.1914 16.9109L22.6488 17.856C22.4771 18.1552 22.3121 18.4426 22.1453 18.6668C21.9578 18.9187 21.7131 19.1693 21.349 19.3179C20.9845 19.4667 20.6342 19.4587 20.324 19.4093C20.0484 19.3653 19.7304 19.2747 19.4001 19.1806L19.3613 19.1695L18.1434 18.8252C17.8904 18.7708 17.6264 18.8037 17.3939 18.919L17.0924 19.0937C16.8963 19.224 16.7436 19.412 16.6556 19.6331L16.3227 20.631L16.3108 20.6668C16.2099 20.9713 16.1125 21.2652 16.0023 21.5036C15.8782 21.7718 15.7036 22.0497 15.4053 22.2659C15.1066 22.4825 14.788 22.5616 14.4941 22.5954C14.2337 22.6253 13.925 22.6252 13.6061 22.6252H12.3933C12.0744 22.6252 11.7657 22.6253 11.5052 22.5954C11.2114 22.5616 10.8928 22.4825 10.5941 22.2659C10.2957 22.0497 10.1212 21.7718 9.99709 21.5036C9.88684 21.2652 9.78947 20.9713 9.68857 20.6668L9.67673 20.631L9.34382 19.6331C9.2558 19.412 9.1031 19.224 8.90698 19.0937L8.6055 18.919C8.37299 18.8037 8.10902 18.7708 7.85603 18.8252L6.63808 19.1695L6.59933 19.1806C6.26903 19.2747 5.95104 19.3653 5.67542 19.4093C5.36515 19.4587 5.01491 19.4667 4.65041 19.3179C4.28628 19.1693 4.04154 18.9187 3.8541 18.6668C3.68725 18.4426 3.5223 18.1552 3.35055 17.8559L2.80802 16.9109C2.64709 16.6307 2.49184 16.3604 2.38708 16.1175C2.2691 15.8441 2.17846 15.527 2.21701 15.1587C2.25558 14.7902 2.40999 14.4988 2.5822 14.2557C2.73504 14.04 2.94295 13.808 3.15832 13.5677L3.18474 13.5382L4.20944 12.3884C4.32087 12.234 4.44838 11.8805 4.44838 11.5417C4.44838 11.2032 4.32084 10.8496 4.20942 10.6952L3.18474 9.54535L3.15832 9.51587C2.94295 9.27555 2.73503 9.04355 2.58219 8.82785C2.40998 8.58481 2.25557 8.29337 2.21701 7.92493C2.17846 7.5566 2.2691 7.2395 2.38708 6.96605C2.49184 6.72322 2.64709 6.4529 2.80802 6.17268L3.35057 5.22765C3.52231 4.92839 3.68726 4.64098 3.85411 4.41675C4.04155 4.16486 4.28629 3.91427 4.65039 3.76564C5.0149 3.61684 5.36513 3.62486 5.6754 3.6743C5.95102 3.71823 6.26902 3.80885 6.59933 3.90299L6.63886 3.91425L7.85605 4.25835C8.10899 4.31271 8.37292 4.2798 8.6054 4.16457L8.90693 3.98995C9.10309 3.85962 9.25582 3.67161 9.34385 3.45047L9.6762 2.45424L9.68857 2.4169C9.78947 2.11234 9.88684 1.81844 9.99709 1.5801C10.1212 1.3119 10.2957 1.03398 10.5941 0.817728C10.8928 0.601185 11.2114 0.522037 11.5052 0.488302C11.7657 0.4584 12.0744 0.45845 12.3933 0.4585ZM11.6242 2.23963C11.6406 2.23595 11.6665 2.23129 11.7048 2.22688C11.8533 2.20984 12.0594 2.2085 12.4328 2.2085L13.5666 2.2085C13.94 2.2085 14.1461 2.20984 14.2945 2.22688C14.3329 2.23129 14.3588 2.23595 14.3752 2.23963C14.3841 2.2544 14.3971 2.27825 14.414 2.31483C14.4774 2.45182 14.5441 2.64889 14.6621 3.00484L15.0082 4.04247L15.0149 4.06006C15.2368 4.64066 15.638 5.13554 16.1608 5.47158L16.1779 5.48256L16.5565 5.70186L16.5755 5.71165C17.1855 6.02622 17.8869 6.1141 18.5556 5.95934L18.5761 5.9546L19.8391 5.59755C20.2249 5.48765 20.4402 5.42787 20.5994 5.4025C20.6394 5.39612 20.6671 5.39353 20.6852 5.39261C20.6978 5.40614 20.7163 5.42788 20.7413 5.46147C20.8383 5.59183 20.9516 5.78616 21.152 6.13524L21.654 7.00969C21.842 7.33715 21.9452 7.51957 22.0055 7.65929C22.0225 7.69878 22.0318 7.72548 22.0368 7.74212C22.0285 7.75729 22.014 7.78131 21.9893 7.8161C21.9015 7.93997 21.7629 8.09665 21.5112 8.37761L21.5097 8.37933L20.4432 9.57603L20.4267 9.59706C20.0281 10.1035 19.801 10.8718 19.801 11.5417C19.801 12.2118 20.028 12.98 20.4266 13.4865L20.4432 13.5075L21.5097 14.7043L21.5112 14.706C21.7629 14.9869 21.9015 15.1436 21.9893 15.2675C22.014 15.3023 22.0285 15.3263 22.0368 15.3415C22.0318 15.3581 22.0225 15.3848 22.0055 15.4243C21.9452 15.564 21.842 15.7464 21.654 16.0739L21.152 16.9483C20.9516 17.2974 20.8383 17.4917 20.7413 17.6221C20.7163 17.6557 20.6978 17.6774 20.6852 17.691C20.6671 17.69 20.6394 17.6875 20.5994 17.6811C20.4402 17.6557 20.2249 17.5959 19.8391 17.486L18.5761 17.1289L18.5556 17.1242C17.8869 16.9694 17.1853 17.0573 16.5753 17.372L16.5563 17.3818L16.1776 17.6011L16.1606 17.6121C15.6379 17.9482 15.2368 18.443 15.015 19.0235L15.0082 19.0411L14.6621 20.0788C14.5441 20.4348 14.4774 20.6319 14.414 20.7688C14.3971 20.8054 14.3841 20.8293 14.3752 20.844C14.3588 20.8477 14.3329 20.8524 14.2945 20.8568C14.1461 20.8738 13.94 20.8752 13.5666 20.8752H12.4328C12.0594 20.8752 11.8533 20.8738 11.7048 20.8568C11.6665 20.8524 11.6406 20.8477 11.6242 20.844C11.6153 20.8293 11.6023 20.8054 11.5854 20.7688C11.522 20.6319 11.4553 20.4348 11.3373 20.0788L10.9911 19.0411L10.9844 19.0235C10.7626 18.443 10.3615 17.9482 9.83882 17.6121L9.82174 17.6011L9.44311 17.3818L9.42413 17.372C8.81405 17.0573 8.11251 16.9694 7.44374 17.1242L7.42325 17.1289L6.16033 17.486C5.77445 17.5959 5.55922 17.6557 5.39999 17.6811C5.35997 17.6875 5.33227 17.69 5.31417 17.691C5.30158 17.6774 5.28304 17.6557 5.25805 17.6221C5.16104 17.4917 5.0478 17.2974 4.8474 16.9483L4.34539 16.0739C4.1574 15.7464 4.05419 15.564 3.99391 15.4243C3.97687 15.3848 3.96758 15.3581 3.96261 15.3415C3.97089 15.3263 3.98543 15.3023 4.01008 15.2675C4.09786 15.1436 4.23644 14.9869 4.48816 14.706L4.48969 14.7043L5.55618 13.5075L5.57274 13.4865C5.97138 12.98 6.19838 12.2118 6.19838 11.5417C6.19838 10.8718 5.97128 10.1035 5.57271 9.59706L5.55616 9.57603L4.48969 8.37933L4.48815 8.37761C4.23644 8.09665 4.09785 7.93997 4.01008 7.8161C3.98543 7.78131 3.97089 7.7573 3.96261 7.74213C3.96757 7.72549 3.97687 7.69879 3.99391 7.65929C4.05419 7.51957 4.15739 7.33715 4.34539 7.00969L4.84741 6.13524C5.04782 5.78616 5.16106 5.59183 5.25806 5.46147C5.28305 5.42789 5.30159 5.40614 5.31418 5.39261C5.33228 5.39353 5.35998 5.39612 5.4 5.4025C5.55922 5.42787 5.77445 5.48765 6.16033 5.59755L7.42331 5.9546L7.4438 5.95934C8.11245 6.1141 8.81385 6.02622 9.42387 5.71165L9.44284 5.70186L9.82153 5.48256L9.83861 5.47158C10.3614 5.13554 10.7626 4.64066 10.9844 4.06006L10.9912 4.04247L11.3373 3.00484C11.4553 2.64889 11.522 2.45182 11.5854 2.31483C11.6023 2.27825 11.6153 2.2544 11.6242 2.23963Z" fill="#067647"/>
<path d="M2.20807 20.0002C2.20807 19.5169 1.81631 19.1252 1.33307 19.1252C0.849816 19.1252 0.458065 19.5169 0.458065 20.0002L0.458036 20.1353C0.457722 21.0895 0.457507 21.7407 0.60714 22.2992C1.01168 23.8089 2.19095 24.9882 3.70073 25.3928C4.25916 25.5424 4.91033 25.5422 5.8646 25.5419L20.1348 25.5419C21.0891 25.5422 21.7403 25.5424 22.2987 25.3928C23.8085 24.9882 24.9878 23.8089 25.3923 22.2992C25.542 21.7407 25.5417 21.0896 25.5414 20.1353L25.5414 20.0002C25.5414 19.5169 25.1496 19.1252 24.6664 19.1252C24.1832 19.1252 23.7914 19.5169 23.7914 20.0002C23.7914 21.1415 23.7839 21.5405 23.702 21.8462C23.4592 22.7521 22.7517 23.4597 21.8458 23.7024C21.54 23.7843 21.141 23.7918 19.9997 23.7918L5.99973 23.7918C4.85843 23.7918 4.45943 23.7843 4.15367 23.7024C3.2478 23.4597 2.54024 22.7521 2.29751 21.8462C2.21558 21.5405 2.20807 21.1415 2.20807 20.0002Z" fill="#067647"/>
</svg>
