<svg width="26" height="20" viewBox="0 0 26 20" fill="none" xmlns="http://www.w3.org/2000/svg">
<path d="M23.3159 15.5414H24.6623C25.1453 15.5414 25.5373 15.1494 25.5373 14.6664C25.5373 14.1834 25.1453 13.7914 24.6623 13.7914H23.3113C21.7899 13.7914 21.1541 13.7821 20.6793 13.5313C20.1685 13.2619 19.7056 12.6359 18.7825 11.3876L16.0723 7.72772C15.7351 7.27229 14.9505 6.21248 13.6396 6.63625C13.0516 6.82642 12.5569 7.24644 12.1218 7.61627C12.1112 7.62527 12.1006 7.63425 12.0901 7.64318C11.956 7.75696 11.8293 7.86446 11.7146 7.94992C11.3798 8.20075 10.9586 8.14944 10.6669 7.82044C10.2703 7.3736 10.2703 6.61875 10.6669 6.17192L12.3773 4.24692C12.9618 3.58892 13.4658 3.02194 14.1424 2.83527C14.8063 2.65327 15.6813 2.70575 16.4536 2.75358L16.5703 2.76059C17.1291 2.79442 17.6693 3.04877 18.0928 3.47811C19.0378 4.43127 20.1321 5.31327 21.7281 5.31327L24.6646 5.31327C25.1476 5.31327 25.5396 4.92127 25.5396 4.43827C25.5396 3.95527 25.1476 3.56327 24.6646 3.56327L21.7281 3.56327C20.824 3.56327 20.1426 3.05927 19.3376 2.24727C18.6119 1.51227 17.6681 1.07359 16.6788 1.01292L16.5569 1.00553C15.6508 0.950792 14.6232 0.888713 13.6816 1.14711C13.1015 1.30668 12.6301 1.58742 12.2166 1.92613C12.2008 1.91844 12.1847 1.91117 12.1683 1.90434L10.5432 1.22884C9.03582 0.602336 7.35233 1.083 6.2545 2.4515C5.8205 2.99283 5.25933 3.29149 4.676 3.29149L1.3335 3.29149C0.850496 3.29149 0.458496 3.68349 0.458496 4.16649C0.458496 4.64949 0.850496 5.04149 1.3335 5.04149L4.676 5.04149C5.78433 5.04149 6.8565 4.49665 7.6195 3.54699C8.22733 2.78865 9.09066 2.52032 9.87232 2.84465L10.9036 3.2733L9.36261 5.00876C8.37327 6.12176 8.37327 7.8671 9.36261 8.98126C10.2668 9.9986 11.6994 10.1514 12.7693 9.34758C12.9338 9.22392 13.0994 9.08393 13.2581 8.94859C13.5696 8.68376 13.9231 8.38392 14.1821 8.29992C14.2113 8.29059 14.2253 8.28944 14.2253 8.28944C14.2789 8.30577 14.3991 8.40142 14.6709 8.77009L17.3876 12.4383C17.5814 12.7001 17.7591 12.9401 17.9254 13.1603L16.3718 14.663C14.6475 16.3302 13.7807 17.1667 12.8742 17.2752C12.834 17.2798 12.7937 17.2832 12.7535 17.2867L12.7517 17.2868C11.8422 17.3521 10.8209 16.6938 8.78175 15.3794L8.77077 15.3723C7.62384 14.6333 6.99025 14.225 6.23466 13.9968L6.12966 13.9653C5.37483 13.753 4.65617 13.753 3.22467 13.753H1.3335C0.850496 13.753 0.458496 14.145 0.458496 14.628C0.458496 15.111 0.850496 15.503 1.3335 15.503H3.22467C4.48931 15.503 5.12633 15.503 5.64899 15.6477L5.733 15.6733C6.2487 15.8293 6.77602 16.1688 7.82956 16.8472L7.84043 16.8542C9.99139 18.2408 11.2332 19.0413 12.6158 19.0415C12.7019 19.0415 12.7892 19.0391 12.8765 19.031H12.8963C12.9613 19.0252 13.0273 19.0193 13.0865 19.0123C14.5728 18.835 15.6438 17.8002 17.5945 15.9148L19.0626 14.4949C19.3175 14.7341 19.576 14.9246 19.8673 15.0783C20.7446 15.5414 21.6581 15.5414 23.3159 15.5414Z" fill="#067647"/>
</svg>
