<svg width="24" height="24" viewBox="0 0 24 24" fill="none" xmlns="http://www.w3.org/2000/svg">
<path fill-rule="evenodd" clip-rule="evenodd" d="M14.5252 2.41487C14.221 2.38836 13.9132 2.37484 13.6024 2.37484C9.94753 2.37484 6.73076 4.24224 4.88728 7.06654C4.73262 7.04999 4.57555 7.0415 4.4165 7.0415C2.00026 7.0415 0.0415039 9.00026 0.0415039 11.4165C0.0415039 13.6067 1.65089 15.421 3.75157 15.7413C5.10291 19.84 9.00782 22.7915 13.6024 22.7915C14.5259 22.7915 15.4224 22.6721 16.2763 22.4478C17.0785 23.373 18.2625 23.9582 19.5832 23.9582C21.9994 23.9582 23.9582 21.9994 23.9582 19.5832C23.9582 18.554 23.6028 17.6078 23.008 16.8606C23.6181 15.5591 23.9585 14.1095 23.9585 12.5832C23.9585 10.4193 23.2747 8.41208 22.1105 6.76165C22.5417 6.08385 22.7915 5.27935 22.7915 4.4165C22.7915 2.00026 20.8328 0.0415039 18.4165 0.0415039C16.7216 0.0415039 15.2517 1.00536 14.5252 2.41487ZM15.7915 4.4165C15.7915 2.96676 16.9668 1.7915 18.4165 1.7915C19.8663 1.7915 21.0415 2.96676 21.0415 4.4165C21.0415 5.86625 19.8663 7.0415 18.4165 7.0415C16.9668 7.0415 15.7915 5.86625 15.7915 4.4165ZM14.0503 4.13608C14.0445 4.2288 14.0415 4.3223 14.0415 4.4165C14.0415 6.83275 16.0003 8.7915 18.4165 8.7915C19.3236 8.7915 20.1662 8.51546 20.8649 8.04279C21.7163 9.35518 22.2085 10.9123 22.2085 12.5832C22.2085 13.6855 21.9943 14.7375 21.6047 15.7022C21.0001 15.3866 20.3125 15.2082 19.5832 15.2082C17.1669 15.2082 15.2082 17.1669 15.2082 19.5832C15.2082 20.0265 15.2741 20.4544 15.3967 20.8576C14.8185 20.978 14.2184 21.0415 13.6024 21.0415C9.93866 21.0415 6.81805 18.7934 5.57396 15.6368C7.42852 15.1293 8.7915 13.4321 8.7915 11.4165C8.7915 9.80401 7.91914 8.39526 6.62062 7.63646C8.18267 5.51081 10.7259 4.12484 13.6024 4.12484C13.7527 4.12484 13.902 4.12862 14.0503 4.13608ZM1.7915 11.4165C1.7915 9.96676 2.96676 8.7915 4.4165 8.7915C5.86625 8.7915 7.0415 9.96676 7.0415 11.4165C7.0415 12.8663 5.86625 14.0415 4.4165 14.0415C2.96676 14.0415 1.7915 12.8663 1.7915 11.4165ZM19.5832 16.9582C18.1334 16.9582 16.9582 18.1334 16.9582 19.5832C16.9582 21.0329 18.1334 22.2082 19.5832 22.2082C21.0329 22.2082 22.2082 21.0329 22.2082 19.5832C22.2082 18.1334 21.0329 16.9582 19.5832 16.9582Z" fill="#067647"/>
</svg>
