<svg width="24" height="24" viewBox="0 0 24 24" fill="none" xmlns="http://www.w3.org/2000/svg">
<path d="M2.70257 1.53591C1.83117 1.45669 1.83112 1.45716 1.83112 1.45716L2.70257 1.53591Z" fill="#067647"/>
<path fill-rule="evenodd" clip-rule="evenodd" d="M11.1075 16.9843C11.009 14.6121 10.5095 12.8171 10.0209 11.5958C9.74791 10.9134 9.47762 10.4082 9.28092 10.0804C9.26746 10.058 9.25434 10.0364 9.2416 10.0156C7.50328 10.928 5.30457 10.6535 3.84326 9.19223C2.52214 7.87111 2.05742 5.85228 1.88791 4.32662C1.80041 3.53919 1.78606 2.82793 1.7933 2.31394C1.79693 2.0562 1.80602 1.84615 1.81437 1.69865C1.81854 1.62485 1.82254 1.56658 1.8256 1.52566L1.82937 1.4775L1.83055 1.46359L1.83094 1.45925L1.83112 1.45716C1.86937 1.03651 2.20376 0.702646 2.62442 0.664404C2.62442 0.664404 2.62335 0.6645 2.70257 1.53591L2.62442 0.664404L2.62592 0.66427L2.63026 0.663888L2.64417 0.662708L2.69233 0.65893C2.73324 0.655877 2.79152 0.651878 2.86532 0.647701C3.01282 0.639351 3.22287 0.63026 3.48061 0.62663C3.9946 0.619391 4.70586 0.633747 5.49329 0.72124C7.01895 0.890758 9.03778 1.35547 10.3589 2.67659C12.0681 4.38579 12.1536 7.1038 10.6155 8.91398C10.6656 8.99096 10.7213 9.07964 10.7815 9.18003C11.0223 9.58136 11.3354 10.1699 11.6457 10.9458C11.8987 11.5783 12.1495 12.334 12.3578 13.2126C12.4801 12.9974 12.6053 12.7958 12.7303 12.6084C13.1292 12.01 13.5289 11.55 13.8322 11.2366C13.9285 11.137 14.0155 11.0519 14.09 10.9815C13.0901 9.40631 13.2773 7.29443 14.6516 5.92012C15.8156 4.75609 17.5831 4.35421 18.8967 4.20826C19.5781 4.13255 20.1931 4.12015 20.6374 4.12641C20.8603 4.12955 21.0421 4.13741 21.1701 4.14466C21.2342 4.14828 21.2849 4.15176 21.3206 4.15443L21.363 4.15775L21.3754 4.1588L21.3793 4.15915L21.3807 4.15928L21.3026 5.03078L22.174 4.95202L22.1745 4.95796L22.1756 4.97038L22.1789 5.01269C22.1816 5.04847 22.185 5.09917 22.1887 5.16321C22.1959 5.2912 22.2038 5.47302 22.2069 5.6959C22.2132 6.14019 22.2008 6.75523 22.1251 7.43662C21.9791 8.75021 21.5772 10.5177 20.4132 11.6817C19.0304 13.0645 16.901 13.2455 15.3227 12.2247C15.2609 12.2821 15.1817 12.3585 15.0897 12.4536C14.8461 12.7053 14.5166 13.0838 14.1864 13.5791C13.6315 14.4114 13.0838 15.5587 12.9225 16.9861C16.9885 17.2314 20.6159 19.0873 23.1516 21.9159C23.4741 22.2758 23.4439 22.829 23.0841 23.1515C22.7242 23.4741 22.171 23.4439 21.8485 23.0841C19.4453 20.4032 15.9293 18.7104 12.0074 18.7083C12.0049 18.7084 12.0025 18.7084 12 18.7084C11.9975 18.7084 11.9951 18.7084 11.9926 18.7083C8.07074 18.7105 4.55473 20.4032 2.15155 23.0841C1.82899 23.4439 1.27579 23.4741 0.915956 23.1515C0.556119 22.829 0.525902 22.2758 0.848466 21.9159C3.39035 19.0803 7.02932 17.2223 11.1075 16.9843ZM3.54264 2.37598C3.53736 2.83453 3.55182 3.45492 3.6272 4.13336C3.78757 5.57669 4.20256 7.07666 5.08069 7.9548C6.19652 9.07062 8.00564 9.07062 9.12146 7.9548C10.2373 6.83897 10.2373 5.02986 9.12146 3.91403C8.24333 3.03589 6.74336 2.62091 5.30003 2.46054C4.62159 2.38515 4.00119 2.3707 3.54264 2.37598ZM15.889 7.15755C16.6101 6.43651 17.8587 6.08436 19.09 5.94755C19.6068 5.89013 20.0843 5.87437 20.4583 5.87502C20.459 6.24903 20.4432 6.72652 20.3858 7.24336C20.249 8.47462 19.8968 9.72325 19.1758 10.4443C18.2682 11.3519 16.7966 11.3519 15.889 10.4443C14.9814 9.53669 14.9814 8.06516 15.889 7.15755Z" fill="#067647"/>
<path d="M22.174 4.95202C22.1358 4.53137 21.8014 4.19752 21.3807 4.15928C21.3807 4.15928 21.3818 4.15937 21.3026 5.03078C22.174 4.95156 22.174 4.95202 22.174 4.95202Z" fill="#067647"/>
</svg>
