<svg width="26" height="24" viewBox="0 0 26 24" fill="none" xmlns="http://www.w3.org/2000/svg">
<path fill-rule="evenodd" clip-rule="evenodd" d="M13.0002 2.37483C9.13347 2.37483 6.1532 4.85104 5.75408 7.82024C5.92173 7.88624 6.09056 7.9635 6.26355 8.04267L6.3616 8.08747L6.4379 8.12211C6.75604 8.26636 7.06769 8.40767 7.31628 8.62386C8.04297 9.25584 8.04227 10.09 8.04187 10.5723L8.04187 15.7611C8.04227 16.2435 8.04297 17.0776 7.31628 17.7096C7.06769 17.9258 6.75604 18.0671 6.4379 18.2113L6.3616 18.246L6.26354 18.2908C5.84015 18.4846 5.44173 18.6669 5.02441 18.7006C3.80515 18.7993 3.1222 17.9676 2.72098 17.479L2.68825 17.4392C2.58655 17.3157 2.46134 17.1706 2.32613 17.0139C2.07894 16.7274 1.79833 16.4022 1.56691 16.0994C1.18465 15.5992 0.801599 14.9997 0.611321 14.3032C0.40758 13.5574 0.40758 12.7761 0.611321 12.0303C0.749393 11.5249 0.999207 11.0789 1.32897 10.6107C1.64832 10.1574 2.07853 9.63484 2.61052 8.9887L2.63215 8.96242C2.65396 8.93593 2.6768 8.90782 2.70072 8.87839C2.97016 8.54677 3.37666 8.04647 3.99411 7.78971C4.40905 3.6734 8.39894 0.624835 13.0002 0.624835C17.6015 0.624835 21.5914 3.6734 22.0063 7.78972C22.6238 8.04648 23.0303 8.54677 23.2997 8.87838L23.3009 8.87979C23.3244 8.90872 23.3468 8.93635 23.3683 8.96242L23.3899 8.98863C23.9219 9.63478 24.3521 10.1574 24.6715 10.6107C25.0012 11.0789 25.251 11.5249 25.3891 12.0303C25.5929 12.7761 25.5929 13.5574 25.3891 14.3032C25.1988 14.9997 24.8158 15.5992 24.4335 16.0994C24.2021 16.4022 23.9216 16.7273 23.6744 17.0137C23.5392 17.1704 23.4139 17.3157 23.3122 17.4392L23.2795 17.479C23.0144 17.8018 22.6263 18.2744 22.0419 18.5294L22.0419 18.7665C22.0419 21.4837 19.3685 23.3748 16.5002 23.3748L14.1669 23.3748C13.6836 23.3748 13.2919 22.9831 13.2919 22.4998C13.2919 22.0166 13.6836 21.6248 14.1669 21.6248L16.5002 21.6248C18.7866 21.6248 20.2919 20.173 20.2919 18.7665L20.2919 18.5309C20.1093 18.4612 19.9256 18.3771 19.7369 18.2908L19.6388 18.246L19.5625 18.2113C19.2444 18.0671 18.9328 17.9258 18.6842 17.7096C17.9575 17.0776 17.9582 16.2435 17.9586 15.7611L17.9586 10.5723C17.9582 10.09 17.9575 9.25584 18.6842 8.62386C18.9328 8.40767 19.2444 8.26636 19.5625 8.12211L19.6388 8.08747L19.7369 8.04267C19.9099 7.9635 20.0787 7.88624 20.2464 7.82024C19.8472 4.85105 16.867 2.37483 13.0002 2.37483ZM21.1878 16.9584C21.1808 16.9583 21.1739 16.9582 21.1669 16.9582C21.1616 16.9582 21.1564 16.9582 21.1511 16.9583C21.1401 16.9579 21.1288 16.9573 21.1171 16.9563C21.0476 16.9507 20.9513 16.9208 20.3642 16.6534C19.9167 16.4496 19.8628 16.4154 19.8326 16.3891C19.7803 16.3437 19.7589 16.3061 19.7415 16.2355C19.7158 16.1314 19.7086 15.9931 19.7086 15.7282L19.7086 10.6053C19.7086 10.3404 19.7158 10.2021 19.7415 10.0979C19.7589 10.0273 19.7803 9.98978 19.8326 9.94435C19.8628 9.91809 19.9167 9.88389 20.3642 9.68005C20.9513 9.41264 21.0476 9.38274 21.1171 9.37711C21.1348 9.37569 21.1517 9.37492 21.1679 9.37484L21.174 9.37484C21.2875 9.37544 21.3698 9.41003 21.4691 9.48431C21.625 9.60093 21.7713 9.77594 22.0173 10.0747C22.5759 10.7533 22.9638 11.2253 23.2408 11.6185C23.5117 12.0031 23.6377 12.2598 23.701 12.4915C23.8222 12.9353 23.8222 13.3981 23.701 13.842C23.5976 14.2206 23.3698 14.6092 23.043 15.0368C22.8329 15.3118 22.6298 15.546 22.415 15.7937C22.2709 15.9599 22.1214 16.1322 21.9612 16.3269C21.7337 16.6032 21.5918 16.7623 21.451 16.8625C21.3651 16.9235 21.2903 16.9554 21.1878 16.9584ZM4.83254 9.37484L4.82649 9.37484C4.71294 9.37544 4.63064 9.41003 4.53136 9.48431C4.37548 9.60093 4.22918 9.77594 3.98317 10.0747C3.42453 10.7533 3.03663 11.2253 2.75965 11.6185C2.48877 12.0031 2.36275 12.2598 2.29946 12.4915C2.1782 12.9353 2.1782 13.3981 2.29946 13.842C2.40288 14.2206 2.63061 14.6092 2.95741 15.0368C3.1675 15.3118 3.37064 15.546 3.58546 15.7937C3.72957 15.9599 3.87902 16.1322 4.03927 16.3269C4.26676 16.6032 4.40859 16.7623 4.54949 16.8625C4.65382 16.9367 4.74191 16.9678 4.88334 16.9563C4.95287 16.9507 5.04911 16.9208 5.63622 16.6534C6.08375 16.4496 6.13769 16.4154 6.16789 16.3891C6.22013 16.3437 6.24149 16.3061 6.25893 16.2355C6.28465 16.1314 6.29185 15.9931 6.29185 15.7282L6.29185 10.6053C6.29185 10.3404 6.28465 10.2021 6.25893 10.0979C6.24149 10.0273 6.22013 9.98978 6.16789 9.94435C6.13769 9.91809 6.08375 9.88389 5.63621 9.68005C5.04911 9.41264 4.95287 9.38274 4.88333 9.37711C4.86567 9.37569 4.84878 9.37492 4.83254 9.37484Z" fill="#067647"/>
</svg>
