<svg width="26" height="26" viewBox="0 0 26 26" fill="none" xmlns="http://www.w3.org/2000/svg">
<path fill-rule="evenodd" clip-rule="evenodd" d="M10.609 0.458498H15.3909C16.1665 0.458457 16.8349 0.458421 17.3701 0.530375C17.9436 0.607491 18.4935 0.781392 18.9394 1.22735C19.3854 1.6733 19.5593 2.22311 19.6364 2.79668C19.7083 3.33186 19.7083 4.00016 19.7083 4.77579V6.05777C19.7083 6.83339 19.7083 7.50181 19.6364 8.03699C19.5593 8.61056 19.3854 9.16037 18.9394 9.60632C18.4935 10.0523 17.9436 10.2262 17.3701 10.3033C16.8349 10.3753 16.1665 10.3752 15.3909 10.3752L14.4315 10.3752L11.152 12.5615C10.8835 12.7405 10.5382 12.7572 10.2537 12.605C9.9692 12.4527 9.79159 12.1562 9.79159 11.8335V10.3715C9.3559 10.3653 8.96649 10.3486 8.62977 10.3033C8.0562 10.2262 7.50639 10.0523 7.06043 9.60632C6.61448 9.16037 6.44058 8.61056 6.36346 8.03699C6.29151 7.50179 6.29154 6.83345 6.29159 6.05779V4.7759C6.29154 4.00023 6.29151 3.33188 6.36346 2.79668C6.44058 2.22311 6.61448 1.6733 7.06043 1.22735C7.50639 0.781393 8.05619 0.607491 8.62977 0.530375C9.16496 0.458421 9.83334 0.458457 10.609 0.458498ZM8.86296 2.26477C8.48343 2.3158 8.36448 2.39818 8.29787 2.46478C8.23126 2.53139 8.14888 2.65035 8.09786 3.02987C8.04345 3.43456 8.04159 3.98381 8.04159 4.8335V6.00017C8.04159 6.84986 8.04345 7.39911 8.09786 7.8038C8.14888 8.18332 8.23126 8.30228 8.29787 8.36889C8.36448 8.4355 8.48343 8.51788 8.86296 8.5689C9.26765 8.62331 9.81689 8.62517 10.6666 8.62517C11.1498 8.62517 11.5416 9.01692 11.5416 9.50017V10.1985L13.6812 8.77213C13.825 8.6763 13.9938 8.62517 14.1666 8.62517H15.3333C16.183 8.62517 16.7322 8.62331 17.1369 8.5689C17.5164 8.51788 17.6354 8.4355 17.702 8.36889C17.7686 8.30228 17.851 8.18332 17.902 7.8038C17.9564 7.39911 17.9583 6.84986 17.9583 6.00017V4.8335C17.9583 3.98381 17.9564 3.43456 17.902 3.02987C17.851 2.65035 17.7686 2.53139 17.702 2.46478C17.6354 2.39818 17.5164 2.3158 17.1369 2.26477C16.7322 2.21036 16.183 2.2085 15.3333 2.2085H10.6666C9.81689 2.2085 9.26765 2.21036 8.86296 2.26477Z" fill="#067647"/>
<path fill-rule="evenodd" clip-rule="evenodd" d="M2.70143 20.1375C4.71632 18.7877 7.28374 18.7877 9.29864 20.1375C9.3452 20.1686 9.40771 20.2082 9.48196 20.2551C9.84369 20.4837 10.484 20.8885 10.9166 21.3648C11.1911 21.6671 11.4805 22.0963 11.5333 22.6399C11.59 23.2233 11.3591 23.7593 10.9369 24.2117C10.2986 24.8959 9.4451 25.5418 8.28625 25.5418H3.71382C2.55497 25.5418 1.70143 24.8959 1.06312 24.2117C0.641014 23.7593 0.410034 23.2233 0.466726 22.6399C0.519542 22.0963 0.808936 21.6671 1.08349 21.3648C1.51603 20.8885 2.15619 20.4839 2.51792 20.2552C2.59225 20.2082 2.65483 20.1687 2.70143 20.1375ZM8.32469 21.5914C6.89909 20.6364 5.10097 20.6364 3.67538 21.5914C3.5689 21.6627 3.45999 21.7324 3.35139 21.8019C2.9907 22.0326 2.63324 22.2613 2.37901 22.5413C2.22745 22.7082 2.20979 22.796 2.20852 22.8091C2.20852 22.8091 2.20711 22.817 2.21521 22.8377C2.2255 22.864 2.25615 22.9252 2.34267 23.0179C2.84889 23.5605 3.27005 23.7918 3.71382 23.7918H8.28625C8.73002 23.7918 9.15118 23.5605 9.6574 23.0179C9.74392 22.9252 9.77457 22.864 9.78486 22.8377C9.79345 22.8157 9.79154 22.8091 9.79154 22.8091C9.79028 22.796 9.77262 22.7082 9.62106 22.5413C9.36682 22.2613 9.00947 22.0327 8.64877 21.8019C8.54014 21.7324 8.4312 21.6627 8.32469 21.5914Z" fill="#067647"/>
<path fill-rule="evenodd" clip-rule="evenodd" d="M23.2986 20.1375C21.2837 18.7877 18.7163 18.7877 16.7014 20.1375C16.6549 20.1686 16.5924 20.2081 16.5182 20.2551C16.1564 20.4837 15.516 20.8885 15.0835 21.3648C14.8089 21.6671 14.5195 22.0963 14.4667 22.6399C14.41 23.2233 14.641 23.7593 15.0631 24.2117C15.7014 24.8959 16.555 25.5418 17.7138 25.5418H22.2862C23.4451 25.5418 24.2986 24.8959 24.9369 24.2117C25.3591 23.7593 25.59 23.2233 25.5333 22.6399C25.4805 22.0963 25.1911 21.6671 24.9166 21.3648C24.484 20.8885 23.8439 20.4839 23.4821 20.2552C23.4081 20.2084 23.3451 20.1686 23.2986 20.1375ZM17.6754 21.5914C19.101 20.6364 20.8991 20.6364 22.3247 21.5914C22.4312 21.6627 22.5401 21.7324 22.6487 21.8019C23.0094 22.0327 23.3668 22.2613 23.6211 22.5413C23.7726 22.7082 23.7903 22.796 23.7915 22.8091C23.7915 22.8091 23.7934 22.8157 23.7849 22.8377C23.7746 22.864 23.7439 22.9252 23.6574 23.0179C23.1512 23.5605 22.73 23.7918 22.2862 23.7918H17.7138C17.2701 23.7918 16.8489 23.5605 16.3427 23.0179C16.2562 22.9252 16.2255 22.864 16.2152 22.8377C16.2071 22.817 16.2085 22.8091 16.2085 22.8091C16.2098 22.796 16.2274 22.7082 16.379 22.5413C16.6332 22.2613 16.9906 22.0327 17.3513 21.802C17.4598 21.7325 17.5689 21.6627 17.6754 21.5914Z" fill="#067647"/>
<path fill-rule="evenodd" clip-rule="evenodd" d="M2.79159 14.7502C2.79159 12.9783 4.228 11.5418 5.99992 11.5418C7.77183 11.5418 9.20825 12.9783 9.20825 14.7502C9.20825 16.5221 7.77183 17.9585 5.99992 17.9585C4.228 17.9585 2.79159 16.5221 2.79159 14.7502ZM5.99992 13.2918C5.1945 13.2918 4.54159 13.9447 4.54159 14.7502C4.54159 15.5556 5.1945 16.2085 5.99992 16.2085C6.80533 16.2085 7.45825 15.5556 7.45825 14.7502C7.45825 13.9447 6.80533 13.2918 5.99992 13.2918Z" fill="#067647"/>
<path fill-rule="evenodd" clip-rule="evenodd" d="M19.9999 11.5418C18.228 11.5418 16.7916 12.9783 16.7916 14.7502C16.7916 16.5221 18.228 17.9585 19.9999 17.9585C21.7718 17.9585 23.2083 16.5221 23.2083 14.7502C23.2083 12.9783 21.7718 11.5418 19.9999 11.5418ZM18.5416 14.7502C18.5416 13.9447 19.1945 13.2918 19.9999 13.2918C20.8053 13.2918 21.4583 13.9447 21.4583 14.7502C21.4583 15.5556 20.8053 16.2085 19.9999 16.2085C19.1945 16.2085 18.5416 15.5556 18.5416 14.7502Z" fill="#067647"/>
</svg>
