<svg width="28" height="22" viewBox="0 0 28 22" fill="none" xmlns="http://www.w3.org/2000/svg">
<path fill-rule="evenodd" clip-rule="evenodd" d="M13.9998 0.791748C11.2614 0.791748 9.0415 3.01167 9.0415 5.75008C9.0415 8.48849 11.2614 10.7084 13.9998 10.7084C16.7382 10.7084 18.9582 8.48849 18.9582 5.75008C18.9582 3.01167 16.7382 0.791748 13.9998 0.791748ZM10.7915 5.75008C10.7915 3.97817 12.2279 2.54175 13.9998 2.54175C15.7718 2.54175 17.2082 3.97817 17.2082 5.75008C17.2082 7.522 15.7718 8.95842 13.9998 8.95842C12.2279 8.95842 10.7915 7.522 10.7915 5.75008Z" fill="#067647"/>
<path d="M6.41655 3.12508C4.32247 3.12508 2.62489 4.82267 2.62489 6.91675C2.62489 9.01083 4.32247 10.7084 6.41655 10.7084C6.8998 10.7084 7.29155 10.3167 7.29155 9.83342C7.29155 9.35017 6.8998 8.95842 6.41655 8.95842C5.28897 8.95842 4.37489 8.04433 4.37489 6.91675C4.37489 5.78917 5.28897 4.87508 6.41655 4.87508C6.8998 4.87508 7.29155 4.48333 7.29155 4.00008C7.29155 3.51683 6.8998 3.12508 6.41655 3.12508Z" fill="#067647"/>
<path d="M6.70466 12.0879C6.66112 11.6066 6.23567 11.2518 5.75438 11.2953C4.65943 11.3944 3.59479 11.8156 2.65645 12.5382C2.60239 12.5798 2.53117 12.6316 2.44748 12.6925C2.05001 12.9817 1.37137 13.4754 0.914019 14.0543C0.621789 14.4242 0.34851 14.9083 0.299308 15.4905C0.24778 16.1001 0.452152 16.6923 0.890302 17.2322C1.56096 18.0585 2.48123 18.8751 3.76351 18.8751C4.24675 18.8751 4.63851 18.4833 4.63851 18.0001C4.63851 17.5168 4.24675 17.1251 3.76351 17.1251C3.29741 17.1251 2.82704 16.8414 2.24908 16.1293C2.04821 15.8819 2.03562 15.7263 2.04309 15.6379C2.05289 15.5219 2.11459 15.3577 2.28723 15.1391C2.57801 14.771 2.98563 14.4714 3.38183 14.1802C3.498 14.0948 3.61319 14.0102 3.72416 13.9247C4.41292 13.3943 5.16503 13.1058 5.91206 13.0382C6.39334 12.9946 6.7482 12.5692 6.70466 12.0879Z" fill="#067647"/>
<path d="M20.9998 3.12508C20.5166 3.12508 20.1248 3.51683 20.1248 4.00008C20.1248 4.48333 20.5166 4.87508 20.9998 4.87508C22.1274 4.87508 23.0415 5.78917 23.0415 6.91675C23.0415 8.04433 22.1274 8.95842 20.9998 8.95842C20.5166 8.95842 20.1248 9.35017 20.1248 9.83342C20.1248 10.3167 20.5166 10.7084 20.9998 10.7084C23.0939 10.7084 24.7915 9.01083 24.7915 6.91675C24.7915 4.82267 23.0939 3.12508 20.9998 3.12508Z" fill="#067647"/>
<path d="M22.2453 11.2953C21.7641 11.2518 21.3386 11.6066 21.2951 12.0879C21.2515 12.5692 21.6064 12.9946 22.0877 13.0382C22.8347 13.1058 23.5868 13.3943 24.2756 13.9247C24.3865 14.0102 24.5017 14.0948 24.6178 14.1802C25.014 14.4714 25.4217 14.771 25.7125 15.1391C25.8851 15.3577 25.9468 15.5219 25.9566 15.6379C25.9641 15.7263 25.9515 15.8819 25.7506 16.1293C25.1727 16.8414 24.7023 17.1251 24.2362 17.1251C23.753 17.1251 23.3612 17.5168 23.3612 18.0001C23.3612 18.4833 23.753 18.8751 24.2362 18.8751C25.5185 18.8751 26.4388 18.0585 27.1094 17.2322C27.5476 16.6923 27.7519 16.1001 27.7004 15.4905C27.6512 14.9083 27.3779 14.4242 27.0857 14.0543C26.6284 13.4754 25.9498 12.9817 25.5524 12.6926C25.4687 12.6317 25.3973 12.5798 25.3433 12.5382C24.4049 11.8156 23.3403 11.3944 22.2453 11.2953Z" fill="#067647"/>
<path fill-rule="evenodd" clip-rule="evenodd" d="M8.97093 13.8856C12.0483 11.9827 15.9517 11.9827 19.0291 13.8856C19.1198 13.9417 19.2347 14.0089 19.3666 14.0861C19.9643 14.4358 20.9131 14.9911 21.5605 15.6491C21.9671 16.0624 22.3727 16.6259 22.4466 17.3283C22.5257 18.0798 22.2067 18.7754 21.5983 19.3774C20.593 20.372 19.3478 21.2084 17.7151 21.2084H10.2849C8.65221 21.2084 7.40699 20.372 6.40176 19.3774C5.79327 18.7754 5.4743 18.0798 5.5534 17.3283C5.62734 16.6259 6.03287 16.0624 6.43948 15.6491C7.08687 14.9911 8.03559 14.4359 8.63324 14.0862C8.76529 14.0089 8.8802 13.9417 8.97093 13.8856ZM18.1087 15.374C15.5953 13.8199 12.4047 13.8199 9.89129 15.374C9.74042 15.4673 9.57865 15.5627 9.41173 15.6611C8.81455 16.0132 8.15157 16.4042 7.68698 16.8764C7.40116 17.1669 7.30773 17.379 7.29379 17.5115C7.285 17.5949 7.28922 17.7937 7.63256 18.1334C8.48718 18.9789 9.31336 19.4584 10.2849 19.4584H17.7151C18.6867 19.4584 19.5128 18.9789 20.3675 18.1334C20.7108 17.7937 20.715 17.5949 20.7062 17.5115C20.6923 17.379 20.5989 17.1669 20.313 16.8764C19.8484 16.4042 19.1855 16.0133 18.5883 15.6611C18.4214 15.5627 18.2596 15.4673 18.1087 15.374Z" fill="#067647"/>
</svg>
