<svg width="24" height="24" viewBox="0 0 24 24" fill="none" xmlns="http://www.w3.org/2000/svg">
<path d="M1.5 0.625C1.98325 0.625 2.375 1.01675 2.375 1.5V6.44308H3.83333C4.10971 6.44308 4.37566 6.44708 4.63312 6.45096C5.45426 6.46332 6.18919 6.47439 6.90088 6.35014C7.76899 6.19859 8.50639 5.85361 9.11075 5.04985C11.2076 2.26116 15.1257 2.26116 17.2226 5.04985C17.8269 5.85361 18.5643 6.19859 19.4324 6.35014C20.1441 6.47439 20.879 6.46332 21.7002 6.45096C21.9576 6.44708 22.2236 6.44308 22.5 6.44308C22.9832 6.44308 23.375 6.83483 23.375 7.31808C23.375 7.80133 22.9832 8.19308 22.5 8.19308C22.2887 8.19308 22.0657 8.19668 21.8345 8.20041C20.9837 8.21414 20.0226 8.22964 19.1315 8.07407C17.9315 7.86457 16.7538 7.33837 15.8239 6.10156C14.4271 4.24392 11.9062 4.24392 10.5095 6.10156C9.5795 7.33837 8.40186 7.86457 7.20184 8.07407C6.31069 8.22964 5.34961 8.21414 4.4988 8.20041C4.26763 8.19668 4.04461 8.19308 3.83333 8.19308H2.375V14.3333C2.375 16.283 2.37686 17.6572 2.5167 18.6973C2.65315 19.7122 2.90638 20.277 3.3147 20.6853C3.72302 21.0936 4.28781 21.3469 5.30273 21.4833C5.65789 21.5311 6.052 21.5627 6.49468 21.5837C6.47104 21.5044 6.45833 21.4203 6.45833 21.3333L6.45833 13.1667C6.45833 12.6834 6.85008 12.2917 7.33333 12.2917C7.81658 12.2917 8.20833 12.6834 8.20833 13.1667L8.20833 21.3333C8.20833 21.4343 8.19122 21.5313 8.15974 21.6216C8.62051 21.6249 9.12106 21.625 9.66667 21.625H12.2917V9.66667C12.2917 9.18342 12.6834 8.79167 13.1667 8.79167C13.6499 8.79167 14.0417 9.18342 14.0417 9.66667L14.0417 21.625H18.125V13.1667C18.125 12.6834 18.5168 12.2917 19 12.2917C19.4832 12.2917 19.875 12.6834 19.875 13.1667V21.625H22.5C22.9832 21.625 23.375 22.0168 23.375 22.5C23.375 22.9832 22.9832 23.375 22.5 23.375H9.60164C7.73194 23.375 6.23982 23.375 5.06955 23.2177C3.86057 23.0552 2.86493 22.7104 2.07726 21.9227C1.2896 21.1351 0.944844 20.1394 0.782302 18.9305C0.624963 17.7602 0.62498 16.2681 0.625 14.3984V1.5C0.625 1.01675 1.01675 0.625 1.5 0.625Z" fill="#067647"/>
</svg>
