<svg width="26" height="24" viewBox="0 0 26 24" fill="none" xmlns="http://www.w3.org/2000/svg">
<path d="M11.0001 7.04154C10.5168 7.04154 10.1251 7.4333 10.1251 7.91654C10.1251 8.39979 10.5168 8.79154 11.0001 8.79154H15.6667C16.15 8.79154 16.5417 8.39979 16.5417 7.91654C16.5417 7.4333 16.15 7.04154 15.6667 7.04154H11.0001Z" fill="#067647"/>
<path fill-rule="evenodd" clip-rule="evenodd" d="M10.1048 0.624894C9.21863 0.624687 8.62551 0.624548 8.05625 0.763518C7.79849 0.826443 7.54672 0.910426 7.30395 1.01471C6.76509 1.24617 6.30466 1.60081 5.62795 2.12205L5.50827 2.21421C4.28768 3.15384 3.32046 3.89843 2.60937 4.56586C1.8827 5.24793 1.34698 5.91746 1.06599 6.73462C0.835309 7.40547 0.748523 8.11306 0.811836 8.817C0.889233 9.67754 1.25354 10.4457 1.80034 11.2622C2.33412 12.0593 3.09902 12.983 4.06121 14.145L8.79535 19.8623C9.65457 20.9 10.361 21.7531 11.0093 22.3376C11.69 22.9513 12.4197 23.3749 13.3334 23.3749C14.2471 23.3749 14.9768 22.9513 15.6576 22.3376C16.3059 21.7531 17.0123 20.9 17.8715 19.8623L22.6057 14.1449C23.5678 12.983 24.3327 12.0593 24.8665 11.2622C25.4133 10.4457 25.7776 9.67754 25.855 8.817C25.9183 8.11306 25.8315 7.40546 25.6008 6.73462C25.3198 5.91746 24.7841 5.24793 24.0575 4.56586C23.3464 3.89843 22.3792 3.15385 21.1586 2.21423L21.0389 2.12205C20.3622 1.60081 19.9017 1.24617 19.3629 1.01471C19.1201 0.910427 18.8683 0.826444 18.6106 0.763518C18.0413 0.624548 17.4482 0.624687 16.562 0.624894H10.1048ZM8.47128 2.46359C8.81081 2.3807 9.18076 2.37491 10.2101 2.37491H16.4567C17.4861 2.37491 17.856 2.3807 18.1956 2.46359C18.3599 2.50372 18.5194 2.55703 18.6722 2.62265C18.9842 2.75665 19.2644 2.96452 20.0537 3.57217C21.32 4.54694 22.2186 5.23998 22.8598 5.84184C23.4927 6.43585 23.7977 6.87249 23.9459 7.30368C24.0971 7.7434 24.1531 8.20375 24.112 8.66024C24.0721 9.10412 23.8835 9.58506 23.4124 10.2885C22.9341 11.0028 22.2269 11.8585 21.2266 13.0664L16.5676 18.693C15.6533 19.7972 15.0276 20.5493 14.4858 21.0378C13.9653 21.507 13.6377 21.6249 13.3334 21.6249C13.0292 21.6249 12.7015 21.507 12.1811 21.0378C11.6392 20.5493 11.0135 19.7972 10.0992 18.693L5.44019 13.0664C4.43993 11.8585 3.73276 11.0028 3.25441 10.2885C2.78335 9.58506 2.59472 9.10412 2.5548 8.66024C2.51374 8.20375 2.56968 7.7434 2.72088 7.30368C2.86915 6.87249 3.17417 6.43585 3.80703 5.84184C4.44825 5.23998 5.34688 4.54694 6.61311 3.57217C7.40243 2.96452 7.68265 2.75665 7.99461 2.62265C8.14739 2.55703 8.3069 2.50372 8.47128 2.46359Z" fill="#067647"/>
</svg>
