<svg width="26" height="26" viewBox="0 0 26 26" fill="none" xmlns="http://www.w3.org/2000/svg">
<path fill-rule="evenodd" clip-rule="evenodd" d="M15.3335 0.458496C15.8167 0.458496 16.2085 0.850247 16.2085 1.3335L16.0536 1.83071C15.8957 2.05897 15.6321 2.2085 15.3335 2.2085H10.6668C8.73503 2.2085 7.35449 2.20963 6.28507 2.32236C5.23123 2.43344 4.58074 2.64495 4.0741 2.99971C3.65605 3.29243 3.29243 3.65605 2.99971 4.0741C2.64495 4.58074 2.43344 5.23123 2.32236 6.28507C2.20963 7.35449 2.2085 8.73503 2.2085 10.6668C2.2085 12.5986 2.20963 13.9792 2.32236 15.0486C2.43344 16.1024 2.64495 16.7529 2.99971 17.2596C3.29243 17.6776 3.65605 18.0412 4.0741 18.334C4.58074 18.6887 5.23123 18.9002 6.28507 19.0113C7.35429 19.124 8.73449 19.1252 10.6657 19.1252L13.0285 11.5408L8.3335 11.5418C7.85025 11.5418 7.4585 11.1501 7.4585 10.6668C7.4585 10.1836 7.85025 9.79183 8.3335 9.79183H13.5734L16.0536 1.83071C16.0536 1.83074 16.0536 1.83068 16.0536 1.83071L13.5734 9.79183H14.4886L14.4998 9.64767C14.5554 8.92699 14.5985 8.36742 14.8219 7.85333C15.0459 7.33781 15.4251 6.92762 15.911 6.40197L20.392 1.54695C20.6705 1.24427 20.9288 0.963573 21.2269 0.78628C21.9402 0.362064 22.8212 0.348675 23.5469 0.75157C23.8502 0.919951 24.1859 1.26389 24.473 1.55803C24.7621 1.85246 25.0967 2.19333 25.26 2.50029C25.6471 3.22804 25.6346 4.10746 25.2264 4.82375C25.0542 5.12587 24.7803 5.38889 24.483 5.67446L19.9207 10.0687C19.3241 10.6444 18.8533 11.0987 18.2501 11.3343C17.7424 11.5326 17.2024 11.552 16.5569 11.54L13.0285 11.5408L10.6657 19.1252H15.3335C17.2653 19.1252 18.6458 19.124 19.7153 19.0113C20.7691 18.9002 21.4196 18.6887 21.9262 18.334C22.3443 18.0412 22.7079 17.6776 23.0006 17.2596C23.3554 16.7529 23.5669 16.1024 23.678 15.0486C23.7907 13.9792 23.7918 12.5986 23.7918 10.6668C23.7918 10.1836 24.1836 9.79183 24.6668 9.79183C25.1501 9.79183 25.5418 10.1836 25.5418 10.6668V10.7177C25.5418 12.5875 25.5418 14.0602 25.4183 15.232C25.292 16.4301 25.0288 17.414 24.4341 18.2633C24.0243 18.8486 23.5153 19.3577 22.93 19.7675C22.0807 20.3622 21.0967 20.6254 19.8987 20.7517C18.7569 20.872 17.3294 20.8751 15.5273 20.8752C15.2617 21.8178 15.5174 22.8485 16.2286 23.5596L16.4608 23.7918H18.8335C19.3167 23.7918 19.7085 24.1836 19.7085 24.6668C19.7085 25.1501 19.3167 25.5418 18.8335 25.5418H7.16683C6.68358 25.5418 6.29183 25.1501 6.29183 24.6668C6.29183 24.1836 6.68358 23.7918 7.16683 23.7918H9.13849L9.37069 23.5596C10.0819 22.8485 10.3377 21.8178 10.0719 20.875C8.45737 20.874 7.15739 20.8629 6.10162 20.7517C4.90359 20.6254 3.91966 20.3622 3.07034 19.7675C2.48506 19.3577 1.97601 18.8486 1.56619 18.2633C0.971494 17.414 0.708279 16.4301 0.581999 15.232C0.458478 14.0602 0.458486 12.5875 0.458496 10.7177C0.458486 8.84792 0.458478 7.27347 0.581999 6.10162C0.708279 4.90359 0.971494 3.91966 1.56619 3.07034C1.97601 2.48506 2.48506 1.97601 3.07034 1.56619C3.91966 0.971494 4.90359 0.708279 6.10162 0.581999C7.27347 0.458478 8.74618 0.458486 10.616 0.458496H15.3335ZM11.8628 20.8752H13.7364C13.5689 21.8741 13.7443 22.904 14.2345 23.7918H11.3648C11.855 22.904 12.0304 21.8741 11.8628 20.8752ZM22.1213 2.29038C22.2997 2.1843 22.5166 2.1812 22.6974 2.28159C22.7281 2.29867 22.9704 2.55066 23.2465 2.83776C23.4024 2.99992 23.5695 3.17374 23.7149 3.32223C23.8204 3.52053 23.8168 3.76267 23.7059 3.95724C23.6765 4.00883 23.6117 4.08368 23.1983 4.48188L18.8099 8.70862C18.0587 9.43215 17.8493 9.61205 17.6134 9.7042C17.3925 9.79045 17.1401 9.80321 16.2447 9.78168C16.3079 8.98398 16.3395 8.75183 16.4269 8.55067C16.5179 8.34109 16.6735 8.15595 17.278 7.50106L21.6107 2.80683C22.0015 2.3834 22.0737 2.31868 22.1213 2.29038Z" fill="#067647"/>
<path d="M16.2085 1.3335L16.0536 1.83071C16.1512 1.68953 16.2085 1.51815 16.2085 1.3335Z" fill="#067647"/>
</svg>
