<svg width="26" height="26" viewBox="0 0 26 26" fill="none" xmlns="http://www.w3.org/2000/svg">
<path fill-rule="evenodd" clip-rule="evenodd" d="M5.99028 0.458496C3.89508 0.458496 2.19446 2.15491 2.19446 4.25016C2.19446 6.34542 3.89508 8.04183 5.99028 8.04183C8.08548 8.04183 9.78611 6.34542 9.78611 4.25016C9.78611 2.15491 8.08548 0.458496 5.99028 0.458496ZM3.94446 4.25016C3.94446 3.12376 4.85923 2.2085 5.99028 2.2085C7.12134 2.2085 8.03611 3.12376 8.03611 4.25016C8.03611 5.37657 7.12134 6.29183 5.99028 6.29183C4.85923 6.29183 3.94446 5.37657 3.94446 4.25016Z" fill="#067647"/>
<path d="M1.96636 12.4377C3.18724 11.159 4.61671 10.5353 5.99809 10.5212C7.37339 10.5073 8.79736 11.0962 10.0234 12.4265C10.3509 12.7818 10.9045 12.8044 11.2598 12.4769C11.6152 12.1494 11.6377 11.5959 11.3102 11.2405C9.78674 9.58745 7.9042 8.75177 5.9803 8.77133C4.06249 8.79083 2.20008 9.65877 0.700631 11.2293C0.366919 11.5788 0.379736 12.1327 0.729259 12.4664C1.07878 12.8001 1.63265 12.7873 1.96636 12.4377Z" fill="#067647"/>
<path fill-rule="evenodd" clip-rule="evenodd" d="M19.9903 13.2918C17.8951 13.2918 16.1945 14.9882 16.1945 17.0835C16.1945 19.1788 17.8951 20.8752 19.9903 20.8752C22.0855 20.8752 23.7861 19.1788 23.7861 17.0835C23.7861 14.9882 22.0855 13.2918 19.9903 13.2918ZM17.9445 17.0835C17.9445 15.9571 18.8592 15.0418 19.9903 15.0418C21.1213 15.0418 22.0361 15.9571 22.0361 17.0835C22.0361 18.2099 21.1213 19.1252 19.9903 19.1252C18.8592 19.1252 17.9445 18.2099 17.9445 17.0835Z" fill="#067647"/>
<path d="M15.9664 25.2711C17.1872 23.9924 18.6167 23.3686 19.9981 23.3546C21.3734 23.3406 22.7974 23.9295 24.0234 25.2598C24.3509 25.6152 24.9045 25.6377 25.2598 25.3102C25.6152 24.9827 25.6377 24.4292 25.3102 24.0738C23.7867 22.4208 21.9042 21.5851 19.9803 21.6047C18.0625 21.6242 16.2001 22.4921 14.7006 24.0626C14.3669 24.4121 14.3797 24.966 14.7293 25.2997C15.0788 25.6334 15.6327 25.6206 15.9664 25.2711Z" fill="#067647"/>
<path d="M9.17491 22.4729C5.86051 21.7857 3.37516 18.8538 3.37516 15.3335C3.37516 14.8502 2.98341 14.4585 2.50016 14.4585C2.01691 14.4585 1.62516 14.8502 1.62516 15.3335C1.62516 20.3317 5.66858 24.3752 10.6668 24.3752C10.9701 24.3752 11.2517 24.2181 11.4111 23.9602C11.5706 23.7022 11.5851 23.3801 11.4495 23.1088L10.2828 20.7755C10.0667 20.3433 9.54108 20.1681 9.10885 20.3842C8.67662 20.6003 8.50142 21.1259 8.71754 21.5581L9.17491 22.4729Z" fill="#067647"/>
<path d="M16.5002 1.62516C16.0169 1.62516 15.6252 2.01691 15.6252 2.50016C15.6252 2.98341 16.0169 3.37516 16.5002 3.37516H23.5002C23.9834 3.37516 24.3752 2.98341 24.3752 2.50016C24.3752 2.01691 23.9834 1.62516 23.5002 1.62516H16.5002Z" fill="#067647"/>
<path d="M16.5002 5.12516C16.0169 5.12516 15.6252 5.51691 15.6252 6.00016C15.6252 6.48341 16.0169 6.87516 16.5002 6.87516H23.5002C23.9834 6.87516 24.3752 6.48341 24.3752 6.00016C24.3752 5.51691 23.9834 5.12516 23.5002 5.12516H16.5002Z" fill="#067647"/>
<path d="M16.5002 8.62516C16.0169 8.62516 15.6252 9.01691 15.6252 9.50016C15.6252 9.98341 16.0169 10.3752 16.5002 10.3752H20.5835C21.0667 10.3752 21.4585 9.98341 21.4585 9.50016C21.4585 9.01691 21.0667 8.62516 20.5835 8.62516H16.5002Z" fill="#067647"/>
</svg>
